<svg width="32" height="32" viewBox="0 0 32 32" fill="none" xmlns="http://www.w3.org/2000/svg">
  <path
    d="M25.9511 7.90474C25.5623 7.29876 25.0119 6.83522 24.3592 6.56577C22.9421 5.97937 21.7234 5.58765 20.6329 5.36686C19.868 5.21255 19.1106 5.60071 18.7465 6.33192L18.6557 6.51472C17.8482 6.42273 16.9907 6.39187 16.0141 6.41739C15.0128 6.39246 14.1525 6.42273 13.3438 6.51472L13.2535 6.33192C12.8895 5.60071 12.1309 5.21314 11.3677 5.36746C10.2773 5.58765 9.05802 5.97937 7.64149 6.56636C6.9893 6.83582 6.43891 7.29876 6.04955 7.90533C3.33439 12.1377 2.27042 16.703 2.79723 21.8631C2.81563 22.0441 2.9134 22.2061 3.06236 22.3029C5.15121 23.662 6.95882 24.5926 8.7509 25.2324C9.50029 25.5025 10.3313 25.2004 10.7736 24.503L11.5621 23.256C10.9341 23.0115 10.321 22.7219 9.73321 22.3759C9.45773 22.2138 9.36168 21.8512 9.51869 21.5669C9.6757 21.2814 10.0271 21.1811 10.3032 21.3455C12.0521 22.3747 14.0294 22.9189 16.021 22.9189C18.0127 22.9189 19.9899 22.3747 21.7389 21.3455C22.0144 21.1811 22.3658 21.2814 22.5234 21.5669C22.6804 21.8512 22.5843 22.2138 22.3088 22.3759C21.7015 22.7337 21.0666 23.0317 20.4161 23.2804L21.2276 24.5279C21.5618 25.0413 22.1133 25.3333 22.6815 25.3333C22.8667 25.3333 23.0536 25.3019 23.2354 25.2378C25.0326 24.5974 26.8437 23.6656 28.9371 22.3034C29.0861 22.2067 29.1839 22.0441 29.2023 21.8636C29.7302 16.703 28.6663 12.1371 25.9511 7.90474ZM12.3264 18.1922C11.2188 18.1922 10.3072 16.9879 10.3072 15.5243C10.3072 14.0607 11.2188 12.8564 12.3264 12.8564C13.4341 12.8564 14.3457 14.0607 14.3457 15.5243C14.3457 16.9879 13.4341 18.1922 12.3264 18.1922ZM19.799 18.1767C18.7017 18.1767 17.7987 16.9654 17.7987 15.4928C17.7987 14.0203 18.7017 12.809 19.799 12.809C20.8963 12.809 21.7993 14.0203 21.7993 15.4928C21.7993 16.9654 20.8963 18.1767 19.799 18.1767Z"
    fill="currentColor" />

</svg>