<svg width="32" height="32" viewBox="0 0 32 32" fill="none" xmlns="http://www.w3.org/2000/svg">
  <path
    d="M14.5407 3.08925C8.54857 3.73395 3.7288 8.50474 3.07748 14.307C2.42616 20.3672 5.94329 25.7827 11.2841 27.8458C11.6749 27.9747 12.0657 27.7168 12.0657 27.2011V25.138C12.0657 25.138 11.5446 25.267 10.8933 25.267C9.06962 25.267 8.28804 23.7197 8.15778 22.8171C8.02751 22.3013 7.76698 21.9145 7.37619 21.5277C6.9854 21.3988 6.85514 21.3988 6.85514 21.2698C6.85514 21.0119 7.24593 21.0119 7.37619 21.0119C8.15778 21.0119 8.80909 21.9145 9.06962 22.3013C9.72094 23.3329 10.5025 23.5907 10.8933 23.5907C11.4144 23.5907 11.8052 23.4618 12.0657 23.3329C12.196 22.4303 12.5867 21.5277 13.3683 21.0119C10.3723 20.3672 8.15778 18.691 8.15778 15.8543C8.15778 14.436 8.80909 13.0176 9.72094 11.9861C9.59068 11.7282 9.46041 11.0835 9.46041 10.181C9.46041 9.6652 9.46041 8.89156 9.85121 8.11791C9.85121 8.11791 11.6749 8.11792 13.4986 9.79414C14.1499 9.53626 15.0618 9.40732 15.9736 9.40732C16.8855 9.40732 17.7973 9.53626 18.5789 9.79414C20.2723 8.11792 22.2263 8.11791 22.2263 8.11791C22.4868 8.89156 22.4868 9.6652 22.4868 10.181C22.4868 11.2125 22.3565 11.7282 22.2263 11.9861C23.1381 13.0176 23.7894 14.307 23.7894 15.8543C23.7894 18.691 21.575 20.3672 18.5789 21.0119C19.3605 21.6566 19.8815 22.8171 19.8815 23.9776V27.33C19.8815 27.7168 20.2723 28.1036 20.7934 27.9747C25.6131 26.0406 29 21.3988 29 15.9833C29 8.24686 22.3565 2.18666 14.5407 3.08925Z"
    fill="currentColor" />

</svg>