<svg width="32" height="32" viewBox="0 0 32 32" fill="none" xmlns="http://www.w3.org/2000/svg">
  <path
    d="M27.5468 5.64494C27.1374 5.28454 26.4944 5.23298 25.8295 5.51008H25.8285C25.1292 5.80134 6.03537 14.3036 5.25808 14.651C5.11671 14.702 3.88199 15.1803 4.00918 16.2456C4.12271 17.2061 5.11507 17.6039 5.23625 17.6498L10.0905 19.3753C10.4125 20.4883 11.5998 24.5943 11.8623 25.4715C12.0261 26.0184 12.293 26.7369 12.7608 26.8848C13.1713 27.0491 13.5796 26.899 13.8438 26.6836L16.8116 23.8259L21.6025 27.7048L21.7166 27.7756C22.0419 27.9252 22.3536 28 22.6511 28C22.8809 28 23.1014 27.9552 23.3121 27.8657C24.0299 27.5597 24.317 26.8497 24.347 26.7692L27.9256 7.45885C28.144 6.42751 27.8405 5.90278 27.5468 5.64494ZM14.3716 20.0655L12.734 24.5989L11.0965 18.9322L23.6511 9.29882L14.3716 20.0655Z"
    fill="currentColor" />

</svg>