<svg width="32px" height="32px" viewBox="0 0 32 32" fill="none" xmlns="http://www.w3.org/2000/svg">
  <path
    d="M28 6C27.025 6.57871 25.0688 7.36741 23.9188 7.5949C23.885 7.60365 23.8575 7.6149 23.825 7.62365C22.8088 6.62121 21.4163 6 19.875 6C16.7688 6 14.25 8.51859 14.25 11.6246C14.25 11.7884 14.2362 12.0896 14.25 12.2496C10.0588 12.2496 6.86875 10.0547 4.58125 7.24992C4.3325 7.87488 4.22375 8.86232 4.22375 9.78976C4.22375 11.5409 5.5925 13.2608 7.72375 14.327C7.33125 14.4282 6.89875 14.5007 6.44875 14.5007C5.7225 14.5007 4.95375 14.3095 4.25 13.7295C4.25 13.7508 4.25 13.7708 4.25 13.7933C4.25 16.2406 6.8475 17.9068 9.1575 18.3705C8.68875 18.6467 7.74375 18.6742 7.2825 18.6742C6.9575 18.6742 5.8075 18.5255 5.5 18.468C6.1425 20.4741 8.46 21.6015 10.6688 21.6415C8.94125 22.9964 7.7425 23.4989 4.205 23.4989H3C5.235 24.9313 8.08125 26 10.9338 26C20.2213 26 25.5 18.9217 25.5 12.2496C25.5 12.1421 25.4975 11.9171 25.4938 11.6909C25.4938 11.6684 25.5 11.6471 25.5 11.6246C25.5 11.5909 25.49 11.5584 25.49 11.5247C25.4862 11.3547 25.4825 11.1959 25.4788 11.1134C26.4662 10.401 27.3225 9.51228 28 8.49984C27.0938 8.90232 26.1213 9.1723 25.1 9.29479C26.1425 8.66983 27.6238 7.17993 28 6Z"
    fill="currentColor" />
</svg>