<svg width="187" height="56" viewBox="0 0 187 56" fill="none" xmlns="http://www.w3.org/2000/svg">
  <g clip-path="url(#clip0_2441_6372)">
    <path
      d="M35.0168 34.2034C34.7466 34.7428 34.3415 35.1473 33.9363 35.2821C33.6662 35.417 33.3961 35.417 33.261 35.417H12.0571C15.0284 41.6198 21.6462 45.7999 29.0743 45.2605C36.7725 44.7212 43.3903 38.9229 44.8759 31.2369C45.2811 28.8097 45.2811 26.5173 44.8759 24.3599H27.1835L34.7467 31.9111C34.8817 32.0459 35.0168 32.3156 35.1518 32.5853C35.2869 32.855 35.2869 33.1247 35.2869 33.2595C35.1518 33.7989 35.1518 34.0686 35.0168 34.2034Z"
      fill="white" />
    <path
      d="M48.9274 24.4949C49.0629 25.5736 49.1979 26.7872 49.1979 28.0008C49.1979 39.8669 39.6087 49.4408 27.7237 49.4408C17.9997 49.4408 9.76119 42.9683 7.06006 34.0687C7.06006 33.9338 7.06006 33.9338 6.925 33.799C5.84454 30.0234 5.70953 25.8433 7.06006 21.5283C9.76119 13.3029 17.0543 7.23494 25.6979 6.56074C32.4507 6.02134 38.5283 8.58337 42.8501 12.8984C44.0656 14.2468 43.2552 16.4043 41.3645 16.4043C40.8242 16.4043 40.284 16.1346 39.8788 15.7301C36.3673 12.2242 31.3703 10.0666 25.8329 10.606C18.1347 11.2802 11.7871 17.0785 10.3014 24.6297C9.89625 27.0569 9.89625 29.3492 10.3014 31.5067H27.9939L20.4307 23.9555C20.2956 23.8206 20.1605 23.5509 20.0255 23.2813C19.8904 23.0116 19.8904 22.7419 19.8904 22.6071C19.8904 22.3373 19.8904 22.0677 20.0255 21.9328C20.2956 21.3935 20.5657 20.9889 21.106 20.8541C21.3761 20.7192 21.6462 20.7192 21.7812 20.7192H42.9851H47.4419H53.7895C50.8184 8.85305 40.1489 0.357951 27.3186 0.492794C13.0026 0.627637 0.847459 12.2241 0.0371205 26.5175C-0.773219 42.429 11.787 55.5087 27.5887 55.5087C42.85 55.5087 55.14 43.238 55.14 28.0008C55.14 26.7872 55.005 25.7084 54.87 24.4949H48.9274Z"
      fill="white" />
    <path
      d="M78.0998 20.7191L75.9388 21.9327C75.5338 21.2585 75.1288 20.8539 74.8583 20.5843C74.4533 20.3146 74.0482 20.1797 73.3728 20.1797C72.6977 20.1797 72.0222 20.4494 71.6172 20.8539C71.0767 21.2585 70.9417 21.7979 70.9417 22.3372C70.9417 23.1463 71.6172 23.8205 72.8327 24.3598L74.5883 25.0341C76.0738 25.5734 77.0193 26.2477 77.6948 27.1916C78.3698 28.1355 78.6398 29.0794 78.6398 30.2929C78.6398 31.911 78.0998 33.2595 77.0193 34.3382C75.9388 35.417 74.5883 35.9564 72.9677 35.9564C71.4822 35.9564 70.1317 35.5518 69.1862 34.6079C68.2407 33.664 67.5656 32.4505 67.4302 30.8323L70.1317 30.2929C70.2667 31.3717 70.4017 32.0459 70.8067 32.4504C71.3472 33.2595 72.1572 33.5292 73.2378 33.5292C74.0482 33.5292 74.7233 33.2595 75.2638 32.7201C75.8038 32.1808 76.0738 31.5065 76.0738 30.5627C76.0738 30.1581 76.0738 29.8884 75.9388 29.6187C75.8038 29.3491 75.6688 29.0794 75.5338 28.8097C75.3988 28.54 75.1288 28.4051 74.7233 28.1355C74.4533 27.8658 74.0482 27.731 73.6428 27.5961L72.0222 26.9219C69.5912 25.978 68.3757 24.4947 68.3757 22.4721C68.3757 21.1236 68.9162 20.0449 69.8612 19.2358C70.8067 18.2919 72.1572 17.8874 73.6428 17.8874C75.3988 17.7526 77.0193 18.6964 78.0998 20.7191Z"
      fill="white" />
    <path
      d="M85.6632 24.4952V30.8329C85.6632 32.7207 86.3387 33.5298 87.8242 33.5298C89.3098 33.5298 89.9853 32.5858 89.9853 30.8329V24.4952H92.5513V30.8329C92.5513 31.7768 92.4163 32.451 92.2813 33.1252C92.0108 33.6646 91.7408 34.204 91.2008 34.6085C90.3903 35.4176 89.3098 35.6872 87.9592 35.6872C86.6087 35.6872 85.5282 35.2827 84.7177 34.6085C84.1777 34.204 83.7727 33.6646 83.6377 33.1252C83.3672 32.5858 83.3672 31.9116 83.3672 30.8329V24.4952H85.6632Z"
      fill="white" />
    <path
      d="M99.9791 16.4041V25.7082C101.06 24.6295 102.14 24.0901 103.49 24.0901C104.976 24.0901 106.192 24.6295 107.137 25.7082C108.082 26.787 108.623 28.1354 108.623 29.8883C108.623 31.6413 108.082 32.9897 107.137 34.0685C106.192 35.1472 104.841 35.6866 103.355 35.6866C102.14 35.6866 100.924 35.1472 99.9791 34.2033V35.5518H97.4131V16.4041H99.9791ZM106.057 30.0232C106.057 28.9444 105.786 28.1354 105.246 27.4612C104.706 26.787 103.896 26.3824 103.085 26.3824C102.14 26.3824 101.33 26.6521 100.789 27.3263C100.249 28.0005 99.9791 28.8096 99.9791 29.8883C99.9791 30.9671 100.249 31.7761 100.789 32.4503C101.33 33.1246 102.14 33.3942 103.085 33.3942C104.031 33.3942 104.706 33.1246 105.246 32.4503C105.786 31.911 106.057 31.1019 106.057 30.0232Z"
      fill="white" />
    <path
      d="M131.312 35.821H127.936L126.585 34.4726C125.1 35.4165 123.479 35.821 121.723 35.821C119.427 35.821 117.402 35.012 115.511 33.5287C113.62 31.7758 112.54 29.6183 112.54 26.9214C112.54 24.3594 113.485 22.0671 115.376 20.3141C117.132 18.5612 119.292 17.7521 121.723 17.7521C123.884 17.7521 125.91 18.5612 127.666 20.0444C129.827 21.7974 130.772 24.2246 130.772 27.0562C130.772 29.3486 129.962 31.3712 128.206 33.1242L131.312 35.821ZM124.019 28.5395L126.585 31.1015C127.666 29.8879 128.206 28.5395 128.206 26.7866C128.206 24.8988 127.531 23.2807 126.315 22.0671C125.1 20.8535 123.479 20.1793 121.723 20.1793C119.833 20.1793 118.347 20.8535 117.132 22.0671C115.916 23.2807 115.376 24.8988 115.376 26.7866C115.376 28.6744 116.051 30.1577 117.267 31.3712C118.617 32.5848 120.103 33.259 121.723 33.259C122.804 33.259 123.884 32.9894 124.83 32.45L120.778 28.4047H124.019V28.5395Z"
      fill="white" />
    <path
      d="M138.065 24.4952V30.8329C138.065 32.7207 138.74 33.5298 140.226 33.5298C141.711 33.5298 142.387 32.5858 142.387 30.8329V24.4952H144.953V30.8329C144.953 31.7768 144.818 32.451 144.683 33.1252C144.413 33.6646 144.142 34.204 143.602 34.6085C142.792 35.4176 141.712 35.6872 140.361 35.6872C139.01 35.6872 137.93 35.2827 137.12 34.6085C136.579 34.204 136.174 33.6646 136.039 33.1252C135.769 32.5858 135.769 31.9116 135.769 30.8329V24.4952H138.065Z"
      fill="white" />
    <path
      d="M159.944 30.5636H151.976C152.111 31.5075 152.381 32.1817 152.921 32.7211C153.461 33.2604 154.137 33.5301 154.947 33.5301C155.622 33.5301 156.162 33.3953 156.568 33.1256C156.973 32.8559 157.378 32.3166 157.918 31.5075L160.079 32.7211C159.809 33.2604 159.404 33.7998 158.998 34.2043C158.593 34.6089 158.188 34.8785 157.783 35.1482C157.378 35.4179 156.838 35.5528 156.432 35.6876C155.892 35.8225 155.352 35.8225 154.812 35.8225C153.191 35.8225 151.841 35.2831 150.895 34.2043C149.95 33.1256 149.41 31.7772 149.41 30.0242C149.41 28.2713 149.95 26.9228 150.895 25.8441C151.841 24.7653 153.191 24.226 154.812 24.226C156.432 24.226 157.783 24.7653 158.593 25.7092C159.539 26.788 159.944 28.1364 159.944 30.0242V30.5636ZM157.243 28.5409C156.838 27.1925 156.027 26.5183 154.677 26.5183C154.407 26.5183 154.137 26.5183 153.866 26.6531C153.596 26.788 153.326 26.9228 153.191 27.0577C152.921 27.1925 152.786 27.4622 152.651 27.7319C152.516 28.0016 152.381 28.2713 152.246 28.5409H157.243Z"
      fill="white" />
    <path
      d="M164.401 24.4956H166.967V25.4395C167.372 24.9001 167.912 24.6305 168.182 24.4956C168.587 24.3608 168.992 24.226 169.533 24.226C170.208 24.226 170.883 24.4956 171.694 24.9001L170.478 27.1925C169.938 26.788 169.533 26.6531 169.128 26.6531C167.777 26.6531 167.102 27.7319 167.102 29.7545V35.5528H164.536V24.4956H164.401Z"
      fill="white" />
    <path
      d="M179.393 33.3949L174.396 24.4952H177.367L180.743 30.8329L183.849 24.4952H186.686L177.907 41.4855H174.936L179.393 33.3949Z"
      fill="white" />
  </g>
  <defs>
    <clipPath id="clip0_2441_6372">
      <rect width="186.9" height="56" fill="white" />
    </clipPath>
  </defs>
</svg>