<svg width="264" height="56" viewBox="0 0 264 56" fill="none" xmlns="http://www.w3.org/2000/svg">
  <path
    d="M81.2158 36.213C82.7198 36.213 83.8478 36.0264 84.5998 35.653C85.3518 35.2797 85.7278 34.533 85.7278 33.7864C85.7278 32.853 85.3518 32.293 84.5998 31.733C83.8478 31.173 82.7198 30.613 80.8398 29.8664C79.7118 29.493 78.7718 29.1197 77.8318 28.5597C76.8918 28.1864 76.1398 27.6264 75.5758 27.0664C75.0118 26.5064 74.4478 25.7597 74.0718 25.013C73.6958 24.0797 73.5078 23.1464 73.5078 22.0264C73.5078 19.7864 74.4478 17.9197 76.1398 16.613C77.8318 15.3064 80.0878 14.5597 83.0958 14.5597C84.5998 14.5597 85.9158 14.7464 87.2318 14.933C88.5478 15.1197 89.6758 15.493 90.2398 15.6797L89.1118 20.533C88.5478 20.1597 87.6078 19.973 86.6678 19.7864C85.7278 19.5997 84.5998 19.413 83.2838 19.413C82.1558 19.413 81.2158 19.5997 80.4638 19.973C79.7118 20.3464 79.3358 20.9064 79.3358 21.8397C79.3358 22.213 79.3358 22.5864 79.5238 22.9597C79.7118 23.333 79.8998 23.5197 80.2758 23.893C80.6518 24.0797 81.0278 24.453 81.5918 24.6397C82.1558 24.8264 82.9078 25.1997 83.6598 25.3864C84.9758 25.9464 86.2918 26.5064 87.2318 26.8797C88.1718 27.4397 88.9238 27.9997 89.6758 28.5597C90.2398 29.1197 90.8038 29.8664 90.9918 30.613C91.3678 31.3597 91.3678 32.4797 91.3678 33.5997C91.3678 36.0264 90.4278 37.893 88.7358 39.1997C87.0438 40.5064 84.4118 41.0664 81.2158 41.0664C78.9598 41.0664 77.2678 40.8797 75.9518 40.5064C74.6358 40.133 73.6958 39.9464 73.1318 39.573L74.0718 34.7197C75.0118 35.093 75.9518 35.4664 77.0798 35.653C78.2078 36.213 79.7118 36.213 81.2158 36.213Z"
    fill="white" />
  <path
    d="M116.184 39.76C115.056 40.1334 113.552 40.32 111.86 40.6934C109.98 41.0667 108.1 41.2534 106.032 41.2534C103.964 41.2534 102.272 40.88 100.956 40.32C99.6399 39.76 98.5119 39.0134 97.7599 37.8934C97.0079 36.7734 96.4439 35.6534 96.0679 34.16C95.6919 32.6667 95.5039 31.1734 95.5039 29.4934V15.12H101.332V28.3734C101.332 31.1734 101.708 33.04 102.46 34.16C103.212 35.28 104.716 35.84 106.596 35.84C107.348 35.84 108.1 35.84 108.852 35.6534C109.604 35.6534 110.168 35.4667 110.544 35.4667V14.9333H116.372V39.76H116.184Z"
    fill="white" />
  <path
    d="M139.12 27.8134C139.12 25.3867 138.556 23.3334 137.616 21.84C136.676 20.3467 135.172 19.6 132.916 19.6C131.976 19.6 131.036 19.7867 130.096 19.9734C129.344 20.3467 128.592 20.5334 128.028 20.9067V35.4667C128.404 35.6534 128.968 35.6534 129.532 35.84C130.284 35.84 131.036 36.0267 131.976 36.0267C134.044 36.0267 135.736 35.28 137.052 33.7867C138.556 32.2934 139.12 30.24 139.12 27.8134ZM145.136 27.8134C145.136 29.8667 144.76 31.7334 144.196 33.4134C143.632 35.0934 142.692 36.4 141.564 37.52C140.436 38.64 139.12 39.5734 137.616 40.1334C136.112 40.6934 134.232 41.0667 132.352 41.0667C130.472 41.0667 128.592 40.88 126.9 40.6934C125.208 40.32 123.704 40.1334 122.576 39.76V3.73338L128.404 2.80005V15.8667C129.156 15.4934 129.908 15.12 130.848 14.9334C131.788 14.56 132.916 14.56 134.044 14.56C135.736 14.56 137.428 14.9334 138.744 15.4934C140.06 16.0534 141.376 16.9867 142.316 18.1067C143.256 19.2267 144.008 20.72 144.384 22.4C144.76 24.08 145.136 25.9467 145.136 27.8134Z"
    fill="white" />
  <path
    d="M156.228 36.213C157.732 36.213 158.86 36.0264 159.612 35.653C160.364 35.2797 160.74 34.533 160.74 33.7864C160.74 32.853 160.364 32.293 159.612 31.733C158.86 31.173 157.732 30.613 155.852 29.8664C154.724 29.493 153.784 29.1197 152.844 28.5597C151.904 28.1864 151.152 27.6264 150.588 27.0664C150.024 26.5064 149.46 25.7597 149.084 25.013C148.708 24.0797 148.52 23.1464 148.52 22.0264C148.52 19.7864 149.46 17.9197 151.152 16.613C152.844 15.3064 155.1 14.5597 158.108 14.5597C159.612 14.5597 160.928 14.7464 162.244 14.933C163.56 15.1197 164.688 15.493 165.252 15.6797L164.124 20.533C163.56 20.1597 162.62 19.973 161.68 19.7864C160.74 19.5997 159.612 19.413 158.296 19.413C157.168 19.413 156.228 19.5997 155.476 19.973C154.724 20.3464 154.348 20.9064 154.348 21.8397C154.348 22.213 154.348 22.5864 154.536 22.9597C154.724 23.333 154.912 23.5197 155.288 23.893C155.664 24.0797 156.04 24.453 156.604 24.6397C157.168 24.8264 157.92 25.1997 158.672 25.3864C159.988 25.9464 161.304 26.5064 162.244 26.8797C163.184 27.4397 163.936 27.9997 164.688 28.5597C165.252 29.1197 165.816 29.8664 166.004 30.613C166.38 31.3597 166.38 32.4797 166.38 33.5997C166.38 36.0264 165.44 37.893 163.748 39.1997C162.056 40.5064 159.424 41.0664 156.228 41.0664C153.972 41.0664 152.28 40.8797 150.964 40.5064C149.648 40.133 148.708 39.9464 148.144 39.573L149.084 34.7197C150.024 35.093 150.964 35.4664 152.092 35.653C153.22 36.213 154.536 36.213 156.228 36.213Z"
    fill="white" />
  <path
    d="M193.264 27.813C193.264 29.8664 192.888 31.733 192.324 33.2264C191.76 34.9064 191.008 36.213 189.88 37.5197C188.752 38.6397 187.624 39.573 186.12 40.3197C184.616 40.8797 182.924 41.253 181.232 41.253C179.352 41.253 177.848 40.8797 176.344 40.3197C174.84 39.7597 173.524 38.8264 172.584 37.5197C171.456 36.3997 170.704 34.9064 170.14 33.2264C169.576 31.5464 169.2 29.8664 169.2 27.813C169.2 25.7597 169.576 24.0797 170.14 22.3997C170.704 20.7197 171.644 19.413 172.584 18.1064C173.712 16.9864 175.028 16.053 176.344 15.493C177.848 14.933 179.352 14.5597 181.232 14.5597C183.112 14.5597 184.616 14.933 186.12 15.493C187.624 16.053 188.94 16.9864 189.88 18.1064C191.008 19.2264 191.76 20.7197 192.324 22.3997C193.076 23.893 193.264 25.7597 193.264 27.813ZM187.436 27.813C187.436 25.1997 186.872 23.333 185.744 21.8397C184.616 20.3464 183.112 19.5997 181.232 19.5997C179.352 19.5997 177.848 20.3464 176.72 21.8397C175.592 23.333 175.216 25.1997 175.216 27.813C175.216 30.4264 175.78 32.4797 176.72 33.7864C177.848 35.2797 179.352 36.0264 181.232 36.0264C183.112 36.0264 184.616 35.2797 185.744 33.7864C186.872 32.293 187.436 30.4264 187.436 27.813Z"
    fill="white" />
  <path
    d="M196.648 27.813C196.648 25.9464 197.024 24.2664 197.588 22.5864C198.152 20.9064 198.904 19.5997 200.032 18.293C201.16 17.173 202.476 16.2397 203.98 15.493C205.484 14.7464 207.176 14.5597 209.244 14.5597C211.688 14.5597 213.944 14.933 216.012 15.8664L214.696 20.7197C213.944 20.3464 213.192 20.1597 212.44 19.973C211.688 19.7864 210.748 19.5997 209.808 19.5997C207.552 19.5997 205.86 20.3464 204.544 21.8397C203.416 23.333 202.852 25.1997 202.852 27.813C202.852 30.4264 203.416 32.293 204.544 33.7864C205.672 35.2797 207.552 36.0264 210.184 36.0264C211.124 36.0264 212.064 35.8397 213.192 35.653C214.32 35.4664 215.072 35.2797 215.636 34.9064L216.388 39.7597C215.824 40.133 214.696 40.3197 213.38 40.693C212.064 40.8797 210.748 41.0664 209.432 41.0664C207.364 41.0664 205.484 40.693 203.792 40.133C202.288 39.3864 200.972 38.453 199.844 37.333C198.904 36.213 197.964 34.7197 197.588 33.0397C197.024 31.5464 196.648 29.6797 196.648 27.813Z"
    fill="white" />
  <path
    d="M225.412 40.5071H219.584V15.1204H225.412V40.5071ZM225.976 7.65372C225.976 8.77372 225.6 9.70706 224.848 10.2671C224.096 10.8271 223.532 11.2004 222.404 11.2004C221.464 11.2004 220.524 10.8271 219.772 10.2671C219.02 9.70706 218.644 8.77372 218.644 7.65372C218.644 6.53372 219.02 5.60039 219.772 5.04039C220.524 4.48039 221.276 4.10706 222.404 4.10706C223.344 4.10706 224.284 4.48039 224.848 5.04039C225.412 5.60039 225.976 6.53372 225.976 7.65372Z"
    fill="white" />
  <path
    d="M240.452 36.3997C242.332 36.3997 243.648 36.213 244.588 36.0264V29.493C244.212 29.3064 243.836 29.3064 243.272 29.1197C242.708 28.933 241.956 28.933 241.204 28.933C240.64 28.933 239.888 28.933 239.324 29.1197C238.76 29.3064 238.008 29.3064 237.632 29.6797C237.068 29.8664 236.692 30.2397 236.316 30.7997C235.94 31.173 235.752 31.9197 235.752 32.4797C235.752 33.7864 236.128 34.9064 237.068 35.4664C237.82 36.213 238.948 36.3997 240.452 36.3997ZM239.888 14.5597C241.768 14.5597 243.46 14.7464 244.776 15.3064C246.092 15.8664 247.22 16.4264 247.972 17.3597C248.724 18.293 249.288 19.2264 249.664 20.533C250.04 21.8397 250.228 23.1464 250.228 24.6397V39.9464C249.288 40.133 247.972 40.3197 246.092 40.693C244.212 41.0664 242.332 41.0664 240.076 41.0664C238.572 41.0664 237.256 40.8797 235.94 40.693C234.624 40.3197 233.684 39.9464 232.744 39.1997C231.804 38.6397 231.24 37.7064 230.676 36.5864C230.112 35.4664 229.924 34.3464 229.924 32.6664C229.924 31.173 230.112 30.053 230.676 28.933C231.24 27.9997 231.992 27.0664 232.932 26.5064C233.872 25.9464 235 25.3864 236.316 25.1997C237.632 24.8264 238.948 24.8264 240.264 24.8264C240.828 24.8264 241.58 24.8264 242.332 25.013C243.084 25.013 243.836 25.1997 244.588 25.3864V24.453C244.588 23.7064 244.588 23.1464 244.4 22.5864C244.212 22.0264 244.024 21.4664 243.46 20.9064C243.084 20.3464 242.52 19.973 241.956 19.7864C241.392 19.5997 240.452 19.413 239.512 19.413C238.196 19.413 236.88 19.5997 235.752 19.7864C234.624 19.973 233.684 20.1597 232.932 20.533L232.18 15.8664C232.932 15.6797 234.06 15.3064 235.376 15.1197C236.88 14.5597 238.384 14.5597 239.888 14.5597Z"
    fill="white" />
  <path d="M256.056 40.5067V3.73338L261.884 2.80005V40.5067H256.056Z" fill="white" />
  <path fill-rule="evenodd" clip-rule="evenodd"
    d="M55.46 28C55.46 43.4933 43.052 56 27.824 56C12.408 56 0 43.4933 0 28C0 12.5067 12.408 0 27.636 0C43.052 0 55.46 12.5067 55.46 28ZM27.636 5.97333C21.996 5.97333 17.296 10.64 17.296 16.4267V23.1467C17.296 28.9333 21.808 33.6 27.636 33.6C28.388 33.6 29.14 33.6 29.892 33.4133C30.268 33.2267 30.456 32.6667 30.08 32.48L24.252 26.6933C23.312 25.76 22.748 24.4533 22.748 23.1467V16.4267C22.748 13.6267 25.004 11.5733 27.636 11.5733C30.268 11.5733 32.524 13.8133 32.524 16.4267V16.8C32.524 18.2933 33.652 19.4133 35.156 19.4133C36.66 19.4133 37.788 18.2933 37.788 16.8V16.24C37.788 10.64 33.276 5.97333 27.636 5.97333ZM37.788 39.0133C37.788 44.8 33.276 49.28 27.448 49.28C21.808 49.28 17.108 44.6133 17.108 39.0133V38.64C17.108 37.1467 18.236 36.0267 19.74 36.0267C21.244 36.0267 22.372 37.1467 22.372 38.64V38.8267C22.372 41.6267 24.628 43.68 27.26 43.68C29.892 43.68 32.148 41.44 32.148 38.8267V32.48C32.148 31.1733 31.584 29.8667 30.644 28.9333L24.816 23.1467C24.44 22.7733 24.628 22.2133 25.004 22.2133C25.756 22.0267 26.508 22.0267 27.26 22.0267C32.9 22.0267 37.6 26.6933 37.6 32.48V39.0133H37.788Z"
    fill="white" />
</svg>