<svg width="238" height="56" viewBox="0 0 238 56" fill="none" xmlns="http://www.w3.org/2000/svg">
  <path
    d="M62.098 21.3456H66.0744C66.0744 21.3456 66.0744 12.6501 56.5564 12.4807C56.5564 12.4807 48.2507 11.5945 46.5556 18.5816C46.5556 18.5816 45.6298 23.0533 48.0942 25.2303C50.2808 27.1002 52.9528 28.3112 55.8002 28.7239C58.1472 29.1149 63.7148 30.7316 63.1538 35.5943C62.5938 40.4569 49.5155 42.2821 49.1503 32.3875H45.1214C45.1214 32.3875 44.4825 41.2648 53.401 43.1425C62.3197 45.0195 67.4307 39.7006 67.0136 33.6389C66.5965 27.5765 60.3898 25.9214 55.8914 24.9435C51.3931 23.9662 50.011 21.7884 50.4021 19.5204C50.7933 17.2517 53.7271 16.3136 56.074 16.3136C57.5304 16.2269 58.9649 16.6991 60.0845 17.6344C61.2045 18.5698 61.924 19.8975 62.098 21.3456Z"
    fill="white" />
  <path d="M71.9346 21.6716H75.9372V39.232H85.4426V21.6716H89.5503V43.4819H71.9346V21.6716Z" fill="white" />
  <path
    d="M109.591 22.1031C108.903 21.9401 108.199 21.8617 107.492 21.8687H104.884C102.778 21.7995 100.727 22.5467 99.1598 23.9541V12.6387H95.2485V43.5089H98.6124L99.1335 40.6408C100.503 42.093 102.36 42.9885 104.35 43.1571H108.053C108.053 43.1571 113.894 43.5348 115.484 35.7655C115.615 35.0688 115.681 34.3622 115.68 33.6535V31.0463C115.686 29.6549 115.429 28.2753 114.923 26.979C114.503 25.7912 113.798 24.725 112.867 23.8751C111.937 23.0244 110.812 22.4158 109.591 22.1031ZM111.378 34.6833C111.378 35.8795 110.901 37.0268 110.055 37.8726C109.21 38.7183 108.062 39.194 106.866 39.194H103.893C102.697 39.194 101.549 38.7183 100.703 37.8726C99.8569 37.0268 99.3815 35.8795 99.3815 34.6833V30.1466C99.3815 28.9504 99.8569 27.8031 100.703 26.9573C101.549 26.1116 102.697 25.6359 103.893 25.6359H106.866C108.062 25.6359 109.21 26.1116 110.055 26.9573C110.901 27.8031 111.378 28.9504 111.378 30.1466V34.6833Z"
    fill="white" />
  <path
    d="M116.318 12.6387H120.451L126.749 39.194H127.492L132.552 12.6387H139.853L145.108 39.2982H145.812L152.24 12.913H156.321L149.045 43.5089H141.769L136.58 16.941H135.85L130.935 43.5089H123.672L116.318 12.6387Z"
    fill="white" />
  <path
    d="M174.948 39.2116V21.7687H159.196V25.68H170.931V29.5906H164.803C164.803 29.5906 158.805 29.4737 157.501 33.5018C156.196 37.5298 157.501 42.3009 163.16 43.318C168.819 44.3352 170.983 40.9192 170.983 40.9192L171.452 43.318H177.737V39.2116H174.948ZM170.84 36.1482C170.84 36.1482 169.457 40.7366 163.903 39.5894C163.437 39.5033 162.994 39.3151 162.609 39.0381C162.224 38.761 161.905 38.4022 161.674 37.9873C161.443 37.5725 161.307 37.1115 161.276 36.6386C161.244 36.165 161.318 35.69 161.491 35.2486C161.491 35.2486 161.921 33.7753 164.66 33.2667H170.84V36.1482Z"
    fill="white" />
  <path d="M186.688 13.0272H182.776V43.5456H186.688V13.0272Z" fill="white" />
  <path d="M195.065 13.0272H191.152V43.5456H195.065V13.0272Z" fill="white" />
  <path
    d="M210.495 22.0763C210.495 22.0763 201.773 20.5638 199.295 28.594C199.295 28.594 197.874 34.8775 200.143 39.1147C201.098 40.6293 202.461 41.8437 204.075 42.6188C205.689 43.3932 207.491 43.6968 209.27 43.4947C215.854 43.0127 218.123 39.5841 218.123 36.9769H213.964C213.964 36.9769 213.964 39.4534 210.482 39.4924C207.001 39.5316 202.659 39.8703 202.789 34.6299H218.749C218.749 34.6299 220.262 23.0927 210.495 22.0763ZM202.907 30.8362C202.738 28.8683 204.705 25.3222 209.661 25.6217C211.044 25.6217 212.371 26.1714 213.349 27.1495C214.327 28.1275 214.877 29.4538 214.877 30.8362H202.907Z"
    fill="white" />
  <path
    d="M225.079 12.7358H229.03V21.8357H236.449V25.8114H229.068V39.2779H238V43.5277H225.079V25.9029H221.441V21.8357H225.131L225.079 12.7358Z"
    fill="white" />
  <path
    d="M37.3333 20.2532V12.4823L6.21678 0L0 3.157L0.0328623 27.3443L23.3128 36.7181L10.8794 42.0122V37.9182L5.17105 35.601L0.0328623 38.0294V52.843L6.22222 56L37.3333 41.9635V32.0069L9.33333 20.7996V14L31.5486 22.876L37.3333 20.2532Z"
    fill="white" />
</svg>