<svg width="40" height="40" viewBox="0 0 40 40" fill="none" xmlns="http://www.w3.org/2000/svg">
  <rect x="0.5" y="0.5" width="39" height="39" rx="7.5" fill="url(#paint0_linear_2550_2434)" />
  <path
    d="M19.2307 12.3077V16.9232C19.2309 17.3468 19.1137 17.7622 18.8922 18.1232C18.6858 18.4606 18.3965 18.7395 18.0518 18.9334C17.7071 19.1273 17.3185 19.2297 16.923 19.231H12.3075C11.696 19.2291 11.1101 18.9854 10.6777 18.553C10.2453 18.1206 10.0016 17.5347 9.99976 16.9232V12.3077C10.001 11.9122 10.1034 11.5236 10.2973 11.1789C10.4912 10.8342 10.7701 10.5449 11.1075 10.3385C11.4685 10.117 11.8839 9.99982 12.3075 10H16.923C17.5345 10.0018 18.1204 10.2455 18.5528 10.6779C18.9852 11.1103 19.2289 11.6962 19.2307 12.3077Z"
    fill="url(#paint1_linear_2550_2434)" />
  <path
    d="M29.9999 12.3077V16.9232C30.0001 17.3468 29.883 17.7622 29.6615 18.1232C29.455 18.4606 29.1657 18.7395 28.821 18.9334C28.4763 19.1273 28.0877 19.2297 27.6922 19.231H23.0767C22.4652 19.2291 21.8793 18.9854 21.4469 18.553C21.0145 18.1206 20.7708 17.5347 20.769 16.9232V12.3077C20.7702 11.9122 20.8726 11.5236 21.0665 11.1789C21.2604 10.8342 21.5393 10.5449 21.8767 10.3385C22.2378 10.117 22.6531 9.99982 23.0767 10H27.6922C28.3037 10.0018 28.8896 10.2455 29.322 10.6779C29.7544 11.1103 29.9981 11.6962 29.9999 12.3077Z"
    fill="url(#paint2_linear_2550_2434)" />
  <path
    d="M19.2305 23.0768V27.6923C19.2307 28.1158 19.1135 28.5312 18.8921 28.8923C18.6856 29.2296 18.3963 29.5086 18.0516 29.7024C17.7069 29.8963 17.3183 29.9988 16.9228 30H12.3073C11.6958 29.9982 11.1099 29.7544 10.6775 29.3221C10.2451 28.8897 10.0014 28.3037 9.99957 27.6923V23.0768C10.0008 22.6813 10.1032 22.2927 10.2971 21.948C10.491 21.6033 10.7699 21.3139 11.1073 21.1075C11.4684 20.886 11.8837 20.7689 12.3073 20.769H16.9228C17.5343 20.7709 18.1202 21.0146 18.5526 21.447C18.985 21.8794 19.2287 22.4653 19.2305 23.0768Z"
    fill="url(#paint3_linear_2550_2434)" />
  <path
    d="M29.9999 23.0768V27.6923C30.0001 28.1158 29.883 28.5312 29.6615 28.8923C29.455 29.2296 29.1657 29.5086 28.821 29.7024C28.4763 29.8963 28.0877 29.9988 27.6922 30H23.0767C22.4652 29.9982 21.8793 29.7544 21.4469 29.3221C21.0145 28.8897 20.7708 28.3037 20.769 27.6923V23.0768C20.7702 22.6813 20.8726 22.2927 21.0665 21.948C21.2604 21.6033 21.5393 21.3139 21.8767 21.1075C22.2378 20.886 22.6531 20.7689 23.0767 20.769H27.6922C28.3037 20.7709 28.8896 21.0146 29.322 21.447C29.7544 21.8794 29.9981 22.4653 29.9999 23.0768Z"
    fill="url(#paint4_linear_2550_2434)" />
  <path
    d="M19.2305 12.3077V16.9232C19.2307 17.3468 19.1135 17.7622 18.892 18.1232C18.531 18.3447 18.1156 18.4619 17.692 18.4617H13.0765C12.465 18.4599 11.8791 18.2162 11.4467 17.7838C11.0143 17.3514 10.7706 16.7655 10.7688 16.154V11.5385C10.7686 11.1149 10.8858 10.6995 11.1073 10.3385C11.4683 10.117 11.8837 9.99982 12.3073 10H16.9228C17.5343 10.0018 18.1202 10.2455 18.5526 10.6779C18.985 11.1103 19.2287 11.6962 19.2305 12.3077Z"
    fill="url(#paint5_linear_2550_2434)" />
  <path
    d="M30 12.3077V16.9232C30.0002 17.3468 29.8831 17.7622 29.6616 18.1232C29.3005 18.3447 28.8851 18.4619 28.4615 18.4617H23.8461C23.2346 18.4599 22.6487 18.2162 22.2163 17.7838C21.7839 17.3514 21.5402 16.7655 21.5383 16.154V11.5385C21.5382 11.1149 21.6553 10.6995 21.8768 10.3385C22.2379 10.117 22.6532 9.99982 23.0768 10H27.6923C28.3038 10.0018 28.8897 10.2455 29.3221 10.6779C29.7545 11.1103 29.9982 11.6962 30 12.3077Z"
    fill="url(#paint6_linear_2550_2434)" />
  <path
    d="M19.2305 23.0768V27.6923C19.2307 28.1158 19.1135 28.5312 18.892 28.8923C18.531 29.1138 18.1156 29.2309 17.692 29.2307H13.0765C12.465 29.2289 11.8791 28.9852 11.4467 28.5528C11.0143 28.1204 10.7706 27.5345 10.7688 26.923V22.3075C10.7686 21.8839 10.8858 21.4686 11.1073 21.1075C11.4683 20.886 11.8837 20.7689 12.3073 20.769H16.9228C17.5343 20.7709 18.1202 21.0146 18.5526 21.447C18.985 21.8794 19.2287 22.4653 19.2305 23.0768Z"
    fill="url(#paint7_linear_2550_2434)" />
  <path
    d="M30 23.0768V27.6923C30.0002 28.1158 29.8831 28.5312 29.6616 28.8923C29.3005 29.1138 28.8851 29.2309 28.4615 29.2307H23.8461C23.2346 29.2289 22.6487 28.9852 22.2163 28.5528C21.7839 28.1204 21.5402 27.5345 21.5383 26.923V22.3075C21.5382 21.8839 21.6553 21.4686 21.8768 21.1075C22.2379 20.886 22.6532 20.7689 23.0768 20.769H27.6923C28.3038 20.7709 28.8897 21.0146 29.3221 21.447C29.7545 21.8794 29.9982 22.4653 30 23.0768Z"
    fill="url(#paint8_linear_2550_2434)" />
  <rect x="0.5" y="0.5" width="39" height="39" rx="7.5" stroke="url(#paint9_linear_2550_2434)" />
  <defs>
    <linearGradient id="paint0_linear_2550_2434" x1="20" y1="0" x2="20" y2="40" gradientUnits="userSpaceOnUse">
      <stop stop-color="#75B7FF" />
      <stop offset="1" stop-color="#2A79D6" />
    </linearGradient>
    <linearGradient id="paint1_linear_2550_2434" x1="14.6152" y1="10" x2="14.6152" y2="19.231"
      gradientUnits="userSpaceOnUse">
      <stop stop-color="#2A79D6" />
      <stop offset="1" stop-color="#134692" />
    </linearGradient>
    <linearGradient id="paint2_linear_2550_2434" x1="25.3845" y1="10" x2="25.3845" y2="19.231"
      gradientUnits="userSpaceOnUse">
      <stop stop-color="#2A79D6" />
      <stop offset="1" stop-color="#134692" />
    </linearGradient>
    <linearGradient id="paint3_linear_2550_2434" x1="14.615" y1="20.769" x2="14.615" y2="30"
      gradientUnits="userSpaceOnUse">
      <stop stop-color="#2A79D6" />
      <stop offset="1" stop-color="#134692" />
    </linearGradient>
    <linearGradient id="paint4_linear_2550_2434" x1="25.3845" y1="20.769" x2="25.3845" y2="30"
      gradientUnits="userSpaceOnUse">
      <stop stop-color="#2A79D6" />
      <stop offset="1" stop-color="#134692" />
    </linearGradient>
    <linearGradient id="paint5_linear_2550_2434" x1="14.9997" y1="10" x2="14.9997" y2="18.4617"
      gradientUnits="userSpaceOnUse">
      <stop stop-color="#D2EBFF" />
      <stop offset="1" stop-color="#75B7FF" />
    </linearGradient>
    <linearGradient id="paint6_linear_2550_2434" x1="25.7692" y1="10" x2="25.7692" y2="18.4617"
      gradientUnits="userSpaceOnUse">
      <stop stop-color="#D2EBFF" />
      <stop offset="1" stop-color="#75B7FF" />
    </linearGradient>
    <linearGradient id="paint7_linear_2550_2434" x1="14.9997" y1="20.769" x2="14.9997" y2="29.2307"
      gradientUnits="userSpaceOnUse">
      <stop stop-color="#D2EBFF" />
      <stop offset="1" stop-color="#75B7FF" />
    </linearGradient>
    <linearGradient id="paint8_linear_2550_2434" x1="25.7692" y1="20.769" x2="25.7692" y2="29.2307"
      gradientUnits="userSpaceOnUse">
      <stop stop-color="#D2EBFF" />
      <stop offset="1" stop-color="#75B7FF" />
    </linearGradient>
    <linearGradient id="paint9_linear_2550_2434" x1="20" y1="0" x2="20" y2="40" gradientUnits="userSpaceOnUse">
      <stop stop-color="#D2EBFF" />
      <stop offset="1" stop-color="#2A79D6" />
    </linearGradient>
  </defs>
</svg>