<svg width="222" height="40" viewBox="0 0 222 40" fill="none" xmlns="http://www.w3.org/2000/svg">
<g clip-path="url(#clip0_1097_8952)">
<path d="M107.8 13.8221H111.814L117.134 21.2295V13.8221H120.868V26.1762H116.854L111.534 18.7687V26.1762H107.8V13.8221ZM123.76 13.8221H135.711V16.0695H127.494V18.588H134.777V20.8354H127.499V23.9228H135.715V26.1687H123.764L123.76 13.8221ZM137.709 13.8221H151.526V16.0695H146.49V26.1762H142.754V16.0695H137.713L137.709 13.8221ZM157.045 13.8221L159.491 22.5273L162.367 13.8221H166.287L169.163 22.5273L171.609 13.8221H175.25L171.795 26.1762H167.034L164.329 17.9969L161.622 26.1762H156.861L153.409 13.8221H157.045ZM208.219 13.7954H211.954V18.5687L216.901 13.7954H221.482L216.199 18.905L221.667 26.1495H217.485L213.768 21.2265L211.958 22.9865V26.1495H208.219V13.7954ZM187.112 13.8221H179.738L177.403 16.1628V26.1762H187.953L190.287 23.8369V13.8221H187.112ZM186.552 23.4073C186.552 23.7613 186.329 23.9302 185.899 23.9302H181.791C181.362 23.9302 181.138 23.7613 181.138 23.4073V16.5924C181.138 16.2369 181.362 16.0695 181.791 16.0695H185.905C186.335 16.0695 186.558 16.2369 186.558 16.5924L186.552 23.4073ZM68.9639 13.8236H73.6308L78.9508 26.1762H75.2933L74.1731 23.5554H68.4216L67.3014 26.1747H63.6425L68.9639 13.8236ZM73.2022 21.3095L71.2973 16.911L69.3925 21.3095H73.2022ZM81.0063 13.8236H92.7695V16.0695H84.7407V18.7836H91.834V21.0369H84.7407V26.1836H81.0063V13.8236ZM94.8221 13.8236H98.5564V26.1776H94.8221V13.8236ZM55.7999 18.5021V20.748H58.2249V23.9302H53.6527C53.2226 23.9302 52.998 23.7613 52.998 23.4073V16.5924C52.998 16.2369 53.2226 16.0695 53.6527 16.0695H61.2145V13.8236H51.5986L49.2637 16.1628V26.1762H59.6259L61.9607 23.8369V18.5036L55.7999 18.5021ZM202.987 21.4976H205.506V13.8221H195.518L193.183 16.1628V26.1762H196.917V21.4976H198.952L202.033 26.1762H206.066L202.987 21.4976ZM201.772 18.7273C201.772 19.0828 201.549 19.2517 201.119 19.2517H196.917V16.0695H201.126C201.556 16.0695 201.779 16.2369 201.779 16.5924L201.772 18.7273Z" fill="url(#paint0_linear_1097_8952)"/>
<path d="M51.1124 37.2327V33.2519H49.2637V32.4282H53.8921V33.2519H52.002V37.2327H51.1124Z" fill="white"/>
<path d="M55.7871 37.2327V32.4282H56.6738V37.2327H55.7871ZM56.1566 35.283L56.1639 34.446H60.2515V35.283H56.1566ZM59.82 37.2327V32.4282H60.7066V37.2327H59.82Z" fill="white"/>
<path d="M63.1543 37.2327V32.4282H67.2492V33.2386H64.0306V36.4223H67.2817V37.2327H63.1543ZM63.6346 35.1734V34.3779H66.899V35.1734H63.6346Z" fill="white"/>
<path d="M72.9648 37.2327V32.4282H73.8338L77.5726 36.1823L77.4898 36.2104C77.4676 36.0623 77.4484 35.9053 77.4322 35.7467C77.4159 35.5882 77.4041 35.4297 77.3937 35.2697C77.3834 35.1097 77.3775 34.9497 77.3701 34.7897C77.3627 34.6297 77.3583 34.4727 77.3568 34.3186C77.3553 34.1645 77.3568 34.0223 77.3568 33.8741V32.4327H78.2435V37.2371H77.3568L73.6047 33.5334L73.7141 33.486C73.7229 33.563 73.7318 33.6549 73.7407 33.7601C73.7495 33.8653 73.7614 33.9793 73.7761 34.1023C73.7909 34.2253 73.8013 34.3586 73.8131 34.4979C73.8249 34.6371 73.8338 34.7808 73.8412 34.9304C73.8486 35.0801 73.8515 35.2267 73.8515 35.3749V37.2341L72.9648 37.2327Z" fill="white"/>
<path d="M80.6738 37.2327V32.4282H84.7688V33.2386H81.5502V36.4223H84.8013V37.2327H80.6738ZM81.1541 35.1734V34.3779H84.42V35.1734H81.1541Z" fill="white"/>
<path d="M88.3711 37.2327V33.2519H86.5283V32.4282H91.1552V33.2519H89.2666V37.2327H88.3711Z" fill="white"/>
<path d="M94.2153 37.2327L92.4834 32.4282H93.4425L94.3809 35.0771C94.4119 35.1779 94.4474 35.289 94.4858 35.4075C94.5242 35.526 94.5626 35.6475 94.5996 35.7704C94.6365 35.8934 94.6705 36.0134 94.7015 36.1275C94.7326 36.2416 94.7607 36.3453 94.7843 36.4371H94.4961C94.5331 36.3141 94.5774 36.1749 94.6306 36.0223C94.6838 35.8697 94.74 35.7127 94.805 35.5512C94.87 35.3897 94.9321 35.2356 94.9971 35.0845L95.8247 33.1912H96.633L97.4399 35.0712C97.499 35.2193 97.561 35.3675 97.6261 35.5275C97.6911 35.6875 97.7472 35.8386 97.8004 35.9882C97.8479 36.119 97.8855 36.2532 97.9128 36.3897L97.6527 36.4238C97.6704 36.3512 97.6926 36.2756 97.7177 36.1793C97.7428 36.083 97.7679 35.9956 97.7931 35.8949C97.8182 35.7941 97.8463 35.6949 97.8788 35.5986C97.9113 35.5023 97.9423 35.4045 97.9748 35.3023C98.0073 35.2001 98.0384 35.1186 98.0709 35.0416L99.1245 32.4327H100.045L98.1004 37.2371H97.4561L96.1143 34.0875L96.2621 34.1141L94.9321 37.2371L94.2153 37.2327Z" fill="white"/>
<path d="M104.403 37.3008C104.001 37.3056 103.602 37.242 103.221 37.1126C102.879 36.9961 102.562 36.8167 102.286 36.5837C102.029 36.3671 101.82 36.0985 101.674 35.7956C101.532 35.4914 101.458 35.1596 101.458 34.8237C101.458 34.4878 101.532 34.1561 101.674 33.8519C101.82 33.5489 102.029 33.2804 102.286 33.0637C102.562 32.8307 102.879 32.6514 103.221 32.5348C103.989 32.2814 104.818 32.2814 105.585 32.5348C105.926 32.6504 106.242 32.8299 106.516 33.0637C106.773 33.2815 106.981 33.5498 107.13 33.8519C107.274 34.1555 107.348 34.4875 107.348 34.8237C107.348 35.1599 107.274 35.4919 107.13 35.7956C106.981 36.0976 106.773 36.3659 106.516 36.5837C106.242 36.8176 105.926 36.997 105.585 37.1126C105.205 37.242 104.805 37.3056 104.403 37.3008ZM104.403 36.4504C104.682 36.4536 104.959 36.412 105.225 36.3274C105.458 36.2517 105.676 36.1343 105.868 35.9807C106.044 35.8397 106.189 35.6631 106.293 35.4622C106.392 35.264 106.444 35.0454 106.444 34.8237C106.444 34.602 106.392 34.3834 106.293 34.1852C106.189 33.9843 106.044 33.8077 105.868 33.6667C105.676 33.5132 105.458 33.3957 105.225 33.32C104.959 33.2354 104.682 33.1939 104.403 33.197C104.125 33.1946 103.847 33.2361 103.582 33.32C103.346 33.3944 103.127 33.5119 102.934 33.6667C102.76 33.808 102.618 33.9847 102.518 34.1852C102.42 34.3839 102.37 34.6024 102.37 34.8237C102.37 35.0451 102.42 35.2635 102.518 35.4622C102.618 35.6627 102.76 35.8395 102.934 35.9807C103.127 36.1355 103.346 36.253 103.582 36.3274C103.848 36.4093 104.125 36.4488 104.403 36.4445V36.4504Z" fill="white"/>
<path d="M109.436 37.2326V32.4281H112.229C112.523 32.4221 112.815 32.4882 113.078 32.6207C113.32 32.7406 113.524 32.9245 113.669 33.1526C113.814 33.3835 113.889 33.6516 113.885 33.9244C113.888 34.2097 113.806 34.4894 113.649 34.7274C113.49 34.9663 113.273 35.1609 113.019 35.2933C112.75 35.4353 112.45 35.5076 112.146 35.5037H110.304V37.2326H109.436ZM110.304 34.7274H112.051C112.205 34.7282 112.358 34.6916 112.495 34.6207C112.625 34.5554 112.738 34.4587 112.823 34.3392C112.905 34.2246 112.949 34.0864 112.947 33.9451C112.948 33.813 112.905 33.6843 112.823 33.5807C112.735 33.4709 112.623 33.3839 112.495 33.3274C112.353 33.2624 112.198 33.2296 112.042 33.2311H110.304V34.7274ZM113.078 37.2326L111.453 35.0637L112.397 34.8918L114.17 37.24L113.078 37.2326Z" fill="white"/>
<path d="M116.37 37.2327V32.4282H117.257V37.2327H116.37ZM116.986 36.0593L116.89 35.1601L120.375 32.4282H121.621L116.986 36.0593ZM120.41 37.2327L118.328 34.6667L118.869 34.009L121.553 37.2341L120.41 37.2327Z" fill="white"/>
<path d="M129.721 37.3008C129.319 37.3056 128.919 37.242 128.538 37.1126C128.197 36.996 127.88 36.8167 127.604 36.5837C127.347 36.3671 127.138 36.0986 126.991 35.7956C126.849 35.4914 126.775 35.1596 126.775 34.8237C126.775 34.4878 126.849 34.1561 126.991 33.8519C127.138 33.5489 127.347 33.2803 127.604 33.0637C127.88 32.8307 128.197 32.6514 128.538 32.5348C129.306 32.2814 130.135 32.2814 130.903 32.5348C131.244 32.6504 131.56 32.8299 131.834 33.0637C132.09 33.2815 132.299 33.5498 132.447 33.8519C132.591 34.1555 132.666 34.4875 132.666 34.8237C132.666 35.1599 132.591 35.4919 132.447 35.7956C132.299 36.0976 132.09 36.3659 131.834 36.5837C131.56 36.8176 131.244 36.997 130.903 37.1126C130.522 37.242 130.122 37.3056 129.721 37.3008ZM129.721 36.4504C129.999 36.4536 130.277 36.412 130.542 36.3274C130.776 36.2514 130.994 36.134 131.187 35.9807C131.362 35.8393 131.507 35.6627 131.611 35.4622C131.71 35.264 131.761 35.0454 131.761 34.8237C131.761 34.602 131.71 34.3834 131.611 34.1852C131.507 33.9847 131.362 33.8082 131.187 33.6667C130.994 33.5134 130.776 33.396 130.542 33.32C130.277 33.2354 129.999 33.1939 129.721 33.197C129.442 33.1946 129.165 33.2361 128.899 33.32C128.664 33.3944 128.444 33.5119 128.252 33.6667C128.078 33.8084 127.936 33.985 127.835 34.1852C127.738 34.3839 127.687 34.6024 127.687 34.8237C127.687 35.0451 127.738 35.2635 127.835 35.4622C127.936 35.6624 128.078 35.8391 128.252 35.9807C128.444 36.1355 128.664 36.253 128.899 36.3274C129.165 36.4093 129.442 36.4488 129.721 36.4445V36.4504Z" fill="white"/>
<path d="M134.753 37.2327V32.4282H135.64V37.2327H134.753ZM135.082 35.3319V34.5186H138.458V35.329L135.082 35.3319ZM135.179 33.2579V32.4341H138.752V33.2579H135.179Z" fill="white"/>
<path d="M146.857 37.3007C146.483 37.3036 146.111 37.2507 145.752 37.1437C145.421 37.0458 145.111 36.8876 144.837 36.677C144.573 36.4712 144.36 36.207 144.215 35.9051C144.058 35.5667 143.981 35.1967 143.989 34.8236C143.987 34.486 144.065 34.1528 144.218 33.8518C144.374 33.5495 144.591 33.283 144.855 33.0696C145.139 32.8407 145.463 32.6655 145.809 32.5525C146.191 32.4253 146.59 32.3622 146.992 32.3659C147.32 32.3636 147.648 32.4029 147.967 32.4829C148.241 32.5496 148.505 32.6491 148.755 32.7792C148.953 32.8817 149.134 33.0136 149.293 33.1703L148.731 33.8014C148.573 33.6816 148.405 33.577 148.227 33.4888C148.041 33.3981 147.847 33.3261 147.646 33.274C147.431 33.2173 147.209 33.1894 146.986 33.1911C146.713 33.189 146.441 33.2305 146.18 33.314C145.945 33.3896 145.725 33.506 145.53 33.6577C145.352 33.7973 145.204 33.9723 145.096 34.1718C144.99 34.3706 144.936 34.5926 144.938 34.8177C144.93 35.0778 144.986 35.3357 145.102 35.5688C145.206 35.7724 145.358 35.9477 145.545 36.0799C145.74 36.2183 145.96 36.3187 146.192 36.3762C146.436 36.4388 146.687 36.4701 146.939 36.4696C147.19 36.4713 147.441 36.446 147.688 36.394C147.898 36.3511 148.1 36.2793 148.291 36.1807C148.445 36.1029 148.581 35.9916 148.687 35.8548C148.778 35.7368 148.824 35.5892 148.814 35.4399V35.3362L148.944 35.5362H146.94V34.7555H149.726C149.734 34.8237 149.742 34.8859 149.746 34.9407C149.751 34.9955 149.746 35.0399 149.746 35.074V35.1525C149.754 35.481 149.682 35.8063 149.536 36.1007C149.399 36.3702 149.196 36.6002 148.945 36.7688C148.666 36.9551 148.356 37.09 148.029 37.1674C147.645 37.2595 147.252 37.3043 146.857 37.3007Z" fill="white"/>
<path d="M151.067 37.2327L153.423 32.4282H154.367L156.71 37.2327H155.758L154.217 34.089L154.086 33.8253C154.047 33.7408 154.007 33.6564 153.971 33.5704C153.936 33.4845 153.897 33.4001 153.862 33.3097C153.826 33.2193 153.791 33.126 153.758 33.0253H153.99C153.955 33.1304 153.918 33.2297 153.881 33.3216C153.844 33.4134 153.807 33.5053 153.766 33.5927L153.642 33.8504C153.6 33.9349 153.56 34.0223 153.519 34.1141L151.985 37.2371L151.067 37.2327ZM152.115 36.203L152.443 35.4282H155.292L155.422 36.203H152.115Z" fill="white"/>
<path d="M158.496 37.2327V32.4282H159.338L161.523 35.1393H161.118L163.302 32.4282H164.144V37.2327H163.257V35.3586C163.257 34.9793 163.267 34.6228 163.286 34.289C163.304 33.9461 163.341 33.6044 163.395 33.2653L163.484 33.5882L161.54 35.929H161.088L159.143 33.5808L159.239 33.2653C159.293 33.6044 159.33 33.9461 159.349 34.289C159.367 34.6223 159.377 34.9793 159.377 35.3586V37.2327H158.496Z" fill="white"/>
<path d="M166.581 37.2327V32.4282H170.683V33.2386H167.465V36.4223H170.716V37.2327H166.581ZM167.061 35.1734V34.3779H170.326V35.1734H167.061Z" fill="white"/>
<path d="M176.392 37.2327V32.4282H177.278V37.2327H176.392ZM176.721 35.3319V34.5186H180.096V35.329L176.721 35.3319ZM176.816 33.2579V32.4341H180.39V33.2579H176.816Z" fill="white"/>
<path d="M182.653 37.2327V36.3956H183.92V33.2653H182.653V32.4282H186.077V33.2653H184.809V36.3956H186.077V37.2327H182.653Z" fill="white"/>
<path d="M188.6 37.2327V32.4282H189.469L193.207 36.1823L193.125 36.2104C193.101 36.0623 193.082 35.9053 193.065 35.7467C193.049 35.5882 193.037 35.4297 193.029 35.2697C193.02 35.1097 193.011 34.9497 193.005 34.7897C192.999 34.6297 192.993 34.4727 192.992 34.3186C192.99 34.1645 192.992 34.0223 192.992 33.8741V32.4327H193.878V37.2371H192.992L189.239 33.5334L189.35 33.486C189.359 33.563 189.368 33.6549 189.377 33.7601C189.386 33.8653 189.398 33.9793 189.411 34.1023C189.424 34.2253 189.438 34.3586 189.449 34.4979C189.461 34.6371 189.47 34.7808 189.476 34.9304C189.482 35.0801 189.486 35.2267 189.486 35.3749V37.2341L188.6 37.2327Z" fill="white"/>
<path d="M195.658 37.2327L198.014 32.4282H198.958L201.299 37.2327H200.349L198.807 34.089L198.677 33.8253C198.636 33.7408 198.598 33.6564 198.561 33.5704C198.524 33.4845 198.488 33.4001 198.451 33.3097C198.414 33.2193 198.38 33.126 198.349 33.0253H198.581C198.546 33.1304 198.509 33.2297 198.472 33.3216C198.435 33.4134 198.397 33.5053 198.355 33.5927C198.314 33.6801 198.274 33.766 198.232 33.8504C198.191 33.9349 198.15 34.0223 198.11 34.1141L196.576 37.2371L195.658 37.2327ZM196.706 36.203L197.034 35.4282H199.882L200.013 36.203H196.706Z" fill="white"/>
<path d="M203.085 37.2327V32.4282H203.955L207.693 36.1823L207.611 36.2104C207.588 36.0623 207.569 35.9053 207.552 35.7467C207.536 35.5882 207.524 35.4297 207.515 35.2697C207.506 35.1097 207.498 34.9497 207.492 34.7897C207.486 34.6297 207.48 34.4727 207.477 34.3186C207.474 34.1645 207.477 34.0223 207.477 33.8741V32.4327H208.364V37.2371H207.477L203.725 33.5334L203.834 33.486C203.845 33.563 203.853 33.6549 203.862 33.7601C203.871 33.8653 203.883 33.9793 203.896 34.1023C203.91 34.2253 203.923 34.3586 203.935 34.4979C203.947 34.6371 203.954 34.7808 203.961 34.9304C203.969 35.0801 203.972 35.2267 203.972 35.3749V37.2341L203.085 37.2327Z" fill="white"/>
<path d="M213.28 37.3006C212.902 37.3039 212.526 37.2449 212.168 37.1258C211.837 37.0176 211.531 36.8466 211.265 36.6221C211.009 36.4065 210.802 36.1382 210.659 35.8354C210.51 35.5193 210.434 35.1732 210.439 34.8236C210.435 34.4819 210.513 34.1442 210.665 33.8384C210.815 33.5395 211.025 33.2743 211.281 33.0591C211.549 32.8353 211.856 32.6621 212.185 32.548C212.535 32.4252 212.903 32.3636 213.273 32.3658C213.572 32.3646 213.87 32.4029 214.16 32.4799C214.426 32.5514 214.684 32.6507 214.93 32.7761C215.135 32.8761 215.327 33.0032 215.499 33.1539L214.984 33.8947C214.831 33.7653 214.667 33.6507 214.492 33.5524C214.306 33.4483 214.107 33.3686 213.901 33.3154C213.672 33.2558 213.436 33.2269 213.199 33.2295C212.969 33.2294 212.74 33.2664 212.521 33.3391C212.307 33.4106 212.107 33.5189 211.93 33.6591C211.754 33.796 211.61 33.9687 211.506 34.1658C211.398 34.375 211.344 34.6075 211.347 34.8428C211.342 35.0886 211.399 35.3317 211.513 35.5495C211.621 35.75 211.772 35.9237 211.956 36.0576C212.151 36.1969 212.367 36.3021 212.596 36.3687C212.836 36.4405 213.085 36.4764 213.335 36.4754C213.581 36.4796 213.826 36.4436 214.061 36.3687C214.257 36.3053 214.445 36.2177 214.619 36.108C214.78 36.0058 214.928 35.9065 215.063 35.8117L215.488 36.5317C215.099 36.8277 214.659 37.0501 214.191 37.188C213.894 37.2693 213.588 37.3072 213.28 37.3006Z" fill="white"/>
<path d="M217.545 37.2327V32.4282H221.638V33.2386H218.415V36.4223H221.666V37.2327H217.545ZM218.024 35.1734V34.3779H221.29V35.1734H218.024Z" fill="white"/>
<path d="M16.2275 1.46826L0 28.5823L2.76492 33.4786H9.842L16.2275 20.6742V1.46826Z" fill="white"/>
<path d="M20.7422 1.46826V20.6742L27.1277 33.4786H34.2047L36.9697 28.5823L20.7422 1.46826Z" fill="white"/>
<path d="M13.0322 36.6593L17.3311 28.04H19.6379L23.9367 36.6593L22.7841 38.5304H14.1864L13.0322 36.6593Z" fill="white"/>
<path d="M17.3311 28.04L17.8719 30.4978H19.0985L19.6379 28.04H17.3311Z" fill="url(#paint1_linear_1097_8952)"/>
<path d="M17.8721 30.4976L15.5859 35.0783L16.1992 36.0739H20.77L21.3833 35.0783L19.0986 30.4976H17.8721Z" fill="url(#paint2_linear_1097_8952)"/>
<path d="M15.5858 35.0786L13.0322 36.6594L14.1864 38.5305L16.1991 36.0742L15.5858 35.0786Z" fill="url(#paint3_linear_1097_8952)"/>
<path d="M16.1993 36.0742H20.77L22.7842 38.5305H14.1865L16.1993 36.0742Z" fill="url(#paint4_linear_1097_8952)"/>
<path d="M20.7705 36.0742L21.3838 35.0786L23.9374 36.6594L22.7847 38.5305L20.7705 36.0742Z" fill="url(#paint5_linear_1097_8952)"/>
<path d="M19.638 28.04L19.0986 30.4978L21.3833 35.0786L23.9369 36.6593L19.638 28.04Z" fill="url(#paint6_linear_1097_8952)"/>
<path d="M15.5858 35.0786L17.8719 30.4978L17.3311 28.04L13.0322 36.6593L15.5858 35.0786Z" fill="url(#paint7_linear_1097_8952)"/>
<path d="M13.213 9.3335V20.5024L9.4993 27.9424H5.38517L3.77734 25.095L13.213 9.3335Z" fill="url(#paint8_linear_1097_8952)"/>
<path d="M9.49888 27.9424L9.84173 33.4787H2.76465L5.38475 27.9424H9.49888Z" fill="url(#paint9_linear_1097_8952)"/>
<path d="M3.7772 25.0947L5.38502 27.9421L2.76492 33.4784L0 28.5821L3.7772 25.0947Z" fill="url(#paint10_linear_1097_8952)"/>
<path d="M16.2275 1.46826L13.2128 9.32752L3.7772 25.0949L0 28.5823L16.2275 1.46826Z" fill="url(#paint11_linear_1097_8952)"/>
<path d="M16.2276 1.46826V20.6742L13.2129 20.4964V9.32752L16.2276 1.46826Z" fill="url(#paint12_linear_1097_8952)"/>
<path d="M9.84187 33.4783L9.49902 27.942L13.2127 20.4961L16.2273 20.6739L9.84187 33.4783Z" fill="url(#paint13_linear_1097_8952)"/>
<path d="M3.77734 25.0947L5.08222 28.5821L9.50078 27.9421H5.38517L3.77734 25.0947Z" fill="white"/>
<path d="M23.7568 9.3335V20.5024L27.4705 27.9483H31.5846L33.1924 25.1009L23.7568 9.3335Z" fill="url(#paint14_linear_1097_8952)"/>
<path d="M27.4708 27.9424L27.1279 33.4787H34.205L31.5849 27.9424H27.4708Z" fill="url(#paint15_linear_1097_8952)"/>
<path d="M33.1928 25.0947L31.585 27.9421L34.2051 33.4784L36.97 28.5821L33.1928 25.0947Z" fill="url(#paint16_linear_1097_8952)"/>
<path d="M20.7422 1.46826L23.7569 9.32752L33.1925 25.0949L36.9697 28.5823L20.7422 1.46826Z" fill="url(#paint17_linear_1097_8952)"/>
<path d="M20.7422 1.46826V20.6742L23.7569 20.4964V9.32752L20.7422 1.46826Z" fill="url(#paint18_linear_1097_8952)"/>
<path d="M27.1277 33.4783L27.4705 27.942L23.7569 20.4961L20.7422 20.6739L27.1277 33.4783Z" fill="url(#paint19_linear_1097_8952)"/>
<path d="M33.1941 25.0947L31.8878 28.5821L27.4707 27.9421H31.5848L33.1941 25.0947Z" fill="white"/>
</g>
<defs>
<linearGradient id="paint0_linear_1097_8952" x1="135.465" y1="26.1762" x2="135.465" y2="13.7954" gradientUnits="userSpaceOnUse">
<stop stop-color="#D2ECFF"/>
<stop offset="0.81" stop-color="#F6FBFF"/>
<stop offset="1" stop-color="white"/>
</linearGradient>
<linearGradient id="paint1_linear_1097_8952" x1="18.4852" y1="30.5941" x2="18.4852" y2="28.0963" gradientUnits="userSpaceOnUse">
<stop stop-color="white"/>
<stop offset="0.38" stop-color="#DBEEFF"/>
<stop offset="1" stop-color="#99CFFF"/>
</linearGradient>
<linearGradient id="paint2_linear_1097_8952" x1="21.0123" y1="34.9257" x2="17.2744" y2="33.1123" gradientUnits="userSpaceOnUse">
<stop stop-color="white"/>
<stop offset="0.81" stop-color="#DBF0FF"/>
<stop offset="1" stop-color="#D2ECFF"/>
</linearGradient>
<linearGradient id="paint3_linear_1097_8952" x1="13.5081" y1="37.6742" x2="15.8207" y2="35.8694" gradientUnits="userSpaceOnUse">
<stop stop-color="#2A7AD7"/>
<stop offset="0.51" stop-color="#4E97EA"/>
<stop offset="1" stop-color="#75B7FF"/>
</linearGradient>
<linearGradient id="paint4_linear_1097_8952" x1="15.5978" y1="39.7113" x2="20.8437" y2="36.4815" gradientUnits="userSpaceOnUse">
<stop stop-color="#75B7FF"/>
<stop offset="1" stop-color="#99CFFF"/>
</linearGradient>
<linearGradient id="paint5_linear_1097_8952" x1="21.4459" y1="36.0045" x2="23.707" y2="37.8731" gradientUnits="userSpaceOnUse">
<stop stop-color="#D2ECFF"/>
<stop offset="0.65" stop-color="#AEDAFF"/>
<stop offset="1" stop-color="#99CFFF"/>
</linearGradient>
<linearGradient id="paint6_linear_1097_8952" x1="20.5868" y1="33.0934" x2="21.5649" y2="32.4911" gradientUnits="userSpaceOnUse">
<stop stop-color="white"/>
<stop offset="0.81" stop-color="#DBF0FF"/>
<stop offset="1" stop-color="#D2ECFF"/>
</linearGradient>
<linearGradient id="paint7_linear_1097_8952" x1="15.1469" y1="32.3349" x2="16.6244" y2="32.9648" gradientUnits="userSpaceOnUse">
<stop stop-color="#2A7AD7"/>
<stop offset="1" stop-color="#75B7FF"/>
</linearGradient>
<linearGradient id="paint8_linear_1097_8952" x1="6.8659" y1="27.1646" x2="12.6308" y2="11.7859" gradientUnits="userSpaceOnUse">
<stop stop-color="#D2ECFF"/>
<stop offset="0.81" stop-color="#F6FBFF"/>
<stop offset="1" stop-color="white"/>
</linearGradient>
<linearGradient id="paint9_linear_1097_8952" x1="10.2171" y1="30.7098" x2="5.27539" y2="30.7098" gradientUnits="userSpaceOnUse">
<stop stop-color="#2A7AD7"/>
<stop offset="0.35" stop-color="#4E96E4"/>
<stop offset="1" stop-color="#99CFFF"/>
</linearGradient>
<linearGradient id="paint10_linear_1097_8952" x1="4.38752" y1="29.951" x2="1.09074" y2="27.9983" gradientUnits="userSpaceOnUse">
<stop stop-color="#D2ECFF"/>
<stop offset="0.65" stop-color="#AEDAFF"/>
<stop offset="1" stop-color="#99CFFF"/>
</linearGradient>
<linearGradient id="paint11_linear_1097_8952" x1="9.24054" y1="15.7231" x2="7.89095" y2="14.892" gradientUnits="userSpaceOnUse">
<stop stop-color="white"/>
<stop offset="0.81" stop-color="#DBF0FF"/>
<stop offset="1" stop-color="#D2ECFF"/>
</linearGradient>
<linearGradient id="paint12_linear_1097_8952" x1="16.7906" y1="11.0905" x2="13.7789" y2="10.9917" gradientUnits="userSpaceOnUse">
<stop stop-color="#75B7FF"/>
<stop offset="0.42" stop-color="#99CCFF"/>
<stop offset="1" stop-color="#D2ECFF"/>
</linearGradient>
<linearGradient id="paint13_linear_1097_8952" x1="12.9748" y1="27.0383" x2="10.8363" y2="25.6906" gradientUnits="userSpaceOnUse">
<stop stop-color="#2A7AD7"/>
<stop offset="0.35" stop-color="#4E96E4"/>
<stop offset="1" stop-color="#99CFFF"/>
</linearGradient>
<linearGradient id="paint14_linear_1097_8952" x1="30.1054" y1="27.1646" x2="24.3389" y2="11.7859" gradientUnits="userSpaceOnUse">
<stop stop-color="#D2ECFF"/>
<stop offset="0.81" stop-color="#F6FBFF"/>
<stop offset="1" stop-color="white"/>
</linearGradient>
<linearGradient id="paint15_linear_1097_8952" x1="26.7541" y1="30.7098" x2="31.6943" y2="30.7098" gradientUnits="userSpaceOnUse">
<stop stop-color="#2A7AD7"/>
<stop offset="0.35" stop-color="#4E96E4"/>
<stop offset="1" stop-color="#99CFFF"/>
</linearGradient>
<linearGradient id="paint16_linear_1097_8952" x1="32.5825" y1="29.951" x2="35.8807" y2="27.9983" gradientUnits="userSpaceOnUse">
<stop stop-color="#D2ECFF"/>
<stop offset="0.65" stop-color="#AEDAFF"/>
<stop offset="1" stop-color="#99CFFF"/>
</linearGradient>
<linearGradient id="paint17_linear_1097_8952" x1="27.7306" y1="15.7231" x2="29.0787" y2="14.892" gradientUnits="userSpaceOnUse">
<stop stop-color="white"/>
<stop offset="0.81" stop-color="#DBF0FF"/>
<stop offset="1" stop-color="#D2ECFF"/>
</linearGradient>
<linearGradient id="paint18_linear_1097_8952" x1="20.1792" y1="11.0905" x2="23.1924" y2="10.9917" gradientUnits="userSpaceOnUse">
<stop stop-color="#75B7FF"/>
<stop offset="0.42" stop-color="#99CCFF"/>
<stop offset="1" stop-color="#D2ECFF"/>
</linearGradient>
<linearGradient id="paint19_linear_1097_8952" x1="23.9948" y1="27.0383" x2="26.1347" y2="25.6906" gradientUnits="userSpaceOnUse">
<stop stop-color="#2A7AD7"/>
<stop offset="0.35" stop-color="#4E96E4"/>
<stop offset="1" stop-color="#99CFFF"/>
</linearGradient>
<clipPath id="clip0_1097_8952">
<rect width="221.667" height="40" fill="white"/>
</clipPath>
</defs>
</svg>
