<svg width="223" height="40" viewBox="0 0 223 40" fill="none" xmlns="http://www.w3.org/2000/svg">
<g clip-path="url(#clip0_1097_8903)">
<path d="M108.07 13.8221H112.093L117.427 21.2295V13.8221H121.17V26.1762H117.147L111.813 18.7687V26.1762H108.07V13.8221ZM124.07 13.8221H136.05V16.0695H127.813V18.588H135.114V20.8354H127.818V23.9228H136.055V26.1687H124.074L124.07 13.8221ZM138.053 13.8221H151.905V16.0695H146.856V26.1762H143.111V16.0695H138.058L138.053 13.8221ZM157.439 13.8221L159.89 22.5273L162.773 13.8221H166.704L169.587 22.5273L172.039 13.8221H175.689L172.225 26.1762H167.452L164.741 17.9969L162.027 26.1762H157.253L153.793 13.8221H157.439ZM208.741 13.7954H212.485V18.5687L217.445 13.7954H222.037L216.741 18.905L222.222 26.1495H218.03L214.304 21.2265L212.489 22.9865V26.1495H208.741V13.7954ZM187.581 13.8221H180.188L177.847 16.1628V26.1762H188.424L190.763 23.8369V13.8221H187.581ZM187.019 23.4073C187.019 23.7613 186.796 23.9302 186.365 23.9302H182.246C181.816 23.9302 181.591 23.7613 181.591 23.4073V16.5924C181.591 16.2369 181.816 16.0695 182.246 16.0695H186.37C186.802 16.0695 187.025 16.2369 187.025 16.5924L187.019 23.4073ZM69.1364 13.8236H73.8149L79.1482 26.1762H75.4815L74.3586 23.5554H68.5926L67.4697 26.1747H63.8015L69.1364 13.8236ZM73.3852 21.3095L71.4756 16.911L69.566 21.3095H73.3852ZM81.2089 13.8236H93.0015V16.0695H84.9526V18.7836H92.0638V21.0369H84.9526V26.1836H81.2089V13.8236ZM95.0593 13.8236H98.803V26.1776H95.0593V13.8236ZM55.9393 18.5021V20.748H58.3704V23.9302H53.7867C53.3556 23.9302 53.1304 23.7613 53.1304 23.4073V16.5924C53.1304 16.2369 53.3556 16.0695 53.7867 16.0695H61.3675V13.8236H51.7275L49.3867 16.1628V26.1762H59.7749L62.1156 23.8369V18.5036L55.9393 18.5021ZM203.495 21.4976H206.021V13.8221H196.007L193.667 16.1628V26.1762H197.41V21.4976H199.45L202.539 26.1762H206.582L203.495 21.4976ZM202.277 18.7273C202.277 19.0828 202.053 19.2517 201.622 19.2517H197.41V16.0695H201.63C202.061 16.0695 202.285 16.2369 202.285 16.5924L202.277 18.7273Z" fill="url(#paint0_linear_1097_8903)"/>
<path d="M51.2401 37.2327V33.2519H49.3867V32.4282H54.0267V33.2519H52.1319V37.2327H51.2401Z" fill="#134692"/>
<path d="M55.9277 37.2327V32.4282H56.8166V37.2327H55.9277ZM56.2981 35.283L56.3055 34.446H60.4033V35.283H56.2981ZM59.9707 37.2327V32.4282H60.8596V37.2327H59.9707Z" fill="#134692"/>
<path d="M63.3125 37.2327V32.4282H67.4177V33.2386H64.191V36.4223H67.4503V37.2327H63.3125ZM63.794 35.1734V34.3779H67.0666V35.1734H63.794Z" fill="#134692"/>
<path d="M73.1484 37.2327V32.4282H74.0195L77.7677 36.1823L77.6847 36.2104C77.6625 36.0623 77.6432 35.9053 77.627 35.7467C77.6107 35.5882 77.5988 35.4297 77.5884 35.2697C77.5781 35.1097 77.5721 34.9497 77.5647 34.7897C77.5573 34.6297 77.5529 34.4727 77.5514 34.3186C77.5499 34.1645 77.5514 34.0223 77.5514 33.8741V32.4327H78.4403V37.2371H77.5514L73.7899 33.5334L73.8995 33.486C73.9084 33.563 73.9173 33.6549 73.9262 33.7601C73.9351 33.8653 73.947 33.9793 73.9618 34.1023C73.9766 34.2253 73.987 34.3586 73.9988 34.4979C74.0107 34.6371 74.0195 34.7808 74.027 34.9304C74.0344 35.0801 74.0373 35.2267 74.0373 35.3749V37.2341L73.1484 37.2327Z" fill="#134692"/>
<path d="M80.876 37.2327V32.4282H84.9812V33.2386H81.7545V36.4223H85.0138V37.2327H80.876ZM81.3575 35.1734V34.3779H84.6315V35.1734H81.3575Z" fill="#134692"/>
<path d="M88.5925 37.2327V33.2519H86.7451V32.4282H91.3836V33.2519H89.4903V37.2327H88.5925Z" fill="#134692"/>
<path d="M94.4521 37.2327L92.7158 32.4282H93.6773L94.618 35.0771C94.6491 35.1779 94.6847 35.289 94.7232 35.4075C94.7617 35.526 94.8003 35.6475 94.8373 35.7704C94.8743 35.8934 94.9084 36.0134 94.9395 36.1275C94.9706 36.2416 94.9988 36.3453 95.0225 36.4371H94.7336C94.7706 36.3141 94.8151 36.1749 94.8684 36.0223C94.9217 35.8697 94.978 35.7127 95.0432 35.5512C95.1084 35.3897 95.1706 35.2356 95.2358 35.0845L96.0654 33.1912H96.8758L97.6847 35.0712C97.744 35.2193 97.8062 35.3675 97.8714 35.5275C97.9366 35.6875 97.9929 35.8386 98.0462 35.9882C98.0938 36.119 98.1314 36.2532 98.1588 36.3897L97.898 36.4238C97.9158 36.3512 97.938 36.2756 97.9632 36.1793C97.9884 36.083 98.0136 35.9956 98.0388 35.8949C98.064 35.7941 98.0921 35.6949 98.1247 35.5986C98.1573 35.5023 98.1884 35.4045 98.221 35.3023C98.2536 35.2001 98.2847 35.1186 98.3173 35.0416L99.3736 32.4327H100.297L98.3469 37.2371H97.701L96.3558 34.0875L96.504 34.1141L95.1706 37.2371L94.4521 37.2327Z" fill="#134692"/>
<path d="M104.665 37.3008C104.263 37.3056 103.862 37.242 103.48 37.1126C103.138 36.9961 102.82 36.8167 102.542 36.5837C102.285 36.3671 102.076 36.0985 101.929 35.7956C101.787 35.4914 101.713 35.1596 101.713 34.8237C101.713 34.4878 101.787 34.1561 101.929 33.8519C102.076 33.5489 102.285 33.2804 102.542 33.0637C102.82 32.8307 103.138 32.6514 103.48 32.5348C104.25 32.2814 105.081 32.2814 105.851 32.5348C106.192 32.6504 106.509 32.8299 106.784 33.0637C107.041 33.2815 107.25 33.5498 107.399 33.8519C107.543 34.1555 107.618 34.4875 107.618 34.8237C107.618 35.1599 107.543 35.4919 107.399 35.7956C107.25 36.0976 107.041 36.3659 106.784 36.5837C106.509 36.8176 106.192 36.997 105.851 37.1126C105.469 37.242 105.068 37.3056 104.665 37.3008ZM104.665 36.4504C104.945 36.4536 105.223 36.412 105.489 36.3274C105.723 36.2517 105.941 36.1343 106.134 35.9807C106.311 35.8397 106.456 35.6631 106.56 35.4622C106.66 35.264 106.711 35.0454 106.711 34.8237C106.711 34.602 106.66 34.3834 106.56 34.1852C106.456 33.9843 106.311 33.8077 106.134 33.6667C105.941 33.5132 105.723 33.3957 105.489 33.32C105.223 33.2354 104.945 33.1939 104.665 33.197C104.386 33.1946 104.108 33.2361 103.842 33.32C103.606 33.3944 103.386 33.5119 103.193 33.6667C103.018 33.808 102.876 33.9847 102.775 34.1852C102.678 34.3839 102.627 34.6024 102.627 34.8237C102.627 35.0451 102.678 35.2635 102.775 35.4622C102.876 35.6627 103.018 35.8395 103.193 35.9807C103.386 36.1355 103.606 36.253 103.842 36.3274C104.108 36.4093 104.386 36.4488 104.665 36.4445V36.4504Z" fill="#134692"/>
<path d="M109.71 37.2326V32.4281H112.51C112.805 32.4221 113.098 32.4882 113.362 32.6207C113.604 32.7406 113.809 32.9245 113.954 33.1526C114.1 33.3835 114.175 33.6516 114.171 33.9244C114.174 34.2097 114.091 34.4894 113.934 34.7274C113.774 34.9663 113.557 35.1609 113.303 35.2933C113.033 35.4353 112.732 35.5076 112.427 35.5037H110.581V37.2326H109.71ZM110.581 34.7274H112.332C112.487 34.7282 112.639 34.6916 112.777 34.6207C112.908 34.5554 113.021 34.4587 113.106 34.3392C113.188 34.2246 113.232 34.0864 113.23 33.9451C113.232 33.813 113.188 33.6843 113.106 33.5807C113.018 33.4709 112.905 33.3839 112.777 33.3274C112.634 33.2624 112.48 33.2296 112.323 33.2311H110.581V34.7274ZM113.362 37.2326L111.732 35.0637L112.679 34.8918L114.457 37.24L113.362 37.2326Z" fill="#134692"/>
<path d="M116.662 37.2327V32.4282H117.551V37.2327H116.662ZM117.28 36.0593L117.184 35.1601L120.677 32.4282H121.926L117.28 36.0593ZM120.712 37.2327L118.625 34.6667L119.167 34.009L121.858 37.2341L120.712 37.2327Z" fill="#134692"/>
<path d="M130.046 37.3008C129.643 37.3056 129.243 37.242 128.861 37.1126C128.519 36.996 128.201 36.8167 127.925 36.5837C127.667 36.3671 127.457 36.0986 127.31 35.7956C127.168 35.4914 127.094 35.1596 127.094 34.8237C127.094 34.4878 127.168 34.1561 127.31 33.8519C127.457 33.5489 127.667 33.2803 127.925 33.0637C128.201 32.8307 128.519 32.6514 128.861 32.5348C129.631 32.2814 130.462 32.2814 131.231 32.5348C131.573 32.6504 131.89 32.8299 132.165 33.0637C132.422 33.2815 132.631 33.5498 132.78 33.8519C132.924 34.1555 132.999 34.4875 132.999 34.8237C132.999 35.1599 132.924 35.4919 132.78 35.7956C132.631 36.0976 132.422 36.3659 132.165 36.5837C131.89 36.8176 131.573 36.997 131.231 37.1126C130.85 37.242 130.449 37.3056 130.046 37.3008ZM130.046 36.4504C130.326 36.4536 130.604 36.412 130.87 36.3274C131.104 36.2514 131.323 36.134 131.516 35.9807C131.692 35.8393 131.837 35.6627 131.941 35.4622C132.04 35.264 132.092 35.0454 132.092 34.8237C132.092 34.602 132.04 34.3834 131.941 34.1852C131.837 33.9847 131.692 33.8082 131.516 33.6667C131.323 33.5134 131.104 33.396 130.87 33.32C130.604 33.2354 130.326 33.1939 130.046 33.197C129.767 33.1946 129.489 33.2361 129.223 33.32C128.987 33.3944 128.767 33.5119 128.574 33.6667C128.4 33.8084 128.257 33.985 128.156 34.1852C128.058 34.3839 128.008 34.6024 128.008 34.8237C128.008 35.0451 128.058 35.2635 128.156 35.4622C128.257 35.6624 128.4 35.8391 128.574 35.9807C128.767 36.1355 128.987 36.253 129.223 36.3274C129.489 36.4093 129.767 36.4488 130.046 36.4445V36.4504Z" fill="#134692"/>
<path d="M135.091 37.2327V32.4282H135.98V37.2327H135.091ZM135.421 35.3319V34.5186H138.805V35.329L135.421 35.3319ZM135.517 33.2579V32.4341H139.1V33.2579H135.517Z" fill="#134692"/>
<path d="M147.225 37.3007C146.85 37.3036 146.476 37.2507 146.117 37.1437C145.785 37.0458 145.474 36.8876 145.2 36.677C144.935 36.4712 144.722 36.207 144.576 35.9051C144.419 35.5667 144.341 35.1967 144.349 34.8236C144.347 34.486 144.426 34.1528 144.579 33.8518C144.735 33.5495 144.952 33.283 145.217 33.0696C145.502 32.8407 145.827 32.6655 146.174 32.5525C146.556 32.4253 146.957 32.3622 147.36 32.3659C147.689 32.3636 148.018 32.4029 148.337 32.4829C148.612 32.5496 148.877 32.6491 149.127 32.7792C149.325 32.8817 149.507 33.0136 149.666 33.1703L149.103 33.8014C148.945 33.6816 148.776 33.577 148.598 33.4888C148.412 33.3981 148.217 33.3261 148.016 33.274C147.8 33.2173 147.577 33.1894 147.354 33.1911C147.08 33.189 146.807 33.2305 146.546 33.314C146.311 33.3896 146.09 33.506 145.894 33.6577C145.715 33.7973 145.567 33.9723 145.459 34.1718C145.353 34.3706 145.299 34.5926 145.3 34.8177C145.293 35.0778 145.349 35.3357 145.465 35.5688C145.57 35.7724 145.722 35.9477 145.909 36.0799C146.105 36.2183 146.325 36.3187 146.558 36.3762C146.803 36.4388 147.054 36.4701 147.306 36.4696C147.559 36.4713 147.81 36.446 148.057 36.394C148.268 36.3511 148.471 36.2793 148.662 36.1807C148.817 36.1029 148.952 35.9916 149.059 35.8548C149.151 35.7368 149.196 35.5892 149.186 35.4399V35.3362L149.317 35.5362H147.308V34.7555H150.1C150.109 34.8237 150.117 34.8859 150.121 34.9407C150.126 34.9955 150.121 35.0399 150.121 35.074V35.1525C150.129 35.481 150.057 35.8063 149.911 36.1007C149.773 36.3702 149.569 36.6002 149.318 36.7688C149.038 36.9551 148.727 37.09 148.4 37.1674C148.015 37.2595 147.62 37.3043 147.225 37.3007Z" fill="#134692"/>
<path d="M151.446 37.2327L153.808 32.4282H154.754L157.103 37.2327H156.149L154.603 34.089L154.473 33.8253C154.433 33.7408 154.393 33.6564 154.357 33.5704C154.322 33.4845 154.283 33.4001 154.248 33.3097C154.212 33.2193 154.177 33.126 154.144 33.0253H154.377C154.341 33.1304 154.304 33.2297 154.267 33.3216C154.23 33.4134 154.193 33.5053 154.151 33.5927L154.027 33.8504C153.986 33.9349 153.946 34.0223 153.904 34.1141L152.366 37.2371L151.446 37.2327ZM152.497 36.203L152.826 35.4282H155.682L155.812 36.203H152.497Z" fill="#134692"/>
<path d="M158.894 37.2327V32.4282H159.738L161.928 35.1393H161.522L163.711 32.4282H164.556V37.2327H163.667V35.3586C163.667 34.9793 163.676 34.6228 163.695 34.289C163.714 33.9461 163.751 33.6044 163.805 33.2653L163.894 33.5882L161.945 35.929H161.492L159.542 33.5808L159.639 33.2653C159.693 33.6044 159.729 33.9461 159.748 34.289C159.766 34.6223 159.777 34.9793 159.777 35.3586V37.2327H158.894Z" fill="#134692"/>
<path d="M166.998 37.2327V32.4282H171.111V33.2386H167.884V36.4223H171.143V37.2327H166.998ZM167.48 35.1734V34.3779H170.752V35.1734H167.48Z" fill="#134692"/>
<path d="M176.834 37.2327V32.4282H177.723V37.2327H176.834ZM177.164 35.3319V34.5186H180.548V35.329L177.164 35.3319ZM177.259 33.2579V32.4341H180.843V33.2579H177.259Z" fill="#134692"/>
<path d="M183.111 37.2327V36.3956H184.381V33.2653H183.111V32.4282H186.544V33.2653H185.273V36.3956H186.544V37.2327H183.111Z" fill="#134692"/>
<path d="M189.072 37.2327V32.4282H189.943L193.692 36.1823L193.609 36.2104C193.585 36.0623 193.566 35.9053 193.549 35.7467C193.533 35.5882 193.521 35.4297 193.512 35.2697C193.503 35.1097 193.494 34.9497 193.489 34.7897C193.483 34.6297 193.477 34.4727 193.475 34.3186C193.474 34.1645 193.475 34.0223 193.475 33.8741V32.4327H194.364V37.2371H193.475L189.714 33.5334L189.825 33.486C189.834 33.563 189.843 33.6549 189.852 33.7601C189.86 33.8653 189.872 33.9793 189.886 34.1023C189.899 34.2253 189.912 34.3586 189.924 34.4979C189.936 34.6371 189.945 34.7808 189.951 34.9304C189.957 35.0801 189.961 35.2267 189.961 35.3749V37.2341L189.072 37.2327Z" fill="#134692"/>
<path d="M196.148 37.2327L198.51 32.4282H199.457L201.803 37.2327H200.851L199.305 34.089L199.175 33.8253C199.134 33.7408 199.095 33.6564 199.058 33.5704C199.021 33.4845 198.985 33.4001 198.948 33.3097C198.911 33.2193 198.877 33.126 198.846 33.0253H199.079C199.043 33.1304 199.006 33.2297 198.969 33.3216C198.932 33.4134 198.894 33.5053 198.852 33.5927C198.811 33.6801 198.771 33.766 198.729 33.8504C198.688 33.9349 198.646 34.0223 198.606 34.1141L197.068 37.2371L196.148 37.2327ZM197.199 36.203L197.528 35.4282H200.383L200.514 36.203H197.199Z" fill="#134692"/>
<path d="M203.594 37.2327V32.4282H204.466L208.213 36.1823L208.132 36.2104C208.108 36.0623 208.089 35.9053 208.072 35.7467C208.056 35.5882 208.044 35.4297 208.035 35.2697C208.026 35.1097 208.017 34.9497 208.012 34.7897C208.006 34.6297 208 34.4727 207.997 34.3186C207.994 34.1645 207.997 34.0223 207.997 33.8741V32.4327H208.886V37.2371H207.997L204.235 33.5334L204.345 33.486C204.355 33.563 204.364 33.6549 204.373 33.7601C204.382 33.8653 204.394 33.9793 204.407 34.1023C204.42 34.2253 204.434 34.3586 204.446 34.4979C204.457 34.6371 204.465 34.7808 204.472 34.9304C204.48 35.0801 204.483 35.2267 204.483 35.3749V37.2341L203.594 37.2327Z" fill="#134692"/>
<path d="M213.815 37.3006C213.436 37.3039 213.059 37.2449 212.699 37.1258C212.368 37.0176 212.061 36.8466 211.794 36.6221C211.537 36.4065 211.33 36.1382 211.187 35.8354C211.037 35.5193 210.962 35.1732 210.966 34.8236C210.963 34.4819 211.04 34.1442 211.193 33.8384C211.344 33.5395 211.554 33.2743 211.81 33.0591C212.079 32.8353 212.386 32.6621 212.717 32.548C213.067 32.4252 213.436 32.3636 213.807 32.3658C214.107 32.3646 214.406 32.4029 214.696 32.4799C214.963 32.5514 215.222 32.6507 215.468 32.7761C215.674 32.8761 215.866 33.0032 216.039 33.1539L215.523 33.8947C215.37 33.7653 215.205 33.6507 215.03 33.5524C214.843 33.4483 214.644 33.3686 214.437 33.3154C214.207 33.2558 213.971 33.2269 213.733 33.2295C213.502 33.2294 213.273 33.2664 213.053 33.3391C212.839 33.4106 212.638 33.5189 212.461 33.6591C212.285 33.796 212.14 33.9687 212.036 34.1658C211.928 34.375 211.873 34.6075 211.877 34.8428C211.872 35.0886 211.929 35.3317 212.043 35.5495C212.151 35.75 212.303 35.9237 212.487 36.0576C212.682 36.1969 212.899 36.3021 213.129 36.3687C213.369 36.4405 213.619 36.4764 213.87 36.4754C214.116 36.4796 214.362 36.4436 214.597 36.3687C214.794 36.3053 214.982 36.2177 215.157 36.108C215.319 36.0058 215.467 35.9065 215.602 35.8117L216.028 36.5317C215.638 36.8277 215.197 37.0501 214.727 37.188C214.43 37.2693 214.123 37.3072 213.815 37.3006Z" fill="#134692"/>
<path d="M218.091 37.2327V32.4282H222.195V33.2386H218.963V36.4223H222.223V37.2327H218.091ZM218.571 35.1734V34.3779H221.845V35.1734H218.571Z" fill="#134692"/>
<path d="M13.0654 36.6593L17.3751 28.0415H19.6877L23.9973 36.6593L22.8402 38.5304H14.2225L13.0654 36.6593Z" fill="#2A7AD7"/>
<path d="M20.7939 1.46826V20.6757L27.1954 33.4786H34.2902L37.0621 28.5823L20.7939 1.46826Z" fill="#2A7AD7"/>
<path d="M2.77185 33.4786L0 28.5823L16.2681 1.46826V20.6757L9.86667 33.4786H2.77185Z" fill="#2A7AD7"/>
<path d="M17.9169 30.4976L15.625 35.0798L16.2398 36.0739H20.822L21.4369 35.0798L19.1465 30.4976H17.9169Z" fill="url(#paint1_linear_1097_8903)"/>
<path d="M15.6254 35.0801L13.0654 36.6593L14.2225 38.5304L16.2402 36.0742L15.6254 35.0801Z" fill="url(#paint2_linear_1097_8903)"/>
<path d="M16.2404 36.0742H20.8227L22.8404 38.5305H14.2227L16.2404 36.0742Z" fill="url(#paint3_linear_1097_8903)"/>
<path d="M20.8223 36.0742L21.4371 35.0801L23.9971 36.6593L22.84 38.5304L20.8223 36.0742Z" fill="url(#paint4_linear_1097_8903)"/>
<path d="M19.6872 28.0415L19.1465 30.4978L21.4369 35.08L23.9969 36.6593L19.6872 28.0415Z" fill="url(#paint5_linear_1097_8903)"/>
<path d="M17.375 28.0415L17.9172 30.4978H19.1469L19.6876 28.0415H17.375Z" fill="url(#paint6_linear_1097_8903)"/>
<path d="M15.6254 35.08L17.9173 30.4978L17.3751 28.0415L13.0654 36.6593L15.6254 35.08Z" fill="url(#paint7_linear_1097_8903)"/>
<path d="M13.2464 9.3335V20.5024L9.52341 27.9424H5.39896L3.78711 25.095L13.2464 9.3335Z" fill="url(#paint8_linear_1097_8903)"/>
<path d="M9.5226 27.9424L9.8663 33.4787H2.77148L5.39815 27.9424H9.5226Z" fill="url(#paint9_linear_1097_8903)"/>
<path d="M3.78667 25.0947L5.39852 27.9421L2.77185 33.4784L0 28.5821L3.78667 25.0947Z" fill="url(#paint10_linear_1097_8903)"/>
<path d="M16.2681 1.46826L13.2459 9.329L3.78667 25.0949L0 28.5823L16.2681 1.46826Z" fill="url(#paint11_linear_1097_8903)"/>
<path d="M16.2683 1.46826V20.6757L13.2461 20.4964V9.329L16.2683 1.46826Z" fill="url(#paint12_linear_1097_8903)"/>
<path d="M9.86714 33.4783L9.52344 27.942L13.2464 20.4961L16.2686 20.6754L9.86714 33.4783Z" fill="url(#paint13_linear_1097_8903)"/>
<path d="M3.78711 25.0947L5.09526 28.5821L9.52341 27.9421H5.39896L3.78711 25.0947Z" fill="#D2ECFF"/>
<path d="M23.8164 9.3335V20.5024L27.5394 27.9483H31.6638L33.2757 25.1009L23.8164 9.3335Z" fill="url(#paint14_linear_1097_8903)"/>
<path d="M27.539 27.9424L27.1953 33.4787H34.2901L31.6635 27.9424H27.539Z" fill="url(#paint15_linear_1097_8903)"/>
<path d="M33.2759 25.0947L31.6641 27.9421L34.2907 33.4784L37.0626 28.5821L33.2759 25.0947Z" fill="url(#paint16_linear_1097_8903)"/>
<path d="M20.7939 1.46826L23.8162 9.329L33.2754 25.0949L37.0621 28.5823L20.7939 1.46826Z" fill="url(#paint17_linear_1097_8903)"/>
<path d="M20.7939 1.46826V20.6757L23.8162 20.4964V9.329L20.7939 1.46826Z" fill="url(#paint18_linear_1097_8903)"/>
<path d="M27.1954 33.4783L27.5391 27.942L23.8162 20.4961L20.7939 20.6754L27.1954 33.4783Z" fill="url(#paint19_linear_1097_8903)"/>
<path d="M33.2754 25.0947L31.9672 28.5821L27.5391 27.9421H31.6635L33.2754 25.0947Z" fill="#D2ECFF"/>
</g>
<defs>
<linearGradient id="paint0_linear_1097_8903" x1="135.805" y1="26.1762" x2="135.805" y2="13.7954" gradientUnits="userSpaceOnUse">
<stop stop-color="#134692"/>
<stop offset="1" stop-color="#2A7AD7"/>
</linearGradient>
<linearGradient id="paint1_linear_1097_8903" x1="20.6917" y1="35.545" x2="16.6991" y2="32.5376" gradientUnits="userSpaceOnUse">
<stop stop-color="white"/>
<stop offset="0.17" stop-color="#F6FBFF"/>
<stop offset="0.44" stop-color="#DDEFFF"/>
<stop offset="0.79" stop-color="#B5DCFF"/>
<stop offset="1" stop-color="#99CFFF"/>
</linearGradient>
<linearGradient id="paint2_linear_1097_8903" x1="13.5439" y1="37.6742" x2="15.8565" y2="35.8638" gradientUnits="userSpaceOnUse">
<stop stop-color="#2A7AD7"/>
<stop offset="0.51" stop-color="#4E97EA"/>
<stop offset="1" stop-color="#75B7FF"/>
</linearGradient>
<linearGradient id="paint3_linear_1097_8903" x1="15.6375" y1="39.7113" x2="20.8893" y2="36.4713" gradientUnits="userSpaceOnUse">
<stop stop-color="#134692"/>
<stop offset="0.55" stop-color="#1F61B6"/>
<stop offset="1" stop-color="#2A7AD7"/>
</linearGradient>
<linearGradient id="paint4_linear_1097_8903" x1="21.4993" y1="36.0045" x2="23.76" y2="37.8786" gradientUnits="userSpaceOnUse">
<stop stop-color="#D2ECFF"/>
<stop offset="1" stop-color="#2A7AD7"/>
</linearGradient>
<linearGradient id="paint5_linear_1097_8903" x1="20.3628" y1="32.6889" x2="22.1746" y2="32.2741" gradientUnits="userSpaceOnUse">
<stop stop-color="#75B7FF"/>
<stop offset="1" stop-color="#2A7AD7"/>
</linearGradient>
<linearGradient id="paint6_linear_1097_8903" x1="18.532" y1="30.5941" x2="18.532" y2="28.0978" gradientUnits="userSpaceOnUse">
<stop stop-color="#75B7FF"/>
<stop offset="1" stop-color="#2A7AD7"/>
</linearGradient>
<linearGradient id="paint7_linear_1097_8903" x1="14.9469" y1="32.2104" x2="16.3958" y2="32.9541" gradientUnits="userSpaceOnUse">
<stop stop-color="#134692"/>
<stop offset="0.55" stop-color="#1F61B6"/>
<stop offset="1" stop-color="#2A7AD7"/>
</linearGradient>
<linearGradient id="paint8_linear_1097_8903" x1="7.24785" y1="25.4031" x2="13.0745" y2="14.4105" gradientUnits="userSpaceOnUse">
<stop stop-color="#99CFFF"/>
<stop offset="1" stop-color="#2A7AD7"/>
</linearGradient>
<linearGradient id="paint9_linear_1097_8903" x1="5.38482" y1="32.7335" x2="9.0663" y2="29.4194" gradientUnits="userSpaceOnUse">
<stop stop-color="#134692"/>
<stop offset="0.55" stop-color="#1F61B6"/>
<stop offset="1" stop-color="#2A7AD7"/>
</linearGradient>
<linearGradient id="paint10_linear_1097_8903" x1="1.3363" y1="31.0873" x2="3.85778" y2="28.191" gradientUnits="userSpaceOnUse">
<stop stop-color="#134692"/>
<stop offset="0.55" stop-color="#1F61B6"/>
<stop offset="1" stop-color="#2A7AD7"/>
</linearGradient>
<linearGradient id="paint11_linear_1097_8903" x1="9.55556" y1="15.9038" x2="8.20593" y2="15.0697" gradientUnits="userSpaceOnUse">
<stop stop-color="#2A7AD7"/>
<stop offset="1" stop-color="#134692"/>
</linearGradient>
<linearGradient id="paint12_linear_1097_8903" x1="16.4239" y1="11.0712" x2="13.4016" y2="11.0712" gradientUnits="userSpaceOnUse">
<stop stop-color="#2A7AD7"/>
<stop offset="0.51" stop-color="#4E97EA"/>
<stop offset="1" stop-color="#75B7FF"/>
</linearGradient>
<linearGradient id="paint13_linear_1097_8903" x1="13.0271" y1="27.0516" x2="10.5768" y2="25.5554" gradientUnits="userSpaceOnUse">
<stop stop-color="#134692"/>
<stop offset="0.55" stop-color="#1F61B6"/>
<stop offset="1" stop-color="#2A7AD7"/>
</linearGradient>
<linearGradient id="paint14_linear_1097_8903" x1="29.8149" y1="25.4031" x2="23.9883" y2="14.4105" gradientUnits="userSpaceOnUse">
<stop stop-color="#99CFFF"/>
<stop offset="1" stop-color="#2A7AD7"/>
</linearGradient>
<linearGradient id="paint15_linear_1097_8903" x1="31.6768" y1="32.7335" x2="27.9953" y2="29.4194" gradientUnits="userSpaceOnUse">
<stop stop-color="#134692"/>
<stop offset="0.55" stop-color="#1F61B6"/>
<stop offset="1" stop-color="#2A7AD7"/>
</linearGradient>
<linearGradient id="paint16_linear_1097_8903" x1="35.7263" y1="31.0873" x2="33.2048" y2="28.191" gradientUnits="userSpaceOnUse">
<stop stop-color="#134692"/>
<stop offset="0.55" stop-color="#1F61B6"/>
<stop offset="1" stop-color="#2A7AD7"/>
</linearGradient>
<linearGradient id="paint17_linear_1097_8903" x1="27.5065" y1="15.9038" x2="28.8562" y2="15.0697" gradientUnits="userSpaceOnUse">
<stop stop-color="#2A7AD7"/>
<stop offset="1" stop-color="#134692"/>
</linearGradient>
<linearGradient id="paint18_linear_1097_8903" x1="20.6384" y1="11.0712" x2="23.6606" y2="11.0712" gradientUnits="userSpaceOnUse">
<stop stop-color="#2A7AD7"/>
<stop offset="0.51" stop-color="#4E97EA"/>
<stop offset="1" stop-color="#75B7FF"/>
</linearGradient>
<linearGradient id="paint19_linear_1097_8903" x1="24.0354" y1="27.0516" x2="26.4858" y2="25.5554" gradientUnits="userSpaceOnUse">
<stop stop-color="#134692"/>
<stop offset="0.55" stop-color="#1F61B6"/>
<stop offset="1" stop-color="#2A7AD7"/>
</linearGradient>
<clipPath id="clip0_1097_8903">
<rect width="222.222" height="40" fill="white"/>
</clipPath>
</defs>
</svg>
