<svg width="64" height="64" viewBox="0 0 64 64" fill="none" xmlns="http://www.w3.org/2000/svg">
<path d="M32.0468 5.33331C31.6579 5.32636 31.2721 5.40458 30.9166 5.56248L7.00513 16.1927L6.91659 16.2291C6.89736 16.2393 6.87826 16.2497 6.85929 16.2604C6.80644 16.283 6.75433 16.3073 6.70304 16.3333C6.68027 16.3469 6.6577 16.3608 6.63534 16.375C6.57844 16.4093 6.52284 16.4458 6.46867 16.4844C6.4315 16.5112 6.39503 16.539 6.35929 16.5677C6.34353 16.5797 6.32791 16.5918 6.31242 16.6041C6.25299 16.652 6.19565 16.7024 6.14054 16.7552C6.13002 16.7672 6.1196 16.7794 6.10929 16.7916C6.05095 16.8498 5.99534 16.9106 5.94263 16.9739C5.89303 17.0343 5.84611 17.0969 5.802 17.1614C5.79142 17.177 5.781 17.1926 5.77075 17.2083C5.72594 17.2758 5.68423 17.3453 5.64575 17.4166C5.60773 17.4879 5.57298 17.5609 5.54159 17.6354C5.53629 17.6475 5.53108 17.6597 5.52596 17.6719C5.50305 17.7301 5.48221 17.7892 5.46346 17.8489C5.4524 17.8817 5.44198 17.9147 5.43221 17.9479C5.42053 17.9945 5.41011 18.0414 5.40096 18.0885C5.3912 18.1317 5.38252 18.1751 5.37492 18.2187C5.36414 18.2792 5.35546 18.34 5.34888 18.401C5.34703 18.4149 5.3453 18.4288 5.34367 18.4427C5.33706 18.5172 5.33358 18.5919 5.33325 18.6666C5.33228 18.7083 5.33228 18.75 5.33325 18.7916V45.3333C5.33313 45.8492 5.48265 46.3541 5.76368 46.7867C6.04471 47.2194 6.44519 47.5612 6.91659 47.7708L30.9166 58.4375C30.939 58.4465 30.9616 58.4552 30.9843 58.4635C31.0256 58.4802 31.0672 58.4958 31.1093 58.5104C31.1489 58.5252 31.1888 58.5391 31.2291 58.5521C31.2636 58.5614 31.2984 58.5701 31.3333 58.5781C31.3832 58.5917 31.4336 58.6039 31.4843 58.6146C31.5275 58.6243 31.5709 58.633 31.6145 58.6406C31.663 58.6472 31.7116 58.6524 31.7603 58.6562C31.9128 58.6694 32.0662 58.6694 32.2187 58.6562C32.2239 58.6562 32.2291 58.6562 32.2343 58.6562C32.2935 58.6513 32.3526 58.6443 32.4114 58.6354C32.4585 58.628 32.5054 58.6193 32.552 58.6094C32.615 58.596 32.6776 58.5804 32.7395 58.5625C32.7465 58.5608 32.7534 58.559 32.7603 58.5573C32.8397 58.5332 32.9179 58.5053 32.9947 58.4739C32.9982 58.4722 33.0017 58.4705 33.0051 58.4687C33.0313 58.4587 33.0574 58.4483 33.0833 58.4375L57.0833 47.7708C57.5546 47.5612 57.9551 47.2194 58.2362 46.7867C58.5172 46.3541 58.6667 45.8492 58.6666 45.3333V18.8073C58.6678 18.7604 58.6678 18.7135 58.6666 18.6666C58.6658 18.5779 58.6606 18.4892 58.651 18.401C58.644 18.3225 58.6336 18.2443 58.6197 18.1666C58.618 18.1562 58.6163 18.1458 58.6145 18.1354C58.6111 18.125 58.6076 18.1145 58.6041 18.1041C58.5882 18.0287 58.5691 17.954 58.5468 17.8802C58.5252 17.8115 58.5009 17.7438 58.4739 17.6771C58.4688 17.6614 58.4636 17.6458 58.4583 17.6302C58.4498 17.6127 58.4411 17.5954 58.4322 17.5781C58.4095 17.527 58.3852 17.4766 58.3593 17.4271C58.3525 17.4131 58.3455 17.3992 58.3385 17.3854C58.3333 17.3767 58.3281 17.368 58.3228 17.3594C58.2918 17.3044 58.2588 17.2505 58.2239 17.1979C58.217 17.1857 58.2101 17.1735 58.203 17.1614C58.1944 17.151 58.1858 17.1405 58.177 17.1302C58.1437 17.0839 58.109 17.0388 58.0728 16.9948C58.0626 16.979 58.0522 16.9634 58.0416 16.9479C58.0296 16.9339 58.0174 16.92 58.0051 16.9062C57.9682 16.8651 57.93 16.8252 57.8905 16.7864C57.8802 16.7759 57.8698 16.7655 57.8593 16.7552C57.8507 16.7482 57.842 16.7412 57.8333 16.7344C57.7814 16.6836 57.7276 16.6349 57.6718 16.5885C57.6666 16.585 57.6614 16.5816 57.6562 16.5781C57.651 16.5746 57.6458 16.5711 57.6405 16.5677C57.5948 16.5314 57.5479 16.4967 57.4999 16.4635C57.454 16.4326 57.4071 16.403 57.3593 16.375C57.3506 16.3697 57.342 16.3645 57.3333 16.3594C57.2922 16.3357 57.2505 16.3131 57.2083 16.2916C57.2031 16.2899 57.1978 16.2882 57.1926 16.2864C57.1566 16.2665 57.1201 16.2474 57.0833 16.2291L33.0833 5.56248C32.7566 5.41741 32.4041 5.33948 32.0468 5.33331ZM31.9999 10.9166L49.4322 18.6666L31.9999 26.4166L14.5676 18.6666L31.9999 10.9166ZM10.6666 22.7708L29.3333 31.0677V51.8958L10.6666 43.5989V22.7708ZM53.3333 22.7708V43.5989L34.6666 51.8958V31.0677L53.3333 22.7708Z" fill="#64DFDF"/>
</svg>
