<svg width="46" height="46" viewBox="0 0 46 46" fill="none" xmlns="http://www.w3.org/2000/svg">
<path d="M22.9999 0.920044C10.8252 0.920044 0.919922 10.8253 0.919922 23C0.919922 35.1748 10.8252 45.08 22.9999 45.08C35.1746 45.08 45.0799 35.1748 45.0799 23C45.0799 10.8253 35.1746 0.920044 22.9999 0.920044ZM22.9999 12.44C28.7599 12.44 28.7599 18.2 28.7599 18.2V20.12C28.7599 20.12 28.7467 20.6396 28.5012 21.1307C28.2557 21.6217 27.9599 22.04 26.8399 22.04C25.7199 22.04 25.4242 21.6217 25.1787 21.1307C24.9332 20.6396 24.9199 20.12 24.9199 20.12V18.2C24.9199 18.2 24.9199 16.28 22.9999 16.28C21.0799 16.28 21.0799 18.2 21.0799 18.2V27.8C21.0799 27.8 21.0799 33.56 15.3199 33.56C9.55992 33.56 9.55992 27.8 9.55992 27.8V23H13.3999V27.8C13.3999 27.8 13.3999 29.72 15.3199 29.72C17.2399 29.72 17.2399 27.8 17.2399 27.8V18.2C17.2399 18.2 17.2399 12.44 22.9999 12.44ZM32.5999 23H36.4399V27.8C36.4399 27.8 36.4399 33.56 30.6799 33.56C24.9199 33.56 24.9199 27.8 24.9199 27.8V23.4725C25.4452 23.7642 26.0818 23.96 26.8399 23.96C27.598 23.96 28.2346 23.7642 28.7599 23.4725V27.8C28.7599 27.8 28.7599 29.72 30.6799 29.72C32.5999 29.72 32.5999 27.8 32.5999 27.8V23Z" fill="#3860FF"/>
</svg>
