<svg xmlns="http://www.w3.org/2000/svg" viewBox="0 0 626.95 66.58"><defs><style>.cls-1{fill:#0a285d;}.cls-2{fill:#2a7ad7;}</style></defs><g id="Layer_2" data-name="Layer 2"><g id="Layer_1-2" data-name="Layer 1"><path class="cls-1" d="M115.18,57.37a26.27,26.27,0,0,1-10.06-1.91,25.55,25.55,0,0,1-8.19-5.34,25,25,0,0,1-5.51-8,24.31,24.31,0,0,1-2-9.82,24.34,24.34,0,0,1,2-9.82,25.27,25.27,0,0,1,5.45-8A24.64,24.64,0,0,1,105,9.18a26.32,26.32,0,0,1,10-1.91,27.43,27.43,0,0,1,11.38,2.4,23.41,23.41,0,0,1,8.81,6.69l-7,6.45a16.52,16.52,0,0,0-5.9-4.71A16.88,16.88,0,0,0,115,16.5a15,15,0,0,0-6,1.21,15.49,15.49,0,0,0-4.86,3.34,14.91,14.91,0,0,0-3.23,5,16.9,16.9,0,0,0-1.14,6.28A16.56,16.56,0,0,0,101,38.63a14.79,14.79,0,0,0,3.29,5A15.75,15.75,0,0,0,109.18,47a15.46,15.46,0,0,0,6.14,1.21,14.86,14.86,0,0,0,6.25-1.28,13.1,13.1,0,0,0,4.68-3.61,12.13,12.13,0,0,0,2.53-5.24H114.42V29.34h25.12v3.05a26.43,26.43,0,0,1-1.84,10,24.57,24.57,0,0,1-5.1,7.91,23.06,23.06,0,0,1-7.7,5.23A24.73,24.73,0,0,1,115.18,57.37Z"/><path class="cls-1" d="M139.74,56.6,159.73,8h11.58L191.09,56.6h-10.9l-4.92-12.76H155.22l-5,12.76Zm18.6-20.81h13.88l-6.94-17.9Z"/><path class="cls-1" d="M195.18,56.6V8h37.54v8.74H205.24V28.23h18.25v8.46H205.24V56.6Z"/><path class="cls-1" d="M239.52,56.6V8h10.06V56.6Z"/><path class="cls-1" d="M272.33,56.6V8h9.58L306.05,39.4V8h9.44V56.6h-8.88L281.84,24.13V56.6Z"/><path class="cls-1" d="M324.3,56.6V8h37.33v8.74H334.36v11.1h18v8.46h-18V47.86h27.55V56.6Z"/><path class="cls-1" d="M382.3,56.6V16.92H365.93V8h42.74v8.88h-16.3V56.6Z"/><path class="cls-1" d="M422.48,56.6,411.72,8h10.34l6.59,32.88L438.09,8h9.5L457,40.85,463.62,8h10L462.93,56.6H452.31l-9.57-33.85L433,56.6Z"/><path class="cls-1" d="M502.54,57.37a26.31,26.31,0,0,1-10.06-1.91,25.12,25.12,0,0,1-13.63-13.32,24.31,24.31,0,0,1-2-9.82,24.34,24.34,0,0,1,2-9.82A25.12,25.12,0,0,1,492.48,9.18a27.55,27.55,0,0,1,20.16,0,25.12,25.12,0,0,1,8.19,5.34,24.61,24.61,0,0,1,7.39,17.8,24.61,24.61,0,0,1-7.39,17.8,25.12,25.12,0,0,1-8.19,5.34A26.55,26.55,0,0,1,502.54,57.37Zm0-9.23a15.08,15.08,0,0,0,6.11-1.21,15.2,15.2,0,0,0,8.12-8.37,17.19,17.19,0,0,0,0-12.52,15.3,15.3,0,0,0-8.12-8.33,15.25,15.25,0,0,0-6.11-1.21,15,15,0,0,0-6,1.21,15.49,15.49,0,0,0-4.86,3.34,15.3,15.3,0,0,0-3.26,5,16.16,16.16,0,0,0-1.18,6.21,16.56,16.56,0,0,0,1.18,6.31,15.17,15.17,0,0,0,3.26,5,15.33,15.33,0,0,0,4.86,3.34A14.87,14.87,0,0,0,502.54,48.14Z"/><path class="cls-1" d="M535.15,56.6V8h23.73a19.09,19.09,0,0,1,8.71,1.9,14.76,14.76,0,0,1,5.93,5.31,14.31,14.31,0,0,1,2.15,7.84,13.43,13.43,0,0,1-2.6,8.19,15.5,15.5,0,0,1-6.9,5.27L576.92,56.6H565.68L556.18,38h-11V56.6Zm10.06-26.85H558a8,8,0,0,0,5.45-1.8,6,6,0,0,0,2-4.72,6,6,0,0,0-2-4.72,8,8,0,0,0-5.45-1.8H545.21Z"/><path class="cls-1" d="M582.26,56.6V8h10.06V29.75L613.56,8h12.28l-23.59,23.1L627,56.6H613.49L592.32,34.05V56.6Z"/><path class="cls-2" d="M54.06,7.28C35.63,17.92,22,37.58,15.7,61.54A33.28,33.28,0,1,1,54.06,7.28Z"/><path class="cls-2" d="M65.19,42.75a34,34,0,0,0-6.26-1.37c-9.32-1.12-18.38,1.7-26,7.38C41.14,36.69,52,27.37,64.62,22.07A33.08,33.08,0,0,1,65.19,42.75Z"/><path class="cls-2" d="M61.31,51.26A33.3,33.3,0,0,1,24,65.25c8.87-10.34,21.08-16.14,33.78-14.6A31.21,31.21,0,0,1,61.31,51.26Z"/></g></g></svg>