<svg width="1142" height="200" viewBox="0 0 1142 200" fill="none" xmlns="http://www.w3.org/2000/svg">
<path d="M1142 16.0141V184.001C1142 192.847 1134.83 200 1126 200H15.9999C7.16917 200 0 192.847 0 184.001V16.0141C0 7.18405 7.16917 0.0153809 15.9999 0.0153809H1126C1127.17 0.0153809 1128.32 0.138448 1129.42 0.384583C1136.62 1.95369 1142 8.35319 1142 16.0141Z" fill="url(#paint0_linear_1600_7351)"/>
<path d="M1142 18.0601V78.1016C1128 93.3004 1116.42 103.792 1112.11 107.607C1104.89 113.991 999.169 194.877 862.415 178.848C764.554 167.402 735.138 137.651 734.8 99.4692C734.431 60.703 814.231 52.6574 865.923 0.0153809H1123.95C1133.91 0.0153809 1142 8.10706 1142 18.0601Z" fill="#2A7AD7"/>
<path d="M1142 16.0141V45.1042C1117.29 89.593 1041.71 141.02 973.861 134.59C940.385 131.405 936.292 116.729 895.123 115.591C834.923 113.899 799.262 144.035 781.062 126.452C771.077 116.791 771.4 97.577 776.538 84.8088C788.631 54.8727 826.431 62.3798 867.062 29.5977C881.477 17.9678 887.169 8.58395 891.354 0.0153809H1126C1127.17 0.0153809 1128.32 0.138448 1129.42 0.384583C1136.62 1.95369 1142 8.35319 1142 16.0141Z" fill="#134692"/>
<path d="M1127.82 0.430736C1122.38 30.4592 1091.15 67.9332 1057.15 85.9318C1051.85 88.7469 1008.51 110.945 962.107 98.8385C936.446 92.1313 929.046 79.9476 903.723 81.1783C881.123 82.2705 863.723 93.1158 854.154 83.9012C850.723 80.563 848.584 74.9173 849.4 69.6407C852.092 52.3959 883.938 53.9958 907.107 30.9514C918.369 19.7523 920.369 9.90692 923.83 0H1123.95C1125.28 0.0153834 1126.57 0.153834 1127.82 0.430736Z" fill="#0E336B"/>
<path d="M837.8 0.0153809C835.015 4.78424 826.569 10.2454 813.092 18.9524C787.8 35.3203 768.384 47.8732 751.338 40.3507C737.061 34.0589 726.661 14.6296 728.107 0.0153809H837.8Z" fill="#2A7AD7"/>
<path d="M845.215 145.435C845.554 140.42 868.262 136.759 887.954 138.205C907.062 139.605 929.877 146.296 929.492 151.45C929.092 156.988 901.892 161.034 877.723 157.465C864.215 155.48 844.908 150.127 845.215 145.435Z" fill="#134692"/>
<path d="M1142 113.607V184.001C1142 192.847 1134.83 200 1126 200H969.354C1003.52 193.016 1043.68 180.494 1083.02 157.48C1107 143.451 1126.52 127.944 1142 113.607Z" fill="url(#paint1_linear_1600_7351)"/>
<path d="M1086.98 15.2757C1092.95 15.2757 1104.45 13.1374 1104.02 8.03014C1103.6 2.92285 1084 9.58387 1078.89 4.55349C1077.08 2.75363 1076.71 1.21529 1077.29 0.0153809H943.723C941.754 0.95377 940.077 2.21521 939.2 4.19967C937.938 7.03022 937.892 9.15313 938.431 10.7376C939.338 13.4451 941.908 14.5989 943.031 15.0604C949.846 17.8294 959 -2.61518 977.738 2.06138C977.738 2.06138 990.077 3.58433 989.661 12.0144C989.631 12.5067 989.569 13.0298 989.446 13.5682C987.323 23.3674 976.246 17.3986 968.154 19.9523C965.308 20.8599 964.2 22.3367 964.261 23.8751C964.369 26.7056 968.415 29.7515 972.846 29.7515C979.661 29.7515 989.446 28.4593 998.815 17.1833C1008.18 5.90723 1016.28 10.9991 1017.98 17.1833C1018.14 17.7217 1018.11 18.2755 1017.95 18.8293C1016.25 24.7519 998.554 31.9052 986.892 36.5664C980.415 39.1508 977.661 41.5198 976.969 43.7351C976.292 45.8734 977.554 47.8732 979.231 49.7654C982.631 53.5958 1002.23 51.8883 1011.17 43.3812C1019.95 35.0127 1023.82 21.7368 1030.4 23.2751C1030.52 23.3059 1030.65 23.3213 1030.77 23.3674C1037.58 25.4903 1030.77 38.2739 1030.77 43.3812C1030.77 48.4885 1035.88 58.2878 1043.12 56.1495C1045.75 55.3803 1046.08 53.8574 1045.55 52.0575C1044.65 48.9347 1041.22 44.9657 1043.12 42.5198C1044.77 40.3969 1046.03 38.9201 1047.92 38.4739C1049.45 38.1201 1051.35 38.4124 1054.18 39.5508C1060.58 42.1044 1064.83 50.6115 1075.91 45.9349C1081.26 43.6735 1079.34 41.9967 1075.35 40.4892C1071.11 38.8893 1064.49 37.474 1061.86 35.7049C1056.74 32.3052 1050.78 14.845 1041.83 13.5682C1032.89 12.2914 1030.77 5.01499 1036.72 4.59964C1042.69 4.19967 1059.72 5.90723 1063.55 12.7067C1067.4 19.5216 1069.29 31.0284 1079.2 33.1513C1089.11 35.2896 1096.78 36.7818 1099.77 30.5053C1102.74 24.2135 1089.54 25.9211 1083.58 22.0906C1077.62 18.2447 1081.02 15.2757 1086.98 15.2757Z" fill="url(#paint2_linear_1600_7351)"/>
<path opacity="0.5" d="M457.692 200H97.7689C105.769 174.202 119.477 149.742 138.969 128.529C209.384 51.8885 328.6 46.8427 405.23 117.268C430.63 140.589 448.153 169.279 457.692 200Z" fill="url(#paint3_linear_1600_7351)"/>
<defs>
<linearGradient id="paint0_linear_1600_7351" x1="0" y1="100.008" x2="1142" y2="100.008" gradientUnits="userSpaceOnUse">
<stop stop-color="#2A7AD7"/>
<stop offset="1" stop-color="#75B7FF"/>
</linearGradient>
<linearGradient id="paint1_linear_1600_7351" x1="969.354" y1="156.803" x2="1142" y2="156.803" gradientUnits="userSpaceOnUse">
<stop stop-color="#2A7AD7"/>
<stop offset="1" stop-color="#75B7FF"/>
</linearGradient>
<linearGradient id="paint2_linear_1600_7351" x1="938.105" y1="28.2327" x2="1104.03" y2="28.2327" gradientUnits="userSpaceOnUse">
<stop stop-color="#2A7AD7"/>
<stop offset="1" stop-color="#75B7FF"/>
</linearGradient>
<linearGradient id="paint3_linear_1600_7351" x1="90.2629" y1="77.8686" x2="415.817" y2="231.337" gradientUnits="userSpaceOnUse">
<stop stop-color="#2A7AD7"/>
<stop offset="1" stop-color="#75B7FF"/>
</linearGradient>
</defs>
</svg>
