<svg width="25" height="25" viewBox="0 0 25 25" fill="none" xmlns="http://www.w3.org/2000/svg">
<path d="M12.5 2.5C11.672 2.5 11 3.172 11 4V4.69531C8.41318 5.36209 6.5 7.7048 6.5 10.5V16.5L4.5 18.5V19.5H10.7695C10.5934 19.8039 10.5005 20.1488 10.5 20.5C10.5 21.0304 10.7107 21.5391 11.0858 21.9142C11.4609 22.2893 11.9696 22.5 12.5 22.5C13.0304 22.5 13.5391 22.2893 13.9142 21.9142C14.2893 21.5391 14.5 21.0304 14.5 20.5C14.4989 20.1486 14.4053 19.8037 14.2285 19.5H20.5V18.5L18.5 16.5V10.5C18.5 7.7048 16.5868 5.36209 14 4.69531V4C14 3.172 13.328 2.5 12.5 2.5ZM6.4082 2.58203C4.0352 4.41003 2.5 7.272 2.5 10.5H4.5C4.5 7.918 5.72895 5.62802 7.62695 4.16602L6.4082 2.58203ZM18.5918 2.58203L17.373 4.16602C19.271 5.62802 20.5 7.918 20.5 10.5H22.5C22.5 7.272 20.9648 4.41003 18.5918 2.58203ZM12.5 6.5C14.706 6.5 16.5 8.294 16.5 10.5V16.5V17.3281L16.6719 17.5H8.32812L8.5 17.3281V16.5V10.5C8.5 8.294 10.294 6.5 12.5 6.5Z" fill="#3860FF"/>
</svg>
