<svg width="338" height="221" viewBox="0 0 338 221" fill="none" xmlns="http://www.w3.org/2000/svg">
<path d="M338 7.85999V212C338 215.15 336.18 217.87 333.54 219.17C332.47 219.71 331.27 220 330 220H8C6.08 220 4.31 219.33 2.93 218.19C1.14 216.72 0 214.5 0 212V8C0 3.58 3.58 0 8 0H330.12C334.44 0.06 337.92 3.53999 338 7.85999Z" fill="#EFF7FE"/>
<path d="M65.3 26.34C62.33 37.18 70.66 40.31 69.61 54.9C68.13 75.46 50.93 78.71 44.56 99.9C38.15 121.25 52.16 129.34 48.87 149.99C45.05 173.92 20.64 198.26 0 202.31V8C0 3.58 3.58 0 8 0H98.92C89.63 6.16 69.55 10.81 65.3 26.34Z" fill="#D2ECFF"/>
<path d="M52.78 27.12C50.68 35.99 54.53 37.03 54.35 49.04C54 71.86 39.92 77.06 32.95 103.3C27.04 125.59 35.11 129.7 28.26 141.9C22.82 151.6 11.97 159.24 0 163.22V8C0 3.58 3.58 0 8 0H75.21C68.85 5.78 56.22 12.58 52.78 27.12Z" fill="#99CFFF"/>
<path d="M31.91 30.77C28.63 46.25 36.27 53.55 34.52 70.43C32.2 92.81 15.09 115.57 0 123.6V8C0 3.58 3.58 0 8 0H53.05C43.11 7.83 34.63 17.94 31.91 30.77Z" fill="#75B7FF"/>
<path d="M66.08 89.3401C61.91 87.9901 53.77 96.4201 51.99 105.77C50.12 115.64 55.22 127.14 59.82 127.29C65.02 127.46 70.55 113.15 69.99 101.07C69.86 98.0101 69.51 90.4501 66.08 89.3401Z" fill="#D2ECFF"/>
<path d="M338 144.08V212C338 215.15 336.18 217.87 333.54 219.17C332.47 219.71 331.27 220 330 220H227.43C234.2 218.86 241.23 216.46 247.39 210.77C256.88 202.01 253.28 195.6 263.56 187.82C276.83 177.77 285.73 186.23 300.61 177.38C315.41 168.58 312.38 156.77 328.26 148.17C329.2 147.66 333.08 145.6 338 144.08Z" fill="#D2ECFF"/>
<path d="M338 178.33V212C338 215.15 336.18 217.87 333.54 219.17C332.47 219.71 331.27 220 330 220H286.52C288.45 218.7 290.63 216.88 292.78 214.09C296.13 209.74 295.16 208.54 297.73 206.3C304.03 200.83 311.59 206.41 318.64 202.05C324.48 198.42 322.3 192.69 327.49 186.11C330.1 182.8 333.88 180.14 338 178.33Z" fill="#99CFFF"/>
<path d="M294.92 20.2L293.91 18.71C293.86 18.64 293.8 18.57 293.73 18.51L290.2 15.46C290.15 15.42 290.09 15.38 290.04 15.34L283.49 11.61C283.45 11.59 283.42 11.56 283.4 11.54L277.69 7.37003C277.63 7.33003 277.56 7.30001 277.5 7.26001L272.18 4.86002C272.14 4.84002 272.11 4.82002 272.07 4.80002L270.21 3.69003C270.01 3.56003 269.85 3.37002 269.76 3.15002L269.01 0.980011C268.96 0.860011 268.89 0.750024 268.81 0.650024L268.25 0.0100098H253.83L257.91 6.41003C257.92 6.42003 257.93 6.45002 257.95 6.46002L258.76 7.90002C258.98 8.30002 258.91 8.81001 258.58 9.14001L253.9 13.69C253.83 13.76 253.75 13.82 253.65 13.87L246.18 17.68C246.17 17.68 246.14 17.69 246.13 17.7L229.61 27.33C229.59 27.34 229.56 27.35 229.55 27.37L215.31 37C215.29 37.01 215.26 37.04 215.24 37.05L198.61 50.49C198.59 50.51 198.55 50.53 198.52 50.55L193.45 53.81C193.39 53.85 193.34 53.88 193.3 53.93L178.31 68.02L178.25 68.08L167.98 79.54C167.48 80.1 166.57 79.95 166.27 79.27C166.12 78.92 165.99 78.64 165.95 78.6C165.87 78.48 165.68 74.17 165.67 73.77V73.71L165.85 65.03C165.85 65.03 165.66 53.83 165.62 53.69C165.57 53.56 163.16 46.56 162.83 45.6C162.79 45.52 162.78 45.45 162.77 45.37C162.69 44.53 162.16 39.23 162.11 39.11C162.07 38.99 161.3 35.98 161.08 35.09C161.04 34.93 160.96 34.77 160.85 34.66L159.85 33.53C159.65 33.32 159.36 33.19 159.06 33.19L158.02 33.21C157.64 33.21 157.3 33.42 157.13 33.75L156.81 34.35C156.76 34.43 156.73 34.51 156.72 34.6L156.12 37.13C156.1 37.2 156.08 37.25 156.06 37.31L152.98 44.4C152.96 44.47 152.93 44.54 152.91 44.6L152.19 48.09C152.17 48.23 152.17 48.38 152.2 48.54L153.17 52.64C153.19 52.73 153.21 52.84 153.19 52.94L152.69 60.03C152.68 60.14 152.69 60.25 152.71 60.36L154.4 66.96C154.41 67.03 154.42 67.1 154.44 67.17L154.71 74.32C154.71 74.44 154.73 74.54 154.78 74.66L158.46 83.91C158.52 84.04 158.54 84.19 158.53 84.33L158.28 89.86C158.27 89.93 158.28 90 158.29 90.07L158.52 91.5C158.57 91.77 158.51 92.04 158.36 92.26L153.31 99.45C153.29 99.49 153.26 99.52 153.25 99.56L147.19 111.06C147.15 111.13 147.12 111.19 147.07 111.24L143.14 116.01C143.13 116.03 143.1 116.06 143.09 116.07L139.76 120.83C139.72 120.89 139.69 120.95 139.67 121.01L137.1 126.74L132.32 137.22L130.1 142.13L128.36 146.56C128.32 146.63 128.31 146.7 128.3 146.77L127.91 149.21C127.85 149.51 127.96 149.83 128.17 150.07L128.92 150.88C129.08 151.06 129.31 151.17 129.55 151.2L131.29 151.4C131.43 151.41 131.56 151.4 131.7 151.36L138.25 149.45C138.3 149.44 138.34 149.41 138.4 149.39L146.9 145.36L153.81 141.68C153.83 141.67 153.86 141.66 153.89 141.64L162.99 137.79C163.08 137.75 163.18 137.7 163.26 137.64L171.94 130.41C172.02 130.35 172.1 130.29 172.2 130.26L179.26 127.25C179.3 127.23 179.33 127.21 179.37 127.19L185.26 123.73C185.3 123.71 185.34 123.69 185.38 123.67L192.03 120.84C192.08 120.83 192.12 120.8 192.17 120.79L195.88 119.82C196.04 119.77 196.21 119.77 196.37 119.81L206.17 122.07C206.25 122.08 206.33 122.09 206.43 122.09C207.07 122.07 209.91 122 210.05 121.98C210.19 121.98 222.34 123.72 223.96 123.94C224.08 123.96 224.21 123.95 224.32 123.93L231 122.51C231.04 122.51 231.07 122.5 231.11 122.5L240.84 121.47C240.91 121.47 240.98 121.45 241.05 121.43L256.9 116.34C257.29 116.22 257.56 115.88 257.62 115.5L257.71 114.68C257.76 114.34 257.63 114 257.37 113.78L256.42 112.96C256.22 112.8 255.97 112.7 255.72 112.71L254.39 112.76C254.27 112.76 254.16 112.75 254.05 112.71L249.43 111.24C249.39 111.23 249.36 111.22 249.32 111.2L242.99 109.96C242.94 109.95 242.88 109.95 242.84 109.94L234.29 109.55H234.18L226.28 110C226.22 110 226.17 110 226.13 109.99L219.35 109.37C219.28 109.36 219.22 109.36 219.15 109.37L213.13 109.93L203.14 111.25C202.14 111.39 201.57 110.15 202.32 109.47L211.61 101.1C211.66 101.06 211.7 101.02 211.74 100.97L219.26 91.2L226.17 81.5L232.3 72.47L238.88 62.82C238.9 62.78 238.92 62.76 238.94 62.73L251.08 40.4L259.45 25.41C259.45 25.39 259.46 25.37 259.47 25.35L263.67 16.7C263.78 16.49 263.94 16.31 264.16 16.22L264.65 15.99C264.92 15.86 265.24 15.85 265.52 15.98L271.77 18.84L278.96 21.97C279.1 22.03 279.24 22.06 279.39 22.06L293.85 21.88C293.99 21.88 294.13 21.84 294.26 21.8L294.47 21.69C295.07 21.45 295.28 20.72 294.92 20.2Z" fill="#D2ECFF"/>
<path d="M218.49 141.05L218.11 140.64C218 140.52 217.95 140.36 217.98 140.2L218.18 138.97C218.19 138.93 218.2 138.9 218.21 138.86L219.09 136.61L220.22 134.11L222.65 128.78L223.95 125.86C223.96 125.83 223.98 125.8 224 125.77L225.7 123.35C225.71 123.34 225.72 123.33 225.72 123.32L227.72 120.89C227.74 120.86 227.76 120.83 227.78 120.8L230.86 114.95C230.87 114.93 230.88 114.91 230.89 114.89L233.46 111.24C233.54 111.13 233.57 110.99 233.55 110.85L233.43 110.12C233.42 110.08 233.42 110.05 233.42 110.01L233.55 107.2C233.55 107.13 233.54 107.05 233.51 106.98L231.64 102.27C231.62 102.21 231.61 102.16 231.6 102.1L231.46 98.4601C231.46 98.4201 231.45 98.39 231.44 98.35L230.58 94.9901C230.57 94.9401 230.56 94.88 230.57 94.82L230.83 91.2101C230.83 91.1601 230.83 91.1 230.82 91.05L230.32 88.9601C230.3 88.8901 230.3 88.81 230.32 88.73L230.68 86.9601C230.69 86.9201 230.7 86.89 230.71 86.86L232.28 83.2501C232.29 83.2201 232.3 83.1901 232.31 83.1601L232.61 81.8701C232.62 81.8301 232.64 81.7801 232.66 81.7401L232.82 81.4401C232.91 81.2701 233.08 81.17 233.27 81.17L233.8 81.1601C233.95 81.1601 234.1 81.22 234.2 81.33L234.71 81.9001C234.77 81.9601 234.81 82.0401 234.83 82.1201C234.94 82.5701 235.33 84.11 235.35 84.17C235.37 84.23 235.64 86.93 235.69 87.36C235.69 87.4 235.7 87.44 235.72 87.48C235.89 87.97 237.12 91.53 237.14 91.6C237.16 91.67 237.26 97.3701 237.26 97.3701L237.17 101.78C237.17 101.79 237.17 101.8 237.17 101.81C237.18 102.01 237.27 104.21 237.32 104.26C237.34 104.28 237.4 104.43 237.48 104.6C237.63 104.95 238.1 105.02 238.35 104.74L243.57 98.9101C243.58 98.9001 243.59 98.8901 243.6 98.8801L251.22 91.7101C251.24 91.6901 251.27 91.6701 251.3 91.6501L253.88 89.9901C253.9 89.9801 253.91 89.9701 253.93 89.9601L262.39 83.1301C262.4 83.1201 262.41 83.11 262.43 83.1L269.67 78.2C269.68 78.19 269.69 78.1901 269.7 78.1801L278.11 73.2801C278.12 73.2801 278.13 73.2701 278.14 73.2701L281.94 71.33C281.99 71.31 282.03 71.2801 282.07 71.2401L284.45 68.92C284.62 68.75 284.66 68.49 284.54 68.29L284.13 67.5601C284.13 67.5501 284.12 67.5401 284.11 67.5301L281.76 63.85C281.73 63.8 281.71 63.76 281.7 63.7L280.82 60.42C280.8 60.35 280.8 60.2801 280.81 60.2201L281.48 55.1301C281.49 55.0701 281.51 55.01 281.54 54.95L282 54.08C282.09 53.91 282.26 53.8 282.46 53.8C282.65 53.8 282.82 53.8901 282.92 54.0601L283.87 55.6601C283.88 55.6801 283.9 55.7001 283.91 55.7201L285.78 58.07C285.81 58.1 285.83 58.1401 285.85 58.1801L286.84 60.36L287.6 62.17C287.62 62.22 287.65 62.2701 287.69 62.3101L289.68 64.5901C289.72 64.6401 289.76 64.7 289.78 64.76L290.17 65.86C290.21 65.98 290.29 66.07 290.4 66.14L291.35 66.7101C291.37 66.7201 291.38 66.7301 291.4 66.7401L294.11 67.9701C294.14 67.9801 294.17 68 294.2 68.0201L297.11 70.14C297.13 70.15 297.14 70.16 297.16 70.17L300.5 72.07C300.53 72.09 300.56 72.1101 300.58 72.1301L302.37 73.6801C302.4 73.7101 302.43 73.7401 302.46 73.7801L302.97 74.54C303.15 74.81 303.05 75.1801 302.75 75.3101L302.64 75.36C302.57 75.39 302.5 75.4101 302.43 75.4101L295.07 75.5001C295 75.5001 294.92 75.4901 294.85 75.4601L291.19 73.8701L288.01 72.4101C287.87 72.3501 287.71 72.3501 287.57 72.4101L287.32 72.5301C287.21 72.5801 287.12 72.6701 287.07 72.7801L284.93 77.1901C284.93 77.2001 284.92 77.2101 284.92 77.2201L280.67 84.85L274.49 96.2101C274.48 96.2301 274.47 96.2401 274.46 96.2501L271.11 101.16L267.99 105.75L264.48 110.69L260.66 115.65C260.64 115.68 260.62 115.7 260.6 115.72L255.87 119.98C255.49 120.32 255.78 120.96 256.29 120.89L261.37 120.22L264.43 119.93C264.46 119.93 264.5 119.93 264.53 119.93L267.98 120.25C268.01 120.25 268.03 120.25 268.06 120.25L272.08 120.03C272.1 120.03 272.12 120.03 272.13 120.03L276.48 120.23C276.51 120.23 276.53 120.23 276.56 120.24L279.78 120.87C279.8 120.87 279.82 120.88 279.84 120.88L282.19 121.63C282.25 121.65 282.31 121.66 282.37 121.65L283.04 121.63C283.17 121.63 283.3 121.67 283.4 121.76L283.88 122.17C284.01 122.28 284.08 122.46 284.06 122.63L284.01 123.04C283.98 123.24 283.84 123.41 283.65 123.47L275.58 126.05C275.55 126.06 275.51 126.07 275.48 126.07L270.53 126.59C270.51 126.59 270.49 126.59 270.48 126.6L267.08 127.32C267.02 127.33 266.96 127.33 266.9 127.33C266.08 127.21 259.89 126.33 259.82 126.33C259.75 126.33 258.3 126.37 257.98 126.38C257.94 126.38 257.89 126.38 257.85 126.37L252.87 125.22C252.79 125.2 252.7 125.2 252.62 125.22L250.73 125.72C250.71 125.73 250.68 125.73 250.66 125.74L247.28 127.18C247.26 127.19 247.24 127.2 247.22 127.21L244.23 128.97C244.21 128.98 244.19 128.99 244.17 129L240.58 130.53C240.53 130.55 240.49 130.58 240.45 130.61L236.03 134.29C235.99 134.32 235.95 134.35 235.9 134.37L231.27 136.32C231.26 136.33 231.24 136.33 231.23 136.34L227.72 138.21L223.39 140.26C223.36 140.27 223.34 140.28 223.31 140.29L219.98 141.26C219.91 141.28 219.84 141.29 219.77 141.28L218.89 141.18C218.68 141.2 218.57 141.14 218.49 141.05Z" fill="#99CFFF"/>
<path d="M168.94 196.12L168.64 195.66C168.62 195.64 168.6 195.62 168.58 195.6L167.5 194.67C167.49 194.66 167.46 194.64 167.45 194.63L165.44 193.48C165.43 193.47 165.43 193.47 165.41 193.47L163.66 192.19C163.65 192.18 163.62 192.16 163.6 192.15L161.97 191.41C161.96 191.41 161.95 191.4 161.93 191.4L161.36 191.06C161.3 191.02 161.25 190.96 161.23 190.89L161 190.23C160.99 190.19 160.96 190.16 160.94 190.13L159.75 188.75C159.73 188.72 159.71 188.69 159.69 188.67L159.24 187.58L158.64 186.27C158.63 186.25 158.62 186.22 158.6 186.21L157.47 184.79C157.46 184.78 157.46 184.77 157.45 184.75L156.87 183.78C156.81 183.68 156.71 183.62 156.59 183.62C156.48 183.63 156.37 183.69 156.31 183.79L156.03 184.32C156.02 184.35 156 184.38 155.99 184.43L155.59 187.49C155.58 187.53 155.58 187.57 155.6 187.62L156.13 189.59C156.14 189.63 156.15 189.65 156.17 189.68L157.59 191.9C157.59 191.9 157.59 191.91 157.6 191.91L157.85 192.35C157.92 192.48 157.9 192.63 157.79 192.73L156.36 194.12C156.33 194.15 156.31 194.16 156.28 194.18L154 195.34C153.99 195.35 153.99 195.35 153.98 195.35L148.92 198.3C148.91 198.31 148.91 198.31 148.9 198.31L144.53 201.26L144.51 201.28L139.42 205.39C139.41 205.4 139.41 205.4 139.39 205.41L137.84 206.41C137.83 206.42 137.81 206.44 137.8 206.45L133.21 210.77C133.2 210.78 133.2 210.78 133.19 210.79L130.04 214.3C129.89 214.47 129.61 214.43 129.52 214.22C129.48 214.11 129.44 214.02 129.43 214.02C129.4 213.98 129.35 212.66 129.34 212.54C129.34 212.53 129.34 212.53 129.34 212.53L129.4 209.87C129.4 209.87 129.34 206.44 129.33 206.39C129.32 206.35 128.57 204.21 128.47 203.91C128.46 203.89 128.46 203.87 128.45 203.84C128.43 203.58 128.27 201.96 128.25 201.92C128.24 201.88 128 200.96 127.93 200.69C127.92 200.64 127.89 200.59 127.86 200.56L127.55 200.22C127.49 200.15 127.4 200.11 127.31 200.11H126.99C126.88 200.12 126.77 200.18 126.72 200.28L126.62 200.46C126.61 200.48 126.59 200.51 126.58 200.54L126.4 201.32C126.4 201.33 126.39 201.36 126.39 201.37L125.44 203.55C125.43 203.57 125.43 203.59 125.43 203.61L125.2 204.68C125.19 204.72 125.19 204.77 125.21 204.81L125.51 206.07C125.52 206.11 125.52 206.13 125.52 206.17L125.36 208.34C125.36 208.38 125.36 208.41 125.37 208.45L125.89 210.47C125.9 210.49 125.9 210.51 125.9 210.53L125.98 212.72C125.98 212.76 125.99 212.79 126 212.83L127.12 215.67C127.14 215.71 127.15 215.75 127.15 215.8L127.07 217.5C127.06 217.52 127.07 217.54 127.07 217.56L127.15 218C127.16 218.08 127.14 218.17 127.09 218.24L125.83 220.03H144.14L145.77 217.92L147.88 214.94L149.76 212.17L151.78 209.21C151.79 209.2 151.79 209.2 151.79 209.19L155.51 202.34L158.08 197.75C158.08 197.74 158.09 197.74 158.09 197.73L159.38 195.08C159.42 195.01 159.46 194.96 159.53 194.93L159.69 194.86C159.77 194.82 159.87 194.82 159.95 194.85L161.87 195.73L164.07 196.68C164.11 196.7 164.15 196.71 164.2 196.71L168.64 196.66C168.68 196.66 168.72 196.65 168.77 196.63L168.83 196.6C168.99 196.5 169.06 196.28 168.94 196.12Z" fill="#D2ECFF"/>
</svg>
