<svg width="339" height="220" viewBox="0 0 339 220" fill="none" xmlns="http://www.w3.org/2000/svg">
<g clip-path="url(#clip0_1386_6543)">
<path d="M338.2 8V212C338.2 216.42 334.62 220 330.2 220H8.20001C3.78001 220 0.200012 216.42 0.200012 212V8C0.200012 3.58 3.78001 0 8.20001 0H330.2C334.62 0 338.2 3.58 338.2 8Z" fill="#EFF7FE"/>
<path d="M338.2 86.1199V172.28C305.46 195.58 250.42 209.28 206.77 211.59C152.14 214.48 89.34 200.92 83.86 177.92C83.55 176.63 81.75 169.08 85.74 163.61C88.11 160.35 91.95 158.63 105.21 157.61C109.49 157.28 114.76 157.01 121.27 156.8C139.82 156.2 138.42 156.93 145.84 156.21C161.22 154.7 164.04 151.84 180.34 149.5C200.47 146.6 199.15 150.53 208.45 147.54C228.05 141.22 227.48 125.82 245.93 121.18C255.94 118.67 256.84 123.02 272.57 120.4C279.83 119.2 289.52 117.58 299 111.26C312.31 102.39 310.49 94.0399 321.64 88.8399C326.62 86.5099 332.52 85.5999 338.2 86.1199Z" fill="#D2ECFF"/>
<path d="M338.2 148.21V212C338.2 216.42 334.62 220 330.2 220H8.20001C3.78001 220 0.200012 216.42 0.200012 212V77.96C5.27001 79.58 10.93 81.72 18.55 87.77C37.54 102.86 33.38 114.22 49.33 121.16C63.73 127.43 72.53 120.51 82.72 128.99C91.14 135.99 86.83 142.11 94.72 152.47C97.6 156.26 101.18 159.38 105.21 161.91C119.23 170.73 138.68 172.35 153.15 169.68C160.01 168.42 158.82 167.47 165.15 166.55C184.71 163.72 191.29 173.47 211.59 172.29C219.34 171.84 218.16 170.44 232.46 168.64C247.03 166.81 249.38 168.17 259.07 167.08C279.83 164.73 280.89 157.3 302.89 154.03C318.48 151.72 318.44 155.38 328.46 152.47C332.29 151.36 335.44 149.91 338.2 148.21Z" fill="#99CFFF"/>
<path d="M201.82 220H8.20001C3.78001 220 0.200012 216.42 0.200012 212V142.11C4.93001 145.34 9.55001 150.11 13.85 154.55C24.23 165.28 23.97 170.26 30.55 176.47C41.59 186.88 53.36 183.26 76.46 186.38C119.58 192.21 118 210.16 152.63 210.38C165.99 210.47 177.92 207.87 192.81 215.08C194.53 215.91 198.23 217.7 201.82 220Z" fill="#75B7FF"/>
<path d="M89.52 203.26C88.15 201.48 85.38 200.84 83.12 204.04C80.38 207.92 75.57 208.03 75.06 206.09C74.95 205.68 75.03 205.17 75.37 204.59C77.31 201.27 75.92 195.73 80.91 193.52C85.89 191.3 87.83 183.55 88.38 179.12C88.94 174.69 89.77 162.51 84.78 164.45C83.48 164.95 82.81 165.69 82.5 166.56C81.63 169.06 83.74 172.73 83.12 175.8C82.46 179.13 79.12 186.55 77.39 187.36C76.97 187.56 76.64 187.36 76.48 186.6C75.65 182.72 80.91 172.2 77.03 171.65C76.33 171.55 75.66 171.69 75.02 172C72.17 173.41 70.21 178.39 70.66 181.34C71.02 183.66 72.3 187.84 72.49 192.38C72.59 194.86 72.37 197.44 71.49 199.88C69 206.81 65.96 208.73 61.53 209.57C57.1 210.4 54.05 207.36 56.27 204.87C58.48 202.38 61.53 203.85 65.96 203.21C69.23 202.73 68.27 199.18 66.2 197.47C65.47 196.87 64.61 196.49 63.74 196.56C60.42 196.84 53.5 197.12 47.41 203.48C46.56 204.37 45.73 205.16 44.91 205.89C39.78 210.4 35.01 211.95 30.24 211.24C24.71 210.4 24.15 206.81 28.58 204.87C30.45 204.05 31.82 203.13 32.63 202.2C33.74 200.93 33.8 199.62 32.6 198.5C30.52 196.56 24.71 203.76 20 203.21C18.69 203.05 17.74 202.48 17.12 201.73C15.52 199.77 16.25 196.53 19.45 195.73C23.88 194.62 33.84 196.01 40.76 194.07C47.69 192.13 59.04 187.15 65.13 174.14C71.22 161.13 73.99 155.31 68.73 153.1C63.47 150.88 63.88 165.41 59.59 171.72C55.4 177.87 50.73 188.53 44.36 184.66C38 180.78 51.84 172.75 55.16 169.71C58.48 166.66 65.82 151.85 60.42 150.33C58.2 149.7 57.42 150.27 56.83 151.59C55.96 153.52 55.51 157.07 51.56 160.85C47.28 164.96 44.38 166.63 43.16 166.2C42.48 165.96 42.31 165.09 42.7 163.62C43.81 159.47 50.73 150.79 47.69 149.31C46.5 148.74 44.88 148.9 43.26 149.84C40.73 151.29 38.18 154.62 37.17 160.02C35.72 167.71 39.5 172.28 40.33 176.61C40.46 177.26 40.52 177.91 40.49 178.57C40.21 183.55 33.29 182.44 33.84 179.95C34.4 177.46 33.82 172.07 30.91 172.07C28.98 172.07 28.03 172.47 27.74 173.89C27.59 174.61 27.6 175.58 27.75 176.91C28.05 179.58 30.66 184.7 28.35 185.63C28.18 185.7 27.98 185.75 27.75 185.77C24.43 186.04 16.96 183 20.28 178.84C23.6 174.69 23.85 171.93 21.94 170.82C20.87 170.19 19.34 170.82 17.92 172.09C16.04 173.77 14.35 176.59 14.19 179.12C13.93 183.2 13.91 185.4 12.39 185.07C12.26 185.04 12.12 185 11.97 184.93C10.03 184.1 11.24 180.56 5.60999 178.57C2.88999 177.61 0.829985 179.14 0.199985 180.76C-0.0500146 181.4 -0.0700146 182.06 0.199985 182.59C0.269985 182.77 0.389985 182.94 0.549985 183.08C0.779985 183.29 1.06999 183.46 1.44999 183.55C4.55999 184.33 13.21 191.62 10.5 195.97C10.31 196.27 10.07 196.57 9.75999 196.84C5.84999 200.29 3.07999 197.04 0.199985 192.35V212C0.199985 216.42 3.77999 220 8.19999 220H48.45C47.05 217.43 50.69 215.97 54.33 216.22C58.48 216.5 70.39 220.04 78.69 216.19C87 212.34 89.77 209.57 90.32 206.25C90.5 205.19 90.16 204.1 89.52 203.26Z" fill="#D2ECFF"/>
<path d="M84.78 97.14C87.8618 97.14 90.36 94.6417 90.36 91.56C90.36 88.4782 87.8618 85.98 84.78 85.98C81.6983 85.98 79.2 88.4782 79.2 91.56C79.2 94.6417 81.6983 97.14 84.78 97.14Z" fill="#D2ECFF"/>
<path d="M32.53 130.98C34.7115 130.98 36.48 129.212 36.48 127.03C36.48 124.849 34.7115 123.08 32.53 123.08C30.3485 123.08 28.58 124.849 28.58 127.03C28.58 129.212 30.3485 130.98 32.53 130.98Z" fill="#D2ECFF"/>
<path d="M76.85 70.2999C82.9031 70.2999 87.81 65.3929 87.81 59.3399C87.81 53.2868 82.9031 48.3799 76.85 48.3799C70.797 48.3799 65.89 53.2868 65.89 59.3399C65.89 65.3929 70.797 70.2999 76.85 70.2999Z" fill="#D2ECFF"/>
<path d="M9.58001 41.34C9.58001 47.31 5.63001 52.37 0.200012 54.05V28.62C5.63001 30.3 9.58001 35.36 9.58001 41.34Z" fill="#D2ECFF"/>
<path d="M291.56 118.91C290.13 114.43 286.85 100.04 260.14 100.04C259.17 100.04 258.39 100.82 258.39 101.79C258.39 103.49 261.77 105.76 261.77 110.45C259.29 112.77 260.05 115.75 257.52 115.75C255.28 115.75 254.8 110.51 253.15 110.51C252.53 110.51 251.96 110.84 251.65 111.37C251.57 111.51 249.66 114.78 249.66 119.24C249.66 123.7 251.57 126.97 251.65 127.11C251.96 127.64 252.53 127.97 253.15 127.97C254.9 127.97 255.78 122.73 257.52 122.73C259.26 122.73 259.34 125.54 261.88 127.97C261.88 129.91 260.13 134.76 260.13 136.7C260.13 137.67 260.91 138.45 261.88 138.45C283.51 138.45 295.05 125.62 295.05 122.22C295.06 120.99 292.3 119.93 291.56 118.91ZM282.84 120.98C281.88 120.98 281.09 120.2 281.09 119.23C281.09 118.27 281.87 117.48 282.84 117.48C283.8 117.48 284.59 118.26 284.59 119.23C284.58 120.2 283.8 120.98 282.84 120.98Z" fill="#75B7FF"/>
<path d="M250.15 144.04C249.49 141.99 248 135.42 235.8 135.42C235.36 135.42 235 135.78 235 136.22C235 137 236.54 138.03 236.54 140.18C235.41 141.24 235.76 142.6 234.6 142.6C233.58 142.6 233.36 140.21 232.6 140.21C232.32 140.21 232.06 140.36 231.91 140.6C231.87 140.66 231 142.16 231 144.2C231 146.24 231.87 147.73 231.91 147.8C232.05 148.04 232.31 148.19 232.6 148.19C233.4 148.19 233.8 145.8 234.6 145.8C235.4 145.8 235.43 147.08 236.59 148.19C236.59 149.08 235.79 151.29 235.79 152.18C235.79 152.62 236.15 152.98 236.59 152.98C246.47 152.98 251.74 147.12 251.74 145.57C251.75 144.99 250.49 144.5 250.15 144.04ZM246.17 144.98C245.73 144.98 245.37 144.62 245.37 144.18C245.37 143.74 245.73 143.38 246.17 143.38C246.61 143.38 246.97 143.74 246.97 144.18C246.97 144.62 246.61 144.98 246.17 144.98Z" fill="#99CFFF"/>
</g>
<defs>
<clipPath id="clip0_1386_6543">
<rect width="338.2" height="220" fill="white"/>
</clipPath>
</defs>
</svg>
