<svg width="1142" height="200" viewBox="0 0 1142 200" fill="none" xmlns="http://www.w3.org/2000/svg">
<path d="M1142 16V184C1142 192.846 1134.83 200 1126 200H15.9999C7.16917 200 0 192.846 0 184V16C0 7.16927 7.16917 0 15.9999 0H1126C1130.68 0 1134.89 2.01542 1137.83 5.23081C1140.43 8.07696 1142 11.8462 1142 16Z" fill="url(#paint0_linear_1600_7353)"/>
<path d="M1142 16V184C1142 192.846 1133.63 200 1123.31 200H617.061C656.554 173.985 686.338 166.754 707.461 165.646C719.323 165.031 743.892 165.508 763.707 151.8C769.523 147.785 770.061 145.908 786.923 132.538C799.892 122.231 806.4 117.077 814.338 112.677C828.477 104.815 832.369 106.323 847.384 98.8307C856.692 94.1846 859.354 91.5384 877.615 78.3538C911 54.2769 909.923 57.4923 920.507 48.2615C940.446 30.8769 937.877 25.0616 953.569 12.1385C959.63 7.13848 962.354 4.61538 965.861 0H1123.31C1128.77 0 1133.69 2.01542 1137.12 5.23081C1140.17 8.07696 1142 11.8462 1142 16Z" fill="#2A7AD7"/>
<path d="M1142 16V184C1142 192.846 1133.63 200 1123.31 200H765.062C770.954 196.138 778.015 190.662 785.492 181.908C799.892 165.046 798.646 156.062 813.631 146.385C825.369 138.8 831.4 140.892 848.077 134.338C865.908 127.338 868.692 121.123 893.077 103.046C934.154 72.5693 943.231 77.5693 957.062 58.4923C961.015 53.0308 962.846 49.0923 964.8 44.7385C967.261 39.2308 969.939 33.077 977.446 22.3693C977.446 22.3693 985.323 11.1385 995.708 0H1123.29C1128.75 0 1133.68 2.01542 1137.11 5.23081C1140.17 8.07696 1142 11.8462 1142 16Z" fill="#134692"/>
<path d="M1142 16V184C1142 187.569 1140.65 190.846 1138.35 193.508C1134.94 197.446 1129.48 200 1123.31 200H821.354C822.015 194.862 823.877 189.108 828.169 184.108C835.646 175.4 844.569 175.892 857.246 166.446C868.4 158.123 869.369 151.862 877.877 140.769C893 120.969 913.246 110.477 929.892 101.831C955.431 88.5846 960.631 92.8462 986.615 77.7539C1002.2 68.7077 1001.78 66.3231 1015.2 60.0923C1024.91 55.6 1033.91 52.7692 1039.58 44.4462C1042.8 39.7077 1043.4 35.5077 1043.78 33.6154C1045.49 25.6616 1053.43 14.4769 1080.57 0H1123.31C1128.77 0 1133.69 2.01542 1137.12 5.23081C1140.17 8.07696 1142 11.8462 1142 16Z" fill="#0E336B"/>
<path opacity="0.65" d="M713.169 143.4C714.784 147.569 730.892 146.462 743.676 140.985C754 136.569 766.538 127.415 764.954 123.323C762.954 118.185 738.261 120.215 721.615 132.954C718.923 135 711.969 140.323 713.169 143.4Z" fill="#2A7AD7"/>
<path d="M1043.09 0C1038.4 1.67692 1032.26 4.21541 1027.38 10.0308C1019.83 19.0462 1023.43 26.3077 1014.03 34.7077C1009.2 39.0308 1004.02 40.8923 1000.32 42.2308C989.985 45.9692 973.615 48.3077 964.815 44.7385C967.277 39.2308 969.954 33.077 977.461 22.3693C977.461 22.3693 985.338 11.1385 995.723 0H1043.09Z" fill="#0E336B"/>
<path d="M950.2 129.2C945.046 129.477 938.031 130.369 932.323 133.216C931.692 133.523 932.031 134.062 932.462 134.446C935.154 136.831 936.769 139.031 937.692 140.492C933.861 144.277 930.785 148.169 929.677 148.169C927.538 148.169 926.677 144.246 924.446 142.8C920.246 140.062 917.154 140.231 916.908 140.492C916.646 140.754 916.815 150.831 923.292 153.062C916.692 155.277 916.646 165.723 916.908 165.969C917.169 166.231 920.538 166.139 924.446 163.323C926.585 161.769 927.508 157.954 929.677 157.954C931.8 157.954 940.646 169.616 948.708 170.262C948.154 172.077 947.139 174.677 945.108 176.308C944.831 176.523 945.169 176.923 945.585 176.923C951.677 176.923 958.754 173.062 959.785 167.616C967.292 163.831 973.031 156.969 973.031 153.077C973.031 149.031 966.831 140.662 958.892 136.354C957.477 134.246 954.892 131.862 952.292 129.969C951.477 129.323 951.031 129.154 950.2 129.2ZM962.769 148.969C962.969 148.923 963.169 148.969 963.385 148.969C965.062 148.969 966.369 150.293 966.369 151.954C966.369 153.616 965.046 154.939 963.385 154.939C961.708 154.939 960.4 153.616 960.4 151.954C960.385 150.493 961.4 149.246 962.769 148.969Z" fill="#75B7FF"/>
<path d="M1032.71 122.785C1034.98 122.908 1038.08 123.308 1040.6 124.554C1040.88 124.693 1040.74 124.924 1040.54 125.093C1039.35 126.139 1038.63 127.124 1038.23 127.754C1039.92 129.416 1041.28 131.139 1041.77 131.139C1042.71 131.139 1043.09 129.416 1044.08 128.77C1045.92 127.57 1047.29 127.631 1047.4 127.754C1047.51 127.877 1047.43 132.324 1044.58 133.308C1047.49 134.277 1047.52 138.893 1047.4 139.001C1047.28 139.108 1045.8 139.077 1044.08 137.831C1043.14 137.154 1042.72 135.462 1041.77 135.462C1040.83 135.462 1036.92 140.616 1033.37 140.893C1033.62 141.693 1034.06 142.847 1034.95 143.554C1035.08 143.647 1034.92 143.831 1034.74 143.831C1032.05 143.831 1028.92 142.124 1028.48 139.724C1025.17 138.047 1022.63 135.031 1022.63 133.308C1022.63 131.524 1025.37 127.831 1028.86 125.939C1029.49 125.016 1030.63 123.954 1031.77 123.124C1032.14 122.847 1032.32 122.77 1032.71 122.785ZM1027.15 131.524C1027.06 131.508 1026.98 131.524 1026.88 131.524C1026.14 131.524 1025.55 132.108 1025.55 132.847C1025.55 133.585 1026.14 134.17 1026.88 134.17C1027.62 134.17 1028.2 133.585 1028.2 132.847C1028.2 132.185 1027.75 131.647 1027.15 131.524Z" fill="#2A7AD7"/>
<path d="M1019.95 78.4774C1017.11 78.6313 1013.25 79.1236 1010.11 80.6928C1009.75 80.862 1009.94 81.1544 1010.18 81.3697C1011.66 82.6774 1012.55 83.8928 1013.06 84.7082C1010.95 86.7851 1009.25 88.9389 1008.65 88.9389C1007.48 88.9389 1006.98 86.7851 1005.77 85.9851C1003.46 84.4774 1001.75 84.5697 1001.62 84.7082C1001.48 84.8466 1001.57 90.4005 1005.14 91.6313C1001.51 92.8466 1001.48 98.6005 1001.62 98.7389C1001.75 98.8774 1003.62 98.8313 1005.77 97.2775C1006.95 96.4313 1007.46 94.3236 1008.65 94.3236C1009.82 94.3236 1014.69 100.754 1019.12 101.108C1018.82 102.108 1018.26 103.539 1017.14 104.447C1016.98 104.57 1017.17 104.785 1017.4 104.785C1020.75 104.785 1024.66 102.662 1025.23 99.6621C1029.37 97.5698 1032.54 93.8005 1032.54 91.6467C1032.54 89.4159 1029.12 84.8159 1024.75 82.4313C1023.97 81.2774 1022.55 79.9544 1021.12 78.9082C1020.65 78.5544 1020.42 78.462 1019.95 78.4774ZM1026.88 89.3852C1026.98 89.3544 1027.09 89.3852 1027.22 89.3852C1028.14 89.3852 1028.86 90.1082 1028.86 91.0313C1028.86 91.9544 1028.14 92.6774 1027.22 92.6774C1026.29 92.6774 1025.57 91.9544 1025.57 91.0313C1025.57 90.2159 1026.12 89.539 1026.88 89.3852Z" fill="#134692"/>
<path d="M1135.92 120.461C1129.51 118.2 1125.45 124.938 1128.15 127.4C1128.49 127.723 1128.94 127.985 1129.52 128.123C1132.48 128.862 1138.66 133.415 1142 138.369V124.508C1140.89 123.061 1139.12 121.6 1135.92 120.461ZM1124.85 137.062C1119.31 127.692 1113.34 120.877 1109.94 126.415C1109.54 127.077 1109.42 127.785 1109.49 128.538C1109.98 133.431 1119.26 139.938 1117.63 143.461C1117.42 143.954 1117 144.369 1116.32 144.738C1116.12 144.846 1115.91 144.908 1115.68 144.969C1111.71 145.954 1104.94 138.569 1097.85 132.692C1092.95 128.646 1087.91 125.323 1083.54 126C1074.11 127.446 1065.91 129.2 1065.52 135.215C1065.46 136.262 1065.63 137.446 1066.06 138.769C1069.05 147.723 1080.97 129.831 1090.34 140.908C1099.72 151.969 1102.69 161.338 1115.05 165.185C1127.4 169.015 1121.86 177.954 1110.37 172C1098.86 166.031 1098.02 168.077 1091.63 156.4C1085.23 144.738 1077.14 141.323 1074.58 147.292C1074.54 147.4 1074.51 147.492 1074.48 147.6C1074.45 147.661 1074.42 147.738 1074.4 147.8C1072.74 153.323 1083.88 154.662 1082.68 159.2V159.215C1082.65 159.308 1082.6 159.385 1082.57 159.462C1080.49 163.308 1058.89 149.4 1057.97 159.215C1057.95 159.523 1057.94 159.815 1057.97 160.092C1058.49 168.369 1078.91 165.015 1080.55 172.846C1080.63 173.246 1080.66 173.615 1080.68 173.954C1080.68 174.185 1080.66 174.415 1080.63 174.615C1079.8 180.508 1066.65 178.585 1063.51 185.615C1062.25 188.462 1062.22 190.585 1062.74 192.169C1063.65 194.877 1066.23 196.031 1067.35 196.477C1074.15 199.246 1083.32 178.8 1102.06 183.492C1102.06 183.492 1114.4 185.015 1113.97 193.431C1113.95 193.938 1113.89 194.446 1113.77 194.985C1113.18 197.677 1111.92 199.185 1110.23 200H1121.92C1122.32 199.554 1122.74 199.092 1123.14 198.6C1129.51 190.938 1135.29 190.831 1138.88 193.508C1140.85 190.846 1142 187.569 1142 184V148.831C1134.92 154.708 1130.31 146.292 1124.85 137.062Z" fill="url(#paint1_linear_1600_7353)"/>
<path d="M1087.62 102C1089.6 102 1091.22 100.389 1091.22 98.4003C1091.22 96.4121 1089.6 94.8003 1087.62 94.8003C1085.63 94.8003 1084.02 96.4121 1084.02 98.4003C1084.02 100.389 1085.63 102 1087.62 102Z" fill="#99CFFF"/>
<path d="M1099.85 75.954C1103.88 75.954 1107.15 72.6822 1107.15 68.6463C1107.15 64.6104 1103.88 61.3386 1099.85 61.3386C1095.81 61.3386 1092.54 64.6104 1092.54 68.6463C1092.54 72.6822 1095.81 75.954 1099.85 75.954Z" fill="#75B7FF"/>
<path d="M1098.35 25.5853C1104.28 25.5853 1109.09 20.7775 1109.09 14.8468C1109.09 8.91614 1104.28 4.1084 1098.35 4.1084C1092.42 4.1084 1087.62 8.91614 1087.62 14.8468C1087.62 20.7775 1092.42 25.5853 1098.35 25.5853Z" fill="#2A7AD7"/>
<path opacity="0.45" d="M925.292 0C920.092 8.43077 903.585 16.4154 901.138 18.7538C893.061 26.4769 889.892 26.5231 881.277 35.6154C871.985 45.4 872.092 49.1077 865.492 56.0769C863.492 58.2 847.231 75 830.431 73.5384C812.123 71.9538 812.123 50.2616 786.031 35.6154C773.077 28.3539 761.738 27.3231 740.431 25.3846C708.969 22.5077 700.354 28.6001 680.246 27.1847C654.6 25.3847 626.077 12.5385 613.585 0H925.292Z" fill="#99CFFF"/>
<defs>
<linearGradient id="paint0_linear_1600_7353" x1="308.314" y1="160.76" x2="1023" y2="-4.54892" gradientUnits="userSpaceOnUse">
<stop stop-color="#2A7AD7"/>
<stop offset="1" stop-color="#75B7FF"/>
</linearGradient>
<linearGradient id="paint1_linear_1600_7353" x1="1085.2" y1="152.566" x2="1164.3" y2="180.983" gradientUnits="userSpaceOnUse">
<stop stop-color="#75B7FF"/>
<stop offset="1" stop-color="#2A7AD7"/>
</linearGradient>
</defs>
</svg>
