<svg width="364" height="240" viewBox="0 0 364 240" fill="none" xmlns="http://www.w3.org/2000/svg">
  <g clip-path="url(#clip0_54_1768)">
    <path d="M4.05219 231.335V222.927H0.101318V221.205H9.92785V222.927H5.87567V231.335H4.05219Z" fill="white" />
    <path
      d="M13.8787 231.335V221.205H15.8035V231.335H13.8787ZM14.6892 227.283V225.561H23.3V227.283H14.6892ZM22.4896 231.335V221.205H24.3131V231.335H22.4896Z"
      fill="white" />
    <path
      d="M29.4796 231.335V221.205H38.1918V222.927H31.4044V229.613H38.2931V231.335H29.4796ZM30.4927 226.979V225.257H37.3814V226.979H30.4927Z"
      fill="white" />
    <path
      d="M50.247 231.335V221.205H52.0705L59.9722 229.107L59.7696 229.208C59.7696 228.904 59.6683 228.6 59.6683 228.195C59.6683 227.891 59.567 227.486 59.567 227.182C59.567 226.878 59.567 226.473 59.567 226.169C59.567 225.865 59.567 225.46 59.567 225.156C59.567 224.852 59.567 224.548 59.567 224.244V221.205H61.3905V231.335H59.567L51.6653 223.535L51.8679 223.434C51.8679 223.636 51.8679 223.839 51.9692 224.041C52.0705 224.244 51.9692 224.548 52.0705 224.75C52.0705 225.054 52.1718 225.257 52.1718 225.561C52.1718 225.865 52.1718 226.169 52.2731 226.473C52.2731 226.777 52.2731 227.08 52.2731 227.384V231.335H50.247Z"
      fill="white" />
    <path
      d="M66.5571 231.335V221.205H75.2693V222.927H68.4819V229.613H75.3706V231.335H66.5571ZM67.5701 226.979V225.257H74.4588V226.979H67.5701Z"
      fill="white" />
    <path d="M82.8671 231.335V222.927H78.9162V221.205H88.7427V222.927H84.7919V231.335H82.8671Z" fill="white" />
    <path
      d="M95.2262 231.335L91.5793 221.205H93.6054L95.6315 226.777C95.7328 226.979 95.7328 227.182 95.8341 227.486C95.9354 227.688 96.0367 227.992 96.0367 228.296C96.138 228.6 96.138 228.803 96.2393 229.005C96.3406 229.208 96.3406 229.512 96.4419 229.613H95.8341C95.9354 229.309 96.0367 229.107 96.138 228.701C96.2393 228.397 96.3406 228.094 96.5432 227.688C96.6445 227.384 96.8471 226.979 96.9484 226.675L98.6706 222.724H100.393L102.115 226.675C102.216 226.979 102.419 227.283 102.52 227.688C102.621 227.992 102.824 228.296 102.925 228.701C103.027 229.005 103.128 229.309 103.128 229.512L102.621 229.613C102.621 229.41 102.723 229.309 102.723 229.107C102.824 228.904 102.824 228.701 102.925 228.499C103.027 228.296 103.027 228.094 103.128 227.891C103.229 227.688 103.229 227.486 103.331 227.283C103.432 227.08 103.432 226.878 103.533 226.777L105.762 221.306H107.687L103.533 231.437H102.216L99.3797 224.75L99.6836 224.852L96.8471 231.437H95.2262V231.335Z"
      fill="white" />
    <path
      d="M116.804 231.538C115.892 231.538 115.082 231.437 114.271 231.133C113.562 230.829 112.853 230.525 112.245 230.018C111.638 229.512 111.232 229.005 110.928 228.397C110.624 227.79 110.422 227.08 110.422 226.371C110.422 225.662 110.624 224.953 110.928 224.345C111.232 223.737 111.638 223.13 112.245 222.724C112.853 222.218 113.461 221.914 114.271 221.61C115.082 221.306 115.892 221.205 116.804 221.205C117.716 221.205 118.526 221.306 119.337 221.61C120.147 221.914 120.755 222.218 121.261 222.724C121.768 223.231 122.274 223.737 122.578 224.345C122.882 224.953 123.085 225.662 123.085 226.371C123.085 227.08 122.882 227.79 122.578 228.397C122.274 229.005 121.869 229.613 121.261 230.018C120.755 230.525 120.046 230.829 119.337 231.133C118.526 231.335 117.716 231.538 116.804 231.538ZM116.804 229.714C117.412 229.714 118.02 229.613 118.526 229.41C119.033 229.208 119.539 229.005 119.843 228.701C120.147 228.397 120.552 227.992 120.755 227.587C120.958 227.182 121.059 226.675 121.059 226.27C121.059 225.764 120.958 225.358 120.755 224.953C120.552 224.548 120.248 224.143 119.843 223.839C119.438 223.535 119.033 223.231 118.526 223.13C118.02 222.927 117.412 222.826 116.804 222.826C116.196 222.826 115.588 222.927 115.082 223.13C114.575 223.332 114.069 223.535 113.664 223.839C113.258 224.143 112.954 224.548 112.752 224.953C112.549 225.358 112.448 225.865 112.448 226.27C112.448 226.777 112.549 227.182 112.752 227.587C112.954 227.992 113.258 228.397 113.664 228.701C114.069 229.005 114.474 229.309 115.082 229.41C115.588 229.613 116.196 229.714 116.804 229.714Z"
      fill="white" />
    <path
      d="M127.441 231.335V221.205H133.317C134.026 221.205 134.634 221.306 135.14 221.61C135.647 221.914 136.052 222.218 136.356 222.724C136.66 223.231 136.862 223.737 136.862 224.345C136.862 224.953 136.66 225.561 136.356 226.067C136.052 226.574 135.545 226.979 135.039 227.283C134.532 227.587 133.823 227.688 133.215 227.688H129.366V231.335H127.441ZM129.265 226.067H132.911C133.215 226.067 133.519 225.966 133.823 225.865C134.127 225.764 134.33 225.561 134.532 225.257C134.735 225.054 134.836 224.75 134.836 224.447C134.836 224.143 134.735 223.94 134.532 223.636C134.33 223.434 134.127 223.231 133.823 223.13C133.519 223.028 133.215 222.927 132.911 222.927H129.265V226.067ZM135.14 231.335L131.696 226.777L133.722 226.371L137.47 231.335H135.14Z"
      fill="white" />
    <path
      d="M142.13 231.335V221.205H144.055V231.335H142.13ZM143.447 228.904L143.244 226.979L150.64 221.205H153.274L143.447 228.904ZM150.64 231.335L146.284 225.966L147.398 224.548L153.071 231.335H150.64Z"
      fill="white" />
    <path
      d="M170.394 231.538C169.482 231.538 168.672 231.437 167.862 231.133C167.152 230.829 166.443 230.525 165.835 230.018C165.228 229.512 164.822 229.005 164.518 228.397C164.215 227.79 164.012 227.08 164.012 226.371C164.012 225.662 164.215 224.953 164.518 224.345C164.822 223.737 165.228 223.13 165.835 222.724C166.443 222.218 167.051 221.914 167.862 221.61C168.672 221.306 169.482 221.205 170.394 221.205C171.306 221.205 172.116 221.306 172.927 221.61C173.737 221.914 174.345 222.218 174.852 222.724C175.358 223.231 175.865 223.737 176.168 224.345C176.472 224.953 176.675 225.662 176.675 226.371C176.675 227.08 176.472 227.79 176.168 228.397C175.865 229.005 175.459 229.613 174.852 230.018C174.345 230.525 173.636 230.829 172.927 231.133C172.116 231.335 171.306 231.538 170.394 231.538ZM170.394 229.714C171.002 229.714 171.61 229.613 172.116 229.41C172.623 229.208 173.129 229.005 173.433 228.701C173.737 228.397 174.142 227.992 174.345 227.587C174.548 227.182 174.649 226.675 174.649 226.27C174.649 225.764 174.548 225.358 174.345 224.953C174.142 224.548 173.839 224.143 173.433 223.839C173.028 223.535 172.623 223.231 172.116 223.13C171.61 222.927 171.002 222.826 170.394 222.826C169.786 222.826 169.178 222.927 168.672 223.13C168.165 223.332 167.659 223.535 167.254 223.839C166.849 224.143 166.545 224.548 166.342 224.953C166.139 225.358 166.038 225.865 166.038 226.27C166.038 226.777 166.139 227.182 166.342 227.587C166.545 227.992 166.849 228.397 167.254 228.701C167.659 229.005 168.064 229.309 168.672 229.41C169.178 229.613 169.786 229.714 170.394 229.714Z"
      fill="white" />
    <path
      d="M181.031 231.335V221.205H182.956V231.335H181.031ZM181.74 227.384V225.662H188.933V227.384H181.74ZM181.943 222.927V221.205H189.541V222.927H181.943Z"
      fill="white" />
    <path
      d="M206.661 231.538C205.851 231.538 205.04 231.437 204.331 231.234C203.622 231.031 202.913 230.727 202.406 230.221C201.799 229.816 201.393 229.208 201.089 228.6C200.785 227.992 200.583 227.182 200.583 226.27C200.583 225.561 200.785 224.852 201.089 224.244C201.393 223.636 201.9 223.028 202.406 222.623C203.014 222.116 203.622 221.813 204.432 221.509C205.243 221.205 206.053 221.103 206.965 221.103C207.674 221.103 208.383 221.205 208.991 221.306C209.599 221.509 210.207 221.711 210.612 221.914C211.119 222.218 211.422 222.42 211.726 222.724L210.511 224.041C210.207 223.839 209.802 223.535 209.396 223.332C208.991 223.13 208.586 223.028 208.181 222.826C207.776 222.724 207.269 222.623 206.762 222.623C206.155 222.623 205.547 222.724 205.04 222.927C204.534 223.13 204.027 223.332 203.622 223.636C203.217 223.94 202.913 224.345 202.71 224.75C202.508 225.156 202.406 225.662 202.406 226.067C202.406 226.675 202.508 227.182 202.71 227.688C202.913 228.093 203.217 228.499 203.622 228.803C204.027 229.107 204.432 229.309 205.04 229.41C205.547 229.512 206.053 229.613 206.661 229.613C207.269 229.613 207.776 229.512 208.282 229.41C208.789 229.309 209.194 229.107 209.599 229.005C210.004 228.803 210.207 228.6 210.409 228.296C210.612 227.992 210.713 227.688 210.713 227.384V227.182L211.017 227.587H206.762V225.966H212.638C212.638 226.067 212.638 226.27 212.638 226.371C212.638 226.473 212.638 226.574 212.638 226.675C212.638 226.777 212.638 226.777 212.638 226.878C212.638 227.688 212.537 228.296 212.233 228.904C211.929 229.512 211.524 229.917 211.017 230.322C210.511 230.727 209.802 230.93 209.092 231.133C208.383 231.437 207.573 231.538 206.661 231.538Z"
      fill="white" />
    <path
      d="M215.576 231.335L220.54 221.205H222.566L227.53 231.335H225.504L222.262 224.75C222.161 224.548 222.059 224.345 221.958 224.143C221.857 223.94 221.755 223.737 221.755 223.636C221.654 223.434 221.553 223.231 221.553 223.13C221.452 222.927 221.452 222.724 221.35 222.522H221.857C221.755 222.724 221.654 222.927 221.654 223.13C221.553 223.332 221.452 223.535 221.452 223.737C221.452 223.94 221.249 224.143 221.148 224.244C221.046 224.447 220.945 224.649 220.844 224.852L217.602 231.437H215.576V231.335ZM217.805 229.208L218.514 227.587H224.491L224.795 229.208H217.805Z"
      fill="white" />
    <path
      d="M231.278 231.335V221.205H233.102L237.762 226.878H236.951L241.611 221.205H243.435V231.335H241.611V227.384C241.611 226.574 241.611 225.865 241.712 225.156C241.712 224.447 241.814 223.737 241.915 223.028L242.118 223.737L237.964 228.701H237.052L232.899 223.737L233.102 223.028C233.203 223.737 233.304 224.447 233.304 225.156C233.304 225.865 233.405 226.574 233.405 227.384V231.335H231.278Z"
      fill="white" />
    <path
      d="M248.399 231.335V221.205H257.111V222.927H250.222V229.613H257.111V231.335H248.399ZM249.412 226.979V225.257H256.3V226.979H249.412Z"
      fill="white" />
    <path
      d="M269.166 231.335V221.205H271.091V231.335H269.166ZM269.774 227.384V225.662H276.966V227.384H269.774ZM269.976 222.927V221.205H277.574V222.927H269.976Z"
      fill="white" />
    <path
      d="M282.336 231.335V229.613H284.969V223.028H282.336V221.306H289.629V223.028H286.996V229.613H289.629V231.335H282.336Z"
      fill="white" />
    <path
      d="M294.999 231.335V221.205H296.822L304.724 229.107L304.521 229.208C304.521 228.904 304.42 228.6 304.42 228.195C304.42 227.891 304.319 227.486 304.319 227.182C304.319 226.878 304.319 226.473 304.319 226.169C304.319 225.865 304.319 225.46 304.319 225.156C304.319 224.852 304.319 224.548 304.319 224.244V221.205H306.142V231.335H304.319L296.417 223.535L296.62 223.434C296.62 223.636 296.62 223.839 296.721 224.041C296.822 224.244 296.721 224.548 296.822 224.75C296.822 225.054 296.923 225.257 296.923 225.561C296.923 225.865 296.923 226.169 297.025 226.473C297.025 226.777 297.025 227.08 297.025 227.384V231.335H294.999Z"
      fill="white" />
    <path
      d="M309.89 231.335L314.854 221.205H316.88L321.844 231.335H319.818L316.576 224.75C316.475 224.548 316.374 224.345 316.273 224.143C316.171 223.94 316.07 223.737 316.07 223.636C315.969 223.434 315.867 223.231 315.867 223.13C315.766 222.927 315.766 222.724 315.665 222.522H316.171C316.07 222.724 315.969 222.927 315.969 223.13C315.867 223.332 315.766 223.535 315.766 223.737C315.766 223.94 315.563 224.143 315.462 224.244C315.361 224.447 315.26 224.649 315.158 224.852L311.916 231.437H309.89V231.335ZM312.119 229.208L312.828 227.587H318.805L319.109 229.208H312.119Z"
      fill="white" />
    <path
      d="M325.593 231.335V221.205H327.416L335.318 229.107L335.115 229.208C335.115 228.904 335.014 228.6 335.014 228.195C335.014 227.891 334.913 227.486 334.913 227.182C334.913 226.878 334.913 226.473 334.913 226.169C334.913 225.865 334.913 225.46 334.913 225.156C334.913 224.852 334.913 224.548 334.913 224.244V221.205H336.736V231.335H334.913L327.011 223.535L327.213 223.434C327.213 223.636 327.213 223.839 327.315 224.041C327.416 224.244 327.315 224.548 327.416 224.75C327.416 225.054 327.517 225.257 327.517 225.561C327.517 225.865 327.517 226.169 327.619 226.473C327.619 226.777 327.619 227.08 327.619 227.384V231.335H325.593Z"
      fill="white" />
    <path
      d="M347.17 231.538C346.36 231.538 345.55 231.437 344.84 231.133C344.131 230.93 343.523 230.525 342.916 230.018C342.409 229.512 341.903 229.005 341.599 228.397C341.295 227.79 341.092 227.08 341.092 226.27C341.092 225.561 341.295 224.852 341.599 224.143C341.903 223.433 342.308 222.927 342.916 222.522C343.422 222.015 344.131 221.711 344.84 221.407C345.55 221.103 346.36 221.002 347.17 221.002C347.778 221.002 348.487 221.103 349.095 221.205C349.703 221.407 350.21 221.61 350.716 221.813C351.223 222.015 351.628 222.319 351.932 222.623L350.817 224.143C350.513 223.839 350.108 223.636 349.804 223.433C349.399 223.231 348.994 223.028 348.589 222.927C348.183 222.826 347.677 222.724 347.069 222.724C346.563 222.724 346.056 222.826 345.651 222.927C345.144 223.13 344.739 223.332 344.435 223.636C344.03 223.94 343.726 224.244 343.523 224.75C343.321 225.257 343.22 225.662 343.22 226.169C343.22 226.777 343.321 227.283 343.523 227.688C343.726 228.094 344.03 228.499 344.435 228.803C344.84 229.107 345.246 229.309 345.752 229.512C346.259 229.613 346.765 229.714 347.272 229.714C347.88 229.714 348.386 229.613 348.791 229.512C349.196 229.41 349.602 229.208 350.007 229.005C350.311 228.803 350.615 228.6 350.919 228.397L351.83 229.917C351.526 230.12 351.223 230.424 350.716 230.626C350.21 230.93 349.703 231.133 349.095 231.335C348.487 231.538 347.88 231.538 347.17 231.538Z"
      fill="white" />
    <path
      d="M356.187 231.335V221.205H364.899V222.927H358.111V229.613H365V231.335H356.187ZM357.2 226.979V225.257H364.088V226.979H357.2Z"
      fill="white" />
    <path
      d="M41.6362 182.101H51.4627L62.8088 208.137H55.1096L52.7796 202.565H40.5218L38.1918 208.137H30.3914L41.6362 182.101ZM50.6523 197.905L46.6001 188.585L42.5479 197.905H50.6523Z"
      fill="url(#paint0_linear_54_1768)" />
    <path d="M67.1649 182.101H92.0858V186.863H75.0666V192.637H90.0597V197.398H75.0666V208.238H67.1649V182.101Z"
      fill="url(#paint1_linear_54_1768)" />
    <path d="M96.3406 182.101H104.242V208.137H96.3406V182.101Z" fill="url(#paint2_linear_54_1768)" />
    <path
      d="M13.7774 192.029V196.79H18.9439V203.477H9.32001C8.40827 203.477 7.90175 203.071 7.90175 202.362V187.977C7.90175 187.268 8.40827 186.863 9.32001 186.863H25.3261V182.101H6.6861H4.96392C3.03913 184.026 1.92478 185.14 0 187.065V187.47V202.767V208.137H6.6861H21.8818C23.8066 206.212 24.9209 205.097 26.8457 203.173V192.029H13.7774Z"
      fill="url(#paint3_linear_54_1768)" />
    <path
      d="M123.794 182.101H132.304L143.548 197.702V182.101H151.45V208.137H142.941L131.696 192.536V208.137H123.794V182.101Z"
      fill="url(#paint4_linear_54_1768)" />
    <path
      d="M157.63 182.101H182.956V186.863H165.532V192.232H180.93V196.993H165.532V203.477H182.956V208.238H157.63V182.101Z"
      fill="url(#paint5_linear_54_1768)" />
    <path d="M187.109 182.101H216.386V186.863H205.648V208.238H197.746V186.863H187.109V182.101Z"
      fill="url(#paint6_linear_54_1768)" />
    <path
      d="M228.036 182.101L233.203 200.437L239.281 182.101H247.588L253.666 200.437L258.833 182.101H266.532L259.238 208.137H249.209L243.435 190.915L237.66 208.137H227.631L220.337 182.101H228.036Z"
      fill="url(#paint7_linear_54_1768)" />
    <path
      d="M336.331 182H344.233V192.029L354.667 182H364.392L353.249 192.738L364.797 208.035H355.984L348.082 197.601L344.233 201.349V208.035H336.331V182Z"
      fill="url(#paint8_linear_54_1768)" />
    <path
      d="M291.656 182.101H277.878H276.055C274.13 184.026 273.016 185.14 271.091 187.065V187.47V202.767V208.137H277.777H291.554H293.378C295.303 206.212 296.417 205.097 298.342 203.173V202.767V187.47V182.101H291.656ZM290.44 202.362C290.44 203.071 289.933 203.477 289.022 203.477H280.31C279.398 203.477 278.891 203.071 278.891 202.362V187.977C278.891 187.268 279.398 186.863 280.31 186.863H289.022C289.933 186.863 290.44 187.166 290.44 187.977V202.362Z"
      fill="url(#paint9_linear_54_1768)" />
    <path
      d="M325.187 198.31H330.557V192.941V187.47V182.101H323.87H309.485C307.56 184.026 306.446 185.14 304.521 187.065V208.238H312.423V198.411H316.678L323.161 208.238H331.671L325.187 198.31ZM322.655 192.434C322.655 193.143 322.148 193.549 321.237 193.549H312.322V186.863H321.237C322.148 186.863 322.655 187.166 322.655 187.977V192.434Z"
      fill="url(#paint10_linear_54_1768)" />
    <g clip-path="url(#clip1_54_1768)">
      <path d="M172.467 80.8645L145.512 134.774H115.646L104 114.112L172.467 0V80.8645Z" fill="white" />
      <path d="M186.837 111.858L205.057 148.111L200.173 156H163.827L159.037 148.111L177.163 111.858H186.837Z"
        fill="white" />
      <path d="M260 114.112L248.354 134.774H218.488L191.533 80.8645V0L260 114.112Z" fill="white" />
      <path d="M186.837 111.858L184.583 122.189H179.417L177.163 111.858H186.837Z" fill="url(#paint11_linear_54_1768)" />
      <path
        d="M179.417 122.189L169.744 141.442C170.871 143.227 171.246 143.79 172.373 145.669H191.627C192.754 143.884 193.129 143.321 194.256 141.442L184.583 122.189C182.235 122.189 181.765 122.189 179.417 122.189Z"
        fill="url(#paint12_linear_54_1768)" />
      <path d="M172.373 145.669L163.827 156L159.037 148.111L169.744 141.443L172.373 145.669Z"
        fill="url(#paint13_linear_54_1768)" />
      <path d="M200.173 156H163.827L172.373 145.669H191.627L200.173 156Z" fill="url(#paint14_linear_54_1768)" />
      <path d="M205.057 148.111L200.173 156L191.627 145.669L194.257 141.443L205.057 148.111Z"
        fill="url(#paint15_linear_54_1768)" />
      <path d="M205.057 148.111L194.257 141.443L184.583 122.189L186.837 111.858L205.057 148.111Z"
        fill="url(#paint16_linear_54_1768)" />
      <path d="M179.417 122.189L169.744 141.443L159.037 148.111L177.163 111.858L179.417 122.189Z"
        fill="url(#paint17_linear_54_1768)" />
      <path
        d="M204.212 33.0596V80.1132L219.896 111.482H237.272C240.277 106.129 241.028 104.814 244.034 99.4605L204.212 33.0596Z"
        fill="url(#paint18_linear_54_1768)" />
      <path d="M248.354 134.774H218.488L219.896 111.482H237.272L238.586 114.112L248.354 134.774Z"
        fill="url(#paint19_linear_54_1768)" />
      <path
        d="M260 114.112L248.354 134.774L238.586 114.112L237.272 111.482L239.244 108.101L239.62 107.35L240.653 105.471L241.028 104.814L241.404 104.157L242.155 102.842L242.531 102.184L244.128 99.4606L260 114.112Z"
        fill="url(#paint20_linear_54_1768)" />
      <path d="M260 114.112L244.128 99.4606L204.306 33.0596L191.533 0L260 114.112Z"
        fill="url(#paint21_linear_54_1768)" />
      <path d="M204.306 33.0596V80.1132L191.533 80.8645V0L204.306 33.0596Z" fill="url(#paint22_linear_54_1768)" />
      <path d="M219.896 111.482L218.488 134.774L191.533 80.8645L204.306 80.1132L219.896 111.482Z"
        fill="url(#paint23_linear_54_1768)" />
      <path d="M244.128 99.4606L238.586 114.112L219.896 111.482H237.271L244.128 99.4606Z" fill="white" />
      <path
        d="M159.788 33.0596V80.1132L144.104 111.482H126.728C123.723 106.129 122.972 104.814 119.966 99.4605L159.788 33.0596Z"
        fill="url(#paint24_linear_54_1768)" />
      <path d="M115.646 134.774H145.512L144.104 111.482H126.728L125.414 114.112L115.646 134.774Z"
        fill="url(#paint25_linear_54_1768)" />
      <path
        d="M104 114.112L115.646 134.774L125.414 114.112L126.728 111.482L124.756 108.101L124.38 107.35L123.347 105.471L122.972 104.814L122.596 104.157L121.845 102.842L121.469 102.184L119.872 99.4606L104 114.112Z"
        fill="url(#paint26_linear_54_1768)" />
      <path d="M104 114.112L119.872 99.4606L159.694 33.0596L172.467 0L104 114.112Z"
        fill="url(#paint27_linear_54_1768)" />
      <path d="M159.694 33.0596V80.1132L172.467 80.8645V0L159.694 33.0596Z" fill="url(#paint28_linear_54_1768)" />
      <path d="M144.104 111.482L145.512 134.774L172.467 80.8645L159.694 80.1132L144.104 111.482Z"
        fill="url(#paint29_linear_54_1768)" />
      <path d="M119.966 99.4606L125.414 114.112L144.104 111.482H126.728L119.966 99.4606Z" fill="white" />
    </g>
  </g>
  <defs>
    <linearGradient id="paint0_linear_54_1768" x1="46.6001" y1="182.101" x2="46.6001" y2="208.137"
      gradientUnits="userSpaceOnUse">
      <stop stop-color="white" />
      <stop offset="1" stop-color="#99CFFF" />
    </linearGradient>
    <linearGradient id="paint1_linear_54_1768" x1="79.6253" y1="182.101" x2="79.6253" y2="208.238"
      gradientUnits="userSpaceOnUse">
      <stop stop-color="white" />
      <stop offset="1" stop-color="#99CFFF" />
    </linearGradient>
    <linearGradient id="paint2_linear_54_1768" x1="100.291" y1="182.101" x2="100.291" y2="208.137"
      gradientUnits="userSpaceOnUse">
      <stop stop-color="white" />
      <stop offset="1" stop-color="#99CFFF" />
    </linearGradient>
    <linearGradient id="paint3_linear_54_1768" x1="13.4228" y1="182.101" x2="13.4228" y2="208.137"
      gradientUnits="userSpaceOnUse">
      <stop stop-color="white" />
      <stop offset="1" stop-color="#99CFFF" />
    </linearGradient>
    <linearGradient id="paint4_linear_54_1768" x1="137.622" y1="182.101" x2="137.622" y2="208.137"
      gradientUnits="userSpaceOnUse">
      <stop stop-color="white" />
      <stop offset="1" stop-color="#99CFFF" />
    </linearGradient>
    <linearGradient id="paint5_linear_54_1768" x1="170.293" y1="182.101" x2="170.293" y2="208.238"
      gradientUnits="userSpaceOnUse">
      <stop stop-color="white" />
      <stop offset="1" stop-color="#99CFFF" />
    </linearGradient>
    <linearGradient id="paint6_linear_54_1768" x1="201.748" y1="182.101" x2="201.748" y2="208.238"
      gradientUnits="userSpaceOnUse">
      <stop stop-color="white" />
      <stop offset="1" stop-color="#99CFFF" />
    </linearGradient>
    <linearGradient id="paint7_linear_54_1768" x1="243.435" y1="182.101" x2="243.435" y2="208.137"
      gradientUnits="userSpaceOnUse">
      <stop stop-color="white" />
      <stop offset="1" stop-color="#99CFFF" />
    </linearGradient>
    <linearGradient id="paint8_linear_54_1768" x1="350.564" y1="182" x2="350.564" y2="208.035"
      gradientUnits="userSpaceOnUse">
      <stop stop-color="white" />
      <stop offset="1" stop-color="#99CFFF" />
    </linearGradient>
    <linearGradient id="paint9_linear_54_1768" x1="284.716" y1="182.101" x2="284.716" y2="208.137"
      gradientUnits="userSpaceOnUse">
      <stop stop-color="white" />
      <stop offset="1" stop-color="#99CFFF" />
    </linearGradient>
    <linearGradient id="paint10_linear_54_1768" x1="318.096" y1="182.101" x2="318.096" y2="208.238"
      gradientUnits="userSpaceOnUse">
      <stop stop-color="white" />
      <stop offset="1" stop-color="#99CFFF" />
    </linearGradient>
    <linearGradient id="paint11_linear_54_1768" x1="182.009" y1="122.601" x2="182.009" y2="112.093"
      gradientUnits="userSpaceOnUse">
      <stop stop-color="white" />
      <stop offset="0.383" stop-color="#DBEEFF" />
      <stop offset="1" stop-color="#99CFFF" />
    </linearGradient>
    <linearGradient id="paint12_linear_54_1768" x1="192.677" y1="140.842" x2="176.919" y2="133.18"
      gradientUnits="userSpaceOnUse">
      <stop stop-color="white" />
      <stop offset="0.8143" stop-color="#DBF0FF" />
      <stop offset="1" stop-color="#D2ECFF" />
    </linearGradient>
    <linearGradient id="paint13_linear_54_1768" x1="161.006" y1="152.412" x2="170.746" y2="144.789"
      gradientUnits="userSpaceOnUse">
      <stop stop-color="#2A7AD7" />
      <stop offset="0.5066" stop-color="#4E97EA" />
      <stop offset="1" stop-color="#75B7FF" />
    </linearGradient>
    <linearGradient id="paint14_linear_54_1768" x1="169.824" y1="160.989" x2="191.94" y2="147.343"
      gradientUnits="userSpaceOnUse">
      <stop stop-color="#75B7FF" />
      <stop offset="1" stop-color="#99CFFF" />
    </linearGradient>
    <linearGradient id="paint15_linear_54_1768" x1="194.504" y1="145.38" x2="204.028" y2="153.273"
      gradientUnits="userSpaceOnUse">
      <stop stop-color="#D2ECFF" />
      <stop offset="0.6538" stop-color="#AEDAFF" />
      <stop offset="1" stop-color="#99CFFF" />
    </linearGradient>
    <linearGradient id="paint16_linear_54_1768" x1="190.879" y1="133.125" x2="195.001" y2="130.582"
      gradientUnits="userSpaceOnUse">
      <stop stop-color="white" />
      <stop offset="0.8143" stop-color="#DBF0FF" />
      <stop offset="1" stop-color="#D2ECFF" />
    </linearGradient>
    <linearGradient id="paint17_linear_54_1768" x1="167.925" y1="129.935" x2="174.15" y2="132.596"
      gradientUnits="userSpaceOnUse">
      <stop stop-color="#2A7AD7" />
      <stop offset="1" stop-color="#75B7FF" />
    </linearGradient>
    <linearGradient id="paint18_linear_54_1768" x1="231.046" y1="108.17" x2="206.818" y2="43.3953"
      gradientUnits="userSpaceOnUse">
      <stop stop-color="#D2ECFF" />
      <stop offset="0.8143" stop-color="#F6FBFF" />
      <stop offset="1" stop-color="white" />
    </linearGradient>
    <linearGradient id="paint19_linear_54_1768" x1="216.904" y1="123.095" x2="237.751" y2="123.095"
      gradientUnits="userSpaceOnUse">
      <stop stop-color="#2A7AD7" />
      <stop offset="0.3542" stop-color="#4E96E4" />
      <stop offset="1" stop-color="#99CFFF" />
    </linearGradient>
    <linearGradient id="paint20_linear_54_1768" x1="241.5" y1="119.902" x2="255.398" y2="111.647"
      gradientUnits="userSpaceOnUse">
      <stop stop-color="#D2ECFF" />
      <stop offset="0.6538" stop-color="#AEDAFF" />
      <stop offset="1" stop-color="#99CFFF" />
    </linearGradient>
    <linearGradient id="paint21_linear_54_1768" x1="221.024" y1="60.0037" x2="226.707" y2="56.4951"
      gradientUnits="userSpaceOnUse">
      <stop stop-color="white" />
      <stop offset="0.8143" stop-color="#DBF0FF" />
      <stop offset="1" stop-color="#D2ECFF" />
    </linearGradient>
    <linearGradient id="paint22_linear_54_1768" x1="189.155" y1="40.5059" x2="201.874" y2="40.0867"
      gradientUnits="userSpaceOnUse">
      <stop stop-color="#75B7FF" />
      <stop offset="0.4172" stop-color="#99CCFF" />
      <stop offset="1" stop-color="#D2ECFF" />
    </linearGradient>
    <linearGradient id="paint23_linear_54_1768" x1="205.262" y1="107.641" x2="214.276" y2="101.947"
      gradientUnits="userSpaceOnUse">
      <stop stop-color="#2A7AD7" />
      <stop offset="0.3542" stop-color="#4E96E4" />
      <stop offset="1" stop-color="#99CFFF" />
    </linearGradient>
    <linearGradient id="paint24_linear_54_1768" x1="132.954" y1="108.17" x2="157.182" y2="43.3953"
      gradientUnits="userSpaceOnUse">
      <stop stop-color="#D2ECFF" />
      <stop offset="0.8143" stop-color="#F6FBFF" />
      <stop offset="1" stop-color="white" />
    </linearGradient>
    <linearGradient id="paint25_linear_54_1768" x1="147.096" y1="123.095" x2="126.249" y2="123.095"
      gradientUnits="userSpaceOnUse">
      <stop stop-color="#2A7AD7" />
      <stop offset="0.3542" stop-color="#4E96E4" />
      <stop offset="1" stop-color="#99CFFF" />
    </linearGradient>
    <linearGradient id="paint26_linear_54_1768" x1="122.5" y1="119.902" x2="108.602" y2="111.647"
      gradientUnits="userSpaceOnUse">
      <stop stop-color="#D2ECFF" />
      <stop offset="0.6538" stop-color="#AEDAFF" />
      <stop offset="1" stop-color="#99CFFF" />
    </linearGradient>
    <linearGradient id="paint27_linear_54_1768" x1="142.976" y1="60.0037" x2="137.293" y2="56.4951"
      gradientUnits="userSpaceOnUse">
      <stop stop-color="white" />
      <stop offset="0.8143" stop-color="#DBF0FF" />
      <stop offset="1" stop-color="#D2ECFF" />
    </linearGradient>
    <linearGradient id="paint28_linear_54_1768" x1="174.845" y1="40.5059" x2="162.126" y2="40.0867"
      gradientUnits="userSpaceOnUse">
      <stop stop-color="#75B7FF" />
      <stop offset="0.4172" stop-color="#99CCFF" />
      <stop offset="1" stop-color="#D2ECFF" />
    </linearGradient>
    <linearGradient id="paint29_linear_54_1768" x1="158.738" y1="107.641" x2="149.724" y2="101.947"
      gradientUnits="userSpaceOnUse">
      <stop stop-color="#2A7AD7" />
      <stop offset="0.3542" stop-color="#4E96E4" />
      <stop offset="1" stop-color="#99CFFF" />
    </linearGradient>
    <clipPath id="clip0_54_1768">
      <rect width="364" height="240" fill="white" />
    </clipPath>
    <clipPath id="clip1_54_1768">
      <rect width="156" height="156" fill="white" transform="translate(104)" />
    </clipPath>
  </defs>
</svg>