<svg width="195" height="32" viewBox="0 0 195 32" fill="none" xmlns="http://www.w3.org/2000/svg">
  <g clip-path="url(#clip0_112_9)">
    <path
      d="M60.786 10.6821H64.8731L69.5175 21.364H66.3129L65.3375 19.1176H60.2751L59.2998 21.364H56.0951L60.786 10.6821ZM64.5015 17.1463L62.8295 13.3411L61.1576 17.1463H64.5015ZM71.3753 10.6821H81.6859V12.6076H74.6264V14.9457H80.8499V16.8712H74.6264V21.3182H71.3288V10.6821H71.3753ZM83.4507 10.6821H86.7483V21.364H83.4507V10.6821ZM94.8295 10.6821H98.3593L103.004 17.1004V10.6821H106.301V21.364H102.771L98.1271 14.9457V21.364H94.8295V10.6821ZM108.856 10.6821H119.352V12.6076H112.153V14.8081H118.516V16.7337H112.153V19.3927H119.352V21.3182H108.856V10.6821V10.6821ZM121.07 10.6821H133.192V12.6076H128.78V21.3182H125.483V12.6076H121.07V10.6821ZM138.023 10.6821L140.159 18.2007L142.667 10.6821H146.104L148.612 18.2007L150.748 10.6821H153.953L150.934 21.364H146.754L144.385 14.3039L142.017 21.364H137.837L134.818 10.6821H138.023V10.6821ZM182.934 10.6362H186.232V14.7623L190.551 10.6362H194.545L189.901 15.0374L194.684 21.2723H191.015L187.764 17.0087L186.185 18.5216V21.2723H182.888V10.6362H182.934ZM164.403 10.6821H158.69H157.947C157.158 11.4614 156.693 11.9199 155.904 12.6993V12.8826V19.1635V21.364H158.69H164.403H165.146C165.935 20.5847 166.4 20.1262 167.189 19.3468V19.1635V12.8826V10.6821H164.403ZM163.938 18.9342C163.938 19.2551 163.753 19.3927 163.381 19.3927H159.758C159.387 19.3927 159.201 19.2551 159.201 18.9342V13.066C159.201 12.7451 159.387 12.6076 159.758 12.6076H163.381C163.753 12.6076 163.938 12.7451 163.938 13.066V18.9342ZM49.2679 14.7165V16.642H51.4043V19.3927H47.4101C47.0385 19.3927 46.8528 19.2551 46.8528 18.9342V13.066C46.8528 12.7451 47.0385 12.6076 47.4101 12.6076H54.0516V10.6821H46.2954H45.5523C44.7628 11.4614 44.2983 11.9199 43.5088 12.6993V12.8826V19.1635V21.364H46.2954H52.6118C53.4014 20.5847 53.8658 20.1262 54.6554 19.3468V14.7623H49.2679V14.7165ZM178.336 17.2838H180.565V15.0832V12.8368V10.6362H177.779H171.787C170.998 11.4156 170.533 11.8741 169.744 12.6534V21.3182H173.041V17.2838H174.806L177.5 21.3182H181.03L178.336 17.2838ZM177.268 14.8998C177.268 15.2208 177.082 15.3583 176.711 15.3583H173.041V12.6076H176.711C177.082 12.6076 177.268 12.7451 177.268 13.066V14.8998Z"
      fill="white" />
    <path
      d="M14.4812 0V16.596L8.90789 27.6447H2.68438C1.3375 25.3066 1.61617 25.765 0.269287 23.4269L14.4812 0ZM18.4754 0V16.596L24.0951 27.6447H30.3186C31.3868 25.765 31.6655 25.3066 32.7337 23.4269L18.4754 0ZM15.4565 22.9226L11.6945 30.3496C12.159 31.0372 12.2519 31.2665 12.7163 31.9541H20.2403C20.7047 31.2665 20.7976 31.0372 21.262 30.3496L17.5001 22.9226C16.5712 22.9226 16.3854 22.9226 15.4565 22.9226Z"
      fill="white" />
  </g>
  <defs>
    <clipPath id="clip0_112_9">
      <rect width="194.462" height="32" fill="white" transform="translate(0.269287)" />
    </clipPath>
  </defs>
</svg>