<svg width="32" height="32" viewBox="0 0 32 32" fill="none" xmlns="http://www.w3.org/2000/svg">
  <g id="gear">
    <path id="Vector"
      d="M16 24C20.4183 24 24 20.4183 24 16C24 11.5817 20.4183 8 16 8C11.5817 8 8 11.5817 8 16C8 20.4183 11.5817 24 16 24Z"
      fill="currentColor" />

    <path id="Vector_2"
      d="M28.9378 12.8288C27.3452 12.8094 25.8032 11.9794 24.9492 10.5001C24.1272 9.07609 24.1438 7.40076 24.8412 6.03809C23.4245 4.78009 21.7465 3.81209 19.8878 3.24609C19.0512 4.50409 17.6232 5.33343 15.9998 5.33343C14.3765 5.33343 12.9485 4.50409 12.1125 3.24609C10.2538 3.81209 8.57584 4.78009 7.15917 6.03809C7.8565 7.40076 7.87317 9.07609 7.05117 10.5001C6.19717 11.9794 4.65517 12.8094 3.0625 12.8288C2.81317 13.8468 2.6665 14.9054 2.6665 16.0001C2.6665 16.8561 2.75517 17.6901 2.90917 18.5014C4.55517 18.4674 6.16984 19.3068 7.05117 20.8334C7.96317 22.4134 7.8425 24.3028 6.9045 25.7301C8.2925 27.0281 9.95317 28.0341 11.7978 28.6468C12.5512 27.0828 14.1472 26.0001 15.9998 26.0001C17.8525 26.0001 19.4485 27.0828 20.2018 28.6474C22.0465 28.0348 23.7072 27.0288 25.0952 25.7308C24.1572 24.3034 24.0365 22.4141 24.9485 20.8341C25.8298 19.3074 27.4438 18.4681 29.0905 18.5021C29.2445 17.6901 29.3332 16.8561 29.3332 16.0001C29.3332 14.9054 29.1865 13.8468 28.9378 12.8288ZM23.9998 16.0001C23.9998 17.0841 23.7818 18.1174 23.3912 19.0601L19.9472 16.6201C19.9785 16.4174 19.9998 16.2114 19.9998 16.0001C19.9998 14.2594 18.8858 12.7821 17.3332 12.2328V8.12009C21.1152 8.75609 23.9998 12.0374 23.9998 16.0001ZM14.6665 8.12009V12.2328C13.1138 12.7828 11.9998 14.2594 11.9998 16.0001C11.9998 16.2114 12.0212 16.4174 12.0525 16.6201L8.6085 19.0601C8.21784 18.1174 7.99984 17.0841 7.99984 16.0001C7.99984 12.0374 10.8845 8.75609 14.6665 8.12009ZM15.9998 24.0001C13.6258 24.0001 11.4998 22.9601 10.0345 21.3181L13.3365 18.9788C14.0438 19.6121 14.9758 20.0001 15.9998 20.0001C17.0238 20.0001 17.9558 19.6121 18.6632 18.9788L21.9652 21.3181C20.4998 22.9601 18.3738 24.0001 15.9998 24.0001Z"
      fill="currentColor" />
  </g>

  <defs>
    <linearGradient id="paint0_linear_1734_14538" x1="3" y1="3" x2="27.6772" y2="30.2001"
      gradientUnits="userSpaceOnUse">
      <stop stop-color="#AADAFB" />
      <stop offset="1" stop-color="#5BA2E7" />
    </linearGradient>
  </defs>
</svg>