<svg width="394" height="72" viewBox="0 0 394 72" fill="none" xmlns="http://www.w3.org/2000/svg">
<g clip-path="url(#clip0_2438_5582)">
<path d="M191.486 24.88H198.615L208.065 38.2134V24.88H214.699V47.1174H207.569L198.119 33.784V47.1174H191.486V24.88ZM219.836 24.88H241.064V28.9254H226.469V33.4587H239.405V37.504H226.477V43.0614H241.072V47.104H219.844L219.836 24.88ZM244.613 24.88H269.157V28.9254H260.211V47.1174H253.575V28.9254H244.621L244.613 24.88ZM278.961 24.88L283.306 40.5494L288.414 24.88H295.378L300.486 40.5494L304.831 24.88H311.299L305.161 47.1174H296.704L291.9 32.3947L287.091 47.1174H278.633L272.501 24.88H278.961ZM369.862 24.832H376.496V33.424L385.284 24.832H393.422L384.037 34.0294L393.75 47.0694H386.321L379.719 38.208L376.504 41.376V47.0694H369.862V24.832ZM332.37 24.88H319.271L315.123 29.0934V47.1174H333.863L338.008 42.9067V24.88H332.37ZM331.375 42.1334C331.375 42.7707 330.978 43.0747 330.214 43.0747H322.917C322.156 43.0747 321.757 42.7707 321.757 42.1334V29.8667C321.757 29.2267 322.156 28.9254 322.917 28.9254H330.225C330.989 28.9254 331.385 29.2267 331.385 29.8667L331.375 42.1334ZM122.501 24.8827H130.791L140.241 47.1174H133.744L131.754 42.4H121.537L119.548 47.1147H113.048L122.501 24.8827ZM130.029 38.3574L126.646 30.44L123.262 38.3574H130.029ZM143.892 24.8827H164.787V28.9254H150.525V33.8107H163.125V37.8667H150.525V47.1307H143.892V24.8827ZM168.433 24.8827H175.066V47.12H168.433V24.8827ZM99.1173 33.304V37.3467H103.425V43.0747H95.3032C94.5393 43.0747 94.1403 42.7707 94.1403 42.1334V29.8667C94.1403 29.2267 94.5393 28.9254 95.3032 28.9254H108.735V24.8827H91.6545L87.507 29.0934V47.1174H105.913L110.061 42.9067V33.3067L99.1173 33.304ZM360.567 38.696H365.043V24.88H347.301L343.153 29.0934V47.1174H349.786V38.696H353.401L358.874 47.1174H366.038L360.567 38.696ZM358.41 33.7094C358.41 34.3494 358.013 34.6534 357.249 34.6534H349.786V28.9254H357.262C358.026 28.9254 358.423 29.2267 358.423 29.8667L358.41 33.7094Z" fill="url(#paint0_linear_2438_5582)"/>
<path d="M90.7908 67.0187V59.8533H87.507V58.3707H95.7285V59.8533H92.3711V67.0187H90.7908Z" fill="white"/>
<path d="M99.0964 67.0187V58.3707H100.671V67.0187H99.0964ZM99.7527 63.5093L99.7658 62.0027H107.027V63.5093H99.7527ZM106.26 67.0187V58.3707H107.835V67.0187H106.26Z" fill="white"/>
<path d="M112.182 67.0187V58.3707H119.456V59.8293H113.739V65.56H119.514V67.0187H112.182ZM113.035 63.312V61.88H118.834V63.312H113.035Z" fill="white"/>
<path d="M129.609 67.0187V58.3707H131.153L137.794 65.128L137.647 65.1787C137.608 64.912 137.574 64.6293 137.545 64.344C137.516 64.0587 137.495 63.7733 137.476 63.4853C137.458 63.1973 137.448 62.9093 137.434 62.6213C137.421 62.3333 137.413 62.0507 137.411 61.7733C137.408 61.496 137.411 61.24 137.411 60.9733V58.3787H138.986V67.0267H137.411L130.746 60.36L130.94 60.2747C130.956 60.4133 130.972 60.5787 130.988 60.768C131.003 60.9573 131.024 61.1627 131.05 61.384C131.077 61.6053 131.095 61.8453 131.116 62.096C131.137 62.3467 131.153 62.6053 131.166 62.8747C131.179 63.144 131.184 63.408 131.184 63.6747V67.0213L129.609 67.0187Z" fill="white"/>
<path d="M143.301 67.0187V58.3707H150.575V59.8293H144.858V65.56H150.633V67.0187H143.301ZM144.155 63.312V61.88H149.956V63.312H144.155Z" fill="white"/>
<path d="M156.975 67.0187V59.8533H153.702V58.3707H161.921V59.8533H158.566V67.0187H156.975Z" fill="white"/>
<path d="M167.357 67.0187L164.28 58.3707H165.984L167.651 63.1387C167.706 63.32 167.769 63.52 167.837 63.7333C167.906 63.9467 167.974 64.1653 168.039 64.3867C168.105 64.608 168.165 64.824 168.221 65.0293C168.276 65.2347 168.326 65.4213 168.368 65.5867H167.856C167.921 65.3653 168 65.1147 168.095 64.84C168.189 64.5653 168.289 64.2827 168.404 63.992C168.52 63.7013 168.63 63.424 168.746 63.152L170.216 59.744H171.651L173.085 63.128C173.19 63.3947 173.3 63.6613 173.415 63.9493C173.531 64.2373 173.631 64.5093 173.725 64.7787C173.809 65.0141 173.876 65.2557 173.925 65.5013L173.463 65.5627C173.494 65.432 173.534 65.296 173.578 65.1227C173.623 64.9493 173.667 64.792 173.712 64.6107C173.757 64.4293 173.807 64.2507 173.864 64.0773C173.922 63.904 173.977 63.728 174.035 63.544C174.093 63.36 174.148 63.2133 174.206 63.0747L176.077 58.3787H177.713L174.258 67.0267H173.114L170.73 61.3573L170.993 61.4053L168.63 67.0267L167.357 67.0187Z" fill="white"/>
<path d="M185.454 67.1414C184.74 67.1502 184.03 67.0356 183.354 66.8027C182.746 66.5929 182.183 66.2701 181.692 65.8507C181.236 65.4607 180.865 64.9773 180.605 64.432C180.353 63.8845 180.222 63.2873 180.222 62.6827C180.222 62.0781 180.353 61.4809 180.605 60.9334C180.865 60.3881 181.236 59.9047 181.692 59.5147C182.183 59.0953 182.746 58.7725 183.354 58.5627C184.718 58.1065 186.19 58.1065 187.554 58.5627C188.159 58.7707 188.72 59.0938 189.207 59.5147C189.662 59.9068 190.033 60.3897 190.297 60.9334C190.552 61.4799 190.685 62.0775 190.685 62.6827C190.685 63.2879 190.552 63.8855 190.297 64.432C190.033 64.9757 189.662 65.4586 189.207 65.8507C188.72 66.2716 188.159 66.5947 187.554 66.8027C186.878 67.0356 186.167 67.1502 185.454 67.1414ZM185.454 65.6107C185.949 65.6164 186.441 65.5417 186.913 65.3894C187.328 65.2531 187.715 65.0417 188.055 64.7654C188.369 64.5116 188.626 64.1936 188.811 63.832C188.987 63.4753 189.079 63.0817 189.079 62.6827C189.079 62.2837 188.987 61.8901 188.811 61.5334C188.626 61.1718 188.369 60.8538 188.055 60.6C187.715 60.3237 187.328 60.1123 186.913 59.976C186.441 59.8237 185.949 59.749 185.454 59.7547C184.959 59.7504 184.466 59.8251 183.994 59.976C183.576 60.1099 183.186 60.3215 182.844 60.6C182.535 60.8543 182.283 61.1725 182.104 61.5334C181.931 61.8911 181.842 62.2843 181.842 62.6827C181.842 63.0811 181.931 63.4743 182.104 63.832C182.283 64.1929 182.535 64.5111 182.844 64.7654C183.186 65.0439 183.576 65.2555 183.994 65.3894C184.467 65.5367 184.959 65.6078 185.454 65.6V65.6107Z" fill="white"/>
<path d="M194.392 67.0187V58.3707H199.353C199.876 58.3599 200.394 58.4789 200.862 58.7173C201.292 58.9331 201.655 59.2642 201.912 59.6747C202.17 60.0904 202.303 60.573 202.296 61.064C202.301 61.5776 202.155 62.0811 201.876 62.5093C201.593 62.9393 201.209 63.2898 200.757 63.528C200.279 63.7835 199.746 63.9137 199.206 63.9067H195.935V67.0187H194.392ZM195.935 62.5093H199.038C199.312 62.5109 199.582 62.445 199.825 62.3173C200.058 62.1998 200.258 62.0258 200.408 61.8107C200.555 61.6043 200.632 61.3557 200.629 61.1013C200.632 60.8634 200.554 60.6317 200.408 60.4453C200.253 60.2476 200.053 60.0911 199.825 59.9893C199.573 59.8725 199.299 59.8133 199.022 59.816H195.935V62.5093ZM200.862 67.0187L197.975 63.1147L199.652 62.8053L202.802 67.032L200.862 67.0187Z" fill="white"/>
<path d="M206.711 67.0187V58.3707H208.286V67.0187H206.711ZM207.805 64.9067L207.635 63.288L213.825 58.3707H216.037L207.805 64.9067ZM213.888 67.0187L210.189 62.4L211.15 61.216L215.917 67.0213L213.888 67.0187Z" fill="white"/>
<path d="M230.425 67.1414C229.711 67.1502 229.001 67.0356 228.325 66.8027C227.719 66.5929 227.156 66.27 226.666 65.8507C226.209 65.4608 225.838 64.9774 225.577 64.432C225.324 63.8845 225.194 63.2873 225.194 62.6827C225.194 62.0781 225.324 61.4809 225.577 60.9334C225.838 60.388 226.209 59.9046 226.666 59.5147C227.156 59.0954 227.719 58.7725 228.325 58.5627C229.689 58.1065 231.161 58.1065 232.525 58.5627C233.131 58.7707 233.692 59.0938 234.179 59.5147C234.634 59.9068 235.005 60.3897 235.268 60.9334C235.524 61.4799 235.657 62.0775 235.657 62.6827C235.657 63.2879 235.524 63.8855 235.268 64.432C235.005 64.9757 234.634 65.4586 234.179 65.8507C233.692 66.2716 233.131 66.5947 232.525 66.8027C231.849 67.0356 231.139 67.1502 230.425 67.1414ZM230.425 65.6107C230.92 65.6164 231.413 65.5417 231.885 65.3894C232.3 65.2525 232.687 65.0412 233.029 64.7654C233.341 64.5107 233.598 64.1928 233.783 63.832C233.959 63.4753 234.05 63.0817 234.05 62.6827C234.05 62.2837 233.959 61.8901 233.783 61.5334C233.598 61.1726 233.341 60.8547 233.029 60.6C232.687 60.3242 232.3 60.1129 231.885 59.976C231.413 59.8237 230.92 59.749 230.425 59.7547C229.93 59.7504 229.438 59.8251 228.966 59.976C228.548 60.1099 228.158 60.3215 227.816 60.6C227.508 60.8551 227.255 61.173 227.076 61.5334C226.903 61.8911 226.813 62.2843 226.813 62.6827C226.813 63.0811 226.903 63.4743 227.076 63.832C227.255 64.1923 227.508 64.5103 227.816 64.7654C228.158 65.0439 228.548 65.2555 228.966 65.3894C229.438 65.5367 229.931 65.6078 230.425 65.6V65.6107Z" fill="white"/>
<path d="M239.363 67.0187V58.3707H240.938V67.0187H239.363ZM239.949 63.5973V62.1333H245.944V63.592L239.949 63.5973ZM240.119 59.864V58.3813H246.467V59.864H240.119Z" fill="white"/>
<path d="M260.865 67.1414C260.2 67.1466 259.538 67.0514 258.901 66.8587C258.313 66.6825 257.762 66.3977 257.276 66.0187C256.807 65.6483 256.429 65.1728 256.171 64.6294C255.892 64.0203 255.755 63.3543 255.769 62.6827C255.766 62.075 255.905 61.4751 256.176 60.9334C256.453 60.3892 256.838 59.9096 257.308 59.5254C257.813 59.1134 258.387 58.798 259.003 58.5947C259.68 58.3657 260.39 58.2521 261.103 58.2587C261.687 58.2545 262.27 58.3253 262.836 58.4694C263.322 58.5894 263.792 58.7684 264.235 59.0027C264.587 59.1873 264.909 59.4246 265.191 59.7067L264.193 60.8427C263.913 60.6271 263.613 60.4387 263.298 60.28C262.968 60.1167 262.622 59.9871 262.266 59.8934C261.883 59.7913 261.489 59.741 261.093 59.744C260.608 59.7402 260.125 59.815 259.662 59.9654C259.245 60.1015 258.854 60.3108 258.507 60.584C258.19 60.8353 257.927 61.1503 257.736 61.5094C257.548 61.8672 257.452 62.2668 257.455 62.672C257.441 63.1401 257.541 63.6044 257.746 64.024C257.932 64.3904 258.202 64.7059 258.534 64.944C258.881 65.193 259.271 65.3739 259.683 65.4774C260.117 65.5899 260.562 65.6464 261.009 65.6454C261.456 65.6485 261.902 65.6029 262.34 65.5094C262.713 65.432 263.073 65.3028 263.411 65.1254C263.685 64.9854 263.926 64.7849 264.114 64.5387C264.277 64.3264 264.358 64.0606 264.34 63.792V63.6054L264.571 63.9654H261.012V62.56H265.96C265.975 62.6827 265.989 62.7947 265.996 62.8934C266.004 62.992 265.996 63.072 265.996 63.1334V63.2747C266.01 63.8659 265.882 64.4515 265.624 64.9814C265.38 65.4665 265.019 65.8804 264.574 66.184C264.077 66.5193 263.526 66.7622 262.946 66.9014C262.265 67.0672 261.566 67.1478 260.865 67.1414Z" fill="white"/>
<path d="M268.343 67.0187L272.527 58.3707H274.205L278.365 67.0187H276.675L273.937 61.36L273.706 60.8853C273.635 60.7333 273.564 60.5813 273.501 60.4267C273.438 60.272 273.37 60.12 273.307 59.9573C273.244 59.7947 273.181 59.6267 273.123 59.4453H273.536C273.473 59.6347 273.407 59.8133 273.341 59.9787C273.276 60.144 273.21 60.3093 273.137 60.4667L272.916 60.9307C272.843 61.0827 272.772 61.24 272.698 61.4053L269.973 67.0267L268.343 67.0187ZM270.204 65.1653L270.787 63.7707H275.848L276.079 65.1653H270.204Z" fill="white"/>
<path d="M281.539 67.0187V58.3707H283.035L286.915 63.2507H286.196L290.076 58.3707H291.572V67.0187H289.997V63.6453C289.997 62.9627 290.014 62.3209 290.047 61.72C290.08 61.1028 290.145 60.4878 290.241 59.8773L290.399 60.4587L286.947 64.672H286.143L282.689 60.4453L282.86 59.8773C282.955 60.4878 283.02 61.1028 283.054 61.72C283.085 62.32 283.104 62.9627 283.104 63.6453V67.0187H281.539Z" fill="white"/>
<path d="M295.901 67.0187V58.3707H303.188V59.8293H297.47V65.56H303.245V67.0187H295.901ZM296.754 63.312V61.88H302.552V63.312H296.754Z" fill="white"/>
<path d="M313.328 67.0187V58.3707H314.903V67.0187H313.328ZM313.913 63.5973V62.1333H319.909V63.592L313.913 63.5973ZM314.081 59.864V58.3813H320.431V59.864H314.081Z" fill="white"/>
<path d="M324.45 67.0187V65.512H326.7V59.8773H324.45V58.3707H330.532V59.8773H328.28V65.512H330.532V67.0187H324.45Z" fill="white"/>
<path d="M335.013 67.0187V58.3707H336.556L343.198 65.128L343.051 65.1787C343.009 64.912 342.975 64.6293 342.946 64.344C342.917 64.0587 342.896 63.7733 342.88 63.4853C342.864 63.1973 342.849 62.9093 342.838 62.6213C342.828 62.3333 342.817 62.0507 342.814 61.7733C342.812 61.496 342.814 61.24 342.814 60.9733V58.3787H344.389V67.0267H342.814L336.15 60.36L336.346 60.2747C336.362 60.4133 336.378 60.5787 336.394 60.768C336.409 60.9573 336.43 61.1627 336.454 61.384C336.478 61.6053 336.501 61.8453 336.522 62.096C336.543 62.3467 336.559 62.6053 336.57 62.8747C336.58 63.144 336.588 63.408 336.588 63.6747V67.0213L335.013 67.0187Z" fill="white"/>
<path d="M347.55 67.0187L351.734 58.3707H353.412L357.57 67.0187H355.882L353.144 61.36L352.913 60.8853C352.839 60.7333 352.771 60.5813 352.706 60.4267C352.64 60.272 352.577 60.12 352.511 59.9573C352.446 59.7947 352.385 59.6267 352.33 59.4453H352.742C352.679 59.6347 352.614 59.8133 352.548 59.9787C352.482 60.144 352.414 60.3093 352.341 60.4667C352.267 60.624 352.196 60.7787 352.123 60.9307C352.049 61.0827 351.976 61.24 351.905 61.4053L349.18 67.0267L347.55 67.0187ZM349.411 65.1653L349.994 63.7707H355.052L355.286 65.1653H349.411Z" fill="white"/>
<path d="M360.743 67.0187V58.3707H362.289L368.928 65.128L368.784 65.1787C368.742 64.912 368.708 64.6293 368.679 64.344C368.65 64.0587 368.629 63.7733 368.613 63.4853C368.597 63.1973 368.582 62.9093 368.571 62.6213C368.561 62.3333 368.55 62.0507 368.545 61.7733C368.54 61.496 368.545 61.24 368.545 60.9733V58.3787H370.12V67.0267H368.545L361.88 60.36L362.074 60.2747C362.093 60.4133 362.108 60.5787 362.124 60.768C362.14 60.9573 362.161 61.1627 362.184 61.384C362.208 61.6053 362.232 61.8453 362.253 62.096C362.274 62.3467 362.287 62.6053 362.3 62.8747C362.313 63.144 362.318 63.408 362.318 63.6747V67.0213L360.743 67.0187Z" fill="white"/>
<path d="M378.853 67.1413C378.182 67.1474 377.514 67.041 376.876 66.8266C376.289 66.632 375.745 66.3241 375.273 65.92C374.818 65.532 374.451 65.0491 374.196 64.504C373.931 63.935 373.797 63.3121 373.805 62.6826C373.799 62.0676 373.937 61.4598 374.207 60.9093C374.474 60.3713 374.847 59.8941 375.301 59.5066C375.778 59.1037 376.322 58.792 376.908 58.5866C377.529 58.3657 378.182 58.2547 378.84 58.2586C379.372 58.2565 379.901 58.3255 380.415 58.464C380.888 58.5928 381.346 58.7715 381.783 58.9973C382.148 59.1772 382.488 59.4059 382.793 59.6773L381.88 61.0106C381.608 60.7777 381.315 60.5714 381.006 60.3946C380.675 60.2071 380.322 60.0637 379.956 59.968C379.549 59.8607 379.129 59.8087 378.709 59.8133C378.299 59.8131 377.892 59.8797 377.504 60.0106C377.124 60.1394 376.768 60.3343 376.454 60.5866C376.142 60.833 375.885 61.1438 375.7 61.4986C375.51 61.8752 375.413 62.2938 375.42 62.7173C375.41 63.1597 375.512 63.5973 375.714 63.9893C375.905 64.3503 376.174 64.6629 376.501 64.904C376.846 65.1546 377.23 65.344 377.638 65.464C378.064 65.5931 378.506 65.6578 378.95 65.656C379.387 65.6635 379.823 65.5987 380.239 65.464C380.588 65.3497 380.921 65.1921 381.231 64.9946C381.518 64.8106 381.78 64.632 382.019 64.4613L382.775 65.7573C382.084 66.2901 381.303 66.6904 380.47 66.9386C379.944 67.085 379.399 67.1532 378.853 67.1413Z" fill="white"/>
<path d="M386.429 67.0187V58.3707H393.7V59.8293H387.975V65.56H393.75V67.0187H386.429ZM387.279 63.312V61.88H393.081V63.312H387.279Z" fill="white"/>
<path d="M28.8251 2.64264L0 51.448L4.91138 60.2613H17.4825L28.8251 37.2133V2.64264Z" fill="white"/>
<path d="M36.8445 2.64264V37.2133L48.1871 60.2613H60.7582L65.6696 51.448L36.8445 2.64264Z" fill="white"/>
<path d="M23.1499 65.9867L30.786 50.472H34.8837L42.5198 65.9867L40.4723 69.3546H25.2L23.1499 65.9867Z" fill="white"/>
<path d="M30.786 50.472L31.7468 54.896H33.9255L34.8836 50.472H30.786Z" fill="url(#paint1_linear_2438_5582)"/>
<path d="M31.7468 54.896L27.6859 63.1413L28.7753 64.9333H36.8944L37.9838 63.1413L33.9255 54.896H31.7468Z" fill="url(#paint2_linear_2438_5582)"/>
<path d="M27.6859 63.1414L23.1499 65.9867L25.2 69.3547L28.7753 64.9334L27.6859 63.1414Z" fill="url(#paint3_linear_2438_5582)"/>
<path d="M28.7752 64.9333H36.8943L40.4722 69.3547H25.2L28.7752 64.9333Z" fill="url(#paint4_linear_2438_5582)"/>
<path d="M36.8944 64.9334L37.9838 63.1414L42.5198 65.9867L40.4723 69.3547L36.8944 64.9334Z" fill="url(#paint5_linear_2438_5582)"/>
<path d="M34.8837 50.472L33.9255 54.896L37.9838 63.1413L42.5198 65.9867L34.8837 50.472Z" fill="url(#paint6_linear_2438_5582)"/>
<path d="M27.6859 63.1413L31.7468 54.896L30.786 50.472L23.1499 65.9867L27.6859 63.1413Z" fill="url(#paint7_linear_2438_5582)"/>
<path d="M23.4701 16.8V36.904L16.8735 50.296H9.56547L6.70947 45.1707L23.4701 16.8Z" fill="url(#paint8_linear_2438_5582)"/>
<path d="M16.8735 50.296L17.4825 60.2614H4.91138L9.5655 50.296H16.8735Z" fill="url(#paint9_linear_2438_5582)"/>
<path d="M6.7095 45.1707L9.5655 50.296L4.91137 60.2613L0 51.448L6.7095 45.1707Z" fill="url(#paint10_linear_2438_5582)"/>
<path d="M28.8251 2.64264L23.4701 16.7893L6.7095 45.1706L0 51.448L28.8251 2.64264Z" fill="url(#paint11_linear_2438_5582)"/>
<path d="M28.8251 2.64264V37.2133L23.4701 36.8933V16.7893L28.8251 2.64264Z" fill="url(#paint12_linear_2438_5582)"/>
<path d="M17.4825 60.2613L16.8735 50.296L23.4702 36.8933L28.8252 37.2133L17.4825 60.2613Z" fill="url(#paint13_linear_2438_5582)"/>
<path d="M6.70947 45.1707L9.02735 51.448L16.8761 50.296H9.56547L6.70947 45.1707Z" fill="white"/>
<path d="M42.1995 16.8V36.904L48.7961 50.3067H56.1041L58.9601 45.1813L42.1995 16.8Z" fill="url(#paint14_linear_2438_5582)"/>
<path d="M48.7961 50.296L48.1871 60.2614H60.7583L56.1041 50.296H48.7961Z" fill="url(#paint15_linear_2438_5582)"/>
<path d="M58.9601 45.1707L56.1041 50.296L60.7583 60.2613L65.6696 51.448L58.9601 45.1707Z" fill="url(#paint16_linear_2438_5582)"/>
<path d="M36.8445 2.64264L42.1995 16.7893L58.9601 45.1706L65.6696 51.448L36.8445 2.64264Z" fill="url(#paint17_linear_2438_5582)"/>
<path d="M36.8445 2.64264V37.2133L42.1995 36.8933V16.7893L36.8445 2.64264Z" fill="url(#paint18_linear_2438_5582)"/>
<path d="M48.1871 60.2613L48.7961 50.296L42.1995 36.8933L36.8445 37.2133L48.1871 60.2613Z" fill="url(#paint19_linear_2438_5582)"/>
<path d="M58.9628 45.1707L56.6423 51.448L48.7961 50.296H56.1041L58.9628 45.1707Z" fill="white"/>
</g>
<defs>
<linearGradient id="paint0_linear_2438_5582" x1="240.628" y1="47.1174" x2="240.628" y2="24.832" gradientUnits="userSpaceOnUse">
<stop stop-color="#D2ECFF"/>
<stop offset="0.81" stop-color="#F6FBFF"/>
<stop offset="1" stop-color="white"/>
</linearGradient>
<linearGradient id="paint1_linear_2438_5582" x1="32.8361" y1="55.0693" x2="32.8361" y2="50.5733" gradientUnits="userSpaceOnUse">
<stop stop-color="white"/>
<stop offset="0.38" stop-color="#DBEEFF"/>
<stop offset="1" stop-color="#99CFFF"/>
</linearGradient>
<linearGradient id="paint2_linear_2438_5582" x1="37.3249" y1="62.8667" x2="30.652" y2="59.672" gradientUnits="userSpaceOnUse">
<stop stop-color="white"/>
<stop offset="0.81" stop-color="#DBF0FF"/>
<stop offset="1" stop-color="#D2ECFF"/>
</linearGradient>
<linearGradient id="paint3_linear_2438_5582" x1="23.9952" y1="67.8134" x2="28.1442" y2="64.6181" gradientUnits="userSpaceOnUse">
<stop stop-color="#2A7AD7"/>
<stop offset="0.51" stop-color="#4E97EA"/>
<stop offset="1" stop-color="#75B7FF"/>
</linearGradient>
<linearGradient id="paint4_linear_2438_5582" x1="27.7068" y1="71.48" x2="37.0927" y2="65.7775" gradientUnits="userSpaceOnUse">
<stop stop-color="#75B7FF"/>
<stop offset="1" stop-color="#99CFFF"/>
</linearGradient>
<linearGradient id="paint5_linear_2438_5582" x1="38.094" y1="64.808" x2="42.1536" y2="68.1185" gradientUnits="userSpaceOnUse">
<stop stop-color="#D2ECFF"/>
<stop offset="0.65" stop-color="#AEDAFF"/>
<stop offset="1" stop-color="#99CFFF"/>
</linearGradient>
<linearGradient id="paint6_linear_2438_5582" x1="36.5689" y1="59.568" x2="38.319" y2="58.5046" gradientUnits="userSpaceOnUse">
<stop stop-color="white"/>
<stop offset="0.81" stop-color="#DBF0FF"/>
<stop offset="1" stop-color="#D2ECFF"/>
</linearGradient>
<linearGradient id="paint7_linear_2438_5582" x1="26.9063" y1="58.2027" x2="29.5413" y2="59.3113" gradientUnits="userSpaceOnUse">
<stop stop-color="#2A7AD7"/>
<stop offset="1" stop-color="#75B7FF"/>
</linearGradient>
<linearGradient id="paint8_linear_2438_5582" x1="12.1957" y1="48.896" x2="22.6763" y2="21.3056" gradientUnits="userSpaceOnUse">
<stop stop-color="#D2ECFF"/>
<stop offset="0.81" stop-color="#F6FBFF"/>
<stop offset="1" stop-color="white"/>
</linearGradient>
<linearGradient id="paint9_linear_2438_5582" x1="18.1493" y1="55.2774" x2="9.37125" y2="55.2774" gradientUnits="userSpaceOnUse">
<stop stop-color="#2A7AD7"/>
<stop offset="0.35" stop-color="#4E96E4"/>
<stop offset="1" stop-color="#99CFFF"/>
</linearGradient>
<linearGradient id="paint10_linear_2438_5582" x1="7.79362" y1="53.912" x2="1.89747" y2="50.4655" gradientUnits="userSpaceOnUse">
<stop stop-color="#D2ECFF"/>
<stop offset="0.65" stop-color="#AEDAFF"/>
<stop offset="1" stop-color="#99CFFF"/>
</linearGradient>
<linearGradient id="paint11_linear_2438_5582" x1="16.4141" y1="28.3013" x2="13.9995" y2="26.834" gradientUnits="userSpaceOnUse">
<stop stop-color="white"/>
<stop offset="0.81" stop-color="#DBF0FF"/>
<stop offset="1" stop-color="#D2ECFF"/>
</linearGradient>
<linearGradient id="paint12_linear_2438_5582" x1="29.8252" y1="19.9626" x2="24.4753" y2="19.7895" gradientUnits="userSpaceOnUse">
<stop stop-color="#75B7FF"/>
<stop offset="0.42" stop-color="#99CCFF"/>
<stop offset="1" stop-color="#D2ECFF"/>
</linearGradient>
<linearGradient id="paint13_linear_2438_5582" x1="23.0475" y1="48.6693" x2="19.2206" y2="46.2891" gradientUnits="userSpaceOnUse">
<stop stop-color="#2A7AD7"/>
<stop offset="0.35" stop-color="#4E96E4"/>
<stop offset="1" stop-color="#99CFFF"/>
</linearGradient>
<linearGradient id="paint14_linear_2438_5582" x1="53.4765" y1="48.896" x2="42.9932" y2="21.3057" gradientUnits="userSpaceOnUse">
<stop stop-color="#D2ECFF"/>
<stop offset="0.81" stop-color="#F6FBFF"/>
<stop offset="1" stop-color="white"/>
</linearGradient>
<linearGradient id="paint15_linear_2438_5582" x1="47.523" y1="55.2774" x2="56.2984" y2="55.2774" gradientUnits="userSpaceOnUse">
<stop stop-color="#2A7AD7"/>
<stop offset="0.35" stop-color="#4E96E4"/>
<stop offset="1" stop-color="#99CFFF"/>
</linearGradient>
<linearGradient id="paint16_linear_2438_5582" x1="57.876" y1="53.912" x2="63.7748" y2="50.4655" gradientUnits="userSpaceOnUse">
<stop stop-color="#D2ECFF"/>
<stop offset="0.65" stop-color="#AEDAFF"/>
<stop offset="1" stop-color="#99CFFF"/>
</linearGradient>
<linearGradient id="paint17_linear_2438_5582" x1="49.2581" y1="28.3013" x2="51.6702" y2="26.8339" gradientUnits="userSpaceOnUse">
<stop stop-color="white"/>
<stop offset="0.81" stop-color="#DBF0FF"/>
<stop offset="1" stop-color="#D2ECFF"/>
</linearGradient>
<linearGradient id="paint18_linear_2438_5582" x1="35.8444" y1="19.9626" x2="41.1969" y2="19.7895" gradientUnits="userSpaceOnUse">
<stop stop-color="#75B7FF"/>
<stop offset="0.42" stop-color="#99CCFF"/>
<stop offset="1" stop-color="#D2ECFF"/>
</linearGradient>
<linearGradient id="paint19_linear_2438_5582" x1="42.6221" y1="48.6693" x2="46.4517" y2="46.2891" gradientUnits="userSpaceOnUse">
<stop stop-color="#2A7AD7"/>
<stop offset="0.35" stop-color="#4E96E4"/>
<stop offset="1" stop-color="#99CFFF"/>
</linearGradient>
<clipPath id="clip0_2438_5582">
<rect width="393.75" height="72" fill="white"/>
</clipPath>
</defs>
</svg>
