<svg width="234" height="80" viewBox="0 0 234 80" fill="none" xmlns="http://www.w3.org/2000/svg">
  <path
    d="M40.0101 25.9541V20.0387C40.011 18.9894 39.6995 17.9637 39.1153 17.0921C38.5311 16.2206 37.7006 15.5427 36.7297 15.1449L0 0V3.28039L32.7166 16.7246C33.0476 16.8683 33.3091 17.136 33.4448 17.4704C33.5806 17.8047 33.5798 18.179 33.4426 18.5127C33.378 18.6772 33.2802 18.8265 33.1553 18.9515C33.0304 19.0764 32.881 19.1742 32.7166 19.2387L0 32.7636V45.9592L19.716 37.8254L32.6762 43.1695C32.8422 43.2371 32.9931 43.3371 33.1198 43.4638C33.2466 43.5906 33.3467 43.7413 33.4144 43.9073C33.482 44.0733 33.5158 44.2511 33.5137 44.4303C33.5116 44.6095 33.4737 44.7865 33.4022 44.9508C33.3377 45.1153 33.2399 45.2646 33.115 45.3896C32.99 45.5145 32.8407 45.6123 32.6762 45.6768L0 59.1614V80L36.6826 64.8954C37.6535 64.4976 38.484 63.8197 39.0682 62.9482C39.6524 62.0767 39.9639 61.0509 39.963 60.0017V46.4432C39.9644 45.393 39.6531 44.3662 39.069 43.4935C38.4848 42.6208 37.6541 41.9417 36.6826 41.5427L23.6888 36.165L36.6826 30.8209C37.6661 30.4439 38.5113 29.7762 39.1058 28.9067C39.7002 28.0373 40.0157 27.0074 40.0101 25.9541Z"
    fill="white" />
  <path
    d="M70.2596 4.87983C70.4486 4.55029 70.7267 4.28081 71.0621 4.10242C71.3975 3.92403 71.7764 3.84399 72.1553 3.87151C73.4997 3.87151 74.629 4.98066 74.629 6.88302C74.629 8.78538 73.4795 9.89454 72.1553 9.89454C71.7764 9.92206 71.3975 9.84202 71.0621 9.66363C70.7267 9.48524 70.4486 9.21576 70.2596 8.88622V11.6423H69.2849V3.96562H70.2596V4.87983ZM73.5669 6.89647C73.5669 5.55204 72.8947 4.72522 71.9066 4.72522C71.0394 4.72522 70.2193 5.39744 70.2193 6.89647C70.2193 8.3955 71.0394 9.06771 71.9066 9.06771C72.9485 9.05427 73.5804 8.26106 73.5804 6.88302L73.5669 6.89647Z"
    fill="white" />
  <path
    d="M78.064 4.94705C77.1632 4.94705 76.7196 5.45121 76.7196 6.72169V9.77354H75.7382V3.96562H76.6927V4.98067C76.8326 4.66579 77.0621 4.39906 77.3526 4.21377C77.6431 4.02848 77.9817 3.93282 78.3262 3.93873H78.6152V4.98067C78.4136 4.96722 78.2253 4.94705 78.064 4.94705Z"
    fill="white" />
  <path
    d="M81.8083 9.89509C80.4639 9.89509 79.0388 8.98088 79.0388 6.88358C79.0388 4.78628 80.4639 3.87207 81.8083 3.87207C83.1528 3.87207 84.5846 4.78628 84.5846 6.88358C84.5846 8.98088 83.1595 9.89509 81.8083 9.89509ZM83.5426 6.88358C83.5426 5.34421 82.6957 4.7325 81.8083 4.7325C80.921 4.7325 80.0807 5.30388 80.0807 6.88358C80.0807 8.46328 80.9277 9.03466 81.8083 9.03466C82.6889 9.03466 83.5426 8.36917 83.5426 6.88358Z"
    fill="white" />
  <path
    d="M86.6213 3.96597V10.0159C86.6213 11.2191 86.3726 11.609 85.2768 11.609H84.7794V10.7889H85.0483C85.5525 10.7889 85.6466 10.641 85.6466 10.036V3.96597H86.6213ZM86.6213 3.13914H85.6399V1.95605H86.6213V3.13914Z"
    fill="white" />
  <path
    d="M90.5336 9.03481C90.8645 9.06671 91.1969 8.99107 91.4815 8.81913C91.7661 8.64718 91.9876 8.38808 92.1133 8.08027H93.1149C92.9538 8.63312 92.6088 9.11439 92.137 9.44445C91.6651 9.7745 91.0947 9.93354 90.5202 9.89524C88.6917 9.89524 87.6834 8.55082 87.6834 6.87701C87.6526 6.49163 87.7024 6.10404 87.8296 5.73897C87.9569 5.3739 88.1588 5.03935 88.4226 4.75665C88.6863 4.47395 89.006 4.2493 89.3614 4.09703C89.7168 3.94475 90.0999 3.86819 90.4865 3.87222C92.2545 3.87222 93.3166 5.35781 93.1754 7.18623H88.7455C88.7364 7.42632 88.776 7.66577 88.8619 7.89016C88.9478 8.11456 89.0782 8.31926 89.2452 8.49195C89.4123 8.66465 89.6125 8.80177 89.8339 8.89506C90.0553 8.98835 90.2933 9.03589 90.5336 9.03481ZM92.1671 6.34596C92.1398 5.91252 91.9485 5.50574 91.6319 5.20843C91.3153 4.91112 90.8973 4.74562 90.463 4.74562C90.0287 4.74562 89.6108 4.91112 89.2942 5.20843C88.9776 5.50574 88.7862 5.91252 88.759 6.34596H92.1671Z"
    fill="white" />
  <path
    d="M98.1698 5.90148C98.0961 5.56202 97.9058 5.25913 97.632 5.04544C97.3581 4.83175 97.018 4.72078 96.6708 4.73184C95.8037 4.73184 95.0037 5.40405 95.0037 6.86275C95.0037 8.32145 95.8104 9.034 96.6708 9.034C97.0218 9.04586 97.3662 8.93682 97.6464 8.72513C97.9267 8.51344 98.1257 8.21193 98.2102 7.87107H99.2252C99.0947 8.45396 98.7661 8.97355 98.2954 9.34129C97.8247 9.70902 97.2411 9.90213 96.6439 9.8877C94.9836 9.8877 93.9551 8.63067 93.9551 6.86947C93.9551 5.10828 95.0441 3.86468 96.7515 3.86468C97.3299 3.85382 97.8928 4.05169 98.3373 4.42204C98.7817 4.79239 99.0778 5.31044 99.1715 5.88132L98.1698 5.90148Z"
    fill="white" />
  <path
    d="M101.497 2.51465V3.96663H102.593V4.75312H101.497V8.18812C101.497 8.78639 101.544 8.941 102.102 8.941H102.593V9.77454H101.887C100.778 9.77454 100.543 9.53255 100.543 8.32256V4.75312H99.6285V3.96663H100.509V2.51465H101.497Z"
    fill="white" />
  <path
    d="M108.193 4.69876C107.621 4.69876 106.976 4.90715 106.976 5.43147C106.976 5.9558 107.299 6.10368 107.856 6.21796L108.677 6.37929C109.725 6.58095 110.653 6.97756 110.653 8.10016C110.653 9.22275 109.618 9.89496 108.3 9.89496C107.707 9.93968 107.118 9.75574 106.656 9.38082C106.193 9.0059 105.892 8.46837 105.813 7.87832H106.841C106.882 8.23075 107.06 8.55286 107.337 8.77447C107.614 8.99607 107.968 9.09922 108.32 9.06142C109.06 9.06142 109.665 8.73876 109.665 8.20099C109.665 7.66322 109.114 7.37416 108.488 7.24644L107.628 7.07167C106.841 6.91034 105.981 6.54062 105.981 5.46508C105.981 4.38954 107.016 3.85177 108.3 3.85177C108.841 3.80475 109.379 3.96564 109.805 4.30165C110.231 4.63765 110.512 5.12346 110.592 5.66002H109.571C109.504 5.35572 109.325 5.0877 109.07 4.9095C108.814 4.73129 108.501 4.65604 108.193 4.69876Z"
    fill="white" />
  <path
    d="M113.55 9.89571C112.206 9.89571 111.702 8.99495 111.702 7.67069V3.9668H112.676V7.38164C112.676 8.27568 112.831 9.04872 113.893 9.04872C114.821 9.04872 115.365 8.37651 115.365 7.15308V3.9668H116.347V9.77471H115.365V8.94789C115.181 9.25973 114.914 9.51385 114.593 9.68138C114.272 9.84892 113.911 9.92317 113.55 9.89571Z"
    fill="white" />
  <path
    d="M118.746 4.87983C118.935 4.55029 119.213 4.28081 119.549 4.10242C119.884 3.92403 120.263 3.84399 120.642 3.87151C121.986 3.87151 123.116 4.98066 123.116 6.88302C123.116 8.78538 121.959 9.89454 120.642 9.89454C120.263 9.92206 119.884 9.84202 119.549 9.66363C119.213 9.48524 118.935 9.21576 118.746 8.88622V11.6423H117.765V3.96562H118.746V4.87983ZM122.047 6.89647C122.047 5.55204 121.375 4.72522 120.393 4.72522C119.519 4.72522 118.699 5.39744 118.699 6.89647C118.699 8.3955 119.519 9.06771 120.393 9.06771C121.395 9.05427 122.02 8.26106 122.02 6.88302L122.047 6.89647Z"
    fill="white" />
  <path
    d="M125.179 4.87983C125.368 4.55029 125.647 4.28081 125.982 4.10242C126.317 3.92403 126.696 3.84399 127.075 3.87151C128.419 3.87151 129.549 4.98066 129.549 6.88302C129.549 8.78538 128.399 9.89454 127.075 9.89454C126.696 9.92206 126.317 9.84202 125.982 9.66363C125.647 9.48524 125.368 9.21576 125.179 8.88622V11.6423H124.198V3.96562H125.179V4.87983ZM128.48 6.89647C128.48 5.55204 127.808 4.72522 126.826 4.72522C125.952 4.72522 125.139 5.39744 125.139 6.89647C125.139 8.3955 125.952 9.06771 126.826 9.06771C127.828 9.05427 128.48 8.26106 128.48 6.88302V6.89647Z"
    fill="white" />
  <path
    d="M133.078 9.89509C131.734 9.89509 130.302 8.98088 130.302 6.88358C130.302 4.78628 131.727 3.87207 133.078 3.87207C133.88 3.87207 134.65 4.19077 135.217 4.75806C135.784 5.32535 136.103 6.09476 136.103 6.89703C136.103 7.69929 135.784 8.4687 135.217 9.03599C134.65 9.60328 133.88 9.92198 133.078 9.92198V9.89509ZM134.792 6.88358C134.792 5.34421 133.945 4.7325 133.065 4.7325C132.184 4.7325 131.33 5.30388 131.33 6.88358C131.33 8.46328 132.177 9.03466 133.065 9.03466C133.952 9.03466 134.792 8.36917 134.792 6.88358Z"
    fill="white" />
  <path
    d="M139.276 4.94733C138.375 4.94733 137.931 5.45149 137.931 6.72197V9.77382H136.943V3.9659H137.904V4.98094C138.042 4.66444 138.271 4.39622 138.562 4.21061C138.853 4.02499 139.193 3.93043 139.538 3.93901H139.827V4.98094C139.625 4.9675 139.437 4.94733 139.276 4.94733Z"
    fill="white" />
  <path
    d="M142.227 2.51465V3.96663H143.329V4.75312H142.227V8.18812C142.227 8.78639 142.274 8.941 142.832 8.941H143.329V9.77454H142.617C141.507 9.77454 141.272 9.53255 141.272 8.32256V4.75312H140.358V3.96663H141.272V2.51465H142.227Z"
    fill="white" />
  <path
    d="M146.623 9.03481C146.955 9.06603 147.288 8.9902 147.573 8.81842C147.859 8.64665 148.082 8.38797 148.209 8.08027H149.218C149.057 8.63311 148.712 9.11439 148.24 9.44444C147.768 9.7745 147.198 9.93354 146.623 9.89524C144.795 9.89524 143.786 8.55082 143.786 6.87701C143.756 6.49128 143.807 6.10355 143.935 5.73847C144.063 5.37339 144.266 5.03893 144.53 4.75635C144.794 4.47377 145.114 4.24925 145.47 4.09704C145.826 3.94483 146.209 3.86827 146.596 3.87222C148.357 3.87222 149.426 5.35781 149.285 7.18622H144.875C144.864 7.4234 144.901 7.66033 144.984 7.88288C145.067 8.10543 145.194 8.30904 145.357 8.48156C145.52 8.65409 145.716 8.79199 145.934 8.88704C146.151 8.98209 146.386 9.03235 146.623 9.03481ZM148.263 6.34596C148.263 5.89312 148.083 5.45883 147.763 5.13863C147.443 4.81843 147.009 4.63854 146.556 4.63854C146.103 4.63854 145.669 4.81843 145.348 5.13863C145.028 5.45883 144.848 5.89312 144.848 6.34596H148.263Z"
    fill="white" />
  <path
    d="M155.382 1.95605V9.77388H154.401V8.90673C154.212 9.23627 153.933 9.50575 153.598 9.68414C153.263 9.86253 152.884 9.94257 152.505 9.91505C151.16 9.91505 150.031 8.81934 150.031 6.90354C150.031 4.98773 151.181 3.89202 152.505 3.89202C152.884 3.8645 153.263 3.94454 153.598 4.12293C153.933 4.30132 154.212 4.5708 154.401 4.90034V1.95605H155.382ZM151.1 6.88337C151.1 8.22779 151.772 9.05462 152.754 9.05462C153.627 9.05462 154.441 8.3824 154.441 6.88337C154.441 5.38433 153.627 4.71212 152.754 4.71212C151.752 4.71212 151.1 5.50533 151.1 6.88337Z"
    fill="white" />
  <path
    d="M160.41 4.88018C160.599 4.55063 160.877 4.28115 161.213 4.10276C161.548 3.92437 161.927 3.84433 162.306 3.87186C163.65 3.87186 164.78 4.98101 164.78 6.88337C164.78 8.78573 163.63 9.89488 162.306 9.89488C161.927 9.92241 161.548 9.84237 161.213 9.66398C160.877 9.48559 160.599 9.21611 160.41 8.88656V9.77388H159.429V1.95605H160.41V4.88018ZM163.717 6.89681C163.717 5.55239 163.045 4.72557 162.057 4.72557C161.183 4.72557 160.37 5.39778 160.37 6.89681C160.37 8.39585 161.183 9.06806 162.057 9.06806C163.059 9.05461 163.697 8.2614 163.697 6.88337L163.717 6.89681Z"
    fill="white" />
  <path
    d="M167.905 10.0026C167.488 11.2664 167.186 11.6428 165.889 11.6428H165.378V10.8227H165.781C166.453 10.8227 166.736 10.7824 166.991 9.87491L167.058 9.77408L164.968 3.98633H166.057L167.529 8.45654L168.961 3.98633H169.982L167.905 10.0026Z"
    fill="white" />
  <path
    d="M77.5531 23.7021L79.926 32.5283L82.2115 23.7021H84.376L80.941 35.6406H79.0992L76.4574 26.028L73.9097 35.6406H72.0746L68.6328 23.7021H70.8041L73.0896 32.5283L75.4692 23.7021H77.5531Z"
    fill="white" />
  <path
    d="M90.7151 34.1488C91.3977 34.2122 92.0826 34.0551 92.6693 33.7006C93.2561 33.3461 93.7138 32.8129 93.9753 32.1792H96.0592C95.508 34.2429 93.619 35.9235 90.7151 35.9235C86.944 35.9235 84.8601 33.2346 84.8601 29.6921C84.8601 25.9209 87.3876 23.501 90.6478 23.501C94.2845 23.501 96.4826 26.5663 96.2138 30.3374H87.065C87.0451 30.8296 87.1247 31.3209 87.299 31.7817C87.4734 32.2425 87.7389 32.6634 88.0796 33.0192C88.4204 33.375 88.8294 33.6585 89.2823 33.8526C89.7351 34.0467 90.2224 34.1474 90.7151 34.1488ZM94.0761 28.6031C93.9916 27.7325 93.5862 26.9244 92.9388 26.3362C92.2914 25.7481 91.4483 25.4218 90.5736 25.421C89.6989 25.4201 88.8552 25.7448 88.2066 26.3317C87.5581 26.9187 87.1511 27.7259 87.065 28.5963L94.0761 28.6031Z"
    fill="white" />
  <path
    d="M100.321 25.5844C100.714 24.9085 101.288 24.3555 101.978 23.9874C102.667 23.6194 103.446 23.4508 104.227 23.5006C106.956 23.5006 109.329 25.7861 109.329 29.7118C109.329 33.6375 106.956 35.9231 104.227 35.9231C103.446 35.9729 102.667 35.8043 101.978 35.4362C101.288 35.0681 100.714 34.5151 100.321 33.8392V35.6407H98.3043V19.5547H100.321V25.5844ZM107.13 29.7118C107.13 26.8751 105.786 25.2349 103.716 25.2349C101.921 25.2349 100.234 26.5793 100.234 29.7118C100.234 32.8443 101.921 34.1955 103.716 34.1955C105.779 34.1955 107.13 32.5553 107.13 29.7118Z"
    fill="white" />
  <path
    d="M115.459 28.0712H115.123V26.2293H115.392C118.189 26.2293 119.674 25.4562 119.674 23.5404C119.674 21.8129 118.256 20.9255 116.542 20.9255C116.104 20.8908 115.664 20.945 115.249 21.0849C114.833 21.2249 114.45 21.4477 114.122 21.7398C113.795 22.0319 113.53 22.3874 113.344 22.7847C113.158 23.182 113.054 23.6128 113.039 24.0513H110.956C111.197 21.2146 113.214 19.2383 116.589 19.2383C119.385 19.2383 121.805 20.3474 121.805 23.3186C121.806 24.1349 121.554 24.9314 121.085 25.5993C120.616 26.2671 119.952 26.7736 119.183 27.0494C121.583 27.8023 122.249 29.3954 122.249 31.0827C122.249 34.3227 119.493 35.8957 116.434 35.8957C112.663 35.8957 110.929 33.5497 110.707 30.8608H112.797C113.019 32.8371 114.189 34.2219 116.454 34.2219C118.585 34.2219 120.091 33.1127 120.091 31.1163C120.091 28.824 118.027 28.0712 115.459 28.0712Z"
    fill="white" />
  <path
    d="M133.717 19.5547H134.792V21.2419H133.79C132.728 21.2419 132.547 21.4839 132.547 22.7275V23.7022H134.792V25.3223H132.547V35.6407H130.53V25.3223H128.863V23.7022H130.53V22.8351C130.497 20.3546 131.008 19.5547 133.717 19.5547Z"
    fill="white" />
  <path
    d="M141.198 35.9235C138.429 35.9235 135.478 34.0413 135.478 29.7122C135.478 25.3832 138.429 23.501 141.198 23.501C143.968 23.501 146.926 25.3899 146.926 29.7122C146.926 34.0345 143.975 35.9235 141.198 35.9235ZM144.774 29.7122C144.774 26.5394 143.02 25.2756 141.198 25.2756C139.377 25.2756 137.629 26.452 137.629 29.7122C137.629 32.9725 139.383 34.1488 141.198 34.1488C143.013 34.1488 144.774 32.7775 144.774 29.7122Z"
    fill="white" />
  <path
    d="M152.76 35.923C149.991 35.923 148.949 34.0609 148.949 31.3318V23.7021H150.965V30.7335C150.965 32.5753 151.275 34.1752 153.473 34.1752C155.382 34.1752 156.511 32.8308 156.511 30.2697V23.7021H158.528V35.6406H156.511V33.9265C156.134 34.5754 155.583 35.106 154.92 35.4587C154.257 35.8115 153.509 35.9722 152.76 35.923Z"
    fill="white" />
  <path
    d="M167.22 23.4998C170.11 23.4998 171.152 25.3618 171.152 28.091V35.6399H169.135V28.6893C169.135 26.8541 168.826 25.2543 166.521 25.2543C164.564 25.2543 163.368 26.5987 163.368 29.1598V35.6399H161.351V23.7014H163.368V25.4963C163.764 24.8409 164.333 24.3076 165.012 23.9553C165.692 23.603 166.456 23.4453 167.22 23.4998Z"
    fill="white" />
  <path
    d="M184.173 19.5544V35.6404H182.156V33.8389C181.763 34.5148 181.189 35.0678 180.5 35.4358C179.81 35.8039 179.031 35.9725 178.251 35.9227C175.521 35.9227 173.149 33.6641 173.149 29.7115C173.149 25.7589 175.521 23.5002 178.251 23.5002C179.031 23.4504 179.81 23.619 180.5 23.9871C181.189 24.3552 181.763 24.9082 182.156 25.5841V19.5342L184.173 19.5544ZM175.347 29.7115C175.347 32.5549 176.691 34.1951 178.762 34.1951C180.556 34.1951 182.244 32.8507 182.244 29.7115C182.244 26.5722 180.556 25.2345 178.762 25.2345C176.698 25.2345 175.347 26.8747 175.347 29.7115Z"
    fill="white" />
  <path
    d="M194.35 28.2928V28.0038C194.35 25.8325 193.127 25.0998 191.661 25.0998C190.001 25.0998 189.026 26.0073 188.932 27.4727H186.848C187.05 24.8982 189.308 23.4395 191.641 23.4395C194.928 23.4395 196.414 25.0124 196.387 28.36V31.1161C196.337 32.624 196.44 34.133 196.696 35.6199H194.679C194.592 35.075 194.54 34.5248 194.525 33.973C193.792 35.1964 192.549 35.9023 190.438 35.9023C188.199 35.9023 186.337 34.6654 186.337 32.4673C186.277 29.6709 189.45 28.8508 194.35 28.2928ZM188.515 32.4404C188.515 33.5764 189.382 34.3293 190.821 34.3293C192.71 34.3293 194.505 33.4621 194.505 30.6456V29.8927C190.848 30.2691 188.515 30.8002 188.515 32.4404Z"
    fill="white" />
  <path
    d="M201.529 20.7041V23.7022H203.795V25.3222H201.529V32.4006C201.529 33.6442 201.623 33.9534 202.773 33.9534H203.795V35.6407H202.329C200.044 35.6407 199.513 35.1298 199.513 32.6426V25.3222H197.63V23.7022H199.513V20.7041H201.529Z"
    fill="white" />
  <path d="M207.741 21.9948H205.724V19.5547H207.741V21.9948ZM207.741 35.6407H205.724V23.7022H207.741V35.6407Z"
    fill="white" />
  <path
    d="M215.612 35.9235C212.836 35.9235 209.885 34.0413 209.885 29.7122C209.885 25.3832 212.836 23.501 215.612 23.501C218.388 23.501 221.333 25.3899 221.333 29.7122C221.333 34.0345 218.382 35.9235 215.612 35.9235ZM219.182 29.7122C219.182 26.5394 217.427 25.2756 215.612 25.2756C213.797 25.2756 212.036 26.452 212.036 29.7122C212.036 32.9725 213.79 34.1488 215.612 34.1488C217.434 34.1488 219.182 32.7775 219.182 29.7122Z"
    fill="white" />
  <path
    d="M229.359 23.5002C232.243 23.5002 233.285 25.3623 233.285 28.0915V35.6404H231.268V28.6897C231.268 26.8546 230.959 25.2547 228.646 25.2547C226.697 25.2547 225.5 26.5991 225.5 29.1603V35.6404H223.484V23.7019H225.5V25.4967C225.897 24.8403 226.467 24.3063 227.148 23.9539C227.829 23.6015 228.594 23.4445 229.359 23.5002Z"
    fill="white" />
  <path
    d="M80.1681 48.4127V58.7513C80.1681 61.1915 79.7245 62.1931 79.0388 62.9459C78.5014 63.4854 77.8556 63.9046 77.1441 64.1757C76.4325 64.4469 75.6716 64.5639 74.9114 64.5189C72.2226 64.5189 70.3874 63.2753 70.011 60.8621H72.1621C72.4242 61.9242 73.0696 62.7443 74.9316 62.7443C75.3779 62.7768 75.826 62.7146 76.2466 62.5616C76.6671 62.4087 77.0506 62.1686 77.3717 61.8569C77.8154 61.3931 78.1515 60.8352 78.1515 59.2152V58.0858C77.78 58.7537 77.2264 59.3022 76.5552 59.6676C75.884 60.0329 75.1228 60.2001 74.3602 60.1495C71.7184 60.1495 69.2985 58.0186 69.2985 54.1803C69.2985 50.3419 71.7184 48.211 74.3602 48.211C75.1255 48.163 75.8886 48.3342 76.5601 48.7045C77.2316 49.0748 77.7836 49.6288 78.1515 50.3016V48.4127H80.1681ZM71.4966 54.1803C71.4966 56.9095 72.8948 58.4421 74.8577 58.4421C76.6592 58.4421 78.2187 57.2187 78.2187 54.1803C78.2187 51.1419 76.6457 49.9453 74.8577 49.9453C72.8948 49.9453 71.4966 51.4511 71.4966 54.1803Z"
    fill="white" />
  <path
    d="M87.7977 50.4362C85.9356 50.4362 85.0013 51.4782 85.0013 54.0931V60.3514H82.9846V48.4129H84.9542V50.4967C85.2416 49.848 85.7136 49.2982 86.3112 48.9157C86.9088 48.5332 87.6058 48.335 88.3153 48.3457C88.5145 48.3327 88.7143 48.3327 88.9135 48.3457V50.4967C88.5429 50.457 88.1704 50.4368 87.7977 50.4362Z"
    fill="white" />
  <path
    d="M97.8203 53.0038V52.7147C97.8203 50.5435 96.5969 49.8108 95.1315 49.8108C93.4711 49.8108 92.4964 50.7182 92.4023 52.1837H90.3185C90.5201 49.6091 92.7788 48.1504 95.1113 48.1504C98.3917 48.1504 99.884 49.7234 99.8571 53.0777V55.8271C99.8071 57.3349 99.9107 58.844 100.166 60.3309H98.1497C98.0628 59.7879 98.0089 59.2402 97.9884 58.6907C97.2624 59.9074 96.0188 60.6199 93.9081 60.6199C91.6696 60.6199 89.8076 59.3763 89.8076 57.1782C89.7538 54.3818 92.8997 53.5617 97.8203 53.0038ZM91.9855 57.158C91.9855 58.2874 92.8527 59.0402 94.2912 59.0402C96.1801 59.0402 97.975 58.1731 97.975 55.3565V54.6036C94.2912 54.9801 91.9654 55.4842 91.9654 57.158H91.9855Z"
    fill="white" />
  <path
    d="M108.381 48.2112C111.265 48.2112 112.306 50.0799 112.306 52.8091V60.3513H110.29V53.4074C110.29 51.5655 109.981 49.9657 107.668 49.9657C105.719 49.9657 104.522 51.3101 104.522 53.8712V60.3513H102.506V48.4128H104.522V50.2077C104.919 49.5512 105.489 49.0172 106.17 48.6648C106.851 48.3125 107.616 48.1555 108.381 48.2112Z"
    fill="white" />
  <path
    d="M117.516 45.4014V48.3927H119.782V50.0127H117.516V57.0911C117.516 58.3347 117.604 58.6439 118.76 58.6439H119.782V60.3312H118.316C116.031 60.3312 115.5 59.8203 115.5 57.3331V50.0329H113.611V48.4129H115.5V45.4014H117.516Z"
    fill="white" />
  <path
    d="M125.758 49.9247C124.581 49.9247 123.25 50.3415 123.25 51.4305C123.25 52.385 123.922 52.8287 125.072 53.0505L126.759 53.3799C128.93 53.8034 130.84 54.6235 130.84 56.9359C130.84 59.2483 128.709 60.6398 125.979 60.6398C122.854 60.6398 121.079 58.5761 120.857 56.4923H122.988C123.078 57.2143 123.445 57.8731 124.012 58.3287C124.58 58.7843 125.302 59.0009 126.026 58.9324C127.552 58.9324 128.796 58.2602 128.796 57.1578C128.796 56.0553 127.667 55.4436 126.376 55.1814L124.601 54.8252C122.988 54.4891 121.24 53.7362 121.24 51.5179C121.24 49.4139 123.371 48.1904 126.013 48.1904C128.655 48.1904 130.342 49.6357 130.719 51.8943H128.608C128.265 50.476 127.156 49.9247 125.758 49.9247Z"
    fill="white" />
  <path
    d="M140.573 50.3018C140.966 49.6251 141.539 49.0712 142.229 48.702C142.919 48.3328 143.698 48.1628 144.479 48.2112C147.208 48.2112 149.581 50.4967 149.581 54.4291C149.581 58.3616 147.208 60.6404 144.479 60.6404C143.697 60.6903 142.918 60.5211 142.228 60.1517C141.538 59.7823 140.965 59.2275 140.573 58.5498V64.2233H138.556V48.4129H140.573V50.3018ZM147.389 54.4291C147.389 51.5857 146.045 49.9455 143.968 49.9455C142.173 49.9455 140.486 51.2899 140.486 54.4291C140.486 57.5684 142.173 58.9061 143.968 58.9061C146.031 58.9061 147.389 57.2659 147.389 54.4291Z"
    fill="white" />
  <path
    d="M156.531 50.4362C154.669 50.4362 153.735 51.4782 153.735 54.0931V60.3514H151.718V48.4129H153.695V50.4967C153.981 49.8469 154.452 49.2961 155.05 48.9134C155.648 48.5307 156.346 48.3332 157.056 48.3457C157.255 48.3327 157.455 48.3327 157.654 48.3457V50.4967C157.281 50.4565 156.906 50.4363 156.531 50.4362Z"
    fill="white" />
  <path
    d="M164.141 60.6401C161.365 60.6401 158.414 58.7512 158.414 54.4289C158.414 50.1066 161.365 48.2109 164.141 48.2109C166.917 48.2109 169.861 50.0999 169.861 54.4289C169.861 58.7579 166.91 60.6401 164.141 60.6401ZM167.71 54.4289C167.71 51.2561 165.956 49.9856 164.141 49.9856C162.326 49.9856 160.565 51.1619 160.565 54.4289C160.565 57.6959 162.319 58.8655 164.141 58.8655C165.963 58.8655 167.73 57.5009 167.73 54.4289H167.71Z"
    fill="white" />
  <path
    d="M182.17 48.4131V58.7517C182.17 61.1919 181.726 62.1935 181.04 62.9463C180.503 63.4858 179.857 63.905 179.146 64.1761C178.434 64.4473 177.673 64.5643 176.913 64.5193C174.224 64.5193 172.389 63.2757 172.006 60.8625H174.164C174.426 61.9246 175.071 62.7447 176.933 62.7447C177.379 62.7772 177.828 62.715 178.248 62.5621C178.669 62.4091 179.052 62.169 179.373 61.8574C179.817 61.3935 180.153 60.8356 180.153 59.2156V58.0862C179.781 58.7552 179.226 59.3044 178.554 59.6698C177.881 60.0353 177.119 60.2018 176.355 60.1499C173.72 60.1499 171.3 58.019 171.3 54.1807C171.3 50.3424 173.72 48.2114 176.355 48.2114C177.121 48.1622 177.886 48.3327 178.559 48.703C179.232 49.0734 179.785 49.6281 180.153 50.302V48.4131H182.17ZM173.498 54.1807C173.498 56.9099 174.89 58.4425 176.859 58.4425C178.661 58.4425 180.22 57.2191 180.22 54.1807C180.22 51.1423 178.647 49.9458 176.859 49.9458C174.89 49.9458 173.498 51.4515 173.498 54.1807Z"
    fill="white" />
  <path
    d="M189.799 50.4362C187.937 50.4362 187.003 51.4782 187.003 54.0931V60.3514H184.986V48.4129H186.956V50.4967C187.242 49.8475 187.714 49.2971 188.312 48.9145C188.91 48.532 189.607 48.3341 190.317 48.3457C190.516 48.3327 190.716 48.3327 190.915 48.3457V50.4967C190.544 50.4573 190.172 50.4371 189.799 50.4362Z"
    fill="white" />
  <path
    d="M199.802 53.0038V52.7147C199.802 50.5435 198.578 49.8108 197.113 49.8108C195.452 49.8108 194.471 50.7182 194.384 52.1837H192.3C192.501 49.6091 194.76 48.1504 197.093 48.1504C200.373 48.1504 201.859 49.7234 201.838 53.0777V55.8271C201.788 57.3349 201.892 58.844 202.148 60.3309H200.131C200.047 59.7877 199.995 59.24 199.976 58.6907C199.244 59.9074 198.007 60.6199 195.896 60.6199C193.658 60.6199 191.789 59.3763 191.789 57.1782C191.722 54.3818 194.894 53.5617 199.802 53.0038ZM193.947 57.158C193.947 58.2874 194.807 59.0402 196.252 59.0402C198.141 59.0402 199.936 58.1731 199.936 55.3565V54.6036C196.293 54.9801 193.947 55.4842 193.947 57.158Z"
    fill="white" />
  <path
    d="M204.5 60.3506V48.4121H206.517V50.2069C206.872 49.5734 207.395 49.0501 208.029 48.6943C208.662 48.3386 209.381 48.1642 210.107 48.1903C211.928 48.1903 213.017 48.9902 213.548 50.3011C213.974 49.6237 214.571 49.0713 215.28 48.7005C215.988 48.3297 216.783 48.1536 217.582 48.1903C220.358 48.1903 221.44 50.0591 221.44 52.7883V60.3305H219.424V53.4067C219.424 51.5648 219.067 49.965 216.876 49.965C215.142 49.965 213.985 51.3094 213.985 53.8705V60.3506H211.969V53.4067C211.969 51.5648 211.613 49.965 209.421 49.965C207.687 49.965 206.537 51.3094 206.537 53.8705V60.3506H204.5Z"
    fill="white" />
</svg>