<svg width="64" height="64" viewBox="0 0 64 64" fill="none" xmlns="http://www.w3.org/2000/svg">
  <path
    d="M43.5 5V7.8125C41.8281 8.10938 40.2734 8.74219 38.9375 9.6875L36.875 7.75L34.125 10.6875L36.125 12.5625C35.2266 13.875 34.6016 15.375 34.3125 17H31.5V21H34.3125C34.6016 22.6562 35.2578 24.1719 36.1875 25.5L34.0625 27.5625L36.9375 30.4375L39 28.3125C40.3281 29.2422 41.8438 29.8984 43.5 30.1875V33H47.5V30.1875C49.125 29.8984 50.625 29.2734 51.9375 28.375L53.8125 30.375L56.75 27.625L54.8125 25.5625C55.7578 24.2266 56.3906 22.6719 56.6875 21H59.5V17H56.6875C56.3984 15.3438 55.7422 13.8281 54.8125 12.5L56.6875 10.625L53.875 7.8125L52 9.6875C50.6719 8.75781 49.1562 8.10156 47.5 7.8125V5H43.5ZM45.5 11.625C49.6094 11.625 52.875 14.8906 52.875 19C52.875 23.1094 49.6094 26.375 45.5 26.375C41.3906 26.375 38.125 23.1094 38.125 19C38.125 14.8906 41.3906 11.625 45.5 11.625ZM19.5625 23.4375L15.875 24.9375L17.3125 28.5625C15.4062 29.7031 13.7812 31.2969 12.625 33.1875L9.0625 31.75L7.5625 35.4375L11.125 36.875C10.8594 37.9297 10.6875 39.0469 10.6875 40.1875C10.6875 41.3281 10.8594 42.4375 11.125 43.5L7.5625 44.9375L9.0625 48.625L12.625 47.1875C13.7812 49.1094 15.3906 50.7188 17.3125 51.875L15.875 55.4375L19.5625 56.9375L21 53.375C22.0625 53.6406 23.1641 53.8125 24.3125 53.8125C25.4531 53.8125 26.5703 53.6406 27.625 53.375L29.0625 56.9375L32.75 55.4375L31.3125 51.875C33.2031 50.7188 34.7969 49.0938 35.9375 47.1875L39.5625 48.625L41.0625 44.9375L37.4375 43.5C37.7031 42.4375 37.875 41.3281 37.875 40.1875C37.875 39.0469 37.7031 37.9297 37.4375 36.875L41.0625 35.4375L39.5625 31.75L35.9375 33.1875C34.7969 31.3047 33.2031 29.7031 31.3125 28.5625L32.75 24.9375L29.0625 23.4375L27.625 27.0625C26.5625 26.7969 25.4531 26.625 24.3125 26.625C23.1719 26.625 22.0625 26.7969 21 27.0625L19.5625 23.4375ZM24.3125 30.625C29.6406 30.625 33.875 34.8594 33.875 40.1875C33.875 45.5156 29.6406 49.8125 24.3125 49.8125C18.9844 49.8125 14.6875 45.5156 14.6875 40.1875C14.6875 34.8594 18.9844 30.625 24.3125 30.625Z"
    fill="currentColor" />
</svg>