<svg width="1440" height="343" viewBox="0 0 1440 343" fill="none" xmlns="http://www.w3.org/2000/svg">
  <path
    d="M1440 194.911V343H0V198.63L46.0125 184.767L82.35 179.921L93.375 174.512L111.938 165.157L114.413 163.918L122.962 157.494L137.812 146.562H145.462L165.488 146.449H171.225L196.875 143.293L200.363 142.955L220.275 147.351L229.387 149.379L249.75 144.758L265.05 141.377H315.225L328.388 140.138L347.4 138.222L367.987 136.081L385.875 134.277L394.425 133.488L405.675 134.728L427.95 125.712L468.45 116.245H601.763L615.375 119.288L632.138 122.894L675.225 129.544L720 125.487L757.575 133.488L856.125 126.839L896.287 116.245H912.15L939.825 132.136L962.325 130.784L1008.56 124.247L1040.29 123.571L1061.1 120.302L1072.24 119.063L1090.91 120.528L1097.44 121.993L1111.16 125.148L1124.78 128.191L1145.7 126.839L1175.29 131.234L1230.08 139.912L1257.75 144.984L1300.84 148.478L1351.01 164.368L1385.66 172.483L1440 194.911Z"
    fill="#112752" />
  <path
    d="M675.225 129.544L704.588 116.245H751.612L810.112 122.894L824.513 97.6494L857.7 91L1186.65 98.4383L1273.84 113.766L1277.1 127.29L1322.21 121.317H1370.47L1367.44 136.306L1440 145.097V229.623H675.225V129.544Z"
    fill="#112752" />
  <path opacity="0.45" d="M1273.84 113.766L1168.2 127.177L1140.86 137.433L1277.1 127.29L1273.84 113.766Z"
    fill="#010318" />
  <path opacity="0.45"
    d="M1148.85 110.948L1101.26 120.64L1091.14 134.503L1029.94 150.619L1107.22 135.63L1112.74 123.345L1148.85 110.948Z"
    fill="#010318" />
  <path opacity="0.45" d="M1370.47 121.317L1284.19 145.097L1367.44 136.306L1370.47 121.317Z" fill="#010318" />
  <path opacity="0.45" d="M704.588 116.245L831.713 148.703L675.225 129.544L704.588 116.245Z" fill="#010318" />
  <path opacity="0.45"
    d="M810.112 122.894L841.838 131.572L871.537 135.404L925.2 130.784L849.938 115.118L824.513 97.6494L810.112 122.894Z"
    fill="#010318" />
  <path opacity="0.3" d="M1112.74 123.345L1168.2 127.177L1140.86 137.433L1107.22 135.63L1112.74 123.345Z"
    fill="#010318" />
  <path opacity="0.45" d="M82.35 179.921L121.612 168.989L136.125 157.381L137.812 146.562L114.412 163.918L82.35 179.921Z"
    fill="#010318" />
  <path opacity="0.45"
    d="M405.675 134.728L452.813 140.138L477.338 153.098L512.213 154L482.063 147.463L468.9 127.515L468.45 116.245L427.95 125.712L405.675 134.728Z"
    fill="#010318" />
  <path opacity="0.45"
    d="M229.387 149.379L251.325 159.184L274.5 163.918L261.787 150.394L268.425 149.379L265.05 141.377L229.387 149.379Z"
    fill="#010318" />
  <path opacity="0.45"
    d="M395.55 156.592L418.95 166.623L466.2 172.145L416.25 172.483L389.7 159.973L352.463 154L395.55 156.592Z"
    fill="#010318" />
  <path opacity="0.3"
    d="M395.55 156.592L446.85 148.478L452.813 140.138L477.338 153.098L451.35 161.889L417.938 166.172L395.55 156.592Z"
    fill="#010318" />
  <path
    d="M1440 145.097V343H0V198.63L46.0125 184.767L82.35 179.921L93.375 174.512L111.938 165.157L114.413 163.918L137.812 146.562H145.462L165.488 146.449H171.225L196.875 143.293L200.363 142.955L220.275 147.351L229.387 149.379L265.05 141.377H315.225L328.388 140.138L347.4 138.222L367.987 136.081L385.875 134.277L394.425 133.488L405.675 134.728L427.95 125.712L468.45 116.245H601.763L615.375 119.288L632.138 122.894L675.225 129.544L704.7 116.245H751.612L810.112 122.894L824.513 97.6494L857.7 91L1186.65 98.3256L1273.84 113.766L1277.1 127.29L1322.33 121.317H1370.47L1367.44 136.306L1440 145.097Z"
    fill="url(#paint0_linear_2422_5900)" />
  <path opacity="0.45" d="M1273.84 113.766L1168.2 127.177L1140.86 137.433L1277.1 127.29L1273.84 113.766Z"
    fill="#010318" />
  <path opacity="0.45"
    d="M1148.85 110.948L1101.26 120.64L1091.14 134.503L1029.94 150.619L1107.22 135.63L1112.74 123.345L1148.85 110.948Z"
    fill="#010318" />
  <path opacity="0.45" d="M1370.47 121.317L1285.42 150.619L1367.44 136.306L1370.47 121.317Z" fill="#010318" />
  <path opacity="0.45" d="M704.588 116.245L831.713 148.703L675.225 129.544L704.588 116.245Z" fill="#010318" />
  <path opacity="0.45"
    d="M810.112 122.894L840.038 132.474L871.537 135.404L925.2 130.784L849.938 115.118L824.513 97.6494L810.112 122.894Z"
    fill="#010318" />
  <path opacity="0.3" d="M1112.74 123.345L1168.2 127.177L1140.86 137.433L1107.22 135.63L1112.74 123.345Z"
    fill="#010318" />
  <path opacity="0.45" d="M82.35 180.034L121.612 168.989L136.125 157.381L137.812 146.562L114.412 163.918L82.35 180.034Z"
    fill="#010318" />
  <path opacity="0.45"
    d="M405.675 134.728L452.813 140.138L477.338 153.098L512.213 154L482.063 147.463L468.9 127.515L468.45 116.245L427.95 125.712L405.675 134.728Z"
    fill="#010318" />
  <path opacity="0.45"
    d="M229.387 149.379L251.325 159.184L274.5 163.918L261.787 150.394L268.425 149.379L265.05 141.377L229.387 149.379Z"
    fill="#010318" />
  <path opacity="0.45"
    d="M395.55 156.592L418.95 166.623L466.2 172.145L416.25 172.483L389.7 159.973L352.463 154L395.55 156.592Z"
    fill="#010318" />
  <path opacity="0.3"
    d="M395.55 156.592L446.85 148.478L452.813 140.138L477.338 153.098L459 160.875L417.938 166.172L395.55 156.592Z"
    fill="#010318" />
  <path d="M849.938 115.118L840.038 132.474L810.112 122.894L824.513 97.6494L849.938 115.118Z"
    fill="url(#paint1_linear_2422_5900)" />
  <g clip-path="url(#clip0_2422_5900)">
    <path
      d="M1293.3 142.1C1296 135.8 1299.5 129.3 1302.5 123.1C1308.2 124.5 1308.2 124.5 1308.2 124.5C1308.2 124.5 1308.2 124.5 1303.6 120.7C1308.4 110.4 1312.6 99.2 1315.7 88.3C1319.9 88.4 1319.9 88.4 1319.9 88.4C1319.9 88.4 1319.9 88.4 1316.4 85.6C1319.4 74.4 1321.4 62.9 1322.4 51.3C1326.2 68.2 1326.4 86.7 1324.1 103.9C1320.2 105 1320.2 105 1320.2 105C1320.2 105 1320.2 105 1323.7 106.5C1321.2 120.6 1315.9 138.2 1309.8 151.1C1304.9 149.8 1304.9 149.8 1304.9 149.8C1304.9 149.8 1304.9 149.8 1308.1 154.5C1302.2 168.1 1296.5 186 1293 198.6C1291.1 198.7 1288.7 198.8 1288.7 198.8C1288.7 198.8 1290.2 200.2 1292.1 201.8C1288.2 216.3 1286.1 226.7 1286.1 226.7L1281.2 225.5C1281.2 225.5 1278.8 200.8 1283.1 174.7C1287.9 175.6 1287.9 175.6 1287.9 175.6C1287.9 175.6 1287.9 175.6 1283.8 171.4C1285.7 162.2 1289 151 1293.3 142.1Z"
      fill="#1F75E2" />
    <path
      d="M1283.2 226H1283.5C1283.1 192.2 1293.4 167.6 1303.3 143.7C1312.4 121.8 1321.9 99.2 1323 69.8H1322.7C1321.6 99.2 1312.2 121.8 1303 143.6C1293.1 167.5 1282.8 192.2 1283.2 226Z"
      fill="#75B7FF" />
    <path
      d="M1295.3 172.3C1291.5 173.1 1288.9 174.9 1288.9 174.9C1288.9 174.9 1292.7 175 1294.9 175.3C1293.2 185.4 1289.6 195.2 1285.5 204.6C1282.2 212 1278.8 221.4 1273.5 227.6C1269.9 225 1269.4 213.3 1268.7 208.9C1267.8 202.8 1267.4 196.6 1267.4 190.4C1270.4 189.2 1271 188.9 1271 188.9C1271 188.9 1272 187.8 1267.5 187.5C1267.9 177.5 1269.6 167.4 1272.9 158C1273.2 157.3 1274.1 154.8 1274.3 154.1C1278 154.3 1279.9 157.1 1279.9 157.1C1279.9 157.1 1278.4 153.2 1276.1 150.2C1279.2 143.7 1283.1 137.5 1284.7 130.6C1286.7 133.4 1288.6 136.2 1290.2 139.3C1295.5 149.3 1296.7 161.1 1295.3 172.3Z"
      fill="#134692" />
    <path
      d="M1256.6 26.6C1259.8 16.6 1259.5 8.7 1253.6 0C1262.6 8.7 1266 21.8 1268.9 34.3C1266.8 35.2 1264.9 36.4 1264.9 36.4C1264.9 36.4 1267.6 35.7 1269.3 36C1270.3 40.4 1271.5 45.6 1272.8 49.8C1273.7 52.7 1274.6 55.5 1275.6 58.4C1272.5 59.7 1269.6 61.8 1269.6 61.8C1269.6 61.8 1273.7 60.6 1276.4 60.7C1278.6 67.4 1280.9 74 1282.3 80.9C1284.4 90.7 1284.9 100.8 1285.4 110.8C1282.2 111.6 1279.2 112.9 1279.2 112.9C1279.2 112.9 1283.4 112.2 1285.5 113C1286.2 124.5 1284.9 130.4 1284.9 130.4C1283.4 135.7 1281.8 140.7 1280.1 142.6C1282.7 131.6 1273.2 117.9 1264.2 90.8C1265.5 89.5 1268.5 88.2 1268.5 88.2C1268.5 88.2 1266 88.5 1263.6 89.2C1262.8 86.9 1262.1 84.4 1261.3 81.9C1263.8 80.1 1267 79 1267 79C1267 79 1263.4 78.9 1260.6 79.3C1259.6 75.8 1258.6 72 1257.7 68.1C1256.4 63.3 1255.4 57.7 1254.8 52.7C1257.7 52.2 1260.1 51.5 1260.1 51.5C1260.1 51.5 1256.8 51.4 1254.6 50.4C1253.9 43 1254.2 34 1256.6 26.6Z"
      fill="#75B7FF" />
    <path
      d="M1280.4 142.3C1282.9 137.6 1284.9 130.7 1284.9 130.6L1284.6 130.5C1284.6 130.6 1282.6 137.5 1280.1 142.2L1280.4 142.3Z"
      fill="#2B52A0" />
    <path
      d="M1273.9 224.3C1274.8 209.7 1278 198.7 1281 188C1285.8 171.3 1290 157 1283.9 133.6L1283.6 133.7C1289.6 157 1285.5 171.3 1280.7 188C1277.6 198.7 1274.4 209.7 1273.6 224.3H1273.9Z"
      fill="#2A7AD7" />
    <path
      d="M1276 121.7C1277.7 113.9 1274.1 96.5 1269.9 76.2C1265.7 55.6 1260.8 32.2 1261.1 15.7H1260.8C1260.5 32.2 1265.3 55.6 1269.6 76.3C1273.8 96.5 1277.4 114 1275.7 121.7H1276Z"
      fill="#D2ECFF" />
    <path
      d="M1264.5 157.3C1262.8 152.2 1260.3 146.8 1258.3 141.8C1253.7 142.6 1253.7 142.6 1253.7 142.6C1253.7 142.6 1253.7 142.6 1257.5 139.8C1254.3 131.4 1251.6 122.2 1249.8 113.4C1246.5 113.2 1246.5 113.2 1246.5 113.2C1246.5 113.2 1246.5 113.2 1249.4 111.2C1247.7 102.1 1246.7 92.9 1246.6 83.7C1242.6 96.9 1241.4 111.5 1242.3 125.2C1245.3 126.3 1245.3 126.3 1245.3 126.3C1245.3 126.3 1245.3 126.3 1242.5 127.3C1243.7 138.6 1246.9 152.8 1251 163.4C1254.9 162.7 1254.9 162.7 1254.9 162.7C1254.9 162.7 1254.9 162.7 1252.1 166.2C1256 177.3 1259.5 191.8 1261.6 202C1263.1 202.2 1265 202.4 1265 202.4C1265 202.4 1263.7 203.5 1262.1 204.5C1264.4 216.2 1265.4 224.6 1265.4 224.6L1269.4 223.9C1269.4 223.9 1272.7 204.5 1270.8 183.5C1267 184 1267 184 1267 184C1267 184 1267 184 1270.5 180.9C1269.4 173.6 1267.4 164.6 1264.5 157.3Z"
      fill="#99CFFF" />
    <path
      d="M1267.7 224.3C1270 197.5 1263.2 177.4 1256.7 157.9C1250.7 140.1 1244.5 121.7 1245.4 98.3H1245.1C1244.3 121.7 1250.5 140.2 1256.5 158C1263 177.5 1269.8 197.6 1267.5 224.3H1267.7Z"
      fill="#D2ECFF" />
  </g>
  <g clip-path="url(#clip1_2422_5900)">
    <path
      d="M1212.92 181.771C1210.25 178.497 1207.08 175.239 1204.25 172.075C1201.08 173.863 1201.08 173.863 1201.08 173.863C1201.08 173.863 1201.08 173.863 1203.19 170.84C1198.61 165.552 1194.23 159.63 1190.56 153.701C1188.06 154.467 1188.06 154.467 1188.06 154.467C1188.06 154.467 1188.06 154.467 1189.69 152.221C1186.03 146.097 1182.92 139.628 1180.39 132.93C1180.93 143.572 1183.89 154.555 1188.14 164.348C1190.65 164.342 1190.65 164.342 1190.65 164.342C1190.65 164.342 1190.65 164.342 1188.81 165.819C1192.65 173.743 1198.75 183.268 1204.55 189.875C1207.26 188.281 1207.26 188.281 1207.26 188.281C1207.26 188.281 1207.26 188.281 1206.13 191.602C1211.93 198.657 1218.32 208.292 1222.51 215.16C1223.66 214.899 1225.12 214.554 1225.12 214.554C1225.12 214.554 1224.45 215.636 1223.58 216.902C1228.33 224.828 1231.32 230.629 1231.32 230.629L1234.05 229.094C1234.05 229.094 1231.37 214.072 1224.45 199.348C1221.73 200.689 1221.73 200.689 1221.73 200.689C1221.73 200.689 1221.73 200.689 1223.48 197.513C1220.81 192.388 1216.97 186.315 1212.92 181.771Z"
      fill="#1F75E2" />
    <path
      d="M1232.94 229.727L1232.76 229.777C1227.36 209.706 1217.11 196.88 1207.2 184.402C1198.11 172.972 1188.67 161.196 1183.11 143.981L1183.29 143.93C1188.85 161.145 1198.23 172.938 1207.37 184.292C1217.27 196.77 1227.54 209.655 1232.94 229.727Z"
      fill="#75B7FF" />
    <path
      d="M1216.75 199.982C1219.16 199.815 1221.01 200.443 1221.01 200.443C1221.01 200.443 1218.76 201.142 1217.49 201.69C1220.19 207.381 1223.98 212.575 1228 217.449C1231.2 221.273 1234.8 226.264 1239 229.041C1240.72 226.896 1239.07 219.887 1238.76 217.165C1238.28 213.404 1237.49 209.667 1236.45 205.997C1234.46 205.792 1234.05 205.716 1234.05 205.716C1234.05 205.716 1233.27 205.233 1235.91 204.298C1234.01 198.447 1231.31 192.755 1227.77 187.748C1227.47 187.384 1226.52 186.056 1226.28 185.675C1224.1 186.416 1223.43 188.393 1223.43 188.393C1223.43 188.393 1223.68 185.833 1224.55 183.67C1221.62 180.345 1218.25 177.332 1216.15 173.517C1215.42 175.511 1214.75 177.488 1214.31 179.592C1212.8 186.403 1214.05 193.589 1216.75 199.982Z"
      fill="#134692" />
    <path
      d="M1215.62 107.235C1212.04 101.856 1210.91 97.1296 1212.99 90.9874C1209.05 97.6514 1209.2 105.977 1209.55 113.863C1210.96 114.042 1212.29 114.433 1212.29 114.433C1212.29 114.433 1210.56 114.473 1209.6 114.937C1209.73 117.709 1209.88 120.989 1209.8 123.693C1209.75 125.561 1209.67 127.37 1209.56 129.254C1211.63 129.502 1213.71 130.257 1213.71 130.257C1213.71 130.257 1211.06 130.237 1209.46 130.75C1209.26 135.086 1208.99 139.379 1209.3 143.699C1209.68 149.852 1211.06 155.914 1212.43 161.917C1214.48 161.852 1216.49 162.116 1216.49 162.116C1216.49 162.116 1213.86 162.409 1212.74 163.236C1214.23 170.16 1215.99 173.433 1215.99 173.433C1217.77 176.317 1219.56 179.007 1220.9 179.845C1217.51 173.773 1220.91 164.065 1221.77 146.511C1220.78 145.961 1218.77 145.696 1218.77 145.696C1218.77 145.696 1220.31 145.453 1221.87 145.463C1221.96 143.967 1221.96 142.37 1222.03 140.756C1220.23 140.111 1218.13 139.999 1218.13 139.999C1218.13 139.999 1220.27 139.334 1222.01 139.099C1222.03 136.859 1221.99 134.442 1221.88 131.982C1221.86 128.922 1221.52 125.44 1221.05 122.38C1219.23 122.572 1217.68 122.562 1217.68 122.562C1217.68 122.562 1219.64 121.947 1220.79 120.985C1219.97 116.487 1218.29 111.211 1215.62 107.235Z"
      fill="#75B7FF" />
    <path
      d="M1220.67 179.718C1218.39 177.357 1216.04 173.61 1216.03 173.551L1216.19 173.441C1216.21 173.501 1218.55 177.248 1220.83 179.608L1220.67 179.718Z"
      fill="#2B52A0" />
    <path
      d="M1238.21 227.155C1235.24 218.666 1231.5 212.694 1227.92 206.866C1222.27 197.791 1217.37 190.034 1217.12 175.158L1217.32 175.167C1217.61 189.967 1222.45 197.74 1228.1 206.816C1231.74 212.627 1235.48 218.598 1238.39 227.105L1238.21 227.155Z"
      fill="#2A7AD7" />
    <path
      d="M1219.87 166.785C1217.55 162.455 1216.8 151.551 1215.93 138.83C1215.01 125.931 1214.05 111.257 1211.12 101.542L1211.3 101.491C1214.22 111.206 1215.25 125.863 1216.13 138.838C1216.98 151.501 1217.75 162.464 1220.05 166.735L1219.87 166.785Z"
      fill="#D2ECFF" />
    <path
      d="M1232.67 185.919C1232.84 182.615 1233.44 178.998 1233.8 175.702C1236.68 175.401 1236.68 175.401 1236.68 175.401C1236.68 175.401 1236.68 175.401 1233.94 174.384C1234.46 168.873 1234.54 162.974 1234.15 157.463C1236.09 156.789 1236.09 156.789 1236.09 156.789C1236.09 156.789 1236.09 156.789 1234.02 156.093C1233.52 150.421 1232.59 144.808 1231.12 139.346C1235.71 146.485 1238.86 154.924 1240.6 163.184C1238.99 164.34 1238.99 164.34 1238.99 164.34C1238.99 164.34 1238.99 164.34 1240.83 164.461C1242 171.35 1242.45 180.293 1241.76 187.257C1239.31 187.499 1239.31 187.499 1239.31 187.499C1239.31 187.499 1239.31 187.499 1241.57 189.099C1241.09 196.325 1241.41 205.496 1241.85 211.886C1240.99 212.257 1239.89 212.696 1239.89 212.696C1239.89 212.696 1240.85 213.128 1241.97 213.45C1242.55 220.762 1243.35 225.902 1243.35 225.902L1240.84 226.161C1240.84 226.161 1235.63 215.235 1233.27 202.486C1235.63 202.142 1235.63 202.142 1235.63 202.142C1235.63 202.142 1235.63 202.142 1233.02 200.897C1232.46 196.391 1232.16 190.728 1232.67 185.919Z"
      fill="#99CFFF" />
    <path
      d="M1241.92 226.111C1236.08 210.637 1236.8 197.596 1237.44 184.961C1238.06 173.417 1238.7 161.483 1234.27 147.785L1234.45 147.735C1238.82 161.449 1238.2 173.442 1237.57 184.987C1236.94 197.622 1236.22 210.663 1242.04 226.078L1241.92 226.111Z"
      fill="#D2ECFF" />
  </g>
  <g clip-path="url(#clip2_2422_5900)">
    <path
      d="M280.89 192.715C279.265 188.819 277.145 184.794 275.332 180.957C271.78 181.77 271.78 181.77 271.78 181.77C271.78 181.77 271.78 181.77 274.669 179.472C271.772 173.1 269.256 166.179 267.42 159.452C264.81 159.478 264.81 159.478 264.81 159.478C264.81 159.478 264.81 159.478 267.008 157.786C265.237 150.876 264.089 143.789 263.564 136.649C261.064 147.007 260.786 158.379 262.073 168.972C264.487 169.681 264.487 169.681 264.487 169.681C264.487 169.681 264.487 169.681 262.3 170.574C263.736 179.264 266.883 190.128 270.566 198.11C273.62 197.352 273.62 197.352 273.62 197.352C273.62 197.352 273.62 197.352 271.594 200.215C275.146 208.625 278.539 219.677 280.609 227.453C281.789 227.53 283.279 227.612 283.279 227.612C283.279 227.612 282.335 228.46 281.142 229.428C283.445 238.375 284.663 244.786 284.663 244.786L287.717 244.089C287.717 244.089 289.412 228.924 286.957 212.842C283.968 213.355 283.968 213.355 283.968 213.355C283.968 213.355 283.968 213.355 286.549 210.808C285.445 205.136 283.488 198.222 280.89 192.715Z"
      fill="#1F75E2" />
    <path
      d="M286.47 244.38L286.284 244.378C286.812 223.601 280.617 208.391 274.665 193.615C269.193 180.075 263.478 166.101 263.038 148.017L263.225 148.02C263.665 166.104 269.317 180.077 274.852 193.556C280.804 208.332 286.998 223.604 286.47 244.38Z"
      fill="#75B7FF" />
    <path
      d="M279.398 211.265C281.752 211.788 283.352 212.917 283.352 212.917C283.352 212.917 280.991 212.946 279.622 213.112C280.594 219.336 282.749 225.391 285.219 231.204C287.207 235.781 289.242 241.589 292.483 245.445C294.741 243.876 295.148 236.688 295.619 233.988C296.229 230.246 296.529 226.437 296.58 222.626C294.726 221.863 294.356 221.673 294.356 221.673C294.356 221.673 293.744 220.989 296.542 220.842C296.376 214.691 295.404 208.467 293.431 202.661C293.251 202.228 292.712 200.683 292.594 200.251C290.294 200.343 289.09 202.049 289.09 202.049C289.09 202.049 290.054 199.664 291.508 197.838C289.636 193.816 287.265 189.972 286.328 185.717C285.062 187.421 283.859 189.127 282.839 191.019C279.464 197.123 278.621 204.367 279.398 211.265Z"
      fill="#134692" />
    <path
      d="M304.644 122.014C302.739 115.839 302.991 110.985 306.728 105.685C301.065 110.959 298.844 118.984 296.94 126.645C298.237 127.215 299.407 127.969 299.407 127.969C299.407 127.969 297.736 127.516 296.677 127.686C296.019 130.383 295.231 133.57 294.389 136.141C293.806 137.917 293.223 139.63 292.578 141.405C294.493 142.23 296.277 143.545 296.277 143.545C296.277 143.545 293.74 142.773 292.062 142.812C290.64 146.913 289.157 150.951 288.23 155.182C286.844 161.189 286.45 167.394 286.057 173.538C288.038 174.057 289.891 174.881 289.891 174.881C289.891 174.881 287.288 174.415 285.976 174.89C285.446 181.954 286.205 185.592 286.205 185.592C287.093 188.863 288.046 191.95 289.086 193.133C287.562 186.348 293.577 178.005 299.392 161.419C298.595 160.609 296.742 159.785 296.742 159.785C296.742 159.785 298.293 159.99 299.778 160.441C300.294 159.033 300.749 157.502 301.267 155.972C299.729 154.845 297.75 154.142 297.75 154.142C297.75 154.142 299.987 154.11 301.723 154.379C302.373 152.236 303.026 149.908 303.617 147.518C304.465 144.578 305.132 141.144 305.546 138.075C303.749 137.743 302.264 137.293 302.264 137.293C302.264 137.293 304.315 137.259 305.69 136.662C306.186 132.119 306.074 126.583 304.644 122.014Z"
      fill="#75B7FF" />
    <path
      d="M288.902 192.946C287.388 190.035 286.203 185.776 286.204 185.715L286.391 185.656C286.39 185.718 287.575 189.976 289.089 192.887L288.902 192.946Z"
      fill="#2B52A0" />
    <path
      d="M292.262 243.413C291.823 234.429 289.927 227.64 288.151 221.036C285.308 210.729 282.817 201.903 286.8 187.568L286.985 187.632C283.065 201.906 285.494 210.732 288.338 221.039C290.175 227.643 292.072 234.433 292.448 243.415L292.262 243.413Z"
      fill="#2A7AD7" />
    <path
      d="M291.806 180.318C290.814 175.508 293.195 164.841 295.972 152.396C298.751 139.766 301.989 125.421 301.939 115.275L302.125 115.277C302.175 125.424 299 139.77 296.157 152.46C293.381 164.844 291 175.572 291.992 180.32L291.806 180.318Z"
      fill="#D2ECFF" />
    <path
      d="M298.655 202.3C299.754 199.179 301.351 195.88 302.635 192.823C305.486 193.353 305.486 193.353 305.486 193.353C305.486 193.353 305.486 193.353 303.149 191.6C305.206 186.463 306.959 180.829 308.15 175.434C310.202 175.339 310.202 175.339 310.202 175.339C310.202 175.339 310.202 175.339 308.417 174.085C309.548 168.504 310.246 162.857 310.384 157.202C312.76 165.35 313.384 174.336 312.712 182.751C310.839 183.402 310.839 183.402 310.839 183.402C310.839 183.402 310.839 183.402 312.57 184.041C311.731 190.978 309.626 199.681 306.991 206.163C304.574 205.7 304.574 205.7 304.574 205.7C304.574 205.7 304.574 205.7 306.285 207.876C303.77 214.667 301.476 223.552 300.087 229.806C299.154 229.916 297.972 230.023 297.972 230.023C297.972 230.023 298.77 230.71 299.756 231.338C298.23 238.512 297.54 243.668 297.54 243.668L295.06 243.204C295.06 243.204 293.171 231.25 294.525 218.355C296.881 218.694 296.881 218.694 296.881 218.694C296.881 218.694 296.881 218.694 294.733 216.759C295.477 212.28 296.793 206.764 298.655 202.3Z"
      fill="#99CFFF" />
    <path
      d="M296.113 243.464C294.906 226.969 299.297 214.668 303.496 202.734C307.37 191.841 311.374 180.581 311.009 166.188L311.195 166.19C311.498 180.583 307.494 191.905 303.619 202.798C299.42 214.732 295.03 227.032 296.237 243.466L296.113 243.464Z"
      fill="#D2ECFF" />
  </g>
  <g clip-path="url(#clip3_2422_5900)">
    <path
      d="M253.115 204.209C252.874 201.618 252.866 198.812 252.745 196.199C254.915 195.615 254.915 195.615 254.915 195.615C254.915 195.615 254.915 195.615 252.678 195.198C252.414 190.891 251.786 186.394 250.842 182.199C252.271 181.459 252.271 181.459 252.271 181.459C252.271 181.459 252.271 181.459 250.585 181.173C249.554 176.897 248.131 172.705 246.354 168.664C250.709 173.584 254.145 179.698 256.505 185.84C255.395 186.924 255.395 186.924 255.395 186.924C255.395 186.924 255.395 186.924 256.844 186.778C258.572 191.926 259.997 198.754 260.297 204.165C258.414 204.635 258.414 204.635 258.414 204.635C258.414 204.635 258.414 204.635 260.345 205.609C260.84 211.216 262.185 218.217 263.304 223.05C262.684 223.433 261.896 223.908 261.896 223.908C261.896 223.908 262.654 224.097 263.584 224.28C264.915 229.819 266.103 233.663 266.103 233.663L264.238 234.166C264.238 234.166 258.934 226.395 255.625 216.925C257.401 216.341 257.401 216.341 257.401 216.341C257.401 216.341 257.401 216.341 255.259 215.699C254.222 212.291 253.291 207.96 253.115 204.209Z"
      fill="#1F75E2" />
    <path
      d="M265.001 233.964L265.102 233.909C258.812 222.744 257.792 212.669 256.766 202.901C255.834 193.945 254.91 184.682 249.925 174.705L249.824 174.76C254.809 184.737 255.767 193.982 256.647 202.923C257.673 212.691 258.711 222.799 265.001 233.964Z"
      fill="#75B7FF" />
    <path
      d="M259.287 213.882C258.156 214.848 257.61 215.925 257.61 215.925C257.61 215.925 258.905 215.259 259.699 214.953C260.967 218.624 261.542 222.545 261.877 226.425C262.116 229.493 262.685 233.244 262.034 236.281C260.351 236.079 258.052 232.281 257.016 230.947C255.602 229.084 254.339 227.096 253.21 225.035C253.999 224.084 254.146 223.874 254.146 223.874C254.146 223.874 254.282 223.324 252.715 224.052C251.028 220.654 249.76 216.983 249.157 213.25C249.13 212.962 248.977 211.965 248.917 211.696C250.196 211.081 251.345 211.663 251.345 211.663C251.345 211.663 250.13 210.642 248.811 210.068C248.669 207.336 248.85 204.557 248.131 201.968C249.313 202.531 250.461 203.112 251.563 203.849C255.165 206.198 257.717 209.901 259.287 213.882Z"
      fill="#134692" />
    <path
      d="M219.75 172.56C219.003 168.647 217.464 166.075 213.897 164.268C218.505 165.505 222.033 169.235 225.284 172.857C224.743 173.543 224.323 174.291 224.323 174.291C224.323 174.291 225.102 173.562 225.728 173.349C226.866 174.628 228.216 176.136 229.417 177.293C230.248 178.091 231.06 178.857 231.924 179.637C231.12 180.64 230.528 181.872 230.528 181.872C230.528 181.872 231.687 180.718 232.612 180.255C234.571 182.077 236.546 183.849 238.273 185.885C240.763 188.757 242.771 192.023 244.76 195.256C243.831 196.111 243.06 197.095 243.06 197.095C243.06 197.095 244.343 196.09 245.194 195.969C247.524 199.664 248.162 201.865 248.162 201.865C248.623 203.903 248.996 205.86 248.771 206.805C247.641 202.669 241.954 199.862 233.995 192.508C234.195 191.836 234.966 190.852 234.966 190.852C234.966 190.852 234.181 191.412 233.502 192.086C232.815 191.469 232.124 190.766 231.4 190.082C231.912 189.024 232.787 188.069 232.787 188.069C232.787 188.069 231.559 188.698 230.691 189.346C229.718 188.367 228.69 187.287 227.677 186.156C226.366 184.8 225.01 183.122 223.898 181.57C224.781 180.87 225.46 180.195 225.46 180.195C225.46 180.195 224.333 180.769 223.412 180.842C221.829 178.51 220.291 175.462 219.75 172.56Z"
      fill="#75B7FF" />
    <path
      d="M248.817 206.65C248.801 204.627 248.216 201.965 248.198 201.931L248.079 201.953C248.097 201.987 248.682 204.649 248.698 206.672L248.817 206.65Z"
      fill="#2B52A0" />
    <path
      d="M261.567 235.11C259.211 230.09 258.283 225.844 257.342 221.734C255.913 215.298 254.72 209.771 248.409 203.113L248.326 203.201C254.585 209.844 255.812 215.353 257.241 221.789C258.148 225.917 259.076 230.164 261.467 235.165L261.567 235.11Z"
      fill="#2A7AD7" />
    <path
      d="M243.587 200.61C242.738 197.704 238.359 192.581 233.251 186.604C228.088 180.528 222.181 173.649 219.276 168.108L219.176 168.163C222.08 173.705 227.954 180.602 233.169 186.693C238.259 192.636 242.655 197.792 243.486 200.665L243.587 200.61Z"
      fill="#D2ECFF" />
    <path
      d="M246.207 214.563C244.707 213.18 242.884 211.845 241.301 210.55C239.902 211.663 239.902 211.663 239.902 211.663C239.902 211.663 239.902 211.663 240.668 210.033C238.063 207.829 235.481 205.267 233.273 202.672C232.128 203.213 232.128 203.213 232.128 203.213C232.128 203.213 232.128 203.213 232.738 202.014C230.51 199.301 228.498 196.426 226.789 193.386C227.849 198.511 230.105 203.586 232.903 207.975C234.111 207.789 234.111 207.789 234.111 207.789C234.111 207.789 234.111 207.789 233.352 208.637C235.813 212.173 239.475 216.306 242.783 219.076C243.965 218.125 243.965 218.125 243.965 218.125C243.965 218.125 243.965 218.125 243.662 219.804C246.994 222.777 250.811 226.954 253.374 229.959C253.914 229.749 254.589 229.466 254.589 229.466C254.589 229.466 254.352 230.071 253.997 230.698C256.901 234.165 258.766 236.774 258.766 236.774L259.983 235.805C259.983 235.805 257.558 228.748 253.095 222.115C251.91 222.98 251.91 222.98 251.91 222.98C251.91 222.98 251.91 222.98 252.521 221.306C250.822 219.081 248.511 216.457 246.207 214.563Z"
      fill="#99CFFF" />
    <path
      d="M259.484 236.251C255.376 226.917 249.431 221.485 243.696 216.198C238.438 211.384 233.004 206.407 229.045 198.461L228.944 198.516C232.937 206.444 238.389 211.454 243.647 216.268C249.382 221.555 255.327 226.987 259.417 236.288L259.484 236.251Z"
      fill="#D2ECFF" />
  </g>
  <path
    d="M1440 205.279V264.222L1435.28 263.095L1401.41 255.318L1366.42 247.204L1360.35 223.762L1355.85 206.068L1440 205.279Z"
    fill="url(#paint2_linear_2422_5900)" />
  <path
    d="M1130.4 216.887V251.261L1266.64 276.168L1405.69 282.705L1439.55 278.535L1420.99 211.703L1395.79 220.043L1264.05 233.793L1208.47 215.76L1130.4 216.887Z"
    fill="#112752" />
  <path d="M1395.79 220.043L1405.69 282.705L1439.55 278.535L1420.99 211.703L1395.79 220.043Z"
    fill="url(#paint3_linear_2422_5900)" />
  <path d="M1264.05 233.793L1266.64 276.168L1130.4 251.261V216.887L1208.47 215.76L1264.05 233.793Z"
    fill="url(#paint4_linear_2422_5900)" />
  <path
    d="M1440 205.279L1355.85 206.068L1420.99 211.703L1395.79 220.043L1360.35 223.762L1264.05 233.793L1208.47 215.76L1130.4 216.887L1296.9 190.177L1350.67 182.175L1440 180.485V205.279Z"
    fill="url(#paint5_linear_2422_5900)" />
  <path
    d="M1112.96 235.934L1101.15 261.292L1104.41 281.24L1182.38 310.204H1260.22L1257.53 269.293L1251.9 246.528L1205.89 247.88L1153.35 249.233L1135.69 246.528L1112.96 235.934Z"
    fill="#112752" />
  <path
    d="M1112.96 235.934L1135.69 246.528L1153.35 249.233L1205.89 247.88L1251.9 246.528L1202.96 231.538L1112.96 235.934Z"
    fill="url(#paint6_linear_2422_5900)" />
  <path
    d="M1135.69 246.528L1128.15 266.701L1108.69 282.818L1104.41 281.24L1101.15 261.292L1112.96 235.934L1135.69 246.528Z"
    fill="url(#paint7_linear_2422_5900)" />
  <g opacity="0.65">
    <path
      d="M398.475 205.504L407.137 225.565L406.125 241.794L359.775 268.392L311.962 271.435L311.512 238.188L313.875 219.592L342.112 218.803L374.4 217.789L385.087 214.971L398.475 205.504Z"
      fill="#112752" />
    <path
      d="M398.475 205.504L385.087 214.971L374.4 217.789L342.112 218.803L313.875 219.592L343.013 205.392L398.475 205.504Z"
      fill="url(#paint8_linear_2422_5900)" />
    <path
      d="M385.087 214.971L390.825 230.975L403.537 243.259L406.125 241.794L407.137 225.565L398.475 205.504L385.087 214.971Z"
      fill="url(#paint9_linear_2422_5900)" />
  </g>
  <path
    d="M354.937 233.229L366.525 255.544L361.35 271.886L271.462 288.678L183.825 281.24L189.675 247.317L197.775 228.721L249.412 234.356L308.475 240.442L328.5 239.878L354.937 233.229Z"
    fill="#112752" />
  <path
    d="M354.937 233.229L328.5 239.878L308.475 240.442L249.412 234.356L197.775 228.721L253.912 220.832L354.937 233.229Z"
    fill="url(#paint10_linear_2422_5900)" />
  <path d="M328.5 239.878L335.7 257.46L356.4 272.787L361.35 271.886L366.525 255.544L354.938 233.229L328.5 239.878Z"
    fill="url(#paint11_linear_2422_5900)" />
  <defs>
    <linearGradient id="paint0_linear_2422_5900" x1="730.565" y1="365.058" x2="698.402" y2="-1.90452"
      gradientUnits="userSpaceOnUse">
      <stop offset="0.0852366" stop-color="#112752" />
      <stop offset="0.4792" stop-color="#122954" />
      <stop offset="0.6212" stop-color="#162E5B" />
      <stop offset="0.7224" stop-color="#1D3866" />
      <stop offset="0.8041" stop-color="#274577" />
      <stop offset="0.8742" stop-color="#33578D" />
      <stop offset="0.9362" stop-color="#436DA9" />
      <stop offset="0.991" stop-color="#5687C8" />
      <stop offset="1" stop-color="#598CCE" />
    </linearGradient>
    <linearGradient id="paint1_linear_2422_5900" x1="827.678" y1="123.675" x2="856.734" y2="66.2509"
      gradientUnits="userSpaceOnUse">
      <stop stop-color="#112752" />
      <stop offset="0.1949" stop-color="#1C3665" />
      <stop offset="0.5889" stop-color="#385E95" />
      <stop offset="1" stop-color="#598CCE" />
    </linearGradient>
    <linearGradient id="paint2_linear_2422_5900" x1="1397.93" y1="205.268" x2="1397.93" y2="264.199"
      gradientUnits="userSpaceOnUse">
      <stop stop-color="#010318" stop-opacity="0.45" />
      <stop offset="1" stop-color="#112752" />
    </linearGradient>
    <linearGradient id="paint3_linear_2422_5900" x1="1410.71" y1="218.458" x2="1422.12" y2="277.729"
      gradientUnits="userSpaceOnUse">
      <stop stop-color="#010318" stop-opacity="0.3" />
      <stop offset="1" stop-color="#112752" />
    </linearGradient>
    <linearGradient id="paint4_linear_2422_5900" x1="1198.52" y1="188.385" x2="1198.52" y2="258.522"
      gradientUnits="userSpaceOnUse">
      <stop stop-color="#010318" stop-opacity="0.45" />
      <stop offset="1" stop-color="#112752" />
    </linearGradient>
    <linearGradient id="paint5_linear_2422_5900" x1="1285.21" y1="244.328" x2="1285.21" y2="91.9976"
      gradientUnits="userSpaceOnUse">
      <stop stop-color="#112752" />
      <stop offset="0.2099" stop-color="#1D3867" />
      <stop offset="0.6405" stop-color="#3C649D" />
      <stop offset="1" stop-color="#598CCE" />
    </linearGradient>
    <linearGradient id="paint6_linear_2422_5900" x1="1182.43" y1="256.492" x2="1182.43" y2="185.475"
      gradientUnits="userSpaceOnUse">
      <stop stop-color="#112752" />
      <stop offset="0.2099" stop-color="#1D3867" />
      <stop offset="0.6405" stop-color="#3C649D" />
      <stop offset="1" stop-color="#598CCE" />
    </linearGradient>
    <linearGradient id="paint7_linear_2422_5900" x1="1136.99" y1="222.089" x2="1107.46" y2="274.535"
      gradientUnits="userSpaceOnUse">
      <stop stop-color="#010318" stop-opacity="0.25" />
      <stop offset="1" stop-color="#112752" />
    </linearGradient>
    <linearGradient id="paint8_linear_2422_5900" x1="356.954" y1="224.886" x2="353.259" y2="167.37"
      gradientUnits="userSpaceOnUse">
      <stop stop-color="#112752" />
      <stop offset="0.2099" stop-color="#1D3867" />
      <stop offset="0.6405" stop-color="#3C649D" />
      <stop offset="1" stop-color="#598CCE" />
    </linearGradient>
    <linearGradient id="paint9_linear_2422_5900" x1="384.517" y1="191.298" x2="417.679" y2="220.642"
      gradientUnits="userSpaceOnUse">
      <stop stop-color="#010318" stop-opacity="0.25" />
      <stop offset="1" stop-color="#112752" />
    </linearGradient>
    <linearGradient id="paint10_linear_2422_5900" x1="275.247" y1="243.733" x2="280.294" y2="184.307"
      gradientUnits="userSpaceOnUse">
      <stop stop-color="#112752" />
      <stop offset="0.2099" stop-color="#1D3867" />
      <stop offset="0.6405" stop-color="#3C649D" />
      <stop offset="1" stop-color="#598CCE" />
    </linearGradient>
    <linearGradient id="paint11_linear_2422_5900" x1="328.873" y1="219.292" x2="345.275" y2="270.238"
      gradientUnits="userSpaceOnUse">
      <stop stop-color="#010318" stop-opacity="0.25" />
      <stop offset="1" stop-color="#112752" />
    </linearGradient>
    <clipPath id="clip0_2422_5900">
      <rect width="83.7" height="227.7" fill="white" transform="translate(1242)" />
    </clipPath>
    <clipPath id="clip1_2422_5900">
      <rect width="52" height="140" fill="white"
        transform="matrix(-0.962592 0.270957 0.270957 0.962592 1219.92 89.0347)" />
    </clipPath>
    <clipPath id="clip2_2422_5900">
      <rect width="52" height="140" fill="white"
        transform="matrix(-0.999909 -0.0134545 -0.0134545 0.999909 313.934 105.782)" />
    </clipPath>
    <clipPath id="clip3_2422_5900">
      <rect width="32.0623" height="86.3216" fill="white" transform="translate(210 166.403) rotate(-28.7119)" />
    </clipPath>
  </defs>
</svg>