<svg width="1440" height="245" viewBox="0 0 1440 245" fill="none" xmlns="http://www.w3.org/2000/svg">
  <path d="M1240.31 178.991L1211.06 164.46L1150.31 161.643L1093.95 179.329L1222.42 185.299L1240.31 178.991Z"
    fill="#75B7FF" />
  <path d="M1163.81 208.841L1142.32 199.154L1108.46 201.97L1093.95 215.487L1152.9 213.009L1163.81 208.841Z"
    fill="#75B7FF" />
  <path
    d="M1440 12.6161V245H0V18.5862L50.0625 5.63218L101.7 0L165.713 49.6759L180.675 73.4437L213.75 63.6437L262.913 72.3173L271.35 85.7218L285.413 88.7632L305.1 67.023L328.163 50.0138L460.35 49.4506L561.263 54.6322L594.337 73.7816L608.288 69.9517L701.888 73.8943L770.962 82.3425L784.575 92.0299L844.425 83.2437L868.5 82.7931L877.95 94.9586L946.913 104.308L952.087 81.5541L953.663 74.3448L961.2 57.223L990.675 44.3816H1072.58L1082.92 53.1678L1167.08 25.0069L1238.06 13.9678L1356.08 12.6161L1363.95 20.1632L1393.54 6.53335L1426.72 7.09657L1440 12.6161Z"
    fill="#194A85" />
  <path d="M961.087 57.223H1050.75L1068.41 52.0413L1072.46 44.3816H990.675L961.087 57.223Z"
    fill="url(#paint0_linear_2409_6597)" />
  <path
    d="M165.712 49.6759L180.675 73.4437L183.262 131.23L114.637 148.014L65.25 169.191L38.475 171.331L23.9625 225.4H0V49.6759V18.5862L50.0625 5.63218L101.7 0L165.712 49.6759Z"
    fill="url(#paint1_linear_2409_6597)" />
  <path
    d="M294.75 106.786L307.125 152.745V184.848H174.938L183.262 131.23L180.675 73.4437L206.775 85.7219L214.988 113.207L250.2 124.471L285.412 120.191L294.75 106.786Z"
    fill="url(#paint2_linear_2409_6597)" />
  <path
    d="M961.088 57.223L953.663 74.3448L952.088 81.554L952.763 110.165H1129.39L1082.93 53.1678L1072.46 44.3816L1068.41 52.0413L1050.75 57.223H961.088Z"
    fill="url(#paint3_linear_2409_6597)" />
  <path
    d="M1081.91 57.3356L1072.46 121.092V191.607L1163.81 208.841L1414.58 164.234L1403.1 104.308L1363.95 20.1632L1355.96 12.6161L1344.04 26.8092L1312.54 44.1563L1263.04 51.7035L1146.71 81.4414L1090.13 71.1908L1081.91 57.3356Z"
    fill="url(#paint4_linear_2409_6597)" />
  <path
    d="M328.163 50.0138L305.1 67.023L285.413 88.7632L294.75 106.786L299.588 124.471L336.488 100.366L439.875 86.7356L579.038 77.9494L594.338 73.7816L561.263 54.7448L556.875 64.9954L516.375 71.9793L430.425 77.9494L342.675 76.1471L325.463 60.9402L328.163 50.0138Z"
    fill="url(#paint5_linear_2409_6597)" />
  <path
    d="M1084.84 45.0575L1081.91 57.3356L1090.12 71.1908L1146.71 81.4414L1263.04 51.7035L1312.54 44.1563L1344.04 26.8092L1355.96 12.6161L1238.06 13.9678L1167.07 25.0069L1084.84 45.0575Z"
    fill="url(#paint6_linear_2409_6597)" />
  <path
    d="M165.713 49.6759L96.75 51.0276L65.25 34.2437L84.7125 53.1678H36.225L0 49.6759V18.5862L50.0625 5.63218L101.7 0L165.713 49.6759Z"
    fill="#2F619F" />
  <path d="M84.7125 53.1678L81.45 100.703L96.75 51.0276L65.25 34.2437L84.7125 53.1678Z" fill="#112752"
    fill-opacity="0.35" />
  <path d="M1146.71 81.4414L1163.81 208.841L1072.46 191.607V121.092L1090.13 71.1908L1146.71 81.4414Z"
    fill="url(#paint7_linear_2409_6597)" />
  <path d="M1312.54 44.1563L1315.91 66.4598L1338.86 57.223L1355.96 55.308L1344.04 26.8092L1312.54 44.1563Z"
    fill="#112752" fill-opacity="0.35" />
  <path d="M556.875 64.9955L579.038 77.9495L594.337 73.7817L561.262 54.7449L556.875 64.9955Z" fill="#112752"
    fill-opacity="0.35" />
  <path
    d="M899.55 196.113H254.925L262.013 186.651L262.238 186.425L263.475 184.848L275.063 169.416L281.925 160.292L295.988 126.837L303.863 140.354L303.975 140.467L318.038 143.959C318.038 143.959 318.15 143.959 318.375 143.959C318.488 143.959 318.6 143.959 318.713 143.959C318.825 143.959 318.825 143.959 318.938 143.959C319.163 143.959 319.388 143.959 319.613 143.846C320.063 143.846 320.513 143.733 320.963 143.733C321.3 143.733 321.638 143.621 322.088 143.621L369.45 139.115H463.613C463.613 139.115 463.725 139.115 463.838 139.115C463.838 139.115 463.95 139.115 464.063 139.115H464.625L514.913 135.51C515.25 135.51 515.475 135.51 515.812 135.398L518.288 135.172C518.85 135.172 519.3 135.06 519.75 135.06C520.2 135.06 520.65 134.947 521.1 134.947C521.55 134.947 522 134.947 522.337 134.834L523.575 134.722C523.913 134.722 524.138 134.722 524.363 134.609H525.038H525.375C525.488 134.609 525.6 134.609 525.6 134.609L604.35 131.568L644.4 116.136L691.087 106.899L770.737 82.2299L784.35 91.9172L844.2 83.131L868.162 82.7931L877.612 94.9586L886.05 134.497L899.55 196.113Z"
    fill="url(#paint8_linear_2409_6597)" />
  <path
    d="M770.963 82.3426L691.313 107.012L644.625 116.248L604.575 131.681L525.825 134.722C525.825 134.722 525.713 134.722 525.6 134.722H525.263H524.588C524.363 134.722 524.025 134.722 523.8 134.835L522.563 134.947C522.225 134.947 521.775 134.947 521.325 135.06C507.6 136.074 467.55 139.002 464.063 139.115C463.95 139.115 463.838 139.115 463.838 139.115H369.675C367.763 139.115 331.988 142.607 321.188 143.621C320.625 143.621 320.175 143.733 319.838 143.733C319.613 143.733 319.275 143.733 319.163 143.846C319.05 143.846 319.05 143.846 318.938 143.846C318.825 143.846 318.713 143.846 318.6 143.846C318.375 143.846 318.263 143.846 318.263 143.846L304.2 140.354L304.088 140.241L296.213 126.724L299.813 124.359L336.713 100.253L440.1 86.623L579.263 77.8368L594.563 73.669L608.513 69.8391L702.113 73.7816L770.963 82.3426Z"
    fill="url(#paint9_linear_2409_6597)" />
  <path d="M342.675 76.1471L336.488 100.365L439.875 86.7356L430.425 77.9494L342.675 76.1471Z" fill="#112752"
    fill-opacity="0.35" />
  <path opacity="0.5"
    d="M632.25 138.101L646.65 144.071L653.737 151.956L680.737 134.271L698.625 118.726L654.3 127.287L632.25 138.101Z"
    fill="#2F619F" />
  <path
    d="M632.25 138.101L625.05 169.191L622.125 207.264H654.525L656.55 169.979L653.737 151.956L646.65 144.071L632.25 138.101Z"
    fill="url(#paint10_linear_2409_6597)" />
  <path
    d="M653.737 151.956L680.737 134.271L698.625 118.726L710.212 133.933L722.813 207.264H654.525L656.55 169.979L653.737 151.956Z"
    fill="url(#paint11_linear_2409_6597)" />
  <path d="M680.737 134.271L710.213 133.933L698.625 118.726L680.737 134.271Z" fill="#010318" fill-opacity="0.2" />
  <path d="M206.775 85.7218L245.25 83.8069L262.913 72.3173L213.75 63.6437L180.675 73.4437L206.775 85.7218Z"
    fill="#2F619F" />
  <path opacity="0.35"
    d="M214.988 113.207L258.3 110.503L274.838 100.365L271.35 85.7218L285.413 88.7632L294.75 106.786L285.413 120.191L250.2 124.471L214.988 113.207Z"
    fill="#2F619F" />
  <path
    d="M206.775 85.7219L207.675 97.7747L214.988 113.207L258.3 110.503L274.838 100.366L277.2 91.4667L271.35 85.7219L262.913 72.3173L245.25 83.8069L206.775 85.7219Z"
    fill="url(#paint12_linear_2409_6597)" />
  <path
    d="M245.25 83.8069L248.625 97.3242L258.3 110.503L274.838 100.366L277.2 91.4667L271.35 85.7219L262.912 72.3173L245.25 83.8069Z"
    fill="#112752" fill-opacity="0.2" />
  <path d="M325.463 60.9402L305.1 67.023L328.163 50.0138L325.463 60.9402Z" fill="#112752" fill-opacity="0.5" />
  <path
    d="M447.413 176.4L440.55 186.538L434.588 207.264H627.638L633.713 183.722L635.513 159.165L581.85 176.4L558.338 178.653L447.413 176.4Z"
    fill="url(#paint13_linear_2409_6597)" />
  <path d="M558.338 178.653L551.475 207.264H580.613L581.85 176.4L558.338 178.653Z" fill="url(#paint14_linear_2409_6597)"
    fill-opacity="0.5" />
  <path
    d="M447.413 176.4L541.013 149.365L586.238 141.931L611.438 144.071L630.338 150.041L635.513 159.165L581.85 176.4L558.338 178.653L505.8 181.356L447.413 176.4Z"
    fill="#2F619F" />
  <path d="M1068.08 96.423L1062.34 154.998L1078.2 118.726L1068.08 96.423Z" fill="#010318" fill-opacity="0.08" />
  <path
    d="M1068.41 52.0413L1074.82 73.1057L1076.74 92.5931L1081.91 57.3356L1082.92 53.1678L1072.46 44.3816L1068.41 52.0413Z"
    fill="#010318" fill-opacity="0.08" />
  <path
    d="M188.213 168.064L211.5 144.071L229.95 126.949L271.575 165.474L302.175 200.393L294.3 203.772L261.338 186.087L277.2 202.533L274.5 213.685L264.038 216.051L231.975 212.446L215.213 193.071L188.213 168.064Z"
    fill="url(#paint15_linear_2409_6597)" />
  <path
    d="M229.95 126.949L183.262 131.23L115.537 142.607L67.3875 157.251L38.475 171.331L65.25 169.191L188.212 168.064L211.5 144.071L229.95 126.949Z"
    fill="#2F619F" />
  <path
    d="M231.975 212.446L215.213 193.071L188.213 168.064L65.25 169.191L38.475 171.331L23.9625 216.051L150.3 223.823L208.125 225.4L264.038 216.051L231.975 212.446Z"
    fill="url(#paint16_linear_2409_6597)" />
  <path d="M294.3 203.772L281.925 207.039L276.525 205.349L277.2 202.533L261.338 186.087L294.3 203.772Z" fill="#010318"
    fill-opacity="0.25" />
  <path d="M1393.54 6.53333L1417.61 22.0781L1440 28.4988V12.6161L1426.73 7.09654L1393.54 6.53333Z" fill="#2F619F" />
  <path
    d="M1417.61 22.0781L1414.58 37.623L1408.5 43.4804L1401.08 60.6023L1410.64 64.2069L1417.61 75.6965L1421.66 113.657L1428.75 158.152H1440V28.4988L1417.61 22.0781Z"
    fill="url(#paint17_linear_2409_6597)" />
  <path
    d="M328.163 50.0138L325.463 60.9402L342.675 76.1471L430.425 77.9494L516.375 71.9793L556.875 64.9954L561.263 54.7448L447.413 47.3103L328.163 50.0138Z"
    fill="#2F619F" />
  <path opacity="0.35" d="M1414.57 37.623L1394.89 25.3448L1408.5 43.4805L1414.57 37.623Z" fill="#2F619F" />
  <path
    d="M1248.19 113.658L1240.31 145.761L1235.14 202.759L1294.99 210.982L1373.06 199.154H1434.38L1429.54 139.228L1421.66 113.658L1417.61 75.6967L1355.96 85.6093L1309.39 113.658L1283.4 122.556L1248.19 113.658Z"
    fill="url(#paint18_linear_2409_6597)" />
  <path
    d="M1248.19 113.658L1315.91 66.4598L1338.86 57.2231L1382.4 53.3932L1410.64 64.207L1417.61 75.6966L1355.96 85.6093L1309.39 113.658L1283.4 122.556L1248.19 113.658Z"
    fill="#2F619F" />
  <path
    d="M1283.4 122.556L1280.25 161.644L1292.62 183.046L1294.99 210.982L1235.14 202.759L1240.31 145.761L1248.19 113.658L1283.4 122.556Z"
    fill="url(#paint19_linear_2409_6597)" />
  <path
    d="M1179.34 131.681L1175.06 157.138L1155.83 178.991L1146.49 220.669L1243.69 232.497L1277.1 221.57L1273.5 183.722L1262.7 157.476L1259.1 129.54L1220.17 132.807L1179.34 131.681Z"
    fill="url(#paint20_linear_2409_6597)" />
  <path d="M1224 122.556L1259.1 129.54L1219.84 136.186L1179.34 131.681L1198.8 125.26L1224 122.556Z" fill="#2F619F" />
  <path
    d="M1219.84 136.186L1230.97 162.32L1249.65 173.471L1265.06 189.692L1277.1 221.57L1273.5 183.722L1262.7 157.476L1259.1 129.54L1219.84 136.186Z"
    fill="#010318" fill-opacity="0.05" />
  <path opacity="0.35"
    d="M1230.97 162.32L1255.61 161.644L1262.7 157.476L1273.5 183.722L1265.06 189.692L1249.65 173.471L1230.97 162.32Z"
    fill="#2F619F" />
  <path
    d="M1062.45 66.4598L1032.86 97.3242L1009.8 110.166L974.587 129.878L886.388 134.497L864.675 135.623H720L707.287 130.104L701.888 127.738L704.587 126.499L784.575 92.03L844.425 83.2438L868.5 82.7932H872.888L952.087 81.5541L957.6 81.4415L976.5 66.4598H1062.45Z"
    fill="url(#paint21_linear_2409_6597)" />
  <path
    d="M701.888 127.738L697.05 159.166L688.275 179.892L684.9 207.264L722.813 215.487L875.25 218.078H1022.63L1086.19 207.264L1078.2 118.727L1068.08 96.4231L1062.34 66.4598L1032.86 97.3242L974.588 129.878L864.788 135.623H720L701.888 127.738Z"
    fill="url(#paint22_linear_2409_6597)" />
  <path
    d="M720 135.623L715.05 172.683L707.962 191.832L722.812 215.487L684.9 207.264L688.275 179.892L697.05 159.166L701.888 127.738L720 135.623Z"
    fill="url(#paint23_linear_2409_6597)" />
  <path
    d="M974.587 129.878L981.787 148.014L994.612 159.166L1012.16 192.959L1030.72 156.8L1032.86 97.3242L974.587 129.878Z"
    fill="#010318" fill-opacity="0.05" />
  <path opacity="0.15" d="M981.788 148.014L1012.5 128.188L994.613 159.165L981.788 148.014Z" fill="#2F619F" />
  <defs>
    <linearGradient id="paint0_linear_2409_6597" x1="1013.39" y1="64.4323" x2="1021.07" y2="34.0261"
      gradientUnits="userSpaceOnUse">
      <stop stop-color="#194A85" />
      <stop offset="0.0845307" stop-color="#265791" />
      <stop offset="0.5192" stop-color="#6498CC" />
      <stop offset="0.8362" stop-color="#8AC0F1" />
      <stop offset="1" stop-color="#99CFFF" />
    </linearGradient>
    <linearGradient id="paint1_linear_2409_6597" x1="91.6385" y1="225.422" x2="91.6385" y2="0.0362718"
      gradientUnits="userSpaceOnUse">
      <stop stop-color="#194A85" />
      <stop offset="1" stop-color="#0A2A59" />
    </linearGradient>
    <linearGradient id="paint2_linear_2409_6597" x1="241.019" y1="184.87" x2="241.019" y2="73.4996"
      gradientUnits="userSpaceOnUse">
      <stop stop-color="#194A85" />
      <stop offset="1" stop-color="#0A2A59" />
    </linearGradient>
    <linearGradient id="paint3_linear_2409_6597" x1="1040.74" y1="110.207" x2="1040.74" y2="44.4081"
      gradientUnits="userSpaceOnUse">
      <stop stop-color="#194A85" />
      <stop offset="0.6949" stop-color="#0A2A59" />
    </linearGradient>
    <linearGradient id="paint4_linear_2409_6597" x1="1243.54" y1="189.456" x2="1243.54" y2="24.7284"
      gradientUnits="userSpaceOnUse">
      <stop stop-color="#194A85" />
      <stop offset="1" stop-color="#0A2A59" />
    </linearGradient>
    <linearGradient id="paint5_linear_2409_6597" x1="439.853" y1="124.495" x2="439.853" y2="49.9913"
      gradientUnits="userSpaceOnUse">
      <stop stop-color="#194A85" />
      <stop offset="1" stop-color="#0A2A59" />
    </linearGradient>
    <linearGradient id="paint6_linear_2409_6597" x1="1251.04" y1="46.9916" x2="1027.96" y2="7.72106"
      gradientUnits="userSpaceOnUse">
      <stop stop-color="#194A85" />
      <stop offset="1" stop-color="#99CFFF" />
    </linearGradient>
    <linearGradient id="paint7_linear_2409_6597" x1="1118.18" y1="208.85" x2="1118.18" y2="71.1487"
      gradientUnits="userSpaceOnUse">
      <stop stop-color="#194A85" />
      <stop offset="1" stop-color="#0A2A59" />
    </linearGradient>
    <linearGradient id="paint8_linear_2409_6597" x1="577.232" y1="196.169" x2="577.232" y2="82.32"
      gradientUnits="userSpaceOnUse">
      <stop stop-color="#194A85" />
      <stop offset="0.6949" stop-color="#0A2A59" />
    </linearGradient>
    <linearGradient id="paint9_linear_2409_6597" x1="350.153" y1="120.83" x2="823.409" y2="83.9815"
      gradientUnits="userSpaceOnUse">
      <stop stop-color="#194A85" />
      <stop offset="0.3418" stop-color="#1B4C87" />
      <stop offset="0.5049" stop-color="#22548E" />
      <stop offset="0.6302" stop-color="#2F619A" />
      <stop offset="0.7361" stop-color="#4173AB" />
      <stop offset="0.8298" stop-color="#588BC1" />
      <stop offset="0.9148" stop-color="#74A9DC" />
      <stop offset="0.9917" stop-color="#95CBFB" />
      <stop offset="1" stop-color="#99CFFF" />
    </linearGradient>
    <linearGradient id="paint10_linear_2409_6597" x1="639.342" y1="207.276" x2="639.342" y2="138.147"
      gradientUnits="userSpaceOnUse">
      <stop stop-color="#194A85" />
      <stop offset="1" stop-color="#0A2A59" />
    </linearGradient>
    <linearGradient id="paint11_linear_2409_6597" x1="688.243" y1="207.276" x2="688.243" y2="147.337"
      gradientUnits="userSpaceOnUse">
      <stop stop-color="#194A85" />
      <stop offset="1" stop-color="#0A2A59" />
    </linearGradient>
    <linearGradient id="paint12_linear_2409_6597" x1="241.954" y1="113.17" x2="241.954" y2="72.3339"
      gradientUnits="userSpaceOnUse">
      <stop stop-color="#194A85" />
      <stop offset="1" stop-color="#0A2A59" />
    </linearGradient>
    <linearGradient id="paint13_linear_2409_6597" x1="535.084" y1="207.276" x2="535.084" y2="159.157"
      gradientUnits="userSpaceOnUse">
      <stop stop-color="#194A85" />
      <stop offset="1" stop-color="#0A2A59" />
    </linearGradient>
    <linearGradient id="paint14_linear_2409_6597" x1="566.67" y1="205.66" x2="566.67" y2="181.856"
      gradientUnits="userSpaceOnUse">
      <stop stop-color="#194A85" />
      <stop offset="1" stop-color="#0A2A59" />
    </linearGradient>
    <linearGradient id="paint15_linear_2409_6597" x1="272.97" y1="206.746" x2="206.139" y2="148.01"
      gradientUnits="userSpaceOnUse">
      <stop stop-color="#194A85" />
      <stop offset="1" stop-color="#0A2A59" />
    </linearGradient>
    <linearGradient id="paint16_linear_2409_6597" x1="143.951" y1="217.488" x2="143.951" y2="148.612"
      gradientUnits="userSpaceOnUse">
      <stop stop-color="#194A85" />
      <stop offset="1" stop-color="#0A2A59" />
    </linearGradient>
    <linearGradient id="paint17_linear_2409_6597" x1="1420.56" y1="154.383" x2="1420.56" y2="-36.8489"
      gradientUnits="userSpaceOnUse">
      <stop stop-color="#194A85" />
      <stop offset="1" stop-color="#0A2A59" />
    </linearGradient>
    <linearGradient id="paint18_linear_2409_6597" x1="1338.46" y1="204.183" x2="1307.64" y2="37.9705"
      gradientUnits="userSpaceOnUse">
      <stop stop-color="#194A85" />
      <stop offset="1" stop-color="#0A2A59" />
    </linearGradient>
    <linearGradient id="paint19_linear_2409_6597" x1="1265.04" y1="203.383" x2="1265.04" y2="101.829"
      gradientUnits="userSpaceOnUse">
      <stop stop-color="#194A85" />
      <stop offset="1" stop-color="#0A2A59" />
    </linearGradient>
    <linearGradient id="paint20_linear_2409_6597" x1="1211.77" y1="220.563" x2="1214.67" y2="112.461"
      gradientUnits="userSpaceOnUse">
      <stop stop-color="#194A85" />
      <stop offset="1" stop-color="#0A2A59" />
    </linearGradient>
    <linearGradient id="paint21_linear_2409_6597" x1="863.395" y1="120.862" x2="1039.89" y2="-102.668"
      gradientUnits="userSpaceOnUse">
      <stop stop-color="#194A85" />
      <stop offset="0.1356" stop-color="#2E6099" />
      <stop offset="0.5424" stop-color="#679BD0" />
      <stop offset="0.8421" stop-color="#8BC1F2" />
      <stop offset="1" stop-color="#99CFFF" />
    </linearGradient>
    <linearGradient id="paint22_linear_2409_6597" x1="885.534" y1="212.492" x2="885.534" y2="60.8639"
      gradientUnits="userSpaceOnUse">
      <stop stop-color="#194A85" />
      <stop offset="0.6949" stop-color="#0A2A59" />
    </linearGradient>
    <linearGradient id="paint23_linear_2409_6597" x1="703.834" y1="208.41" x2="703.834" y2="89.6874"
      gradientUnits="userSpaceOnUse">
      <stop stop-color="#194A85" />
      <stop offset="1" stop-color="#0A2A59" />
    </linearGradient>
  </defs>
</svg>