<svg width="24" height="24" viewBox="0 0 24 24" fill="none" xmlns="http://www.w3.org/2000/svg">
  <g id="Fill/Camera">
    <path id="Vector"
      d="M9.78907 3.2C9.18267 3.2 8.62902 3.54197 8.35782 4.08437L8.04219 4.71562C7.77099 5.25722 7.21654 5.6 6.61094 5.6H3.20001C2.31601 5.6 1.60001 6.316 1.60001 7.2V17.6C1.60001 18.484 2.31601 19.2 3.20001 19.2H20.8C21.684 19.2 22.4 18.484 22.4 17.6V7.2C22.4 6.316 21.684 5.6 20.8 5.6H17.3891C16.7827 5.6 16.229 5.25802 15.9578 4.71562L15.6422 4.08437C15.371 3.54277 14.8165 3.2 14.2109 3.2H9.78907ZM4.80001 4C4.35841 4 4.00001 4.3584 4.00001 4.8H6.40001C6.40001 4.3584 6.04161 4 5.60001 4H4.80001ZM12 6.4C15.088 6.4 17.6 8.912 17.6 12C17.6 15.088 15.088 17.6 12 17.6C8.91201 17.6 6.40001 15.088 6.40001 12C6.40001 8.912 8.91201 6.4 12 6.4ZM19.2 7.2C19.6416 7.2 20 7.5584 20 8C20 8.4416 19.6416 8.8 19.2 8.8C18.7584 8.8 18.4 8.4416 18.4 8C18.4 7.5584 18.7584 7.2 19.2 7.2ZM12 8C10.9391 8 9.92172 8.42142 9.17158 9.17157C8.42143 9.92171 8.00001 10.9391 8.00001 12C8.00001 13.0609 8.42143 14.0783 9.17158 14.8284C9.92172 15.5786 10.9391 16 12 16C13.0609 16 14.0783 15.5786 14.8284 14.8284C15.5786 14.0783 16 13.0609 16 12C16 10.9391 15.5786 9.92171 14.8284 9.17157C14.0783 8.42142 13.0609 8 12 8Z"
      fill="currentColor" />
  </g>
</svg>