<svg width="24" height="24" viewBox="0 0 24 24" fill="none" xmlns="http://www.w3.org/2000/svg">
  <path
    d="M18.4714 20H14.754H13.753H13.5368V15.2328H15.1676C15.5811 15.2328 15.8255 14.7835 15.5811 14.46L12.4089 10.2634C12.2068 9.99382 11.7885 9.99382 11.5864 10.2634L8.41418 14.46C8.1698 14.7835 8.40948 15.2328 8.82775 15.2328H10.4585V20H10.2423H9.24132H4.93175C2.46445 19.8697 0.5 17.6636 0.5 15.2732C0.5 13.6243 1.43523 12.1865 2.82162 11.4092C2.69473 11.0812 2.62893 10.7307 2.62893 10.3623C2.62893 8.67734 4.05292 7.31592 5.81528 7.31592C6.19595 7.31592 6.56253 7.37883 6.9056 7.50014C7.92542 5.43331 10.1248 4 12.6814 4C15.99 4.00449 18.7158 6.42629 19.026 9.51306C21.5685 9.93092 23.5 12.182 23.5 14.7296C23.5 17.4524 21.2818 19.8113 18.4714 20Z"
    fill="currentColor" />
</svg>