<svg width="24" height="24" viewBox="0 0 24 24" fill="none" xmlns="http://www.w3.org/2000/svg">
  <path
    d="M19.37 7.27C19.92 8.15 20.36 9.14 20.58 10.13L23 10.9V13.1L20.58 13.87C20.58 14.1311 20.5111 14.3234 20.4279 14.5557C20.4059 14.617 20.383 14.6811 20.36 14.75L18.49 12.88C19.15 9.03 16.07 5.4 12 5.4C8.37 5.4 5.4 8.37 5.4 12C5.4 16.18 9.14 19.26 13.32 18.49L15.08 20.25C14.915 20.305 14.7225 20.36 14.53 20.415C14.3375 20.47 14.145 20.525 13.98 20.58L13.1 23H10.9L10.02 20.69C9.03 20.47 8.15 20.03 7.27 19.48L4.96 20.58L3.42 19.04L4.52 16.73C4.08 15.96 3.64 14.97 3.42 13.98L1 13.1V10.9L3.42 10.02C3.64 9.03 3.97 8.15 4.52 7.27L3.42 4.96L4.96 3.53L7.27 4.63C8.15 4.08 9.03 3.64 10.02 3.42L10.9 1H13.1L13.87 3.42C14.86 3.64 15.74 3.97 16.62 4.52L18.93 3.42L20.47 4.96L19.37 7.27Z"
    fill="currentColor" />
  <path
    d="M16.07 13.65L22.56 20.14C23.11 20.8 23.11 21.9 22.45 22.45C21.79 23.11 20.8 23.11 20.14 22.45L13.65 15.96C10.02 17.39 6.83001 13.87 7.82 10.79L9.8 12.66C10.57 13.54 12.11 13.54 12.88 12.66C13.76 11.89 13.76 10.46 12.88 9.57997L10.9 7.59997C14.42 6.60997 17.61 10.24 16.07 13.65Z"
    fill="currentColor" />
</svg>