<svg width="24" height="24" viewBox="0 0 24 24" fill="none" xmlns="http://www.w3.org/2000/svg">
<path d="M20.0604 5.60569C19.7455 5.13302 19.2997 4.77146 18.7709 4.56129C17.6231 4.1039 16.6359 3.79836 15.7527 3.62614C15.1331 3.50578 14.5196 3.80854 14.2247 4.37889L14.1511 4.52148C13.497 4.44972 12.8025 4.42565 12.0115 4.44555C11.2004 4.42611 10.5035 4.44972 9.84851 4.52148L9.77537 4.37889C9.48049 3.80854 8.86604 3.50624 8.24785 3.62661C7.3646 3.79836 6.377 4.1039 5.22961 4.56175C4.70134 4.77193 4.25552 5.13302 3.94014 5.60615C1.74087 8.90739 0.879047 12.4683 1.30577 16.4932C1.32067 16.6344 1.39987 16.7608 1.52052 16.8362C3.21249 17.8964 4.67665 18.6222 6.12824 19.1213C6.73524 19.3319 7.40839 19.0963 7.76663 18.5523L8.40531 17.5797C7.8966 17.389 7.40001 17.1631 6.92391 16.8932C6.70077 16.7668 6.62297 16.4839 6.75015 16.2622C6.87732 16.0395 7.16196 15.9613 7.38557 16.0895C8.80221 16.8922 10.4038 17.3167 12.017 17.3167C13.6303 17.3167 15.2319 16.8922 16.6485 16.0895C16.8717 15.9613 17.1563 16.0395 17.2839 16.2622C17.4111 16.4839 17.3333 16.7668 17.1102 16.8932C16.6182 17.1723 16.1039 17.4047 15.5771 17.5987L16.2344 18.5718C16.505 18.9722 16.9518 19.2 17.412 19.2C17.562 19.2 17.7134 19.1755 17.8607 19.1255C19.3164 18.6259 20.7834 17.8991 22.4791 16.8367C22.5997 16.7612 22.6789 16.6344 22.6938 16.4936C23.1215 12.4683 22.2597 8.90693 20.0604 5.60569ZM9.02442 13.6299C8.1272 13.6299 7.38883 12.6906 7.38883 11.5489C7.38883 10.4073 8.1272 9.46802 9.02442 9.46802C9.92165 9.46802 10.66 10.4073 10.66 11.5489C10.66 12.6906 9.92165 13.6299 9.02442 13.6299ZM15.0772 13.6178C14.1884 13.6178 13.457 12.673 13.457 11.5244C13.457 10.3758 14.1884 9.43098 15.0772 9.43098C15.966 9.43098 16.6974 10.3758 16.6974 11.5244C16.6974 12.673 15.966 13.6178 15.0772 13.6178Z" fill="currentColor"/>
</svg>
