<svg width="110" height="87" viewBox="0 0 110 87" fill="none" xmlns="http://www.w3.org/2000/svg">
  <g id="Group">
    <path id="Vector" fill-rule="evenodd" clip-rule="evenodd"
      d="M98.319 30.6543H11.6812V70.7503C11.6809 71.6819 11.9811 72.5888 12.5371 73.3364C13.0931 74.084 13.8753 74.6324 14.7676 74.9002L53.7546 86.5963C54.5672 86.8389 55.4329 86.8389 56.2455 86.5963L95.2325 74.9002C96.1248 74.6324 96.907 74.084 97.463 73.3364C98.019 72.5888 98.3192 71.6819 98.319 70.7503V30.6543Z"
      fill="#52525B" />
    <path id="Vector_2" fill-rule="evenodd" clip-rule="evenodd"
      d="M98.3191 30.6543H55.0002C55.0002 30.6543 54.58 86.7783 55.0002 86.7783C55.4204 86.7783 55.8385 86.7176 56.2456 86.5963L95.2327 74.9002C96.125 74.6324 96.9072 74.084 97.4632 73.3364C98.0192 72.5888 98.3193 71.6819 98.3191 70.7503V30.6543Z"
      fill="#71717A" />
    <path id="Vector_3" fill-rule="evenodd" clip-rule="evenodd"
      d="M55.0002 44.7091L11.6812 30.6543L0.689075 46.9509C0.501182 47.229 0.380492 47.547 0.336531 47.8797C0.29257 48.2124 0.326539 48.5509 0.435759 48.8682C0.544978 49.1856 0.72646 49.4732 0.965882 49.7085C1.2053 49.9437 1.49612 50.12 1.81537 50.2236L40.7916 62.8857C41.2381 63.0309 41.7198 63.027 42.164 62.8747C42.6082 62.7223 42.9908 62.4297 43.2542 62.041L55.0002 44.7091ZM98.3191 30.6543L55.0002 44.7091L66.7461 62.041C67.0095 62.4297 67.3922 62.7223 67.8363 62.8747C68.2805 63.027 68.7622 63.0309 69.2088 62.8857L108.185 50.2236C108.504 50.12 108.795 49.9437 109.034 49.7085C109.274 49.4732 109.455 49.1856 109.565 48.8682C109.674 48.5509 109.708 48.2124 109.664 47.8797C109.62 47.547 109.499 47.229 109.311 46.9509L98.3191 30.6543Z"
      fill="#A1A1AA" />
    <path id="Vector_4" fill-rule="evenodd" clip-rule="evenodd"
      d="M44.5148 1.13032C44.2509 0.742804 43.8684 0.45139 43.4247 0.299851C42.981 0.148312 42.5001 0.14483 42.0543 0.289928L3.07593 12.9542C2.75645 13.0571 2.46533 13.233 2.22563 13.468C1.98593 13.703 1.80423 13.9905 1.69494 14.3079C1.58565 14.6252 1.55177 14.9637 1.59598 15.2964C1.64019 15.6291 1.76127 15.947 1.94964 16.2248L11.6812 30.6543L55.0001 16.5519L44.5148 1.13032Z"
      fill="#71717A" />
    <path id="Vector_5" fill-rule="evenodd" clip-rule="evenodd"
      d="M108.051 16.2248C108.238 15.9467 108.358 15.6289 108.402 15.2965C108.446 14.964 108.412 14.6259 108.302 14.3088C108.193 13.9917 108.012 13.7043 107.773 13.4693C107.534 13.2342 107.243 13.0579 106.924 12.9542L67.9459 0.289928C67.5 0.14483 67.0192 0.148312 66.5755 0.299851C66.1318 0.45139 65.7493 0.742804 65.4853 1.13032L55 16.5519L98.3189 30.6543L108.051 16.2248Z"
      fill="#52525B" />
    <path id="Vector_6" fill-rule="evenodd" clip-rule="evenodd"
      d="M98.319 30.6552L55.0001 16.5527L11.6812 30.6552L55.0001 44.71L98.319 30.6552Z" fill="#3F3F46" />
    <path id="Vector_7" fill-rule="evenodd" clip-rule="evenodd"
      d="M55.0001 44.71V16.5527L11.6812 30.6552L55.0001 44.71Z" fill="#52525B" />
  </g>
</svg>