<svg width="24" height="24" viewBox="0 0 24 24" fill="none" xmlns="http://www.w3.org/2000/svg">
  <g id="Fill/Game">
    <path id="Vector"
      d="M21.0951 7.85503C19.9254 5.33265 18.4909 4 16.9455 4C15.3153 4 14.3662 4.54015 13.6034 4.97388C13.031 5.29917 12.6179 5.53402 11.9987 5.53402C11.3826 5.53402 10.9694 5.29917 10.3976 4.97388C9.63479 4.54015 8.68571 4 7.0555 4C5.50907 4 4.07399 5.33265 2.90376 7.85503C1.22205 11.4812 0.0538984 18.1095 2.05198 20.2416C2.67482 20.9067 3.36374 21.0211 3.82788 20.9971C5.68286 20.9077 7.44835 18.5961 8.8673 16.7383C9.22061 16.2761 9.6478 15.7165 9.87102 15.4931H14.13C14.3532 15.7165 14.7804 16.2761 15.1337 16.7383C16.5526 18.5961 18.3176 20.9077 20.1731 20.9971C20.208 20.9986 20.2439 20.9996 20.2808 20.9996C20.7413 20.9996 21.3725 20.8567 21.949 20.2416C23.946 18.11 22.7774 11.4817 21.0951 7.85503ZM9.13683 11.4952H8.35633V12.2447C8.35633 12.659 8.00667 12.9942 7.57583 12.9942C7.145 12.9942 6.79534 12.659 6.79534 12.2447V11.4952H6.01484C5.584 11.4952 5.23434 11.1599 5.23434 10.7457C5.23434 10.3314 5.584 9.99616 6.01484 9.99616H6.79534V9.24664C6.79534 8.8324 7.145 8.49712 7.57583 8.49712C8.00667 8.49712 8.35633 8.8324 8.35633 9.24664V9.99616H9.13683C9.56767 9.99616 9.91733 10.3314 9.91733 10.7457C9.91733 11.1599 9.56767 11.4952 9.13683 11.4952ZM14.3402 11.4952C13.9093 11.4952 13.5597 11.1594 13.5597 10.7457C13.5597 10.3319 13.9093 9.99616 14.3402 9.99616C14.771 9.99616 15.1207 10.3319 15.1207 10.7457C15.1207 11.1594 14.771 11.4952 14.3402 11.4952ZM16.4215 13.4939C15.9907 13.4939 15.641 13.1581 15.641 12.7444C15.641 12.3307 15.9907 11.9949 16.4215 11.9949C16.8523 11.9949 17.202 12.3307 17.202 12.7444C17.202 13.1581 16.8523 13.4939 16.4215 13.4939ZM16.4215 9.49648C15.9907 9.49648 15.641 9.16069 15.641 8.74696C15.641 8.33322 15.9907 7.99744 16.4215 7.99744C16.8523 7.99744 17.202 8.33322 17.202 8.74696C17.202 9.16069 16.8523 9.49648 16.4215 9.49648ZM18.5028 11.4952C18.072 11.4952 17.7223 11.1594 17.7223 10.7457C17.7223 10.3319 18.072 9.99616 18.5028 9.99616C18.9337 9.99616 19.2833 10.3319 19.2833 10.7457C19.2833 11.1594 18.9337 11.4952 18.5028 11.4952Z"
      fill="currentColor" />
  </g>
</svg>