<svg width="24" height="24" viewBox="0 0 24 24" fill="none" xmlns="http://www.w3.org/2000/svg">
<path d="M12 2C6.4775 2 2 6.54761 2 12.1566C2 16.9158 5.22667 20.898 9.57667 22C9.53 21.8629 9.5 21.7038 9.5 21.5066V19.7706C9.09417 19.7706 8.41417 19.7706 8.24333 19.7706C7.55917 19.7706 6.95083 19.4719 6.65583 18.9166C6.32833 18.2996 6.27167 17.3559 5.46 16.7787C5.21917 16.5865 5.4025 16.3673 5.68 16.397C6.1925 16.5442 6.6175 16.9014 7.0175 17.4312C7.41583 17.9619 7.60333 18.0821 8.3475 18.0821C8.70833 18.0821 9.24833 18.0609 9.75667 17.9797C10.03 17.2747 10.5025 16.6255 11.08 16.3191C7.75 15.9712 6.16083 14.2886 6.16083 12.0042C6.16083 11.0207 6.57333 10.0694 7.27417 9.26788C7.04417 8.47228 6.755 6.84977 7.3625 6.23191C8.86083 6.23191 9.76667 7.21879 9.98417 7.4854C10.7308 7.22556 11.5508 7.07829 12.4125 7.07829C13.2758 7.07829 14.0992 7.22556 14.8475 7.48709C15.0625 7.22218 15.9692 6.23191 17.4708 6.23191C18.0808 6.85061 17.7883 8.4799 17.5558 9.2738C18.2525 10.0736 18.6625 11.0224 18.6625 12.0042C18.6625 14.2869 17.0758 15.9687 13.7508 16.3182C14.6658 16.8032 15.3333 18.1659 15.3333 19.1926V21.5066C15.3333 21.5946 15.3142 21.6581 15.3042 21.7334C19.2008 20.3462 22 16.5882 22 12.1566C22 6.54761 17.5225 2 12 2Z" fill="currentColor"/>
</svg>
