<svg width="24" height="24" viewBox="0 0 24 24" fill="none" xmlns="http://www.w3.org/2000/svg">
  <path
    d="M22 2C22 2 14.5112 1.98208 8.67264 7.82064C8.40307 8.09021 8.16836 8.38366 7.95585 8.6873C6.92069 8.60453 5.33612 8.63157 4.52505 9.44319C2.63169 11.3365 2 14.4933 2 14.4933L6.1704 13.897V15.3274L8.67264 17.8296H10.103L9.50672 22C9.50672 22 12.6635 21.3683 14.5568 19.475C15.3684 18.6639 15.3955 17.0793 15.3127 16.0441C15.6163 15.8316 15.9098 15.5969 16.1794 15.3274C22.0179 9.4888 22 2 22 2ZM15.3453 6.98656C16.2669 6.98656 17.0134 7.73306 17.0134 8.65472C17.0134 9.57638 16.2669 10.3229 15.3453 10.3229C14.4236 10.3229 13.6771 9.57638 13.6771 8.65472C13.6771 7.73306 14.4236 6.98656 15.3453 6.98656ZM5.50248 16.1582C5.18553 16.2416 4.88517 16.4008 4.63745 16.6485C3.4981 17.7879 3.67956 20.3188 3.67956 20.3188C3.67956 20.3188 6.19385 20.5153 7.34821 19.3609C7.59593 19.1132 7.75515 18.8112 7.83856 18.4943L7.45736 18.1131C7.41983 18.1664 7.39659 18.2284 7.34821 18.276C6.53498 19.0892 5.31514 18.6832 5.31514 18.6832C5.31514 18.6832 4.90835 17.4634 5.72241 16.6502C5.77078 16.6018 5.8303 16.5794 5.88368 16.541L5.50248 16.1582Z"
    fill="currentColor" />
</svg>