<svg width="32" height="32" viewBox="0 0 32 32" fill="none" xmlns="http://www.w3.org/2000/svg">
  <g clip-path="url(#clip0_969_8995)">
    <path
      d="M3.16663 16.5C3.16663 23.86 9.13996 29.8334 16.5 29.8334C23.86 29.8334 29.8333 23.86 29.8333 16.5C29.8333 9.14004 23.86 3.16671 16.5 3.16671C9.13996 3.16671 3.16663 9.14004 3.16663 16.5ZM27.1666 16.5C27.1666 22.38 22.38 27.1667 16.5 27.1667C10.62 27.1667 5.83329 22.38 5.83329 16.5C5.83329 10.62 10.62 5.83337 16.5 5.83337C22.38 5.83337 27.1666 10.62 27.1666 16.5ZM9.16663 12.5L12.5 12.5L12.5 17.8334L15.1666 17.8334L15.1666 12.5L18.5 12.5L13.8333 7.83337L9.16663 12.5ZM14.5 20.5L19.1666 25.1667L23.8333 20.5L20.5 20.5L20.5 15.1667L17.8333 15.1667L17.8333 20.5L14.5 20.5Z"
      fill="currentColor" />
  </g>
  <defs>
    <clipPath id="clip0_969_8995">
      <rect width="32" height="32" fill="white" transform="translate(0.5 32.5) rotate(-90)" />
    </clipPath>
  </defs>
</svg>