<svg width="24" height="24" viewBox="0 0 24 24" fill="none" xmlns="http://www.w3.org/2000/svg">
<path d="M3.28027 10.8781C9.12685 8.27618 16.6928 5.10387 17.7372 4.66481C20.4767 3.5156 21.3173 3.73584 20.8982 6.28084C20.5972 8.11006 19.7287 14.1662 19.0365 17.9357C18.6257 20.171 17.7041 20.436 16.2551 19.4689C15.5582 19.0035 12.0408 16.6505 11.2775 16.098C10.5806 15.5945 9.6195 14.9888 10.8248 13.7958C11.2537 13.3709 14.0654 10.6551 16.256 8.54112C16.543 8.26347 16.1825 7.80746 15.8513 8.03005C12.8987 10.0108 8.80494 12.76 8.28392 13.1182C7.49681 13.6589 6.74086 13.9069 5.38389 13.5125C4.35859 13.2146 3.35703 12.8593 2.96719 12.7238C1.466 12.2024 1.82234 11.5271 3.28027 10.8781Z" fill="currentColor"/>
</svg>
