<svg width="24" height="24" viewBox="0 0 24 24" fill="none" xmlns="http://www.w3.org/2000/svg">
<path d="M21.8661 5.91333C21.7256 5.77778 21.5095 5.73911 21.3252 5.81822L21.2471 5.85156C21.1809 5.88 21.1147 5.90844 21.048 5.93644C21.2418 5.648 21.3956 5.33956 21.5018 5.02044C21.5609 4.84444 21.4966 4.652 21.3404 4.53822C21.1842 4.42444 20.969 4.41244 20.7999 4.50889C20.2566 4.81689 19.7347 5.03867 19.1952 5.19333C18.3809 4.456 17.2719 4 16.0476 4C13.5491 4 11.5239 5.89022 11.5239 8.22222C11.5239 8.22444 11.5239 8.31244 11.5239 8.44444L11.0482 8.40889C6.41829 7.89778 5.10021 4.99111 5.04545 4.86578C4.95688 4.65689 4.76165 4.50444 4.52594 4.45867C4.2907 4.412 4.04642 4.48089 3.87595 4.63956C3.78167 4.728 2.95263 5.54667 2.95263 7.11111C2.95263 8.22578 3.485 9.12978 4.17404 9.83289C3.85309 9.65022 3.66595 9.50222 3.66119 9.49822C3.44167 9.31956 3.12739 9.28222 2.86644 9.40578C2.60645 9.52978 2.45312 9.78889 2.47931 10.0604C2.48835 10.1542 2.69121 11.9329 4.8926 13.276L4.49118 13.344C4.24785 13.3853 4.04452 13.5413 3.95404 13.7564C3.86405 13.972 3.89928 14.2151 4.04785 14.4C4.09785 14.4627 5.02783 15.5911 7.04732 16.24C5.96877 16.5756 4.48689 16.8889 2.71454 16.8889C2.43455 16.8889 2.17979 17.0418 2.06408 17.28C1.94789 17.5182 1.99217 17.7978 2.17693 17.9942C2.2536 18.0764 4.11214 20 8.90491 20C16.8633 20 20.5714 13.1044 20.5714 8.44444V8.22222C20.5714 8.15644 20.5638 8.092 20.5609 8.02711C21.5571 7.12844 21.9318 6.45422 21.9499 6.42089C22.0399 6.252 22.0066 6.04844 21.8661 5.91333Z" fill="currentColor"/>
</svg>
