<svg width="20" height="20" viewBox="0 0 20 20" fill="none" xmlns="http://www.w3.org/2000/svg">
<path d="M9.25523 1.83122C9.65267 1.38764 10.3473 1.38764 10.7448 1.83122L11.4142 2.57835C11.6756 2.8701 12.0833 2.98235 12.4572 2.86553L13.4635 2.55111C14.0216 2.37674 14.6096 2.71631 14.7375 3.28686L14.9607 4.28228C15.0453 4.65983 15.3402 4.95468 15.7177 5.03931L16.7175 5.26343C17.2864 5.39098 17.626 5.97629 17.4544 6.53355L17.1424 7.5467C17.0278 7.91867 17.1395 8.32332 17.4286 8.58389L18.1757 9.25715C18.6164 9.65433 18.6164 10.3457 18.1757 10.7429L17.4286 11.4161C17.1395 11.6767 17.0278 12.0813 17.1424 12.4533L17.4544 13.4665C17.626 14.0237 17.2864 14.609 16.7175 14.7366L15.7177 14.9607C15.3402 15.0453 15.0453 15.3402 14.9607 15.7177L14.7375 16.7131C14.6096 17.2837 14.0216 17.6233 13.4635 17.4489L12.4572 17.1345C12.0833 17.0176 11.6756 17.1299 11.4142 17.4216L10.7448 18.1688C10.3473 18.6124 9.65267 18.6124 9.25523 18.1688L8.58579 17.4216C8.32438 17.1299 7.9167 17.0176 7.5428 17.1345L6.53647 17.4489C5.97837 17.6233 5.39037 17.2837 5.26247 16.7131L5.03931 15.7177C4.95468 15.3402 4.65983 15.0453 4.28228 14.9607L3.28254 14.7366C2.71357 14.609 2.37396 14.0237 2.54558 13.4665L2.85761 12.4533C2.97217 12.0813 2.86049 11.6767 2.57136 11.4161L1.82429 10.7429C1.38357 10.3457 1.38357 9.65433 1.82429 9.25715L2.57136 8.58389C2.86049 8.32332 2.97217 7.91868 2.85761 7.5467L2.54558 6.53355C2.37396 5.97629 2.71357 5.39098 3.28254 5.26343L4.28228 5.03931C4.65983 4.95468 4.95468 4.65983 5.03931 4.28228L5.26247 3.28686C5.39037 2.71631 5.97837 2.37674 6.53647 2.55111L7.54279 2.86553C7.9167 2.98235 8.32438 2.8701 8.58579 2.57835L9.25523 1.83122Z" fill="#2A7AD7"/>
<path d="M13.2107 7L9.37097 11.2493L7.78957 9.49982L7 10.3739L9.37097 13L14 7.87411L13.2107 7Z" fill="white"/>
</svg>
