<svg width="24" height="24" viewBox="0 0 24 24" fill="none" xmlns="http://www.w3.org/2000/svg">
<path d="M20.4696 7.40625C20.294 6.44409 19.4571 5.74341 18.486 5.52466C17.0326 5.21875 14.3429 5 11.4328 5C8.52447 5 5.79173 5.21875 4.33669 5.52466C3.36723 5.74341 2.52864 6.39966 2.353 7.40625C2.17564 8.5 2 10.0312 2 12C2 13.9688 2.17564 15.5 2.39605 16.5938C2.57341 17.5559 3.41028 18.2566 4.37974 18.4753C5.9226 18.7812 8.56752 19 11.4776 19C14.3877 19 17.0326 18.7812 18.5755 18.4753C19.545 18.2566 20.3818 17.6003 20.5592 16.5938C20.7348 15.5 20.9552 13.9243 21 12C20.9105 10.0312 20.6901 8.5 20.4696 7.40625ZM9.05311 15.0625V8.9375L14.4308 12L9.05311 15.0625Z" fill="currentColor"/>
</svg>
