<svg width="279" height="152" viewBox="0 0 279 152" fill="none" xmlns="http://www.w3.org/2000/svg">
<g clip-path="url(#clip0_233_970)">
<path d="M165.923 34.1968L263.877 136.426C264.833 137.383 266.224 137.731 267.527 137.383L271.352 136.252C272.308 135.991 273.003 135.382 273.438 134.512L278.566 124.768C279.348 123.376 279 121.549 277.87 120.505L174.441 24.5394C173.224 23.4084 171.312 23.5824 170.269 24.8004L165.749 30.3687C164.793 31.4997 164.88 33.1528 165.923 34.1968Z" fill="url(#paint0_linear_233_970)"/>
<path d="M278.566 124.681C279.348 123.289 279 121.462 277.87 120.418L174.441 24.4524C173.311 23.4084 171.572 23.4954 170.529 24.4524L277.957 125.812L278.566 124.681Z" fill="url(#paint1_linear_233_970)"/>
<path d="M165.749 30.3687C164.88 31.4998 164.88 33.1528 165.923 34.1969L263.877 136.426C264.833 137.383 266.224 137.731 267.527 137.383L271.352 136.252C271.786 136.165 272.134 135.904 272.482 135.643L166.01 30.0207L165.749 30.3687Z" fill="url(#paint2_linear_233_970)"/>
<path d="M166.444 42.2882C166.444 42.2882 127.505 82.223 133.85 120.331C133.85 120.331 141.325 91.9674 178.612 54.5557L166.444 42.2882Z" fill="url(#paint3_linear_233_970)"/>
<path d="M178.612 54.4688C141.847 91.2714 134.024 119.374 133.851 120.244C140.63 77.4378 168.356 52.9897 168.356 52.9897C169.486 50.8146 170.616 48.9875 171.659 47.4214L178.612 54.4688Z" fill="url(#paint4_linear_233_970)"/>
<path d="M183.393 25.3225C183.393 25.3225 223.287 -13.6552 261.356 -7.30397C261.356 -7.30397 233.022 0.178354 195.648 37.503L183.393 25.3225Z" fill="url(#paint5_linear_233_970)"/>
<path d="M195.561 37.503C232.413 0.700397 260.4 -7.04294 261.269 -7.30396C218.506 -0.517657 194.083 27.2366 194.083 27.2366C191.91 28.3676 190.085 29.4987 188.521 30.5427L195.561 37.503Z" fill="url(#paint6_linear_233_970)"/>
<path d="M187.391 36.4589C183.653 39.243 180.003 42.2012 176.439 45.1593L191.997 61.342C193.996 56.4698 196.865 52.2066 200.863 48.9875L187.391 36.4589Z" fill="url(#paint7_linear_233_970)"/>
<path d="M189.998 22.2773L199.298 33.5008C200.689 35.2409 200.863 37.416 199.733 38.547L179.568 58.7319C178.352 59.95 176.179 59.776 174.527 58.2969L163.402 48.9875C162.272 48.0305 161.49 46.6384 161.49 45.4203L161.403 43.1582C161.316 42.2882 161.664 41.5052 162.185 40.9832L182.089 21.0593C182.61 20.5373 183.393 20.2762 184.262 20.2762L186.522 20.3632C187.738 20.3632 189.042 21.1463 189.998 22.2773Z" fill="url(#paint8_linear_233_970)"/>
<path d="M199.298 33.4138L195.04 28.2806L169.486 54.0337L174.527 58.2099C176.266 59.6019 178.439 59.776 179.569 58.6449L199.733 38.46C200.95 37.329 200.776 35.1539 199.298 33.4138Z" fill="url(#paint9_linear_233_970)"/>
<path d="M241.105 127.726L229.893 116.328L199.472 97.0136C197.56 95.7956 195.387 95.1865 193.127 95.1865H171.746L165.053 84.0501L158.1 78.5688L149.235 85.0941L147.236 71.3475C147.062 70.3905 146.627 69.6074 145.845 68.9984L135.85 61.1681C134.459 60.037 132.807 59.254 130.982 58.906L123.247 57.2529C121.074 56.8179 118.814 56.9049 116.728 57.6879L86.5682 68.8244L69.7935 80.6569L55.5393 85.0941L48.4122 95.1865L41.9804 98.1447L16.514 120.418L0 152H165.053L257.445 151.739L241.105 127.726Z" fill="url(#paint10_radial_233_970)"/>
<path d="M141.152 58.2099C142.542 59.863 145.324 59.08 145.671 56.9049C146.454 52.4677 147.497 46.2904 147.062 45.6814C146.714 45.0724 141.152 41.4182 137.762 39.2431C136.371 38.3731 134.546 38.9821 133.938 40.4612L132.026 45.2464C131.765 45.9424 131.765 46.8124 132.199 47.5085L136.632 55.5128C136.98 56.1218 137.588 56.5569 138.197 56.7309C139.153 56.9919 140.543 57.5139 141.152 58.2099Z" fill="url(#paint11_radial_233_970)"/>
<path d="M176.439 76.6547C176.439 76.6547 183.914 73.8706 185.044 73.8706C186.173 73.8706 188.173 76.0457 188.694 77.6118C189.216 79.0908 186.347 83.006 185.044 83.006C183.74 83.006 177.134 81.6139 176.439 80.6569C175.744 79.6129 176.439 76.6547 176.439 76.6547Z" fill="url(#paint12_radial_233_970)"/>
<path d="M122.273 83.7725C122.273 83.7725 130.139 85.0972 131.118 85.662C132.096 86.2267 132.739 89.1095 132.408 90.7264C132.12 92.268 127.677 94.2251 126.548 93.5734C125.419 92.9218 120.395 88.4148 120.271 87.2384C120.223 86.1055 122.273 83.7725 122.273 83.7725Z" fill="url(#paint13_radial_233_970)"/>
<path d="M148.366 30.0207C148.366 30.0207 146.801 33.5008 147.149 34.6319C147.41 35.7629 152.277 38.8951 153.407 37.503C154.537 36.111 155.841 32.3698 154.711 31.4998C153.581 30.5427 149.843 29.7597 148.366 30.0207Z" fill="url(#paint14_radial_233_970)"/>
<path d="M93.1135 49.9127C93.1135 49.9127 92.7048 52.5612 93.1431 53.269C93.5234 53.9924 97.3423 55.2547 97.8421 54.1052C98.342 52.9556 98.5292 50.176 97.6166 49.7857C96.6881 49.3361 94.0517 49.471 93.1135 49.9127Z" fill="url(#paint15_radial_233_970)"/>
<path d="M149.321 85.0071L154.797 84.3981L165.14 83.876L158.1 78.4818L149.321 85.0071Z" fill="url(#paint16_radial_233_970)"/>
<path d="M146.627 69.6074C146.627 69.6074 148.713 73.6096 148.887 73.8706C149.061 74.0446 149.321 85.0071 149.321 85.0071L146.627 69.6074Z" fill="url(#paint17_linear_233_970)"/>
<path d="M229.892 116.241C225.72 122.767 220.505 128.596 214.595 133.555C214.247 133.033 200.515 114.849 200.775 111.282C201.123 107.628 197.56 95.9696 197.56 95.9696C198.168 96.2306 198.863 96.5786 199.385 96.9266L229.892 116.241Z" fill="url(#paint18_radial_233_970)"/>
<path d="M171.746 95.0995C171.746 95.0995 172.441 99.7108 172.441 100.32C172.441 100.842 176.874 109.542 176.874 109.542C176.874 109.542 162.881 117.547 162.185 117.112C161.49 116.676 167.226 108.411 168.182 105.54C169.225 102.495 171.746 95.0995 171.746 95.0995Z" fill="url(#paint19_radial_233_970)"/>
<path d="M148.018 137.47C144.889 135.121 139.587 120.244 139.587 120.244C137.501 118.939 131.851 114.327 130.2 113.805C128.549 113.283 122.117 115.719 119.336 114.675C116.554 113.718 96.9981 112.935 96.9981 112.935L79.9626 120.331L45.9785 151.739H158.448C155.145 146.693 150.017 139.036 148.018 137.47Z" fill="url(#paint20_radial_233_970)"/>
<path d="M55.4521 85.0071L56.4951 92.9244L61.8839 99.5367L66.925 101.625L65.2736 90.2273L69.7064 80.5699L55.4521 85.0071Z" fill="url(#paint21_radial_233_970)"/>
</g>
<defs>
<linearGradient id="paint0_linear_233_970" x1="205.679" y1="120.604" x2="244.114" y2="19.9542" gradientUnits="userSpaceOnUse">
<stop stop-color="#E0E0E0"/>
<stop offset="0.1908" stop-color="#BDBDBD"/>
<stop offset="0.6106" stop-color="#646464"/>
<stop offset="1" stop-color="#0C0C0C"/>
</linearGradient>
<linearGradient id="paint1_linear_233_970" x1="212.686" y1="105.76" x2="243.144" y2="25.9988" gradientUnits="userSpaceOnUse">
<stop stop-color="#E0E0E0"/>
<stop offset="0.1908" stop-color="#BDBDBD"/>
<stop offset="0.6106" stop-color="#646464"/>
<stop offset="1" stop-color="#0C0C0C"/>
</linearGradient>
<linearGradient id="paint2_linear_233_970" x1="214.313" y1="94.3052" x2="256.104" y2="-5.5947" gradientUnits="userSpaceOnUse">
<stop stop-color="#0C0C0C"/>
<stop offset="0.3894" stop-color="#646464"/>
<stop offset="0.8092" stop-color="#BDBDBD"/>
<stop offset="1" stop-color="#E0E0E0"/>
</linearGradient>
<linearGradient id="paint3_linear_233_970" x1="122.211" y1="53.3362" x2="165.098" y2="96.1799" gradientUnits="userSpaceOnUse">
<stop stop-color="#E0E0E0"/>
<stop offset="0.1908" stop-color="#BDBDBD"/>
<stop offset="0.6106" stop-color="#646464"/>
<stop offset="1" stop-color="#0C0C0C"/>
</linearGradient>
<linearGradient id="paint4_linear_233_970" x1="164.157" y1="103.66" x2="143.17" y2="60.6101" gradientUnits="userSpaceOnUse">
<stop stop-color="#E0E0E0" stop-opacity="0"/>
<stop offset="0.1908" stop-color="#BDBDBD" stop-opacity="0.1908"/>
<stop offset="0.6106" stop-color="#646464" stop-opacity="0.6106"/>
<stop offset="1" stop-color="#0C0C0C"/>
</linearGradient>
<linearGradient id="paint5_linear_233_970" x1="194.42" y1="-18.9478" x2="237.307" y2="23.8958" gradientUnits="userSpaceOnUse">
<stop stop-color="#E0E0E0"/>
<stop offset="0.1908" stop-color="#BDBDBD"/>
<stop offset="0.6106" stop-color="#646464"/>
<stop offset="1" stop-color="#0C0C0C"/>
</linearGradient>
<linearGradient id="paint6_linear_233_970" x1="244.693" y1="23.0405" x2="201.653" y2="2.10062" gradientUnits="userSpaceOnUse">
<stop stop-color="#E0E0E0" stop-opacity="0"/>
<stop offset="0.1908" stop-color="#BDBDBD" stop-opacity="0.1908"/>
<stop offset="0.6106" stop-color="#646464" stop-opacity="0.6106"/>
<stop offset="1" stop-color="#0C0C0C"/>
</linearGradient>
<linearGradient id="paint7_linear_233_970" x1="202.235" y1="82.9759" x2="188.801" y2="47.562" gradientUnits="userSpaceOnUse">
<stop stop-color="#E0E0E0" stop-opacity="0"/>
<stop offset="0.1908" stop-color="#BDBDBD" stop-opacity="0.1908"/>
<stop offset="0.6106" stop-color="#646464" stop-opacity="0.6106"/>
<stop offset="1" stop-color="#0C0C0C"/>
</linearGradient>
<linearGradient id="paint8_linear_233_970" x1="169.292" y1="26.8475" x2="189.99" y2="51.4364" gradientUnits="userSpaceOnUse">
<stop stop-color="#E0E0E0"/>
<stop offset="0.1908" stop-color="#BDBDBD"/>
<stop offset="0.6106" stop-color="#646464"/>
<stop offset="1" stop-color="#0C0C0C"/>
</linearGradient>
<linearGradient id="paint9_linear_233_970" x1="177.489" y1="35.47" x2="187.531" y2="47.3998" gradientUnits="userSpaceOnUse">
<stop stop-color="#E0E0E0"/>
<stop offset="0.1908" stop-color="#BDBDBD"/>
<stop offset="0.6106" stop-color="#646464"/>
<stop offset="1" stop-color="#0C0C0C"/>
</linearGradient>
<radialGradient id="paint10_radial_233_970" cx="0" cy="0" r="1" gradientUnits="userSpaceOnUse" gradientTransform="translate(111.538 15.748) scale(324.542 324.87)">
<stop stop-color="#FFB550"/>
<stop offset="0.0866378" stop-color="#FFD836"/>
<stop offset="0.1225" stop-color="#FFE82A"/>
<stop offset="0.5163" stop-color="#DE6B23"/>
<stop offset="0.5279" stop-color="#DD6723"/>
<stop offset="0.7849" stop-color="#FFDD32"/>
<stop offset="0.9469" stop-color="#BF9500"/>
</radialGradient>
<radialGradient id="paint11_radial_233_970" cx="0" cy="0" r="1" gradientUnits="userSpaceOnUse" gradientTransform="translate(134.577 25.8523) scale(49.2389 49.2887)">
<stop stop-color="#FFB550"/>
<stop offset="0.2115" stop-color="#FFD836"/>
<stop offset="0.2989" stop-color="#FFE82A"/>
<stop offset="0.5214" stop-color="#DE6B23"/>
<stop offset="0.5279" stop-color="#DD6723"/>
<stop offset="0.7849" stop-color="#FFDD32"/>
<stop offset="0.9469" stop-color="#BF9500"/>
</radialGradient>
<radialGradient id="paint12_radial_233_970" cx="0" cy="0" r="1" gradientUnits="userSpaceOnUse" gradientTransform="translate(181.572 69.8951) scale(24.195 24.2194)">
<stop stop-color="#FFB550"/>
<stop offset="0.2115" stop-color="#FFD836"/>
<stop offset="0.2989" stop-color="#FFE82A"/>
<stop offset="0.5214" stop-color="#DE6B23"/>
<stop offset="0.5279" stop-color="#DD6723"/>
<stop offset="0.7849" stop-color="#FFDD32"/>
<stop offset="0.9469" stop-color="#BF9500"/>
</radialGradient>
<radialGradient id="paint13_radial_233_970" cx="0" cy="0" r="1" gradientUnits="userSpaceOnUse" gradientTransform="translate(130.114 80.5787) rotate(29.9901) scale(24.1925 24.2218)">
<stop stop-color="#FFB550"/>
<stop offset="0.2115" stop-color="#FFD836"/>
<stop offset="0.2989" stop-color="#FFE82A"/>
<stop offset="0.5214" stop-color="#DE6B23"/>
<stop offset="0.5279" stop-color="#DD6723"/>
<stop offset="0.7849" stop-color="#FFDD32"/>
<stop offset="0.9469" stop-color="#BF9500"/>
</radialGradient>
<radialGradient id="paint14_radial_233_970" cx="0" cy="0" r="1" gradientUnits="userSpaceOnUse" gradientTransform="translate(147.085 19.4235) scale(30.3282 30.3588)">
<stop stop-color="#FFB550"/>
<stop offset="0.2115" stop-color="#FFD836"/>
<stop offset="0.2989" stop-color="#FFE82A"/>
<stop offset="0.5214" stop-color="#DE6B23"/>
<stop offset="0.5279" stop-color="#DD6723"/>
<stop offset="0.7849" stop-color="#FFDD32"/>
<stop offset="0.9469" stop-color="#BF9500"/>
</radialGradient>
<radialGradient id="paint15_radial_233_970" cx="0" cy="0" r="1" gradientUnits="userSpaceOnUse" gradientTransform="translate(90.325 42.9279) rotate(-14.9943) scale(20.9475 21.3953)">
<stop stop-color="#FFB550"/>
<stop offset="0.2115" stop-color="#FFD836"/>
<stop offset="0.2989" stop-color="#FFE82A"/>
<stop offset="0.5214" stop-color="#DE6B23"/>
<stop offset="0.5279" stop-color="#DD6723"/>
<stop offset="0.7849" stop-color="#FFDD32"/>
<stop offset="0.9469" stop-color="#BF9500"/>
</radialGradient>
<radialGradient id="paint16_radial_233_970" cx="0" cy="0" r="1" gradientUnits="userSpaceOnUse" gradientTransform="translate(160.426 69.9106) scale(27.7399 27.768)">
<stop stop-color="#FFB550"/>
<stop offset="0.2115" stop-color="#FFD836"/>
<stop offset="0.2989" stop-color="#FFE82A"/>
<stop offset="0.5214" stop-color="#DE6B23"/>
<stop offset="0.5279" stop-color="#DD6723"/>
<stop offset="0.7849" stop-color="#FFDD32"/>
<stop offset="0.9469" stop-color="#BF9500"/>
</radialGradient>
<linearGradient id="paint17_linear_233_970" x1="161.902" y1="92.8181" x2="140.273" y2="68.7895" gradientUnits="userSpaceOnUse">
<stop stop-color="#E0E0E0" stop-opacity="0"/>
<stop offset="0.1908" stop-color="#BDBDBD" stop-opacity="0.1908"/>
<stop offset="0.6106" stop-color="#646464" stop-opacity="0.6106"/>
<stop offset="1" stop-color="#0C0C0C"/>
</linearGradient>
<radialGradient id="paint18_radial_233_970" cx="0" cy="0" r="1" gradientUnits="userSpaceOnUse" gradientTransform="translate(229.012 123.045) scale(60.402 60.4631)">
<stop stop-color="#FFB550" stop-opacity="0"/>
<stop offset="0.2531" stop-color="#F0923C" stop-opacity="0.4794"/>
<stop offset="0.5279" stop-color="#DD6723"/>
</radialGradient>
<radialGradient id="paint19_radial_233_970" cx="0" cy="0" r="1" gradientUnits="userSpaceOnUse" gradientTransform="translate(179.843 109.761) scale(52.5265 52.5796)">
<stop stop-color="#FFB550" stop-opacity="0"/>
<stop offset="0.2531" stop-color="#F0923C" stop-opacity="0.4794"/>
<stop offset="0.5279" stop-color="#DD6723"/>
</radialGradient>
<radialGradient id="paint20_radial_233_970" cx="0" cy="0" r="1" gradientUnits="userSpaceOnUse" gradientTransform="translate(160.327 144.019) scale(101.133 101.235)">
<stop stop-color="#FFB550" stop-opacity="0"/>
<stop offset="0.2531" stop-color="#F0923C" stop-opacity="0.4794"/>
<stop offset="0.5279" stop-color="#DD6723"/>
</radialGradient>
<radialGradient id="paint21_radial_233_970" cx="0" cy="0" r="1" gradientUnits="userSpaceOnUse" gradientTransform="translate(69.9678 97.4107) scale(53.2116 53.2655)">
<stop stop-color="#FFB550" stop-opacity="0"/>
<stop offset="0.2531" stop-color="#F0923C" stop-opacity="0.4794"/>
<stop offset="0.5279" stop-color="#DD6723"/>
</radialGradient>
<clipPath id="clip0_233_970">
<rect width="279" height="160" fill="white" transform="translate(0 -8)"/>
</clipPath>
</defs>
</svg>
