<svg width="125" height="80" viewBox="0 0 125 80" fill="none" xmlns="http://www.w3.org/2000/svg">
<g clip-path="url(#clip0_1077_3264)">
<path d="M58.7608 0.555176V28.1358L49.5681 46.5237H39.3863L35.3936 39.4909L58.7608 0.555176Z" fill="white"/>
<path d="M65.2627 0.555176V28.1358L74.4554 46.5237H84.6372L88.6178 39.4934L65.2627 0.555176Z" fill="white"/>
<path d="M60.3639 38.7129L54.1748 51.0911L55.8354 53.7796H68.2136L69.8742 51.0911L63.6851 38.7129H60.3639Z" fill="white"/>
<path d="M14.175 62.645H17.5326L21.3629 71.5153H18.7302L17.9229 69.6341H13.7847L12.9799 71.5153H10.3447L14.175 62.645ZM17.2247 68.0196L15.855 64.868L14.4829 68.0196H17.2247Z" fill="white"/>
<path d="M22.8389 62.645H31.3043V64.2571H25.5274V66.1965H30.6328V67.8087H25.5274V71.5153H22.8389V62.645Z" fill="white"/>
<path d="M32.7803 62.645H35.4663V71.5153H32.7803V62.645Z" fill="white"/>
<path d="M4.70303 66.005V67.6171H6.44848V69.9008H3.15152C2.84364 69.9008 2.68121 69.7796 2.68121 69.525V64.6353C2.68121 64.3784 2.84364 64.2571 3.15152 64.2571H8.59879V62.645H1.68L0 64.325V71.5153H7.45697L9.13455 69.8353V66.005H4.70303Z" fill="white"/>
<path d="M42.1191 62.645H45.0064L48.8343 67.9662V62.645H51.5228V71.5153H48.6331L44.8052 66.182V71.5153H42.1191V62.645Z" fill="white"/>
<path d="M53.6045 62.645H62.2033V64.2571H56.293V66.0729H61.5318V67.685H56.293V69.9008H62.2033V71.5153H53.6045V62.645Z" fill="white"/>
<path d="M63.6411 62.645H73.5805V64.2571H69.9441V71.5153H67.2702V64.2571H63.6338L63.6411 62.645Z" fill="white"/>
<path d="M77.5537 62.645L79.3137 68.8923L81.384 62.645H84.2059L86.2737 68.8923L88.0337 62.645H90.6665L88.1671 71.5153H84.7416L82.8022 65.6438L80.8628 71.5153H77.4204L74.9355 62.6474L77.5537 62.645Z" fill="white"/>
<path d="M114.376 62.6255H117.064V66.0509L120.623 62.6255H123.915L120.114 66.2934L124.049 71.4934H121.04L118.374 67.9588L117.072 69.2219V71.4934H114.376V62.6255Z" fill="white"/>
<path d="M99.1908 62.645H93.8841L92.2041 64.325V71.5153H99.7944L101.474 69.8353V62.645H99.1908ZM98.7859 69.525C98.7859 69.7674 98.6259 69.9008 98.3156 69.9008H95.3605C95.0526 69.9008 94.8902 69.7796 94.8902 69.525V64.6353C94.8902 64.3784 95.0526 64.2571 95.3605 64.2571H98.3156C98.6259 64.2571 98.7859 64.3784 98.7859 64.6353V69.525Z" fill="white"/>
<path d="M110.611 68.1553H112.425V62.645H105.237L103.557 64.325V71.5153H106.243V68.1553H107.697L109.925 71.5153H112.834L110.611 68.1553ZM109.736 66.165C109.736 66.422 109.576 66.5432 109.266 66.5432H106.243V64.2571H109.266C109.576 64.2571 109.736 64.3784 109.736 64.6353V66.165Z" fill="white"/>
<path d="M1.36704 79.3965V76.5383H0.0361328V75.9468H3.36704V76.5383H2.00704V79.3965H1.36704Z" fill="white"/>
<path d="M4.73242 79.3965V75.9468H5.37242V79.3965H4.73242ZM4.99909 77.9953V77.3941H7.94454V77.9953H4.99909ZM7.63424 79.3965V75.9468H8.27424V79.3965H7.63424Z" fill="white"/>
<path d="M10.0342 79.3965V75.9468H12.9821V76.5286H10.6669V78.8147H13.0039V79.3965H10.0342ZM10.3784 77.9177V77.3456H12.7299V77.9177H10.3784Z" fill="white"/>
<path d="M17.0957 79.3965V75.9468H17.7212L20.4121 78.6425L20.3515 78.6619C20.3345 78.5528 20.3224 78.4413 20.3102 78.3298C20.2981 78.2183 20.2909 78.1019 20.2836 77.9856C20.2763 77.8692 20.2836 77.7553 20.2666 77.6413C20.2496 77.5274 20.2666 77.4134 20.2666 77.3044C20.2666 77.1953 20.2666 77.0862 20.2666 76.9819V75.9468H20.9018V79.3965H20.2545L17.5539 76.7298L17.6315 76.6959C17.6315 76.7516 17.646 76.8171 17.6509 76.8922C17.6557 76.9674 17.6678 77.0498 17.6775 77.1347C17.6872 77.2195 17.6945 77.3165 17.7042 77.4183C17.7139 77.5201 17.7187 77.6219 17.7236 77.7286C17.7284 77.8353 17.7236 77.9395 17.7236 78.0462V79.3819L17.0957 79.3965Z" fill="white"/>
<path d="M22.6426 79.3965V75.9468H25.5905V76.5286H23.2729V78.8147H25.6074V79.3965H22.6426ZM22.9892 77.9177V77.3456H25.3383V77.9177H22.9892Z" fill="white"/>
<path d="M28.1864 79.3965V76.5383H26.8555V75.9468H30.1864V76.5383H28.8264V79.3965H28.1864Z" fill="white"/>
<path d="M32.3906 79.3965L31.1445 75.9468H31.833L32.5094 77.8474C32.5312 77.9201 32.5579 78.0001 32.5845 78.0898C32.6112 78.1795 32.6403 78.2619 32.667 78.3516C32.6936 78.4413 32.7179 78.5262 32.7397 78.6062C32.7615 78.6862 32.7833 78.7638 32.8003 78.8292H32.5918C32.6185 78.7395 32.65 78.6401 32.6888 78.531C32.7276 78.4219 32.7688 78.308 32.8148 78.194C32.8609 78.0801 32.907 77.9662 32.953 77.8571L33.5494 76.4971H34.1312L34.7106 77.8474L34.8439 78.1747C34.89 78.2886 34.9312 78.4001 34.97 78.5068C35.005 78.6006 35.0325 78.6971 35.0524 78.7953L34.8633 78.8195C34.8779 78.7662 34.8924 78.708 34.9118 78.645C34.9312 78.5819 34.9482 78.5116 34.9651 78.4389C34.9821 78.3662 35.0039 78.2959 35.0257 78.2256C35.0476 78.1553 35.0718 78.085 35.096 78.0147C35.1203 77.9444 35.1421 77.8837 35.1639 77.828L35.9227 75.9565H36.5894L35.1906 79.4062H34.7251L33.7554 77.1444L33.8645 77.1637L32.8948 79.4062L32.3906 79.3965Z" fill="white"/>
<path d="M39.7238 79.4451C39.4345 79.4481 39.1468 79.4022 38.8729 79.3093C38.6266 79.2265 38.398 79.0983 38.1989 78.9312C38.0147 78.7748 37.8652 78.5815 37.7602 78.3639C37.6551 78.1462 37.6012 77.9074 37.6026 77.6657C37.6009 77.4247 37.6548 77.1867 37.7602 76.9699C37.8643 76.7518 38.0139 76.5583 38.1989 76.4027C38.3984 76.2357 38.6269 76.1067 38.8729 76.0221C39.4241 75.8416 40.0186 75.8416 40.5699 76.0221C40.8154 76.1061 41.0431 76.2352 41.2414 76.4027C41.4307 76.5583 41.5859 76.7515 41.6971 76.9699C41.8025 77.1867 41.8564 77.4247 41.8547 77.6657C41.8561 77.9074 41.8022 78.1462 41.6971 78.3639C41.5895 78.5806 41.4395 78.7735 41.2559 78.9312C41.0581 79.0987 40.8302 79.2271 40.5844 79.3093C40.3074 79.4034 40.0163 79.4493 39.7238 79.4451ZM39.7238 78.8342C39.9238 78.837 40.1228 78.8067 40.3129 78.7445C40.481 78.6932 40.638 78.611 40.7759 78.5021C40.9037 78.4013 41.0079 78.2739 41.0814 78.1287C41.1532 77.9867 41.1906 77.8297 41.1906 77.6706C41.1906 77.5114 41.1532 77.3544 41.0814 77.2124C41.007 77.0705 40.9028 76.9464 40.7759 76.8487C40.6379 76.7399 40.4809 76.6577 40.3129 76.6063C40.1225 76.5452 39.9237 76.5149 39.7238 76.5166C39.5231 76.5151 39.3235 76.5454 39.1323 76.6063C38.963 76.6566 38.805 76.7389 38.6668 76.8487C38.5412 76.9494 38.4387 77.0759 38.3662 77.2196C38.2961 77.3622 38.2596 77.5189 38.2596 77.6778C38.2596 77.8367 38.2961 77.9935 38.3662 78.136C38.4386 78.2805 38.5411 78.4078 38.6668 78.5093C38.805 78.6192 38.963 78.7015 39.1323 78.7518C39.3236 78.8114 39.5234 78.8392 39.7238 78.8342Z" fill="white"/>
<path d="M43.3428 79.3963V75.9466H45.3549C45.5667 75.9423 45.7764 75.9897 45.9658 76.0847C46.1377 76.1719 46.2833 76.3033 46.3876 76.4653C46.4919 76.6364 46.5456 76.8335 46.5426 77.0338C46.5396 77.2342 46.48 77.4296 46.3707 77.5975C46.2571 77.7684 46.1019 77.9077 45.9197 78.0023C45.7256 78.1044 45.5088 78.1561 45.2894 78.1526H43.9707V79.3963H43.3428ZM43.9707 77.5975H45.2264C45.3378 77.5977 45.4475 77.5711 45.5464 77.5199C45.6421 77.4731 45.7253 77.4041 45.7888 77.3187C45.8469 77.2356 45.8774 77.1364 45.8761 77.035C45.8778 76.9404 45.847 76.848 45.7888 76.7732C45.7236 76.6943 45.6405 76.632 45.5464 76.5914C45.4445 76.545 45.3335 76.5218 45.2216 76.5235H43.9707V77.5975ZM45.9658 79.3963L44.7925 77.8375L45.4737 77.7138L46.744 79.4108L45.9658 79.3963Z" fill="white"/>
<path d="M48.335 79.3965V75.9468H48.9701V79.3965H48.335ZM48.7786 78.5528L48.7107 77.908L51.2198 75.9468H52.1216L48.7786 78.5528ZM51.2441 79.3965L49.7459 77.5516L50.1337 77.0789L52.0731 79.3965H51.2441Z" fill="white"/>
<path d="M57.9392 79.4447C57.65 79.4473 57.3623 79.4014 57.0883 79.309C56.8429 79.2256 56.6152 79.0974 56.4168 78.9308C56.2318 78.7745 56.0815 78.5813 55.9755 78.3635C55.8712 78.1457 55.8182 77.9068 55.8204 77.6653C55.8179 77.4246 55.871 77.1865 55.9755 76.9696C56.0808 76.7514 56.2312 76.558 56.4168 76.4023C56.6157 76.2358 56.8432 76.1069 57.0883 76.0217C57.6396 75.8417 58.2339 75.8417 58.7852 76.0217C59.0298 76.1063 59.2566 76.2353 59.4543 76.4023C59.6392 76.5587 59.7894 76.7519 59.8955 76.9696C60.0009 77.1863 60.0548 77.4244 60.0531 77.6653C60.0545 77.907 60.0006 78.1458 59.8955 78.3635C59.7888 78.5808 59.6387 78.7739 59.4543 78.9308C59.2571 79.0978 59.0301 79.2261 58.7852 79.309C58.5128 79.4011 58.2268 79.447 57.9392 79.4447ZM57.9392 78.8338C58.14 78.8368 58.3398 78.8065 58.5307 78.7441C58.6986 78.6923 58.8555 78.6102 58.9937 78.5017C59.1202 78.3996 59.2242 78.2725 59.2992 78.1284C59.371 77.9863 59.4084 77.8293 59.4084 77.6702C59.4084 77.511 59.371 77.354 59.2992 77.212C59.2242 77.0685 59.1201 76.9422 58.9937 76.8411C58.8555 76.7327 58.6985 76.6505 58.5307 76.5987C58.3396 76.5374 58.1399 76.5071 57.9392 76.509C57.7386 76.5081 57.539 76.5383 57.3477 76.5987C57.1789 76.65 57.0211 76.7322 56.8822 76.8411C56.7573 76.9424 56.6549 77.0687 56.5816 77.212C56.5114 77.3545 56.475 77.5113 56.475 77.6702C56.475 77.8291 56.5114 77.9858 56.5816 78.1284C56.6548 78.2723 56.7571 78.3995 56.8822 78.5017C57.021 78.6107 57.1788 78.6929 57.3477 78.7441C57.5387 78.8058 57.7385 78.8361 57.9392 78.8338Z" fill="white"/>
<path d="M61.5762 79.3965V75.9468H62.2162V79.3965H61.5762ZM61.8186 78.0316V77.4498H64.2428V78.0316H61.8186ZM61.8865 76.5383V75.9468H64.4586V76.5383H61.8865Z" fill="white"/>
<path d="M70.2789 79.4447C70.0088 79.4461 69.7401 79.4077 69.4813 79.3308C69.2437 79.2603 69.021 79.147 68.8243 78.9962C68.6336 78.8487 68.48 78.6586 68.3758 78.4411C68.2625 78.1985 68.2069 77.933 68.2134 77.6653C68.2119 77.4235 68.2684 77.1849 68.3782 76.9696C68.491 76.7528 68.6469 76.5613 68.8364 76.4071C69.0415 76.2422 69.2748 76.1157 69.5249 76.0338C69.7979 75.9441 70.0836 75.899 70.371 75.9005C70.608 75.8988 70.8442 75.9273 71.074 75.9853C71.271 76.0343 71.4615 76.1067 71.6413 76.2011C71.7827 76.2757 71.9125 76.3704 72.0267 76.4823L71.6243 76.9356C71.5106 76.8497 71.3888 76.775 71.2607 76.7126C71.127 76.6457 70.9863 76.5937 70.8413 76.5574C70.494 76.4677 70.1285 76.4778 69.7867 76.5865C69.6176 76.6388 69.4591 76.7209 69.3189 76.8289C69.1899 76.9284 69.0833 77.054 69.0061 77.1974C68.931 77.3401 68.8927 77.4992 68.8946 77.6605C68.8894 77.8474 68.9293 78.0328 69.011 78.2011C69.088 78.3469 69.1985 78.4723 69.3334 78.5671C69.476 78.6639 69.6343 78.7352 69.8013 78.778C69.9765 78.8219 70.1564 78.8439 70.337 78.8435C70.5186 78.8451 70.6999 78.8272 70.8776 78.7902C71.0285 78.7589 71.1744 78.7076 71.3116 78.6374C71.4225 78.5781 71.5193 78.4954 71.5952 78.395C71.6618 78.3105 71.6947 78.2042 71.6873 78.0968V78.0241L71.7819 78.1671H70.3419V77.6047H72.3467C72.3467 77.6532 72.3467 77.6968 72.3613 77.738C72.3632 77.7695 72.3632 77.8011 72.3613 77.8326V77.8908C72.3667 78.1261 72.3143 78.3592 72.2085 78.5696C72.1098 78.7648 71.963 78.9317 71.7819 79.0544C71.5804 79.189 71.3561 79.2859 71.1201 79.3405C70.8451 79.4102 70.5625 79.4452 70.2789 79.4447Z" fill="white"/>
<path d="M73.3096 79.3965L75.0065 75.9468H75.6853L77.3823 79.3965H76.6962L75.5884 77.1395C75.5544 77.0741 75.5229 77.011 75.4938 76.948C75.4647 76.885 75.4356 76.8268 75.4114 76.7662L75.3314 76.5795C75.3047 76.5165 75.2805 76.4462 75.2587 76.3759H75.4259C75.3993 76.451 75.3726 76.5213 75.3459 76.5892C75.3193 76.6571 75.2926 76.7225 75.2635 76.7831C75.2344 76.8438 75.2029 76.9068 75.1738 76.9698L75.0841 77.1589L73.9811 79.4013L73.3096 79.3965ZM74.0635 78.6571L74.3059 78.0995H76.3568L76.4514 78.6571H74.0635Z" fill="white"/>
<path d="M78.6543 79.3965V75.9468H79.2725L80.8458 77.8862H80.5549L82.1258 75.9468H82.7319V79.3965H82.0846V78.0607C82.0846 77.7868 82.0846 77.5322 82.104 77.2922C82.1174 77.0486 82.1433 76.8059 82.1816 76.565L82.247 76.7953L80.8482 78.4753H80.5234L79.1222 76.7904L79.1925 76.565C79.2308 76.8059 79.2566 77.0486 79.27 77.2922C79.2846 77.5347 79.2894 77.7771 79.2894 78.0607V79.4062L78.6543 79.3965Z" fill="white"/>
<path d="M84.4756 79.3965V75.9468H87.421V76.5286H85.1059V78.8147H87.4404V79.3965H84.4756ZM84.8198 77.9177V77.3456H87.1689V77.9177H84.8198Z" fill="white"/>
<path d="M91.5342 79.3965V75.9468H92.1766V79.3965H91.5342ZM91.7766 78.0316V77.4498H94.2008V78.0316H91.7766ZM91.8445 76.5383V75.9468H94.4166V76.5383H91.8445Z" fill="white"/>
<path d="M96.0439 79.3964V78.7879H96.9555V76.5407H96.0439V75.9395H98.5094V76.5407H97.5955V78.7879H98.5094V79.3892L96.0439 79.3964Z" fill="white"/>
<path d="M100.322 79.3965V75.9468H100.948L103.639 78.6425L103.578 78.6619C103.561 78.5528 103.549 78.4413 103.537 78.3298C103.525 78.2183 103.515 78.1019 103.51 77.9856C103.505 77.8692 103.498 77.7553 103.493 77.6413C103.488 77.5274 103.493 77.4134 103.481 77.3044C103.469 77.1953 103.481 77.0862 103.481 76.9819V75.9468H104.119V79.3965H103.481L100.783 76.7298L100.86 76.6959C100.86 76.7516 100.875 76.8171 100.88 76.8922C100.885 76.9674 100.894 77.0498 100.904 77.1347C100.914 77.2195 100.923 77.3165 100.933 77.4183C100.943 77.5201 100.948 77.6219 100.953 77.7286C100.957 77.8353 100.953 77.9395 100.953 78.0462V79.3819L100.322 79.3965Z" fill="white"/>
<path d="M105.401 79.3965L107.098 75.9468H107.78L109.464 79.3965H108.781L107.67 77.1395C107.639 77.0741 107.607 77.011 107.578 76.948C107.549 76.885 107.52 76.8268 107.493 76.7662L107.413 76.5795C107.389 76.5165 107.363 76.4462 107.341 76.3759H107.508L107.43 76.5892C107.404 76.6571 107.375 76.7225 107.346 76.7831C107.317 76.8438 107.287 76.9068 107.256 76.9698L107.169 77.1589L106.066 79.4013L105.401 79.3965ZM106.155 78.6571L106.398 78.0995H108.446L108.541 78.6571H106.155Z" fill="white"/>
<path d="M110.747 79.3965V75.9468H111.375L114.063 78.6425L114.005 78.6619C113.988 78.5528 113.976 78.4413 113.964 78.3298C113.952 78.2183 113.942 78.1019 113.937 77.9856C113.933 77.8692 113.925 77.7553 113.92 77.6413C113.916 77.5274 113.92 77.4134 113.908 77.3044C113.896 77.1953 113.908 77.0862 113.908 76.9819V75.9468H114.546V79.3965H113.908L111.21 76.7298L111.288 76.6959C111.288 76.7516 111.3 76.8171 111.307 76.8922C111.314 76.9674 111.322 77.0498 111.331 77.1347C111.341 77.2195 111.351 77.3165 111.36 77.4183C111.37 77.5201 111.375 77.6219 111.38 77.7286C111.385 77.8353 111.38 77.9395 111.38 78.0462V79.3819L110.747 79.3965Z" fill="white"/>
<path d="M118.085 79.4447C117.813 79.4473 117.543 79.4047 117.285 79.3186C117.047 79.242 116.826 79.1192 116.635 78.9574C116.451 78.8025 116.302 78.6099 116.199 78.3925C116.091 78.1655 116.037 77.9166 116.041 77.6653C116.038 77.4197 116.094 77.1771 116.204 76.9574C116.311 76.7427 116.462 76.5528 116.647 76.3998C116.84 76.2384 117.06 76.1135 117.297 76.0313C117.549 75.9432 117.813 75.8989 118.08 75.9004C118.295 75.9001 118.51 75.9279 118.718 75.9829C118.91 76.0323 119.096 76.1022 119.273 76.1913C119.42 76.2649 119.557 76.3561 119.682 76.4629L119.312 76.9913C119.202 76.8991 119.083 76.8179 118.958 76.7489C118.825 76.6748 118.683 76.6178 118.536 76.5792C118.371 76.537 118.202 76.5166 118.032 76.5186C117.867 76.5178 117.703 76.544 117.547 76.5962C117.391 76.6469 117.246 76.7249 117.118 76.8265C116.991 76.9241 116.886 77.0482 116.812 77.1901C116.734 77.3396 116.695 77.5063 116.698 77.675C116.694 77.852 116.735 78.0273 116.817 78.1841C116.896 78.3278 117.006 78.452 117.139 78.5477C117.279 78.6483 117.435 78.7237 117.6 78.7707C117.771 78.8221 117.948 78.8482 118.126 78.8483C118.304 78.8511 118.481 78.8249 118.65 78.7707C118.79 78.7252 118.925 78.6625 119.05 78.5841C119.169 78.5113 119.273 78.4386 119.37 78.3707L119.675 78.8871C119.553 78.977 119.424 79.058 119.29 79.1295C119.115 79.2232 118.93 79.2979 118.739 79.3525C118.527 79.4149 118.306 79.4459 118.085 79.4447Z" fill="white"/>
<path d="M121.154 79.3965V75.9468H124.102V76.5286H121.787V78.8147H124.122V79.3965H121.154ZM121.501 77.9177V77.3456H123.85V77.9177H121.501Z" fill="white"/>
</g>
<defs>
<clipPath id="clip0_1077_3264">
<rect width="124.121" height="80" fill="white"/>
</clipPath>
</defs>
</svg>
