<svg width="137" height="80" viewBox="0 0 137 80" fill="none" xmlns="http://www.w3.org/2000/svg">
<g clip-path="url(#clip0_1077_3319)">
<path d="M15.6001 69.2905H19.2961L23.5121 79.0479H20.6134L19.7334 76.9785H15.1734L14.2854 79.0479H11.3867L15.6001 69.2905ZM18.9574 75.1999L17.4481 71.7332L15.9414 75.1999H18.9574Z" fill="#2A7AD7"/>
<path d="M25.1387 69.2905H34.4533V71.0639H28.096V73.1972H33.7147V74.9732H28.096V79.0372H25.1387V69.2905Z" fill="#2A7AD7"/>
<path d="M36.0801 69.2905H39.0374V79.0479H36.0801V69.2905Z" fill="#2A7AD7"/>
<path d="M5.176 72.9865V74.7598H7.09867V77.2745H3.46667C3.128 77.2745 2.94933 77.1411 2.94933 76.8611V71.4665C2.94933 71.1865 3.128 71.0531 3.46667 71.0531H9.464V69.2798H1.848L0 71.1385V79.0478H8.20533L10.056 77.1998V72.9865H5.176Z" fill="#2A7AD7"/>
<path d="M46.3574 69.2905H49.5361L53.7494 75.1572V69.2905H56.7068V79.0479H53.5281L49.3148 73.1945V79.0479H46.3574V69.2905Z" fill="#2A7AD7"/>
<path d="M59 69.2905H68.464V71.0639H61.9573V73.0665H67.7333V74.8399H61.9573V77.2799H68.464V79.0532H59V69.2905Z" fill="#2A7AD7"/>
<path d="M70.048 69.2905H80.9814V71.0639H76.9814V79.0479H74.04V71.0639H70.04L70.048 69.2905Z" fill="#2A7AD7"/>
<path d="M85.3599 69.2905L87.2959 76.1652L89.5733 69.2905H92.6799L94.9573 76.1652L96.8933 69.2905H99.7759L97.0426 79.0479H93.2693L91.1359 72.5865L89.0026 79.0479H85.2106L82.4746 69.2905H85.3599Z" fill="#2A7AD7"/>
<path d="M125.888 69.2695H128.845V73.0375L132.762 69.2695H136.384L132.2 73.3042L136.533 79.0269H133.221L130.288 75.1389L128.845 76.5335V79.0322H125.888V69.2695Z" fill="#2A7AD7"/>
<path d="M109.17 69.2905H103.33L101.482 71.1385V79.0479H109.837L111.685 77.1999V69.2905H109.17ZM108.728 76.8612C108.728 77.1279 108.549 77.2745 108.21 77.2745H104.957C104.616 77.2745 104.44 77.1412 104.44 76.8612V71.4665C104.44 71.1865 104.616 71.0532 104.957 71.0532H108.21C108.549 71.0532 108.728 71.1865 108.728 71.4665V76.8612Z" fill="#2A7AD7"/>
<path d="M121.741 75.3519H123.733V69.2905H115.827L113.979 71.1385V79.0479H116.936V75.3519H118.536L120.976 79.0479H124.176L121.741 75.3519ZM120.781 73.1625C120.781 73.4452 120.603 73.5785 120.261 73.5785H116.936V71.0639H120.267C120.608 71.0639 120.787 71.1972 120.787 71.4772L120.781 73.1625Z" fill="#2A7AD7"/>
<path d="M64.6903 0.952148V31.3068L54.5569 51.5441H43.3569L38.9756 43.8108L64.6903 0.952148Z" fill="#2A7AD7"/>
<path d="M71.8428 0.952148V31.3068L81.9628 51.5441H93.1761L97.5574 43.8108L71.8428 0.952148Z" fill="#2A7AD7"/>
<path d="M66.4376 42.9492L59.627 56.5732L61.4563 59.5306H75.0776L76.9069 56.5732L70.0963 42.9492H66.4376Z" fill="#2A7AD7"/>
</g>
<defs>
<clipPath id="clip0_1077_3319">
<rect width="136.533" height="80" fill="white"/>
</clipPath>
</defs>
</svg>
