<svg width="136" height="80" viewBox="0 0 136 80" fill="none" xmlns="http://www.w3.org/2000/svg">
<g clip-path="url(#clip0_1077_3249)">
<path d="M15.5387 69.2905H19.2202L23.4198 79.0479H20.5324L19.6559 76.9785H15.1137L14.2291 79.0479H11.3418L15.5387 69.2905ZM18.8829 75.1999L17.3795 71.7332L15.8787 75.1999H18.8829Z" fill="white"/>
<path d="M25.04 69.2905H34.3183V71.0639H27.9858V73.1972H33.5825V74.9732H27.9858V79.0372H25.04V69.2905Z" fill="white"/>
<path d="M35.9395 69.2905H38.8852V79.0479H35.9395V69.2905Z" fill="white"/>
<path d="M5.15578 72.9865V74.7598H7.07094V77.2745H3.45312C3.11578 77.2745 2.93781 77.1411 2.93781 76.8611V71.4665C2.93781 71.1865 3.11578 71.0531 3.45312 71.0531H9.42703V69.2798H1.84078L0 71.1385V79.0478H8.17328L10.0167 77.1998V72.9865H5.15578Z" fill="white"/>
<path d="M46.1758 69.2905H49.342L53.5389 75.1572V69.2905H56.4847V79.0479H53.3184L49.1216 73.1945V79.0479H46.1758V69.2905Z" fill="white"/>
<path d="M58.7695 69.2905H68.1966V71.0639H61.7153V73.0665H67.4688V74.8399H61.7153V77.2799H68.1966V79.0532H58.7695V69.2905Z" fill="white"/>
<path d="M69.7746 69.2905H80.6652V71.0639H76.6808V79.0479H73.751V71.0639H69.7666L69.7746 69.2905Z" fill="white"/>
<path d="M85.0264 69.2905L86.9548 76.1652L89.2233 69.2905H92.3178L94.5862 76.1652L96.5147 69.2905H99.3861L96.6634 79.0479H92.9048L90.7798 72.5865L88.6548 79.0479H84.8777L82.1523 69.2905H85.0264Z" fill="white"/>
<path d="M125.396 69.2695H128.342V73.0375L132.244 69.2695H135.851L131.684 73.3042L136 79.0269H132.701L129.779 75.1389L128.342 76.5335V79.0322H125.396V69.2695Z" fill="white"/>
<path d="M108.744 69.2905H102.927L101.086 71.1385V79.0479H109.408L111.249 77.1999V69.2905H108.744ZM108.303 76.8612C108.303 77.1279 108.125 77.2745 107.788 77.2745H104.547C104.207 77.2745 104.032 77.1412 104.032 76.8612V71.4665C104.032 71.1865 104.207 71.0532 104.547 71.0532H107.788C108.125 71.0532 108.303 71.1865 108.303 71.4665V76.8612Z" fill="white"/>
<path d="M121.266 75.3519H123.25V69.2905H115.374L113.533 71.1385V79.0479H116.479V75.3519H118.073L120.503 79.0479H123.691L121.266 75.3519ZM120.309 73.1625C120.309 73.4452 120.131 73.5785 119.791 73.5785H116.479V71.0639H119.797C120.137 71.0639 120.315 71.1972 120.315 71.4772L120.309 73.1625Z" fill="white"/>
<path d="M64.4384 0.952148V31.3068L54.3447 51.5441H43.1884L38.8242 43.8108L64.4384 0.952148Z" fill="white"/>
<path d="M71.5625 0.952148V31.3068L81.643 51.5441H92.8125L97.1767 43.8108L71.5625 0.952148Z" fill="white"/>
<path d="M66.1776 42.9492L59.3936 56.5732L61.2157 59.5306H74.7839L76.6061 56.5732L69.822 42.9492H66.1776Z" fill="white"/>
</g>
<defs>
<clipPath id="clip0_1077_3249">
<rect width="136" height="80" fill="white"/>
</clipPath>
</defs>
</svg>
