<svg width="1142" height="200" viewBox="0 0 1142 200" fill="none" xmlns="http://www.w3.org/2000/svg">
<path d="M1142 16V184C1142 192.846 1134.83 200 1126 200H15.9999C7.16917 200 0 192.846 0 184V16C0 7.16922 7.16917 0 15.9999 0H1126C1130.68 0 1134.89 2.01538 1137.83 5.23076C1140.43 8.07691 1142 11.8461 1142 16Z" fill="url(#paint0_linear_1600_7352)"/>
<path d="M1142 16V184C1142 192.846 1134.83 200 1126 200H1016.05C972.692 163.062 912.338 132.569 853.646 135.2C816.784 136.846 798.015 150.785 766.954 137.6C743.138 127.492 740.431 113.477 718.8 95.4615C660.908 47.2615 579.338 63.5385 579.138 54.5231C579 48.5538 614.831 41.3538 650.169 38.8769C703.4 35.1538 713.492 45.1077 769.369 43.6923C820.184 42.4 822.107 33.9077 859.661 37.6769C908.923 42.6154 907.338 57.4 936.723 53.3231C972.446 48.3692 986.354 24.8923 1033.05 24.4307C1045.65 24.3077 1044.03 26.0154 1053.51 25.6308C1078.14 24.6308 1095.38 12.8154 1109.46 0H1126C1134.83 0 1142 7.16922 1142 16Z" fill="#2A7AD7"/>
<path d="M1142 15.9999V184C1142 192.846 1134.83 200 1126 200H1049.77C1025.66 178.154 994.892 153.769 976.061 142.415C939 120.077 875.492 104.277 828.769 122.354C820.323 125.615 810.246 130.831 796.261 129.169C791.954 128.661 780.015 126.646 742.077 93.8615C719.108 74.0153 717.6 69.3691 702.738 64.9692C689.646 61.0922 672.292 59.5384 671.384 55.6615C670.8 53.1538 675.077 52.2768 676.954 52.123C696.984 50.523 723.369 54.8922 742.077 59.3384C782.908 69.0615 787.123 46.8307 836.384 50.9076C881.215 54.6307 887.461 73.8307 924.677 74.9999C953.492 75.9076 966.508 55.1999 1008.57 46.0922C1021.42 43.323 1034.09 41.8153 1047.09 41.6769C1059.02 41.5538 1065.62 42.6307 1070.37 42.8922C1101.18 44.5076 1121.71 14.8461 1137.83 5.23071C1140.43 8.07687 1142 11.8461 1142 15.9999Z" fill="#134692"/>
<path d="M1142 28.1694V184C1142 192.846 1134.83 200 1126 200H1088.91C1065.32 160.831 1041.25 146.6 1022.62 141.216C1008.57 137.154 981.461 133.462 958.8 111.923C951.784 105.246 950.384 101.8 950.369 98.6771C950.307 81.2771 993.307 61.2771 1034.65 59.3386C1069.38 57.7232 1076.83 70.0771 1100.48 62.954C1124.12 55.8309 1133.51 38.4002 1142 28.1694Z" fill="#0E336B"/>
<path d="M765.154 81.0155C762.292 86.4463 777.077 107.354 796.754 110.815C818.415 114.615 827.215 93.9847 857.261 95.7693C869.292 96.4924 877.815 100.385 879.538 97.277C881.646 93.4462 871.4 82.7078 861.184 76.2001C858.061 74.2155 832.738 58.6309 808.215 67.477C798.277 71.0616 794.631 76.4308 781.123 78.6155C771.308 80.2001 766.492 78.4616 765.154 81.0155Z" fill="#0E336B"/>
<path d="M1141.28 144.093C1141.09 144.17 1140.92 144.216 1140.77 144.246C1138.91 144.662 1138.88 141.97 1138.55 136.954C1138.37 133.862 1136.29 130.4 1133.97 128.339C1132.23 126.785 1130.37 126.016 1129.05 126.77C1126.71 128.154 1127.02 131.523 1131.09 136.616C1135.17 141.708 1126 145.446 1121.92 145.108C1121.65 145.077 1121.4 145.016 1121.18 144.939C1118.35 143.8 1121.55 137.523 1121.92 134.246C1122.11 132.631 1122.12 131.431 1121.94 130.554C1121.58 128.816 1120.42 128.323 1118.05 128.323C1114.49 128.323 1113.77 134.923 1114.46 137.985C1115.14 141.031 1106.65 142.385 1106.31 136.277C1106.26 135.477 1106.34 134.677 1106.49 133.877C1107.52 128.57 1112.15 122.97 1110.38 113.539C1109.14 106.923 1106 102.831 1102.91 101.046C1100.92 99.908 1098.94 99.708 1097.48 100.416C1093.75 102.216 1102.23 112.862 1103.58 117.954C1104.08 119.754 1103.86 120.816 1103.03 121.108C1101.52 121.646 1097.98 119.585 1092.72 114.554C1087.89 109.923 1087.34 105.57 1086.28 103.2C1085.54 101.585 1084.58 100.893 1081.86 101.662C1075.25 103.523 1084.25 121.677 1088.31 125.416C1092.38 129.154 1109.37 139 1101.55 143.754C1093.75 148.508 1088.03 135.431 1082.88 127.877C1077.62 120.154 1078.12 102.339 1071.68 105.046C1065.23 107.77 1068.63 114.893 1076.09 130.846C1083.57 146.8 1097.48 152.923 1105.97 155.293C1114.46 157.662 1126.68 155.97 1132.11 157.323C1136.03 158.308 1136.92 162.293 1134.97 164.677C1134.2 165.616 1133.03 166.308 1131.43 166.493C1125.66 167.17 1118.52 158.354 1115.98 160.723C1114.51 162.093 1114.57 163.693 1115.94 165.262C1116.94 166.4 1118.62 167.523 1120.91 168.539C1126.34 170.908 1125.66 175.323 1118.86 176.339C1113.02 177.216 1107.17 175.308 1100.89 169.785C1099.88 168.893 1098.86 167.923 1097.82 166.831C1090.35 159.031 1081.86 158.693 1077.78 158.354C1076.72 158.262 1075.66 158.723 1074.77 159.462C1072.25 161.554 1071.06 165.908 1075.08 166.493C1080.51 167.293 1084.25 165.477 1086.95 168.539C1089.68 171.585 1085.94 175.323 1080.51 174.293C1075.08 173.262 1071.34 170.908 1068.29 162.416C1067.2 159.416 1066.94 156.262 1067.06 153.216C1067.29 147.662 1068.86 142.523 1069.31 139.677C1069.86 136.062 1067.46 129.954 1063.95 128.231C1063.18 127.846 1062.35 127.677 1061.49 127.8C1056.74 128.477 1063.2 141.37 1062.17 146.123C1061.97 147.062 1061.57 147.308 1061.05 147.062C1058.94 146.077 1054.85 136.969 1054.03 132.893C1053.28 129.123 1055.86 124.616 1054.78 121.57C1054.42 120.493 1053.58 119.585 1051.98 118.97C1045.88 116.585 1046.89 131.523 1047.58 136.954C1048.26 142.385 1050.63 151.893 1056.74 154.616C1062.86 157.323 1061.15 164.123 1063.54 168.2C1063.95 168.908 1064.05 169.523 1063.91 170.031C1063.28 172.416 1057.38 172.277 1054.03 167.508C1051.26 163.585 1047.86 164.369 1046.18 166.554C1045.4 167.585 1044.98 168.923 1045.2 170.231C1045.88 174.308 1049.28 177.693 1059.46 182.416C1069.65 187.139 1084.25 182.785 1089.34 182.446C1094.43 182.108 1099.52 184.493 1095.45 188.508C1091.37 192.523 1075.75 187.2 1075.42 191.277C1075.08 195.354 1084.25 197.046 1089 197.046C1092.35 197.046 1094.69 198.231 1094.11 200H1105.38C1106.14 198.216 1106.85 196.477 1107.66 195.016C1110.72 189.585 1124.31 188.216 1129.05 188.554C1133.8 188.877 1132.11 194.677 1124.98 195.693C1122.65 196.031 1120.57 197.739 1118.68 200H1126C1134.83 200 1142 192.846 1142 184V143.585C1141.8 143.8 1141.57 143.97 1141.28 144.093Z" fill="url(#paint1_linear_1600_7352)"/>
<path d="M1034.85 101.385C1038.01 101.385 1040.57 98.8223 1040.57 95.6616C1040.57 92.5008 1038.01 89.9385 1034.85 89.9385C1031.69 89.9385 1029.12 92.5008 1029.12 95.6616C1029.12 98.8223 1031.69 101.385 1034.85 101.385Z" fill="#99CFFF"/>
<path d="M1010.72 74.6001C1016.76 74.6001 1021.66 69.7027 1021.66 63.6616C1021.66 57.6204 1016.76 52.7231 1010.72 52.7231C1004.68 52.7231 999.784 57.6204 999.784 63.6616C999.784 69.7027 1004.68 74.6001 1010.72 74.6001Z" fill="#99CFFF"/>
<path opacity="0.6" d="M1045.92 0C1045.92 9.27692 1038.4 16.8 1029.12 16.8C1019.85 16.8 1012.32 9.27692 1012.32 0H1045.92Z" fill="#D2ECFF"/>
<path opacity="0.45" d="M595.692 68.0769C595.692 68.0769 669.138 68.723 699.23 98.4923C717.107 116.185 732.446 131.431 741.938 140.908C752.569 151.508 766.2 158.631 781.015 161C787.123 161.969 794.031 162.461 801.569 162C764.707 170.246 731.631 147.092 710.8 122.2C707.784 118.585 704.692 115.046 701.369 111.708C692.246 102.554 688.8 92.6923 595.692 68.0769Z" fill="#2A7AD7"/>
<path d="M673.677 200.001H333.108C341.015 150.616 414.231 111.939 503.385 111.939C592.554 111.939 665.769 150.616 673.677 200.001Z" fill="url(#paint2_linear_1600_7352)"/>
<path d="M676.215 58.677C676.215 58.677 643.4 51.2155 608.184 52.5386C617.815 25.477 641.138 9.677 666.723 9.677C664.261 22.3693 665.846 33.8155 667.63 41.2463L659.046 45.3539L669.03 46.0309C672.03 54.677 676.215 58.677 676.215 58.677Z" fill="#99CFFF"/>
<defs>
<linearGradient id="paint0_linear_1600_7352" x1="308.314" y1="160.76" x2="1023" y2="-4.54892" gradientUnits="userSpaceOnUse">
<stop stop-color="#2A7AD7"/>
<stop offset="1" stop-color="#75B7FF"/>
</linearGradient>
<linearGradient id="paint1_linear_1600_7352" x1="1179.73" y1="208.452" x2="1099.33" y2="154.444" gradientUnits="userSpaceOnUse">
<stop stop-color="#2A7AD7"/>
<stop offset="1" stop-color="#75B7FF"/>
</linearGradient>
<linearGradient id="paint2_linear_1600_7352" x1="381.676" y1="272.252" x2="630.004" y2="98.3706" gradientUnits="userSpaceOnUse">
<stop stop-color="#2A7AD7"/>
<stop offset="1" stop-color="#75B7FF"/>
</linearGradient>
</defs>
</svg>
