<svg width="338" height="220" viewBox="0 0 338 220" fill="none" xmlns="http://www.w3.org/2000/svg">
<path d="M338 7.86V212C338 215.15 336.18 217.87 333.54 219.17C332.47 219.71 331.27 220 330 220H8C6.08 220 4.31 219.33 2.93 218.19C2.73 218.02 2.53 217.84 2.34 217.66C0.89 216.21 0 214.21 0 212V8C0 3.58 3.58 0 8 0H330.12C334.44 0.06 337.92 3.54 338 7.86Z" fill="#EFF7FE"/>
<path d="M265.01 155.55C262.86 164.28 250.83 165.71 229.44 174.9C213.32 181.82 215.69 182.93 200.73 189.29C177.09 199.3 175.74 194.49 160.18 201.77C147.85 207.56 140.83 214.26 134.4 220H8C6.08 220 4.31 219.33 2.93 218.19C2.73 218.02 2.53 217.84 2.34 217.66C0.89 216.21 0 214.21 0 212V96.78C0.33 97.05 0.67 97.32 1.02 97.59C9.9 104.49 12.02 101.75 39.82 114.51C70.11 128.41 67.82 131.77 82.2 135.26C101.93 140.02 107.04 133.89 130.58 139.86C145.05 143.53 143.43 145.93 157.73 149.94C186.64 158.06 212.89 153.76 217.56 152.95C219.78 152.56 221.92 152.13 223.97 151.67C226.25 151.16 228.43 150.62 230.51 150.06H230.52C247.35 145.52 257.69 140.08 262.87 145.57C265.39 148.25 265.75 152.51 265.01 155.55Z" fill="#D2ECFF"/>
<path d="M241.26 162.17C240.53 163.18 239.58 163.87 238.45 164.35C237.82 164.61 237.14 164.8 236.42 164.93C232.65 165.63 227.73 164.89 223.09 165.02C208.78 165.46 207.09 173.97 187.13 180.9C174.09 185.42 174.38 181.93 160.6 186.07C139.32 192.44 137.53 201.08 121.91 205.93C99.85 212.78 92.93 198.8 73.58 203.43C62.71 206.03 56.58 212.43 51.34 220H8C6.08 220 4.31 219.33 2.93 218.19C2.73 218.02 2.53 217.84 2.34 217.66C0.89 216.21 0 214.21 0 212V123.09C10.97 128.58 18.78 128.24 38.74 135.4C66.92 145.49 65.31 151.15 82.08 153.57C101.7 156.4 103.27 148.55 123.29 150.51C150.17 153.14 151.39 167.68 175.69 167.88C182.27 167.94 189.47 166.93 196.73 165.46C201.67 164.47 206.64 163.28 211.46 162.07C213.09 161.65 214.7 161.24 216.29 160.84C219.45 160.02 222.64 159.15 225.64 158.38C226.74 158.09 227.81 157.82 228.85 157.57C231.61 156.91 234.13 156.4 236.23 156.18C237.22 156.09 238.11 156.05 238.89 156.1H238.9C238.95 156.1 239 156.11 239.04 156.11C240.56 156.21 241.65 156.64 242.16 157.5C242.19 157.56 242.23 157.62 242.25 157.68C242.9 159.05 242.08 161.02 241.26 162.17Z" fill="#99CFFF"/>
<path d="M139.12 182.83C125.6 192.27 118.84 196.99 111.2 198.06C94.7 200.35 91.87 185.37 74.67 184.77C54.71 184.08 37.14 203.52 25.74 216.13C24.47 217.53 23.37 218.82 22.39 220H8C6.08 220 4.31 219.33 2.93 218.19C2.73 218.02 2.53 217.84 2.34 217.66C0.89 216.21 0 214.21 0 212V147.8C11.69 151.89 19.13 148.1 41.2 154.25C65 160.89 64.5 167.58 81 168.48C95.91 169.29 98.83 163.97 118.6 164.63C129.38 164.99 148.01 167.22 148.85 173.08C149.04 174.37 148.44 176.3 139.12 182.83Z" fill="#75B7FF"/>
<path d="M14.12 197.21C7.19 204.29 4.19 211.3 2.34 217.66C0.89 216.21 0 214.21 0 212V166.83C8.06 165.53 15.44 161.6 27.71 165.11C30.82 165.99 41.48 169.05 42.12 174.63C42.92 181.6 27.12 183.9 14.12 197.21Z" fill="#2A7AD7"/>
<path d="M100.86 182.25C101.04 185.28 105.68 187.67 109.26 188.29C116.74 189.59 122.61 183.7 129.33 176.96C130.06 176.23 130.65 175.58 130.51 174.9C129.97 172.17 118.35 170.69 109.03 174.85C106.98 175.77 100.65 178.6 100.86 182.25Z" fill="#2A7AD7"/>
<path d="M68.97 121.2C62.32 115.61 48.69 105.51 29.33 97.8999C15.24 92.3599 5.87 84.4999 0 78.0299V71.1599C5.02 78.4899 13.62 87.8599 27.32 93.9099C45.51 101.94 61.44 114.66 68.97 121.2Z" fill="#D2ECFF"/>
<path d="M69.02 121.24C71.42 123.27 72.91 124.7 73.41 125.19C72.91 124.72 71.38 123.29 69.02 121.24Z" fill="#D2ECFF"/>
<path d="M161.49 217.01C161.49 217.01 179.74 204.59 195.34 204.54C210.94 204.49 222.88 189.58 222.88 189.58C222.88 189.58 215.7 205.87 201.97 206.93C191.58 207.74 186.35 207.79 177.21 211.4C168.07 215 161.49 217.01 161.49 217.01Z" fill="#D2ECFF"/>
<path d="M242.3 137.28C242.3 137.28 193.41 152.8 164.7 142.42C176.28 144.21 204.67 144.18 242.3 137.28Z" fill="#D2ECFF"/>
<path d="M306.24 0C295.18 9.1 261.71 21.69 231.74 15.96C222.27 14.15 211.66 10.23 195.22 11.78C178.54 13.36 170.17 19.21 160.78 22.22C131.12 31.72 91.71 12.8 81.73 0H306.24Z" fill="#D2ECFF"/>
<path d="M338 111.86V212C338 215.15 336.18 217.87 333.54 219.17C332.47 219.71 331.27 220 330 220H261.37C264.4 210.93 269.29 202.1 275.56 195.44C287.87 182.37 300.3 183.23 312.08 165.7C318.72 155.82 316.51 152.97 324.61 136.48C328.84 127.85 333.33 118.71 338 111.86Z" fill="#D2ECFF"/>
<path d="M237.25 159.94C237.25 159.94 237.24 159.94 237.23 159.95H237.22C236.73 160.1 229.33 162.44 218.68 162.48C216.58 162.49 214.26 162.89 211.94 163.52C207.53 164.69 203.14 166.64 200.39 167.97C199.77 168.27 199.12 167.57 199.48 166.98C202.2 162.47 202.91 155.5 202.66 148.47L205.31 147.12L202.57 146.73C202.49 145.27 202.37 143.8 202.22 142.38L205.48 140.72L206.73 140.08L205.3 139.88L201.87 139.39C201.5 136.62 201.05 134.03 200.59 131.79C200.98 131.83 201.37 131.87 201.75 131.92C226.06 135.01 237.25 159.94 237.25 159.94Z" fill="#2A7AD7"/>
<path opacity="0.3" d="M201.87 139.37C201.5 136.6 201.05 134.01 200.59 131.77C200.98 131.81 201.37 131.85 201.75 131.9C203.7 134.96 204.76 137.6 205.29 139.85L201.87 139.37Z" fill="#134692"/>
<path opacity="0.3" d="M211.94 163.51C207.53 164.68 203.14 166.63 200.39 167.96C199.77 168.26 199.12 167.56 199.48 166.97C202.2 162.46 202.91 155.49 202.66 148.46L205.31 147.11L202.57 146.72C202.49 145.26 202.37 143.79 202.22 142.37L205.48 140.71C205.74 142.1 205.8 143.32 205.75 144.39C205.69 145.61 205.51 146.5 205.7 148.17C206.13 151.81 207.72 153.34 209.88 158.18C211.04 160.76 211.77 162.37 211.94 163.51Z" fill="#134692"/>
<path d="M173.52 30.1701C173.2 27.9601 186.88 22.9901 201.17 22.3401C213.81 21.7601 227.02 24.5601 227 26.7701C226.97 29.4701 207.2 31.3301 195.43 31.7301C189.26 31.9401 173.85 32.4601 173.52 30.1701Z" fill="#D2ECFF"/>
</svg>
