<svg width="1140" height="493" viewBox="0 0 1140 493" fill="none" xmlns="http://www.w3.org/2000/svg">
  <path
    d="M0 1.77466H14.6051L1.24678 4.4958H0V6.50708L1.42489 6.27046H81.3968L68.4837 9.34653H0V11.1212H61.0921L46.3979 14.6705H0V16.4452H39.0063L22.2639 20.3494H0V22.1241H14.8723L0 25.6734V28.3945H94.1317L76.4097 33.6002H0V35.3749H70.3539L50.0492 41.2904H0V43.065H43.9044L20.6609 49.8087H0V51.5834H14.6051L0 55.9609V57.7355L20.839 51.7017H138.036L117.197 59.5102H0V61.2849H112.388L88.3431 70.2765H0V72.0511H83.6232L55.6597 82.5808H0V84.3554H50.8507L18.0783 96.6597H0V98.4344H13.3583L0 103.403V105.296L18.2564 98.4344H172.322L144.715 112.987H0V114.761H141.331L108.381 132.035H0V133.809H105.086L65.3668 154.632H0V156.407H61.9827L13.4474 181.962H0V183.736H10.0633L0 189.06V190.953L13.7146 183.736H233.949L197.703 215.562H0V217.336H195.566L149.346 257.799H0V259.573H147.298L86.7401 312.695H0V314.469H84.6918L2.22639 386.639H0V388.413H0.178111L0 388.65V390.78L2.58261 388.532H379.644L340.192 492.172H0V493H1139.91V492.172H799.719L760.267 388.413H1137.33L1139.91 390.661V388.532L1139.73 388.413H1139.91V386.639H1137.68L1055.13 314.351H1139.82V312.576H1053.08L992.524 259.455H1139.91V257.68H990.565L944.345 217.218H1139.91V215.443H942.297L906.051 183.618H1126.29L1140 190.835V188.942L1129.94 183.618H1140V181.843H1126.55L1078.02 156.288H1140V154.514H1074.63L1034.91 133.691H1140V131.916H1031.62L998.669 114.643H1139.91V112.868H995.196L967.589 98.3161H1121.65L1139.91 105.296V103.403L1126.55 98.4344H1139.91V96.6597H1121.83L1089.06 84.3554H1139.91V82.5808H1084.34L1056.38 72.0511H1140V70.2765H1051.66L1027.61 61.2849H1139.91V59.5102H1022.8L1001.96 51.7017H1119.16L1140 57.7355V55.9609L1125.39 51.7017H1140V49.927H1119.34L1096.1 43.1833H1140V41.4087H1089.95L1069.65 35.4932H1140V33.7185H1063.59L1045.87 28.5128H1139.91V25.7917L1125.04 22.2424H1139.91V20.4677H1117.65L1100.99 16.4452H1140V14.6705H1093.6L1078.91 11.1212H1140V9.34653H1071.52L1058.6 6.27046H1138.58L1140 6.50708V4.4958H1138.75L1125.39 1.77466H1140V0H0V1.77466ZM88.8774 6.27046H170.185L159.677 9.34653H76.0534L88.8774 6.27046ZM615.107 11.1212L616.443 14.6705H523.469L524.804 11.1212H615.107ZM525.428 9.34653L526.585 6.27046H613.236L614.394 9.34653H525.428ZM410.012 312.695L430.227 259.573H709.684L729.899 312.695H410.012ZM730.523 314.469L758.041 386.757H381.87L409.388 314.469H730.523ZM430.94 257.799L446.346 217.336H693.654L709.06 257.799H430.94ZM446.97 215.562L459.081 183.736H680.83L692.941 215.562H446.97ZM470.124 154.632L478.05 133.809H661.772L669.698 154.632H470.124ZM670.41 156.407L680.117 181.962H459.794L469.501 156.407H670.41ZM478.763 132.035L485.353 114.761H654.558L661.148 132.035H478.763ZM485.976 112.987L491.498 98.4344H648.324L653.846 112.987H485.976ZM497.553 82.5808L501.561 72.0511H638.35L642.358 82.5808H497.553ZM642.981 84.3554L647.701 96.6597H492.21L496.93 84.3554H642.981ZM502.273 70.2765L505.746 61.2849H634.254L637.727 70.2765H502.273ZM506.37 59.5102L509.309 51.7017H630.513L633.452 59.5102H506.37ZM623.745 33.6002H516.166L518.125 28.3945H621.697L623.745 33.6002ZM620.806 22.1241H719.124L724.289 26.6199H622.587L620.806 22.1241ZM513.316 41.2904L515.543 35.3749H624.368L626.595 41.2904H513.316ZM627.307 43.065L629.89 49.8087H510.021L512.604 43.065H627.307ZM517.324 26.6199H415.622L420.787 22.1241H519.105L517.324 26.6199ZM413.218 26.6199H312.585L321.223 22.1241H418.472L413.218 26.6199ZM413.574 28.3945H516.7L514.741 33.6002H407.696L413.574 28.3945ZM514.029 35.3749L511.802 41.2904H398.88L405.648 35.3749H514.029ZM511.09 43.065L508.507 49.8087H389.084L396.832 43.065H511.09ZM628.821 43.065H743.079L750.827 49.8087H631.404L628.821 43.065ZM628.109 41.2904L625.882 35.3749H734.263L741.031 41.2904H628.109ZM625.17 33.6002L623.211 28.3945H726.337L732.215 33.6002H625.17ZM721.528 22.1241H818.777L827.415 26.6199H726.693L721.528 22.1241ZM719.48 20.3494L714.938 16.3269H807.734L815.304 20.3494H719.48ZM717.075 20.3494H620.183L618.669 16.3269H712.533L717.075 20.3494ZM621.073 26.6199H518.838L520.53 22.1241H619.292L621.073 26.6199ZM519.728 20.3494H422.836L427.378 16.3269H521.242L519.728 20.3494ZM420.431 20.3494H324.518L332.088 16.3269H424.884L420.431 20.3494ZM320.956 20.3494H226.29L236.888 16.3269H328.437L320.956 20.3494ZM317.572 22.1241L308.934 26.6199H209.459L221.57 22.1241H317.572ZM309.112 28.3945H411.169L405.292 33.6002H299.316L309.112 28.3945ZM403.243 35.3749L396.475 41.2904H284.622L295.932 35.3749H403.243ZM394.427 43.065L386.679 49.8087H268.324L281.237 43.065H394.427ZM387.124 51.7017H507.884L504.945 59.5102H378.13L387.124 51.7017ZM504.233 61.2849L500.759 70.2765H365.84L376.171 61.2849H504.233ZM500.047 72.0511L496.039 82.5808H351.769L363.792 72.0511H500.047ZM495.416 84.3554L490.696 96.6597H335.739L349.81 84.3554H495.416ZM644.495 84.3554H790.101L804.172 96.6597H649.215L644.495 84.3554ZM643.872 82.5808L639.864 72.0511H776.119L788.142 82.5808H643.872ZM639.152 70.2765L635.678 61.2849H763.74L774.071 70.2765H639.152ZM635.055 59.5102L632.116 51.7017H752.876L761.781 59.5102H635.055ZM745.484 43.065H858.674L871.587 49.8087H753.232L745.484 43.065ZM743.436 41.2904L736.667 35.3749H843.979L855.289 41.2904H743.436ZM734.619 33.6002L728.742 28.3945H830.799L840.684 33.6002H734.619ZM822.339 22.1241H918.341L930.452 26.6199H830.977L822.339 22.1241ZM818.955 20.3494L811.385 16.3269H903.023L913.621 20.3494H818.955ZM808.001 14.5522L801.322 11.0029H888.863L898.214 14.5522H808.001ZM804.439 14.5522H712.89L708.882 11.0029H797.671L804.439 14.5522ZM710.485 14.5522H617.956L616.621 11.0029H706.478L710.485 14.5522ZM617.155 16.3269L618.669 20.3494H521.242L522.756 16.3269H617.155ZM521.955 14.5522H429.426L433.433 11.0029H523.29L521.955 14.5522ZM427.021 14.5522H335.472L342.151 11.0029H430.94L427.021 14.5522ZM331.91 14.5522H241.608L250.959 11.0029H338.5L331.91 14.5522ZM236.71 14.5522H147.743L159.766 11.0029H246.06L236.71 14.5522ZM231.99 16.3269L221.392 20.3494H128.062L141.687 16.3269H231.99ZM216.672 22.1241L204.561 26.6199H106.421L122.006 22.1241H216.672ZM204.739 28.3945H305.55L295.664 33.6002H190.935L204.739 28.3945ZM292.28 35.3749L280.97 41.2904H170.452L186.215 35.3749H292.28ZM277.675 43.065L264.762 49.8087H147.565L165.643 43.065H277.675ZM264.94 51.7017H384.631L375.725 59.5102H250.068L264.94 51.7017ZM373.677 61.2849L363.347 70.2765H229.496L246.684 61.2849H373.677ZM361.387 72.0511L349.365 82.5808H206.164L226.201 72.0511H361.387ZM347.317 84.3554L333.246 96.6597H179.358L202.779 84.3554H347.317ZM333.691 98.4344H490.073L484.551 112.987H317.127L333.691 98.4344ZM483.839 114.761L477.249 132.035H295.308L315.078 114.761H483.839ZM476.625 133.809L468.699 154.632H269.482L293.26 133.809H476.625ZM467.987 156.407L458.28 181.962H238.313L267.434 156.407H467.987ZM671.924 156.407H872.388L901.509 181.962H681.542L671.924 156.407ZM671.301 154.632L663.375 133.809H846.651L870.429 154.632H671.301ZM662.662 132.035L656.072 114.761H824.832L844.603 132.035H662.662ZM655.36 112.987L649.838 98.4344H806.22L822.784 112.987H655.36ZM792.594 84.3554H937.132L960.553 96.6597H806.665L792.594 84.3554ZM790.546 82.5808L778.524 72.0511H913.71L933.747 82.5808H790.546ZM776.564 70.2765L766.234 61.2849H893.227L910.415 70.2765H776.564ZM764.186 59.5102L755.28 51.7017H874.971L889.843 59.5102H764.186ZM862.236 43.065H974.179L992.257 49.8087H875.238L862.236 43.065ZM858.941 41.2904L847.631 35.3749H953.696L969.459 41.2904H858.941ZM844.247 33.6002L834.361 28.3945H935.172L948.976 33.6002H844.247ZM923.239 22.1241H1017.9L1033.49 26.6199H935.35L923.239 22.1241ZM918.519 20.3494L907.921 16.3269H998.224L1011.85 20.3494H918.519ZM903.201 14.5522L893.851 11.0029H980.145L992.168 14.5522H903.201ZM889.131 9.34653L880.937 6.27046H963.492L974 9.34653H889.131ZM884.233 9.34653H798.027L792.149 6.27046H876.039L884.233 9.34653ZM794.375 9.34653H706.923L703.45 6.27046H788.587L794.375 9.34653ZM704.518 9.34653H615.997L614.839 6.27046H701.045L704.518 9.34653ZM524.003 9.34653H435.482L438.955 6.27046H525.161L524.003 9.34653ZM432.988 9.34653H345.536L351.413 6.27046H436.55L432.988 9.34653ZM341.884 9.34653H255.678L263.872 6.27046H347.762L341.884 9.34653ZM250.78 9.34653H165.821L176.33 6.27046H258.884L250.78 9.34653ZM68.5728 11.1212H153.532L141.509 14.6705H53.9677L68.5728 11.1212ZM46.487 16.3269H135.453L121.828 20.3494H29.8336L46.487 16.3269ZM3.38411 26.6199L22.442 22.1241H115.772L100.187 26.6199H3.38411ZM100.366 28.3945H199.841L186.037 33.6002H82.6435L100.366 28.3945ZM76.4987 35.3749H181.317L165.554 41.2904H56.194L76.4987 35.3749ZM26.8948 49.927L50.1383 43.1833H160.745L142.667 49.927H26.8948ZM142.845 51.7017H261.289L246.417 59.5102H122.006L142.845 51.7017ZM117.286 61.2849H243.033L225.845 70.2765H93.2411L117.286 61.2849ZM88.5212 72.0511H222.55L202.512 82.5808H60.4687L88.5212 72.0511ZM22.9763 96.6597L55.7488 84.3554H199.128L175.707 96.6597H22.9763ZM175.974 98.4344H331.287L314.722 112.987H148.367L175.974 98.4344ZM144.982 114.761H312.674L292.904 132.035H112.032L144.982 114.761ZM108.648 133.809H290.855L267.078 154.632H69.018L108.648 133.809ZM17.0096 181.962L65.5449 156.407H264.94L235.819 181.962H17.0096ZM236.264 183.736H457.567L445.456 215.562H200.019L236.264 183.736ZM197.97 217.336H444.832L429.426 257.799H151.751L197.97 217.336ZM149.791 259.573H428.802L408.587 312.695H89.1446L149.791 259.573ZM4.63089 386.639L87.1854 314.351H407.874L380.356 386.639H4.63089ZM798.205 492.172H341.706L381.158 388.413H758.753L798.205 492.172ZM1135.28 386.639H759.555L732.037 314.469H1052.73L1135.28 386.639ZM1050.77 312.695H731.413L711.198 259.573H990.209L1050.77 312.695ZM988.16 257.799H710.485L695.079 217.336H941.94L988.16 257.799ZM939.892 215.562H694.455L682.344 183.736H903.647L939.892 215.562ZM1122.9 181.962H904.003L874.882 156.407H1074.28L1122.9 181.962ZM1070.89 154.632H872.833L849.056 133.809H1031.26L1070.89 154.632ZM1027.88 132.035H847.007L827.237 114.761H994.928L1027.88 132.035ZM991.544 112.987H825.189L808.624 98.4344H963.937L991.544 112.987ZM1116.93 96.6597H964.204L940.783 84.3554H1084.16L1116.93 96.6597ZM1079.44 82.5808H937.488L917.45 72.0511H1051.48L1079.44 82.5808ZM1046.67 70.2765H914.066L896.878 61.2849H1022.62L1046.67 70.2765ZM1017.9 59.5102H893.494L878.622 51.7017H997.066L1017.9 59.5102ZM1113.02 49.927H997.244L979.166 43.1833H1089.77L1113.02 49.927ZM1083.72 41.2904H974.446L958.683 35.3749H1063.5L1083.72 41.2904ZM1057.27 33.6002H953.874L940.07 28.3945H1039.55L1057.27 33.6002ZM1136.53 26.6199H1039.72L1024.14 22.1241H1117.47L1136.53 26.6199ZM1110.08 20.3494H1018.08L1004.46 16.3269H1093.42L1110.08 20.3494ZM1085.94 14.5522H998.313L986.29 11.0029H1071.25L1085.94 14.5522ZM1063.86 9.34653H980.234L969.726 6.27046H1051.03L1063.86 9.34653ZM1116.31 1.77466L1129.67 4.4958H1051.03L1039.72 1.77466H1116.31ZM1032.24 1.77466L1043.55 4.4958H963.67L954.408 1.77466H1032.24ZM948.263 1.77466L957.525 4.4958H876.307L869.093 1.77466H948.263ZM864.106 1.77466L871.319 4.4958H788.765L783.689 1.77466H864.106ZM780.038 1.77466L785.203 4.4958H701.401L698.284 1.77466H780.038ZM695.88 1.77466L698.997 4.4958H614.127L613.058 1.77466H695.88ZM528.367 1.77466H611.633L612.702 4.4958H527.387L528.367 1.77466ZM526.853 1.77466L525.784 4.4958H440.914L444.031 1.77466H526.853ZM441.626 1.77466L438.509 4.4958H354.708L359.873 1.77466H441.626ZM356.222 1.77466L351.057 4.4958H268.502L275.716 1.77466H356.222ZM270.907 1.77466L263.693 4.4958H182.475L191.737 1.77466H270.907ZM185.503 1.77466L176.241 4.4958H96.3581L107.668 1.77466H185.503ZM100.098 1.77466L88.7884 4.4958H10.1523L23.5107 1.77466H100.098Z"
    fill="url(#paint0_linear_2342_5833)" fill-opacity="0.25" />
  <defs>
    <linearGradient id="paint0_linear_2342_5833" x1="570" y1="0" x2="570" y2="493" gradientUnits="userSpaceOnUse">
      <stop stop-color="#2A79D6" />
      <stop offset="1" stop-color="#2A79D6" stop-opacity="0" />
    </linearGradient>
  </defs>
</svg>