<svg width="52px" height="52px" viewBox="0 0 52 52" fill="none" xmlns="http://www.w3.org/2000/svg">
  <path
    d="M25.3581 2.9995C25.1978 3.16467 25.1128 3.38571 25.1176 3.61403L25.1176 46.2625L16.6696 37.8144C16.5044 37.6444 16.2761 37.5472 16.038 37.5472C15.8 37.5472 15.5717 37.6444 15.4065 37.8144C15.0713 38.1642 15.0786 38.7204 15.4259 39.0581L25.2804 48.9125C25.3363 48.9927 25.4067 49.0631 25.4868 49.119L25.9969 49.6291L26.5095 49.1166C26.5896 49.0607 26.6576 48.9927 26.7135 48.9125L36.568 39.0581C36.7939 38.837 36.8862 38.5115 36.806 38.2031C36.7234 37.897 36.4854 37.659 36.1793 37.5764C35.8708 37.4962 35.5454 37.5885 35.3243 37.8144L26.8762 46.2625L26.8762 3.61403C26.8811 3.24968 26.6625 2.9242 26.3273 2.78817C25.9897 2.64972 25.6059 2.7323 25.3581 2.9995Z"
    fill="currentColor" />
</svg>