<svg width="135" height="28" viewBox="0 0 135 28" fill="none" xmlns="http://www.w3.org/2000/svg">
  <path
    d="M1.42877 21.7844L1.30144 22.0363L1.45131 22.2754L4.2827 26.7938L4.42965 27.0283L4.70638 27.0283L25.3524 27.0284L25.6323 27.0284L25.7786 26.7899L28.5511 22.2714L28.6967 22.0342L28.5716 21.7854L18.2486 1.24705L18.1102 0.971591L17.8019 0.971591L12.257 0.97159L11.9495 0.97159L11.8107 1.24603L1.42877 21.7844Z"
    stroke="#134692" />
  <path
    d="M16.5043 7.33969L21.9902 18.2543C21.3414 19.3106 21.1644 19.604 20.5155 20.6016L9.54363 20.6016C8.89475 19.5453 8.71779 19.2519 8.06891 18.2543L13.5549 7.33969C14.9116 7.33969 15.1476 7.33969 16.5043 7.33969Z"
    fill="url(#paint0_linear_105_794)" />
  <path d="M21.9902 18.2544L28.125 22.0099L25.3525 26.5284L20.5155 20.6603L21.9902 18.2544Z"
    fill="url(#paint1_linear_105_794)" />
  <path d="M20.5155 20.6602L9.54359 20.6602L4.70652 26.5283L25.3525 26.5283L20.5155 20.6602Z"
    fill="url(#paint2_linear_105_794)" />
  <path d="M9.5437 20.6603L8.06899 18.2544L1.87518 22.0099L4.70663 26.5284L9.5437 20.6603Z"
    fill="url(#paint3_linear_105_794)" />
  <path d="M12.2572 1.47159L13.5549 7.33968L8.06899 18.2543L1.87518 22.0099L12.2572 1.47159Z"
    fill="url(#paint4_linear_105_794)" />
  <path d="M17.802 1.47159L16.5043 7.33968L13.5548 7.33968L12.2571 1.47159L17.802 1.47159Z"
    fill="url(#paint5_linear_105_794)" />
  <path d="M21.9902 18.2543L16.5042 7.33968L17.802 1.47159L28.125 22.0099L21.9902 18.2543Z"
    fill="url(#paint6_linear_105_794)" />
  <path
    d="M38.26 17.552V10.568C38.26 8.93 39.286 8.12 41.32 8.12H49.78V10.28H42.49C42.076 10.28 41.86 10.442 41.86 10.784V17.336C41.86 17.678 42.076 17.84 42.49 17.84H46.9V14.78H44.56V12.62H50.5V20H41.32C39.286 20 38.26 19.19 38.26 17.552ZM51.8556 20L56.9856 8.12H61.4856L66.6156 20H63.0876L62.0076 17.48H56.4636L55.3836 20H51.8556ZM57.3996 15.32H61.0716L59.2356 11.09L57.3996 15.32ZM67.967 20V8.12H79.307V10.28H71.567V12.89H78.407V15.05H71.567V20H67.967ZM81.1155 20V8.12H84.7155V20H81.1155ZM91.8283 20L96.9583 8.12H101.458L106.588 20H103.06L101.98 17.48H96.4363L95.3563 20H91.8283ZM97.3723 15.32H101.044L99.2083 11.09L97.3723 15.32ZM107.94 20V8.12H116.76C118.794 8.12 119.82 8.93 119.82 10.568V13.322C119.82 14.96 118.794 15.77 116.76 15.77H111.54V20H107.94ZM111.54 13.61H115.59C116.004 13.61 116.22 13.448 116.22 13.106V10.784C116.22 10.442 116.004 10.28 115.59 10.28H111.54V13.61ZM121.985 20V8.12H130.805C132.839 8.12 133.865 8.93 133.865 10.568V13.322C133.865 14.96 132.839 15.77 130.805 15.77H125.585V20H121.985ZM125.585 13.61H129.635C130.049 13.61 130.265 13.448 130.265 13.106V10.784C130.265 10.442 130.049 10.28 129.635 10.28H125.585V13.61Z"
    fill="black" />
  <defs>
    <linearGradient id="paint0_linear_105_794" x1="9.83273" y1="19.3769" x2="19.3727" y2="12.1513"
      gradientUnits="userSpaceOnUse">
      <stop stop-color="white" />
      <stop offset="0.1671" stop-color="#F6FBFF" />
      <stop offset="0.4414" stop-color="#DDEFFF" />
      <stop offset="0.7868" stop-color="#B5DCFF" />
      <stop offset="1" stop-color="#99CFFF" />
    </linearGradient>
    <linearGradient id="paint1_linear_105_794" x1="26.9794" y1="24.4569" x2="21.4539" y2="20.1096"
      gradientUnits="userSpaceOnUse">
      <stop stop-color="#2A7AD7" />
      <stop offset="0.5066" stop-color="#4E97EA" />
      <stop offset="1" stop-color="#75B7FF" />
    </linearGradient>
    <linearGradient id="paint2_linear_105_794" x1="21.9566" y1="29.3169" x2="9.39484" y2="21.5257"
      gradientUnits="userSpaceOnUse">
      <stop stop-color="#134692" />
      <stop offset="0.5475" stop-color="#1F61B6" />
      <stop offset="1" stop-color="#2A7AD7" />
    </linearGradient>
    <linearGradient id="paint3_linear_105_794" x1="7.89662" y1="20.4727" x2="2.49444" y2="24.9727"
      gradientUnits="userSpaceOnUse">
      <stop stop-color="#D2ECFF" />
      <stop offset="1" stop-color="#2A7AD7" />
    </linearGradient>
    <linearGradient id="paint4_linear_105_794" x1="10.6193" y1="12.56" x2="6.27835" y2="11.5631"
      gradientUnits="userSpaceOnUse">
      <stop stop-color="#75B7FF" />
      <stop offset="1" stop-color="#2A7AD7" />
    </linearGradient>
    <linearGradient id="paint5_linear_105_794" x1="15.0146" y1="7.56255" x2="15.0146" y2="1.60468"
      gradientUnits="userSpaceOnUse">
      <stop stop-color="#75B7FF" />
      <stop offset="1" stop-color="#2A7AD7" />
    </linearGradient>
    <linearGradient id="paint6_linear_105_794" x1="23.6134" y1="11.4182" x2="20.1451" y2="13.2101"
      gradientUnits="userSpaceOnUse">
      <stop stop-color="#134692" />
      <stop offset="0.5475" stop-color="#1F61B6" />
      <stop offset="1" stop-color="#2A7AD7" />
    </linearGradient>
  </defs>
</svg>