<svg width="112" height="112" viewBox="0 0 112 112" fill="none" xmlns="http://www.w3.org/2000/svg">
<path d="M56 112C86.9279 112 112 86.9279 112 56C112 25.0721 86.9279 0 56 0C25.0721 0 0 25.0721 0 56C0 86.9279 25.0721 112 56 112Z" fill="#2A7AD7"/>
<path d="M52.0239 23.4639V57.1759L40.7679 79.6319H28.3359C25.6479 74.8159 26.2079 75.8239 23.4639 71.0639L52.0239 23.4639Z" fill="white"/>
<path d="M59.9756 23.4639V57.1759L71.2316 79.6319H83.6636C85.8476 75.7679 86.3516 74.8719 88.5356 71.0639L59.9756 23.4639Z" fill="white"/>
<path d="M53.9838 70.1118L46.4238 85.2318C47.3198 86.6878 47.5438 87.0798 48.4398 88.5358H63.5598C64.4558 87.0798 64.6798 86.6878 65.5758 85.2318L58.0158 70.1118C56.1678 70.1118 55.8318 70.1118 53.9838 70.1118Z" fill="white"/>
</svg>
