<svg width="24" height="24" viewBox="0 0 24 24" fill="none" xmlns="http://www.w3.org/2000/svg">
<path fill-rule="evenodd" clip-rule="evenodd" d="M3.66581 19.1835C3.05511 19.7942 2.06724 19.7938 1.45761 19.1835C0.846648 18.5732 0.847616 17.5853 1.45765 16.9753L9.48312 8.94948L8.27881 7.74517C7.82687 8.19143 7.10235 8.18611 6.65688 7.74064L5.97341 7.05747C5.5246 6.60866 5.5246 5.8785 5.97341 5.42969L10.0659 1.33687C10.5147 0.887357 11.2455 0.888061 11.6937 1.33687L12.3771 2.02034C12.8242 2.46744 12.8253 3.19333 12.3817 3.64258L16.9985 8.25941C17.4477 7.81539 18.1743 7.81685 18.6207 8.26394L19.3042 8.94741C19.753 9.39627 19.753 10.1261 19.3042 10.5749L15.2114 14.6677C14.7629 15.1169 14.0317 15.1164 13.5836 14.6677L12.9005 13.9842C12.4534 13.5371 12.4523 12.8116 12.8959 12.3623L11.6916 11.158L3.66581 19.1835ZM18.1346 8.75003C17.9591 8.57481 17.6539 8.57481 17.479 8.75003L13.3865 12.8428C13.2049 13.0244 13.2062 13.3178 13.3865 13.4981L14.0697 14.1816C14.2449 14.3568 14.5501 14.3571 14.7253 14.1816L18.8181 10.0888C18.9997 9.90717 18.9984 9.61381 18.8181 9.4335L18.1346 8.75003ZM7.14296 7.25451C7.31817 7.42972 7.62301 7.42972 7.79823 7.25451L11.891 3.16204C12.0713 2.98182 12.0727 2.68811 11.891 2.50643L11.2076 1.82296C11.032 1.64774 10.7272 1.64774 10.552 1.82296L6.45949 5.91577C6.27781 6.09746 6.27926 6.39116 6.45949 6.57139L7.14296 7.25451ZM8.77115 7.25385L8.76542 7.25957L13.3815 11.8757L16.4995 8.75743C16.4851 8.77182 16.4568 8.80014 16.5119 8.74501L11.8961 4.12919L8.77115 7.25385ZM9.96916 9.43552L1.94369 17.4613C1.60193 17.8031 1.60193 18.3556 1.94364 18.6973C2.27365 19.0273 2.84901 19.028 3.17968 18.6973L11.2055 10.6719L9.96916 9.43552Z" fill="currentColor"/>
<path fill-rule="evenodd" clip-rule="evenodd" d="M20.1296 16.7194C20.987 16.7194 21.6846 17.417 21.6846 18.2744V19.0882C22.428 19.2043 23.0002 19.8435 23.0001 20.6189V22.6563C23.0001 22.8463 22.8464 23 22.6564 23H11.0165C10.8265 23 10.6728 22.8463 10.6728 22.6563V20.6189C10.6728 19.8435 11.245 19.2043 11.9884 19.0882V18.2744C11.9884 17.417 12.6859 16.7194 13.5433 16.7194H20.1296ZM13.5433 17.407C13.0649 17.407 12.6759 17.796 12.6759 18.2744V19.064H20.9971V18.2744C20.9971 17.796 20.6081 17.407 20.1297 17.407H13.5433ZM12.2277 19.7514C11.7493 19.7514 11.3603 20.1405 11.3603 20.6189V22.3125H22.3127V20.6189C22.3127 20.1405 21.9237 19.7514 21.4453 19.7514H12.2277Z" fill="currentColor"/>
</svg>
