<svg width="24" height="24" viewBox="0 0 24 24" fill="none" xmlns="http://www.w3.org/2000/svg">
  <g id="Line/Collection-01">
    <g id="Flattened">
      <path
        d="M14.4697 10.7197C14.6103 10.579 14.8011 10.5 15 10.5C15.1989 10.5 15.3897 10.579 15.5303 10.7197C15.671 10.8603 15.75 11.0511 15.75 11.25V14.25H18.75C18.9489 14.25 19.1397 14.329 19.2803 14.4697C19.421 14.6103 19.5 14.8011 19.5 15C19.5 15.1989 19.421 15.3897 19.2803 15.5303C19.1397 15.671 18.9489 15.75 18.75 15.75H15.75V18.75C15.75 18.9489 15.671 19.1397 15.5303 19.2803C15.3897 19.421 15.1989 19.5 15 19.5C14.8011 19.5 14.6103 19.421 14.4697 19.2803C14.329 19.1397 14.25 18.9489 14.25 18.75V15.75H11.25C11.0511 15.75 10.8603 15.671 10.7197 15.5303C10.579 15.3897 10.5 15.1989 10.5 15C10.5 14.8011 10.579 14.6103 10.7197 14.4697C10.8603 14.329 11.0511 14.25 11.25 14.25H14.25V11.25C14.25 11.0511 14.329 10.8603 14.4697 10.7197Z"
        fill="currentColor" />
      <path fill-rule="evenodd" clip-rule="evenodd"
        d="M1.5 3.75C1.5 2.51648 2.51647 1.5 3.75 1.5H14.25C15.4835 1.5 16.5 2.51648 16.5 3.75V4.5H17.25C18.4835 4.5 19.5 5.51648 19.5 6.75V7.5H20.25C21.4835 7.5 22.5 8.51648 22.5 9.75V20.25C22.5 21.4835 21.4835 22.5 20.25 22.5H9.75C8.51647 22.5 7.5 21.4835 7.5 20.25V19.5H6.75C5.51647 19.5 4.5 18.4835 4.5 17.25V16.5H3.75C2.51647 16.5 1.5 15.4835 1.5 14.25V3.75ZM15 3.75C15 3.32153 14.6785 3 14.25 3H3.75C3.32153 3 3 3.32153 3 3.75V14.25C3 14.6785 3.32153 15 3.75 15H4.5V6.75C4.5 5.51648 5.51647 4.5 6.75 4.5H15V3.75ZM18 6.75C18 6.32153 17.6785 6 17.25 6H6.75C6.32153 6 6 6.32153 6 6.75V17.25C6 17.6785 6.32153 18 6.75 18H7.5V9.75C7.5 8.51648 8.51647 7.5 9.75 7.5H18V6.75ZM21 9.75C21 9.32153 20.6785 9 20.25 9H9.75C9.32153 9 9 9.32153 9 9.75V20.25C9 20.6785 9.32153 21 9.75 21H20.25C20.6785 21 21 20.6785 21 20.25V9.75Z"
        fill="currentColor" />
    </g>
  </g>
</svg>