<svg width="20" height="20" viewBox="0 0 20 20" fill="none" xmlns="http://www.w3.org/2000/svg">
  <path
    d="M6.1875 1.875C5.388 1.875 4.69516 2.33325 4.35278 3H14.0625C14.5796 3 15 3.42038 15 3.9375V13.6472C15.6668 13.3052 16.125 12.612 16.125 11.8125V3.9375C16.125 2.8005 15.1995 1.875 14.0625 1.875H6.1875ZM3.9375 4.125C2.80508 4.125 1.875 5.05509 1.875 6.1875V14.0625C1.875 15.1949 2.80508 16.125 3.9375 16.125H11.8125C12.9449 16.125 13.875 15.1949 13.875 14.0625V6.1875C13.875 5.05509 12.9449 4.125 11.8125 4.125H3.9375ZM3.9375 5.25H11.8125C12.3368 5.25 12.75 5.66317 12.75 6.1875V14.0625C12.75 14.5868 12.3368 15 11.8125 15H3.9375C3.41317 15 3 14.5868 3 14.0625V6.1875C3 5.66317 3.41317 5.25 3.9375 5.25Z"
    fill="currentColor" />
</svg>