<svg width="24" height="24" viewBox="0 0 24 24" fill="none" xmlns="http://www.w3.org/2000/svg">
<g id="Line/Edit">
<path id="Icon" d="M10.9457 4.10853H6.77106C5.10103 4.10853 4.26602 4.10853 3.62815 4.43354C3.06707 4.71943 2.61089 5.1756 2.32501 5.73668C2 6.37455 2 7.20956 2 8.87959V17.2289C2 18.899 2 19.734 2.32501 20.3718C2.61089 20.9329 3.06707 21.3891 3.62815 21.675C4.26602 22 5.10103 22 6.77106 22H15.1204C16.7904 22 17.6255 22 18.2633 21.675C18.8244 21.3891 19.2806 20.9329 19.5665 20.3718C19.8915 19.734 19.8915 18.899 19.8915 17.2289V13.0543M7.9638 16.0362H9.62824C10.1145 16.0362 10.3576 16.0362 10.5864 15.9812C10.7892 15.9326 10.9831 15.8522 11.161 15.7432C11.3616 15.6203 11.5335 15.4484 11.8773 15.1046L21.3824 5.59949C22.2059 4.77606 22.2059 3.44101 21.3824 2.61757C20.559 1.79414 19.2239 1.79414 18.4005 2.61757L8.89541 12.1227C8.55159 12.4665 8.37968 12.6384 8.25674 12.839C8.14774 13.0169 8.06742 13.2108 8.01872 13.4136C7.9638 13.6424 7.9638 13.8855 7.9638 14.3718V16.0362Z" stroke="currentColor" stroke-width="1.5" stroke-linecap="round" stroke-linejoin="round"/>
</g>
</svg>
