<svg width="638" height="228" viewBox="0 0 638 228" fill="none" xmlns="http://www.w3.org/2000/svg">
<g opacity="0.65">
<path fill-rule="evenodd" clip-rule="evenodd" d="M16.2948 -42H16.7771V-30.9107H43.7908V-42H44.2732V-30.9107H71.2868V-42H71.7692V-30.9107H98.7828V-42H99.2652V-30.9107H126.279V-42H126.761V-30.9107H153.775V-42H154.257V-30.9107H181.271V-42H181.753V-30.9107H208.767V-42H209.249V-30.9107H236.263V-42H236.745V-30.9107H263.759V-42H264.241V-30.9107H291.255V-42H291.737V-30.9107H318.751V-42H319.233V-30.9107H346.247V-42H346.729V-30.9107H373.743V-42H374.225V-30.9107H401.239V-42H401.721V-30.9107H428.735V-42H429.217V-30.9107H456.231V-42H456.714V-30.9107H483.727V-42H484.21V-30.9107H511.223V-42H511.706V-30.9107H538.719V-42H539.202V-30.9107H566.215V-42H566.698V-30.9107H593.711V-42H594.194V-30.9107H621.207V-42H621.69V-30.9107H637.608V-30.4286H621.69V-3.42857H637.608V-2.94643H621.69V24.0536H637.608V24.5357H621.69V51.5357H637.608V52.0179H621.69V79.0179H637.608V79.5H621.69V106.5H637.608V106.982H621.69V133.982H637.608V134.464H621.69V161.464H637.608V161.946H621.69V188.946H637.608V189.429H621.69V216.429H637.608V216.911H621.69V228H621.207V216.911H594.194V228H593.711V216.911H566.698V228H566.215V216.911H539.202V228H538.719V216.911H511.706V228H511.223V216.911H484.21V228H483.727V216.911H456.714V228H456.231V216.911H429.217V228H428.735V216.911H401.721V228H401.239V216.911H374.225V228H373.743V216.911H346.729V228H346.247V216.911H319.233V228H318.751V216.911H291.737V228H291.255V216.911H264.241V228H263.759V216.911H236.745V228H236.263V216.911H209.249V228H208.767V216.911H181.753V228H181.271V216.911H154.257V228H153.775V216.911H126.761V228H126.279V216.911H99.2652V228H98.7828V216.911H71.7692V228H71.2868V216.911H44.2732V228H43.7908V216.911H16.7771V228H16.2948V216.911H0.858398V216.429H16.2948V189.429H0.858398V188.946H16.2948V161.946H0.858398V161.464H16.2948V134.464H0.858398V133.982H16.2948V106.982H0.858398V106.5H16.2948V79.5H0.858398V79.0179H16.2948V52.0179H0.858398V51.5357H16.2948V24.5357H0.858398V24.0536H16.2948V-2.94643H0.858398V-3.42857H16.2948V-30.4286H0.858398V-30.9107H16.2948V-42ZM16.7771 216.429H43.7908V189.429H16.7771V216.429ZM44.2732 216.429H71.2868V189.429H44.2732V216.429ZM71.7692 216.429H98.7828V189.429H71.7692V216.429ZM99.2652 216.429H126.279V189.429H99.2652V216.429ZM126.761 216.429H153.775V189.429H126.761V216.429ZM154.257 216.429H181.271V189.429H154.257V216.429ZM181.753 216.429H208.767V189.429H181.753V216.429ZM209.249 216.429H236.263V189.429H209.249V216.429ZM236.745 216.429H263.759V189.429H236.745V216.429ZM264.241 216.429H291.255V189.429H264.241V216.429ZM291.737 216.429H318.751V189.429H291.737V216.429ZM319.233 216.429H346.247V189.429H319.233V216.429ZM346.729 216.429H373.743V189.429H346.729V216.429ZM374.225 216.429H401.239V189.429H374.225V216.429ZM401.721 216.429H428.735V189.429H401.721V216.429ZM429.217 216.429H456.231V189.429H429.217V216.429ZM456.714 216.429H483.727V189.429H456.714V216.429ZM484.21 216.429H511.223V189.429H484.21V216.429ZM511.706 216.429H538.719V189.429H511.706V216.429ZM539.202 216.429H566.215V189.429H539.202V216.429ZM566.698 216.429H593.711V189.429H566.698V216.429ZM594.194 216.429H621.207V189.429H594.194V216.429ZM621.207 161.946V188.946H594.194V161.946H621.207ZM593.711 161.946V188.946H566.698V161.946H593.711ZM566.215 161.946V188.946H539.202V161.946H566.215ZM538.719 161.946V188.946H511.706V161.946H538.719ZM511.223 161.946V188.946H484.21V161.946H511.223ZM483.727 161.946V188.946H456.714V161.946H483.727ZM456.231 161.946V188.946H429.217V161.946H456.231ZM428.735 161.946V188.946H401.721V161.946H428.735ZM401.239 161.946V188.946H374.225V161.946H401.239ZM373.743 161.946V188.946H346.729V161.946H373.743ZM346.247 161.946V188.946H319.233V161.946H346.247ZM318.751 161.946V188.946H291.737V161.946H318.751ZM291.255 161.946V188.946H264.241V161.946H291.255ZM263.759 161.946V188.946H236.745V161.946H263.759ZM236.263 161.946V188.946H209.249V161.946H236.263ZM208.767 161.946V188.946H181.753V161.946H208.767ZM181.271 161.946V188.946H154.257V161.946H181.271ZM153.775 161.946V188.946H126.761V161.946H153.775ZM126.279 161.946V188.946H99.2652V161.946H126.279ZM98.7828 161.946V188.946H71.7692V161.946H98.7828ZM71.2868 161.946V188.946H44.2732V161.946H71.2868ZM43.7908 161.946V188.946H16.7771V161.946H43.7908ZM16.7771 161.464H43.7908V134.464H16.7771V161.464ZM44.2732 161.464H71.2868V134.464H44.2732V161.464ZM71.7692 161.464H98.7828V134.464H71.7692V161.464ZM99.2652 161.464H126.279V134.464H99.2652V161.464ZM126.761 161.464H153.775V134.464H126.761V161.464ZM154.257 161.464H181.271V134.464H154.257V161.464ZM181.753 161.464H208.767V134.464H181.753V161.464ZM209.249 161.464H236.263V134.464H209.249V161.464ZM236.745 161.464H263.759V134.464H236.745V161.464ZM264.241 161.464H291.255V134.464H264.241V161.464ZM291.737 161.464H318.751V134.464H291.737V161.464ZM319.233 161.464H346.247V134.464H319.233V161.464ZM346.729 161.464H373.743V134.464H346.729V161.464ZM374.225 161.464H401.239V134.464H374.225V161.464ZM401.721 161.464H428.735V134.464H401.721V161.464ZM429.217 161.464H456.231V134.464H429.217V161.464ZM456.714 161.464H483.727V134.464H456.714V161.464ZM484.21 161.464H511.223V134.464H484.21V161.464ZM511.706 161.464H538.719V134.464H511.706V161.464ZM539.202 161.464H566.215V134.464H539.202V161.464ZM566.698 161.464H593.711V134.464H566.698V161.464ZM594.194 161.464H621.207V134.464H594.194V161.464ZM621.207 106.982V133.982H594.194V106.982H621.207ZM593.711 106.982V133.982H566.698V106.982H593.711ZM566.215 106.982V133.982H539.202V106.982H566.215ZM538.719 106.982V133.982H511.706V106.982H538.719ZM511.223 106.982V133.982H484.21V106.982H511.223ZM483.727 106.982V133.982H456.714V106.982H483.727ZM456.231 106.982V133.982H429.217V106.982H456.231ZM428.735 106.982V133.982H401.721V106.982H428.735ZM401.239 106.982V133.982H374.225V106.982H401.239ZM373.743 106.982V133.982H346.729V106.982H373.743ZM346.247 106.982V133.982H319.233V106.982H346.247ZM318.751 106.982V133.982H291.737V106.982H318.751ZM291.255 106.982V133.982H264.241V106.982H291.255ZM263.759 106.982V133.982H236.745V106.982H263.759ZM236.263 106.982V133.982H209.249V106.982H236.263ZM208.767 106.982V133.982H181.753V106.982H208.767ZM181.271 106.982V133.982H154.257V106.982H181.271ZM153.775 106.982V133.982H126.761V106.982H153.775ZM126.279 106.982V133.982H99.2652V106.982H126.279ZM98.7828 106.982V133.982H71.7692V106.982H98.7828ZM71.2868 106.982V133.982H44.2732V106.982H71.2868ZM43.7908 106.982V133.982H16.7771V106.982H43.7908ZM16.7771 106.5H43.7908V79.5H16.7771V106.5ZM44.2732 106.5H71.2868V79.5H44.2732V106.5ZM71.7692 106.5H98.7828V79.5H71.7692V106.5ZM99.2652 106.5H126.279V79.5H99.2652V106.5ZM126.761 106.5H153.775V79.5H126.761V106.5ZM154.257 106.5H181.271V79.5H154.257V106.5ZM181.753 106.5H208.767V79.5H181.753V106.5ZM209.249 106.5H236.263V79.5H209.249V106.5ZM236.745 106.5H263.759V79.5H236.745V106.5ZM264.241 106.5H291.255V79.5H264.241V106.5ZM291.737 106.5H318.751V79.5H291.737V106.5ZM319.233 106.5H346.247V79.5H319.233V106.5ZM346.729 106.5H373.743V79.5H346.729V106.5ZM374.225 106.5H401.239V79.5H374.225V106.5ZM401.721 106.5H428.735V79.5H401.721V106.5ZM429.217 106.5H456.231V79.5H429.217V106.5ZM456.714 106.5H483.727V79.5H456.714V106.5ZM484.21 106.5H511.223V79.5H484.21V106.5ZM511.706 106.5H538.719V79.5H511.706V106.5ZM539.202 106.5H566.215V79.5H539.202V106.5ZM566.698 106.5H593.711V79.5H566.698V106.5ZM594.194 106.5H621.207V79.5H594.194V106.5ZM621.207 52.0179V79.0179H594.194V52.0179H621.207ZM593.711 52.0179V79.0179H566.698V52.0179H593.711ZM566.215 52.0179V79.0179H539.202V52.0179H566.215ZM538.719 52.0179V79.0179H511.706V52.0179H538.719ZM511.223 52.0179V79.0179H484.21V52.0179H511.223ZM483.727 52.0179V79.0179H456.714V52.0179H483.727ZM456.231 52.0179V79.0179H429.217V52.0179H456.231ZM428.735 52.0179V79.0179H401.721V52.0179H428.735ZM401.239 52.0179V79.0179H374.225V52.0179H401.239ZM373.743 52.0179V79.0179H346.729V52.0179H373.743ZM346.247 52.0179V79.0179H319.233V52.0179H346.247ZM318.751 52.0179V79.0179H291.737V52.0179H318.751ZM291.255 52.0179V79.0179H264.241V52.0179H291.255ZM263.759 52.0179V79.0179H236.745V52.0179H263.759ZM236.263 52.0179V79.0179H209.249V52.0179H236.263ZM208.767 52.0179V79.0179H181.753V52.0179H208.767ZM181.271 52.0179V79.0179H154.257V52.0179H181.271ZM153.775 52.0179V79.0179H126.761V52.0179H153.775ZM126.279 52.0179V79.0179H99.2652V52.0179H126.279ZM98.7828 52.0179V79.0179H71.7692V52.0179H98.7828ZM71.2868 52.0179V79.0179H44.2732V52.0179H71.2868ZM43.7908 52.0179V79.0179H16.7771V52.0179H43.7908ZM16.7771 51.5357H43.7908V24.5357H16.7771V51.5357ZM44.2732 51.5357H71.2868V24.5357H44.2732V51.5357ZM71.7692 51.5357H98.7828V24.5357H71.7692V51.5357ZM99.2652 51.5357H126.279V24.5357H99.2652V51.5357ZM126.761 51.5357H153.775V24.5357H126.761V51.5357ZM154.257 51.5357H181.271V24.5357H154.257V51.5357ZM181.753 51.5357H208.767V24.5357H181.753V51.5357ZM209.249 51.5357H236.263V24.5357H209.249V51.5357ZM236.745 51.5357H263.759V24.5357H236.745V51.5357ZM264.241 51.5357H291.255V24.5357H264.241V51.5357ZM291.737 51.5357H318.751V24.5357H291.737V51.5357ZM319.233 51.5357H346.247V24.5357H319.233V51.5357ZM346.729 51.5357H373.743V24.5357H346.729V51.5357ZM374.225 51.5357H401.239V24.5357H374.225V51.5357ZM401.721 51.5357H428.735V24.5357H401.721V51.5357ZM429.217 51.5357H456.231V24.5357H429.217V51.5357ZM456.714 51.5357H483.727V24.5357H456.714V51.5357ZM484.21 51.5357H511.223V24.5357H484.21V51.5357ZM511.706 51.5357H538.719V24.5357H511.706V51.5357ZM539.202 51.5357H566.215V24.5357H539.202V51.5357ZM566.698 51.5357H593.711V24.5357H566.698V51.5357ZM594.194 51.5357H621.207V24.5357H594.194V51.5357ZM621.207 -2.94643V24.0536H594.194V-2.94643H621.207ZM593.711 -2.94643V24.0536H566.698V-2.94643H593.711ZM566.215 -2.94643V24.0536H539.202V-2.94643H566.215ZM538.719 -2.94643V24.0536H511.706V-2.94643H538.719ZM511.223 -2.94643V24.0536H484.21V-2.94643H511.223ZM483.727 -2.94643V24.0536H456.714V-2.94643H483.727ZM456.231 -2.94643V24.0536H429.217V-2.94643H456.231ZM428.735 -2.94643V24.0536H401.721V-2.94643H428.735ZM401.239 -2.94643V24.0536H374.225V-2.94643H401.239ZM373.743 -2.94643V24.0536H346.729V-2.94643H373.743ZM346.247 -2.94643V24.0536H319.233V-2.94643H346.247ZM318.751 -2.94643V24.0536H291.737V-2.94643H318.751ZM291.255 -2.94643V24.0536H264.241V-2.94643H291.255ZM263.759 -2.94643V24.0536H236.745V-2.94643H263.759ZM236.263 -2.94643V24.0536H209.249V-2.94643H236.263ZM208.767 -2.94643V24.0536H181.753V-2.94643H208.767ZM181.271 -2.94643V24.0536H154.257V-2.94643H181.271ZM153.775 -2.94643V24.0536H126.761V-2.94643H153.775ZM126.279 -2.94643V24.0536H99.2652V-2.94643H126.279ZM98.7828 -2.94643V24.0536H71.7692V-2.94643H98.7828ZM71.2868 -2.94643V24.0536H44.2732V-2.94643H71.2868ZM43.7908 -2.94643V24.0536H16.7771V-2.94643H43.7908ZM16.7771 -3.42857H43.7908V-30.4286H16.7771V-3.42857ZM44.2732 -3.42857H71.2868V-30.4286H44.2732V-3.42857ZM71.7692 -3.42857H98.7828V-30.4286H71.7692V-3.42857ZM99.2652 -3.42857H126.279V-30.4286H99.2652V-3.42857ZM126.761 -3.42857H153.775V-30.4286H126.761V-3.42857ZM154.257 -3.42857H181.271V-30.4286H154.257V-3.42857ZM181.753 -3.42857H208.767V-30.4286H181.753V-3.42857ZM209.249 -3.42857H236.263V-30.4286H209.249V-3.42857ZM236.745 -3.42857H263.759V-30.4286H236.745V-3.42857ZM264.241 -3.42857H291.255V-30.4286H264.241V-3.42857ZM291.737 -3.42857H318.751V-30.4286H291.737V-3.42857ZM319.233 -3.42857H346.247V-30.4286H319.233V-3.42857ZM346.729 -3.42857H373.743V-30.4286H346.729V-3.42857ZM374.225 -3.42857H401.239V-30.4286H374.225V-3.42857ZM401.721 -3.42857H428.735V-30.4286H401.721V-3.42857ZM429.217 -3.42857H456.231V-30.4286H429.217V-3.42857ZM456.714 -3.42857H483.727V-30.4286H456.714V-3.42857ZM484.21 -3.42857H511.223V-30.4286H484.21V-3.42857ZM511.706 -3.42857H538.719V-30.4286H511.706V-3.42857ZM539.202 -3.42857H566.215V-30.4286H539.202V-3.42857ZM566.698 -3.42857H593.711V-30.4286H566.698V-3.42857ZM594.194 -3.42857H621.207V-30.4286H594.194V-3.42857Z" fill="url(#paint0_radial_1734_14492)" fill-opacity="0.2"/>
<g opacity="0.65">
<rect width="27.5625" height="27.5625" transform="matrix(1 0 0 -1 126.859 189.188)" fill="white" fill-opacity="0.03"/>
<rect width="27.5625" height="27.5625" transform="matrix(1 0 0 -1 483.484 189.188)" fill="white" fill-opacity="0.03"/>
<rect width="27.5625" height="27.5625" transform="matrix(1 0 0 -1 208.984 216.75)" fill="white" fill-opacity="0.08"/>
<rect width="27.5625" height="27.5625" transform="matrix(1 0 0 -1 346.234 189.188)" fill="white" fill-opacity="0.08"/>
<rect width="27.5625" height="11.25" transform="matrix(1 0 0 -1 428.921 228)" fill="white" fill-opacity="0.1"/>
<rect width="28.125" height="27.5625" transform="matrix(1 0 0 -1 538.609 216.75)" fill="white" fill-opacity="0.01"/>
<rect width="27.5625" height="27.5625" transform="matrix(1 0 0 -1 99.2964 216.75)" fill="white" fill-opacity="0.01"/>
<rect width="27.5625" height="11.25" transform="matrix(1 0 0 -1 291.672 228)" fill="white" fill-opacity="0.15"/>
</g>
</g>
<defs>
<radialGradient id="paint0_radial_1734_14492" cx="0" cy="0" r="1" gradientUnits="userSpaceOnUse" gradientTransform="translate(319.233 228) rotate(-90) scale(270 463.977)">
<stop stop-color="white"/>
<stop offset="0.634388" stop-color="white" stop-opacity="0.15"/>
<stop offset="1" stop-color="white" stop-opacity="0"/>
</radialGradient>
</defs>
</svg>
