<svg width="24" height="24" viewBox="0 0 24 24" fill="none" xmlns="http://www.w3.org/2000/svg">
<path fill-rule="evenodd" clip-rule="evenodd" d="M12 2C6.47715 2 2 6.47715 2 12C2 17.5228 6.47715 22 12 22C17.5228 22 22 17.5228 22 12C22 6.47715 17.5228 2 12 2ZM3.85697 9.69231C3.64949 10.4259 3.53846 11.2 3.53846 12C3.53846 12.8 3.64949 13.5741 3.85697 14.3077H7.25265C7.17104 13.5653 7.12821 12.7923 7.12821 12C7.12821 11.2077 7.17105 10.4347 7.25265 9.69231H3.85697ZM4.46109 8.15385H7.48508C7.7018 7.04024 8.01112 6.02669 8.39612 5.16045C8.56296 4.78505 8.74668 4.43133 8.94709 4.10596C7.00111 4.85905 5.40317 6.31096 4.46109 8.15385ZM8.80113 9.69231C8.71381 10.4243 8.66667 11.1979 8.66667 12C8.66667 12.8021 8.71381 13.5757 8.80113 14.3077H15.1989C15.2862 13.5757 15.3333 12.8021 15.3333 12C15.3333 11.1979 15.2862 10.4243 15.1989 9.69231H8.80113ZM14.9447 8.15385H9.05531C9.24662 7.26213 9.50112 6.46221 9.80198 5.78527C10.1471 5.00881 10.5381 4.42807 10.9334 4.05186C11.3247 3.67942 11.6838 3.53846 12 3.53846C12.3162 3.53846 12.6753 3.67942 13.0666 4.05186C13.4619 4.42807 13.8529 5.00881 14.198 5.78527C14.4989 6.46221 14.7534 7.26213 14.9447 8.15385ZM16.7474 9.69231C16.829 10.4347 16.8718 11.2077 16.8718 12C16.8718 12.7923 16.829 13.5653 16.7474 14.3077H20.143C20.3505 13.5741 20.4615 12.8 20.4615 12C20.4615 11.2 20.3505 10.4259 20.143 9.69231H16.7474ZM19.5389 8.15385H16.5149C16.2982 7.04024 15.9889 6.02669 15.6039 5.16045C15.437 4.78505 15.2533 4.43133 15.0529 4.10596C16.9989 4.85905 18.5968 6.31096 19.5389 8.15385ZM8.94709 19.894C7.00112 19.141 5.40317 17.689 4.46109 15.8462H7.48508C7.7018 16.9598 8.01112 17.9733 8.39612 18.8396C8.56296 19.2149 8.74668 19.5687 8.94709 19.894ZM9.80198 18.2147C9.50112 17.5378 9.24662 16.7379 9.05531 15.8462H14.9447C14.7534 16.7379 14.4989 17.5378 14.198 18.2147C13.8529 18.9912 13.4619 19.5719 13.0666 19.9481C12.6753 20.3206 12.3162 20.4615 12 20.4615C11.6838 20.4615 11.3247 20.3206 10.9334 19.9481C10.5381 19.5719 10.1471 18.9912 9.80198 18.2147ZM15.6039 18.8396C15.9889 17.9733 16.2982 16.9598 16.5149 15.8462H19.5389C18.5968 17.689 16.9989 19.141 15.0529 19.894C15.2533 19.5687 15.437 19.2149 15.6039 18.8396Z" fill="currentColor"/>
</svg>
