<svg width="24" height="24" viewBox="0 0 24 24" fill="none" xmlns="http://www.w3.org/2000/svg">
<path d="M4.5 12C4.5 12.8262 5.17383 13.5 6 13.5C6.82617 13.5 7.5 12.8262 7.5 12C7.5 11.1738 6.82617 10.5 6 10.5C5.17383 10.5 4.5 11.1738 4.5 12ZM10.5 12C10.5 12.8262 11.1738 13.5 12 13.5C12.8262 13.5 13.5 12.8262 13.5 12C13.5 11.1738 12.8262 10.5 12 10.5C11.1738 10.5 10.5 11.1738 10.5 12ZM16.5 12C16.5 12.8262 17.1738 13.5 18 13.5C18.8262 13.5 19.5 12.8262 19.5 12C19.5 11.1738 18.8262 10.5 18 10.5C17.1738 10.5 16.5 11.1738 16.5 12Z" fill="currentColor"/>
</svg>
