<svg width="24" height="24" viewBox="0 0 24 24" fill="none" xmlns="http://www.w3.org/2000/svg">
<path d="M12 2C8.73207 2 5.82557 3.57458 4 6.00586V4.75C4.00144 4.64962 3.98271 4.54997 3.94493 4.45695C3.90715 4.36394 3.85108 4.27946 3.78004 4.20852C3.70901 4.13757 3.62446 4.08161 3.5314 4.04395C3.43834 4.00629 3.33866 3.98769 3.23828 3.98926C3.03954 3.99236 2.85016 4.07423 2.71173 4.21686C2.5733 4.3595 2.49715 4.55125 2.5 4.75V7.75C2.50002 7.94891 2.57904 8.13966 2.71969 8.28031C2.86034 8.42096 3.05109 8.49998 3.25 8.5H6.25C6.34938 8.50141 6.44806 8.48304 6.54028 8.44598C6.63251 8.40892 6.71645 8.3539 6.78723 8.28412C6.858 8.21434 6.91421 8.13118 6.95257 8.03949C6.99093 7.9478 7.01068 7.84939 7.01068 7.75C7.01068 7.65061 6.99093 7.5522 6.95257 7.46051C6.91421 7.36882 6.858 7.28566 6.78723 7.21588C6.71645 7.1461 6.63251 7.09108 6.54028 7.05402C6.44806 7.01696 6.34938 6.99859 6.25 7H5.125C6.66954 4.8791 9.16959 3.5 12 3.5C16.6217 3.5 20.3678 7.16783 20.4971 11.7559C20.4972 11.8561 20.5174 11.9552 20.5565 12.0475C20.5955 12.1397 20.6527 12.2232 20.7246 12.293C20.7964 12.3628 20.8816 12.4175 20.9749 12.4539C21.0683 12.4902 21.168 12.5075 21.2681 12.5047C21.3683 12.5019 21.4669 12.4791 21.5581 12.4376C21.6492 12.396 21.7312 12.3366 21.799 12.2629C21.8669 12.1892 21.9193 12.1026 21.9531 12.0083C21.987 11.914 22.0016 11.8139 21.9961 11.7139C21.8444 6.32989 17.4183 2 12 2ZM11.7383 5.48926C11.5395 5.49236 11.3502 5.57423 11.2117 5.71686C11.0733 5.8595 10.9971 6.05125 11 6.25V6.82617C9.6039 7.01917 8.5 8.17879 8.5 9.625C8.5 11.2039 9.79609 12.5 11.375 12.5H12.375C13.281 12.5 14 13.219 14 14.125C14 15.031 13.281 15.75 12.375 15.75H11.25C10.6611 15.75 10.1795 15.3517 10.04 14.8164C10.0175 14.7187 9.97554 14.6266 9.91675 14.5454C9.85795 14.4642 9.78348 14.3956 9.69773 14.3437C9.61197 14.2918 9.51668 14.2576 9.41749 14.2431C9.31829 14.2286 9.2172 14.2342 9.12019 14.2594C9.02318 14.2847 8.93222 14.3292 8.85268 14.3902C8.77314 14.4512 8.70664 14.5275 8.65711 14.6147C8.60758 14.7018 8.57602 14.798 8.5643 14.8976C8.55258 14.9972 8.56093 15.0981 8.58887 15.1943C8.87621 16.2975 9.84318 17.0989 11 17.208V17.75C10.9986 17.8494 11.017 17.9481 11.054 18.0403C11.0911 18.1325 11.1461 18.2164 11.2159 18.2872C11.2857 18.358 11.3688 18.4142 11.4605 18.4526C11.5522 18.4909 11.6506 18.5107 11.75 18.5107C11.8494 18.5107 11.9478 18.4909 12.0395 18.4526C12.1312 18.4142 12.2143 18.358 12.2841 18.2872C12.3539 18.2164 12.4089 18.1325 12.446 18.0403C12.483 17.9481 12.5014 17.8494 12.5 17.75V17.2246C14.1565 17.1546 15.5 15.7977 15.5 14.125C15.5 12.408 14.092 11 12.375 11H11.375C10.6069 11 10 10.3931 10 9.625C10 8.85691 10.6069 8.25 11.375 8.25H11.627C11.7075 8.26323 11.7896 8.26323 11.8701 8.25H12.25C12.8346 8.25 13.3139 8.64339 13.457 9.17285C13.4827 9.26796 13.5269 9.35708 13.5871 9.43511C13.6472 9.51315 13.7221 9.57857 13.8075 9.62764C13.893 9.67672 13.9872 9.70848 14.0849 9.72112C14.1826 9.73376 14.2819 9.72703 14.377 9.70132C14.4721 9.6756 14.5612 9.6314 14.6392 9.57124C14.7172 9.51109 14.7827 9.43615 14.8317 9.35071C14.8808 9.26527 14.9125 9.17101 14.9251 9.0733C14.9378 8.97559 14.931 8.87635 14.9053 8.78125C14.6103 7.68983 13.6485 6.90017 12.5 6.79199V6.25C12.5014 6.14962 12.4827 6.04997 12.4449 5.95695C12.4071 5.86394 12.3511 5.77946 12.28 5.70852C12.209 5.63757 12.1245 5.58161 12.0314 5.54395C11.9383 5.50629 11.8387 5.48769 11.7383 5.48926ZM2.7207 11.5049C2.52208 11.5135 2.33502 11.6007 2.20061 11.7472C2.06621 11.8936 1.99546 12.0875 2.00391 12.2861C2.15562 17.6701 6.58169 22 12 22C15.2679 22 18.1744 20.4254 20 17.9941V19.25C19.9986 19.3494 20.017 19.4481 20.054 19.5403C20.0911 19.6325 20.1461 19.7164 20.2159 19.7872C20.2857 19.858 20.3688 19.9142 20.4605 19.9526C20.5522 19.9909 20.6506 20.0107 20.75 20.0107C20.8494 20.0107 20.9478 19.9909 21.0395 19.9526C21.1312 19.9142 21.2143 19.858 21.2841 19.7872C21.3539 19.7164 21.4089 19.6325 21.446 19.5403C21.483 19.4481 21.5014 19.3494 21.5 19.25V16.25C21.5 16.0511 21.421 15.8603 21.2803 15.7197C21.1397 15.579 20.9489 15.5 20.75 15.5H17.75C17.6506 15.4986 17.5519 15.517 17.4597 15.554C17.3675 15.5911 17.2836 15.6461 17.2128 15.7159C17.142 15.7857 17.0858 15.8688 17.0474 15.9605C17.0091 16.0522 16.9893 16.1506 16.9893 16.25C16.9893 16.3494 17.0091 16.4478 17.0474 16.5395C17.0858 16.6312 17.142 16.7143 17.2128 16.7841C17.2836 16.8539 17.3675 16.9089 17.4597 16.946C17.5519 16.983 17.6506 17.0014 17.75 17H18.875C17.3305 19.1209 14.8304 20.5 12 20.5C7.37831 20.5 3.63221 16.8322 3.50293 12.2441C3.50157 12.1438 3.48009 12.0447 3.43976 11.9528C3.39943 11.8609 3.34106 11.7781 3.26812 11.7091C3.19518 11.6402 3.10915 11.5866 3.01512 11.5515C2.92109 11.5164 2.82097 11.5006 2.7207 11.5049Z" fill="currentColor"/>
</svg>
