<svg width="24" height="24" viewBox="0 0 24 24" fill="none" xmlns="http://www.w3.org/2000/svg">
  <g id="Line/NFTs">
    <g id="Flattened">
      <path fill-rule="evenodd" clip-rule="evenodd"
        d="M11.3983 9.12378C11.3983 10.571 10.2206 11.7488 8.77332 11.7488C7.32605 11.7488 6.14832 10.571 6.14832 9.12378C6.14832 7.67651 7.32605 6.49878 8.77332 6.49878C10.2206 6.49878 11.3983 7.67651 11.3983 9.12378ZM9.89832 9.12378C9.89832 8.50342 9.39368 7.99878 8.77332 7.99878C8.15295 7.99878 7.64832 8.50342 7.64832 9.12378C7.64832 9.74414 8.15295 10.2488 8.77332 10.2488C9.39368 10.2488 9.89832 9.74414 9.89832 9.12378Z"
        fill="currentColor" />
      <path fill-rule="evenodd" clip-rule="evenodd"
        d="M4.33337 18.6775C3.13074 17.9832 2.38367 16.689 2.38367 15.3003V8.69971C2.38367 7.31104 3.13074 6.01685 4.33337 5.32251L10.0492 2.02222C11.2518 1.32788 12.746 1.32788 13.9493 2.02222L19.6652 5.32251C20.8682 6.01685 21.6152 7.31104 21.6152 8.69971V15.3003C21.6152 16.689 20.8682 17.9832 19.6652 18.6775L13.9493 21.9778C13.348 22.325 12.6738 22.4985 11.9993 22.4985C11.3251 22.4985 10.6509 22.325 10.0492 21.9778L4.33337 18.6775ZM5.08337 6.62183C4.34326 7.04883 3.88367 7.84497 3.88367 8.69971V15.3003C3.88367 16.155 4.34326 16.9512 5.08337 17.3782L7.5152 18.7823C9.68481 13.5282 14.4996 9.74524 20.1152 8.89453V8.69971C20.1152 7.84497 19.6553 7.04883 18.9152 6.62183L13.1993 3.32153C12.8295 3.10767 12.4146 3.00073 11.9993 3.00073C11.5844 3.00073 11.1694 3.10767 10.7992 3.32153L5.08337 6.62183ZM8.82848 19.5406L10.7992 20.6785C11.5404 21.1069 12.4603 21.1069 13.1993 20.6785L18.9152 17.3782C19.6553 16.9512 20.1152 16.155 20.1152 15.3003V10.4092C15.0482 11.2574 10.7323 14.7442 8.82848 19.5406Z"
        fill="currentColor" />
    </g>
  </g>
</svg>