<svg xmlns="http://www.w3.org/2000/svg" width="24" height="24" viewBox="0 0 24 24" fill="none">
  <path d="M13.4686 2C15.0129 2 16.4871 2.30993 17.8312 2.86349C17.9891 2.92827 18.1217 3.04243 18.2093 3.18888C18.2968 3.33532 18.3345 3.50617 18.3168 3.67586C18.2991 3.84554 18.2269 4.00492 18.111 4.13014C17.9951 4.25536 17.8418 4.33968 17.6739 4.37048C15.1136 4.84373 12.7609 5.90478 10.7572 7.40604L21.3107 17.957C22.2298 18.8751 22.2298 20.388 21.3107 21.3061C20.8515 21.7659 20.2409 22 19.6357 22C19.0306 22 18.4199 21.7659 17.9608 21.3061L7.40732 10.7551C5.90569 12.7584 4.8444 15.1106 4.37103 17.6702C4.34023 17.838 4.25589 17.9913 4.13064 18.1072C4.00539 18.2231 3.84597 18.2953 3.67625 18.313C3.50653 18.3307 3.33564 18.293 3.18916 18.2054C3.04268 18.1179 2.92849 17.9853 2.86369 17.8275C2.31 16.4837 2 15.0098 2 13.4659C2 11.1264 2.7048 8.94929 3.91246 7.13364L2.91304 6.13446L2.91202 6.13343C2.40471 5.62642 2.40519 4.77952 2.91202 4.27282L4.27233 2.91283L4.27336 2.9118C4.52675 2.6584 4.86564 2.53149 5.20388 2.53146C5.54257 2.53142 5.88082 2.65828 6.1344 2.9118L7.13484 3.91201C8.95093 2.70463 11.1285 2 13.4686 2ZM13.4686 3.57895C7.99764 3.57895 3.57932 7.99623 3.57932 13.4659C3.57932 13.779 3.64108 14.0744 3.6698 14.3797C5.51025 9.43014 9.43189 5.50942 14.3826 3.66941C14.0773 3.64069 13.7818 3.57895 13.4686 3.57895ZM5.20388 4.21423L4.21475 5.20313L4.89131 5.87952C5.20091 5.53005 5.53088 5.20016 5.88044 4.89063L5.20388 4.21423ZM9.53981 8.42167C9.15004 8.77615 8.77774 9.14836 8.42318 9.53803L19.0774 20.1898H19.0784C19.2352 20.3468 19.4323 20.4211 19.6357 20.4211C19.8392 20.4211 20.0362 20.3468 20.193 20.1898H20.194C20.5089 19.8752 20.5089 19.3879 20.194 19.0734L9.53981 8.42167Z" fill="currentColor"/>
  <defs>
    <linearGradient id="PickAxeDefaultColor" x1="2" y1="2" x2="22" y2="22" gradientUnits="userSpaceOnUse">
    <stop stop-color="#FFC966"/>
    <stop offset="1" stop-color="#FF9000"/>
    </linearGradient>
</defs>
</svg>