<svg width="16" height="16" viewBox="0 0 16 16" fill="none" xmlns="http://www.w3.org/2000/svg">
  <path
    d="M9.58386 1.33331C10.6134 1.33331 11.5962 1.53993 12.4923 1.90897C12.5975 1.95216 12.686 2.02827 12.7443 2.1259C12.8027 2.22353 12.8278 2.33743 12.816 2.45055C12.8042 2.56367 12.7561 2.66992 12.6788 2.7534C12.6016 2.83688 12.4993 2.8931 12.3874 2.91363C10.6806 3.22913 9.1121 3.9365 7.77628 4.93734L14.8119 11.9713C15.4247 12.5834 15.4247 13.592 14.8119 14.2041C14.5058 14.5106 14.0987 14.6666 13.6953 14.6666C13.2919 14.6666 12.8848 14.5106 12.5787 14.2041L5.54303 7.17007C4.54195 8.50557 3.83442 10.0737 3.51884 11.7801C3.4983 11.892 3.44207 11.9942 3.35857 12.0715C3.27507 12.1487 3.1688 12.1968 3.05565 12.2086C2.9425 12.2204 2.82857 12.1953 2.73092 12.1369C2.63327 12.0786 2.55714 11.9902 2.51394 11.885C2.14482 10.9891 1.93815 10.0065 1.93815 8.97723C1.93815 7.41757 2.40802 5.96617 3.21312 4.75574L2.54685 4.08962L2.54616 4.08893C2.20796 3.75092 2.20828 3.18633 2.54616 2.84853L3.45304 1.94187L3.45372 1.94118C3.62265 1.77225 3.84858 1.68764 4.07407 1.68762C4.29986 1.68759 4.52536 1.77217 4.69442 1.94118L5.36138 2.60798C6.5721 1.80307 8.02384 1.33331 9.58386 1.33331ZM9.58386 2.38594C5.93658 2.38594 2.99103 5.3308 2.99103 8.97723C2.99103 9.18598 3.0322 9.38294 3.05135 9.58647C4.27832 6.28674 6.89274 3.67293 10.1932 2.44625C9.98967 2.42711 9.79267 2.38594 9.58386 2.38594ZM4.07407 2.80946L3.41465 3.46873L3.86569 3.91966C4.07209 3.68668 4.29207 3.46675 4.52511 3.2604L4.07407 2.80946ZM6.96469 5.61443C6.70484 5.85074 6.45665 6.09888 6.22027 6.35867L13.3231 13.4598H13.3238C13.4283 13.5645 13.5597 13.614 13.6953 13.614C13.8309 13.614 13.9623 13.5645 14.0668 13.4598H14.0675C14.2774 13.2501 14.2774 12.9253 14.0675 12.7156L6.96469 5.61443Z"
    fill="currentColor" />
</svg>