<svg width="24" height="24" viewBox="0 0 24 24" fill="none" xmlns="http://www.w3.org/2000/svg">
  <g id="Line/Pools">
    <g id="Icons">
      <path fill-rule="evenodd" clip-rule="evenodd"
        d="M20.7959 16.5898C21.2786 16.2403 21.8794 15.8053 23 15.8053V17.1327C22.2872 17.1327 21.9727 17.3605 21.5373 17.6757C21.0546 18.0252 20.4538 18.4602 19.3332 18.4602C18.2126 18.4602 17.6118 18.0252 17.1291 17.6757C16.6937 17.3605 16.3792 17.1327 15.6664 17.1327C14.9536 17.1327 14.6391 17.3604 14.2037 17.6757C13.721 18.0252 13.1202 18.4602 11.9997 18.4602C10.8793 18.4602 10.2785 18.0253 9.79584 17.6758C9.36053 17.3605 9.0459 17.1327 8.33318 17.1327C7.62041 17.1327 7.30588 17.3604 6.87061 17.6757C6.38792 18.0252 5.78704 18.4602 4.66657 18.4602C3.54604 18.4602 2.9453 18.0252 2.46264 17.6758C2.02732 17.3605 1.71272 17.1327 1 17.1327V15.8053C2.12047 15.8053 2.72121 16.2402 3.2039 16.5897C3.63922 16.9049 3.95384 17.1327 4.66657 17.1327C5.37929 17.1327 5.69382 16.905 6.12914 16.5898C6.5098 16.3142 6.96411 15.9856 7.68864 15.8589V2H8.97771V4.25664H15.0218V2H16.3109V15.8588C17.0355 15.9855 17.4898 16.3142 17.8705 16.5898C18.3058 16.905 18.6204 17.1327 19.3332 17.1327C20.046 17.1327 20.3605 16.905 20.7959 16.5898ZM13.4623 16.5898C13.843 16.3142 14.2973 15.9856 15.0218 15.8589V13.5487H8.97766V15.8588C9.70216 15.9856 10.1565 16.3142 10.5371 16.5898C10.9724 16.905 11.287 17.1327 11.9997 17.1327C12.7125 17.1327 13.027 16.905 13.4623 16.5898ZM15.0218 5.58407H8.97771V8.23894H15.0218V5.58407ZM8.97771 12.2212H15.0219V9.56637H8.97771V12.2212Z"
        fill="currentColor" />
      <path
        d="M20.7959 20.1296C21.2786 19.7801 21.8794 19.3451 23 19.3451V20.6726C22.2872 20.6726 21.9727 20.9003 21.5373 21.2155C21.0546 21.565 20.4538 22 19.3332 22C18.2126 22 17.6118 21.5651 17.1291 21.2156C16.6937 20.9003 16.3792 20.6726 15.6664 20.6726C14.9536 20.6726 14.6391 20.9003 14.2037 21.2155C13.721 21.565 13.1202 22 11.9997 22C10.8793 22 10.2785 21.5651 9.79584 21.2156C9.36053 20.9004 9.0459 20.6726 8.33318 20.6726C7.62041 20.6726 7.30588 20.9003 6.87061 21.2155C6.38792 21.565 5.78704 22 4.66657 22C3.54604 22 2.9453 21.565 2.46264 21.2156C2.02732 20.9003 1.71272 20.6726 1 20.6726V19.3451C2.12047 19.3451 2.72121 19.7801 3.2039 20.1295C3.63922 20.4448 3.95384 20.6726 4.66657 20.6726C5.37929 20.6726 5.69382 20.4449 6.12914 20.1296C6.61182 19.7802 7.2127 19.3451 8.33318 19.3451C9.45366 19.3451 10.0544 19.7801 10.5371 20.1296C10.9724 20.4448 11.287 20.6726 11.9997 20.6726C12.7125 20.6726 13.027 20.4449 13.4623 20.1296C13.945 19.7801 14.5459 19.3451 15.6664 19.3451C16.787 19.3451 17.3878 19.7801 17.8705 20.1296C18.3058 20.4448 18.6204 20.6726 19.3332 20.6726C20.046 20.6726 20.3605 20.4448 20.7959 20.1296Z"
        fill="currentColor" />
    </g>
  </g>
</svg>