<svg width="24" height="24" viewBox="0 0 24 24" fill="none" xmlns="http://www.w3.org/2000/svg">
  <g id="Line/Select">
    <path id="Icon"
      d="M19.1176 10.65V7.32C19.1176 5.80786 19.1176 5.05179 18.8291 4.47423C18.5754 3.96619 18.1704 3.55314 17.6723 3.29428C17.1061 3 16.3648 3 14.8824 3H9.2353C7.7528 3 6.01156 3 5.44532 3.29428C4.94724 3.55314 4.54229 3.96619 4.28851 4.47423C4 5.05179 4 5.80786 4 7.32V16.68C4 18.1921 4 18.9482 4.28851 19.5258C4.54229 20.0338 4.94724 20.4469 5.44532 20.7057C6.01156 21 7.7528 21 9.2353 21H12.0588M17.3529 20.1V14.7M14.7059 17.4H20"
      stroke="currentColor" stroke-width="1.5" stroke-linecap="round" stroke-linejoin="round" />
  </g>
</svg>