<svg width="16" height="16" viewBox="0 0 16 16" fill="none" xmlns="http://www.w3.org/2000/svg">
<g clip-path="url(#clip0_508_1857)">
<path d="M8.00016 10C9.10473 10 10.0002 9.10461 10.0002 8.00004C10.0002 6.89547 9.10473 6.00004 8.00016 6.00004C6.89559 6.00004 6.00016 6.89547 6.00016 8.00004C6.00016 9.10461 6.89559 10 8.00016 10Z" stroke="#2A7AD7" stroke-width="1.5" stroke-linecap="round" stroke-linejoin="round"/>
<path d="M12.485 9.81822C12.4043 10.001 12.3803 10.2038 12.4159 10.4004C12.4516 10.597 12.5453 10.7784 12.685 10.9213L12.7214 10.9576C12.8341 11.0702 12.9235 11.2039 12.9845 11.351C13.0455 11.4982 13.0769 11.6559 13.0769 11.8152C13.0769 11.9745 13.0455 12.1322 12.9845 12.2794C12.9235 12.4265 12.8341 12.5602 12.7214 12.6728C12.6088 12.7855 12.4751 12.8749 12.328 12.9359C12.1808 12.9969 12.0231 13.0283 11.8638 13.0283C11.7045 13.0283 11.5468 12.9969 11.3996 12.9359C11.2525 12.8749 11.1188 12.7855 11.0062 12.6728L10.9699 12.6364C10.827 12.4967 10.6456 12.403 10.449 12.3673C10.2524 12.3317 10.0496 12.3557 9.86683 12.4364C9.68758 12.5132 9.5347 12.6408 9.42702 12.8034C9.31933 12.966 9.26155 13.1565 9.26077 13.3516V13.4546C9.26077 13.7761 9.13306 14.0844 8.90575 14.3117C8.67843 14.539 8.37012 14.6667 8.04865 14.6667C7.72717 14.6667 7.41887 14.539 7.19155 14.3117C6.96423 14.0844 6.83653 13.7761 6.83653 13.4546V13.4C6.83183 13.1994 6.7669 13.0049 6.65017 12.8417C6.53344 12.6785 6.37031 12.5542 6.18198 12.4849C5.99918 12.4042 5.79641 12.3801 5.59981 12.4158C5.4032 12.4514 5.22179 12.5452 5.07895 12.6849L5.04259 12.7213C4.93001 12.834 4.79633 12.9234 4.64918 12.9844C4.50203 13.0454 4.3443 13.0768 4.18501 13.0768C4.02572 13.0768 3.86799 13.0454 3.72084 12.9844C3.57369 12.9234 3.44001 12.834 3.32744 12.7213C3.21474 12.6087 3.12533 12.475 3.06433 12.3278C3.00333 12.1807 2.97194 12.023 2.97194 11.8637C2.97194 11.7044 3.00333 11.5467 3.06433 11.3995C3.12533 11.2524 3.21474 11.1187 3.32744 11.0061L3.3638 10.9697C3.50352 10.8269 3.59725 10.6455 3.63289 10.4489C3.66854 10.2523 3.64448 10.0495 3.5638 9.86671C3.48697 9.68745 3.35941 9.53458 3.19681 9.42689C3.03421 9.31921 2.84367 9.26142 2.64865 9.26065H2.54562C2.22414 9.26065 1.91584 9.13294 1.68852 8.90562C1.4612 8.67831 1.3335 8.37 1.3335 8.04853C1.3335 7.72705 1.4612 7.41874 1.68852 7.19143C1.91584 6.96411 2.22414 6.8364 2.54562 6.8364H2.60016C2.80077 6.83171 2.99532 6.76678 3.15853 6.65005C3.32173 6.53332 3.44605 6.37018 3.51531 6.18186C3.59599 5.99906 3.62006 5.79629 3.58441 5.59968C3.54876 5.40308 3.45503 5.22166 3.31531 5.07883L3.27895 5.04247C3.16625 4.92989 3.07685 4.79621 3.01585 4.64906C2.95485 4.50191 2.92345 4.34418 2.92345 4.18489C2.92345 4.0256 2.95485 3.86787 3.01585 3.72072C3.07685 3.57357 3.16625 3.43989 3.27895 3.32731C3.39152 3.21461 3.52521 3.12521 3.67236 3.06421C3.81951 3.00321 3.97723 2.97181 4.13653 2.97181C4.29582 2.97181 4.45355 3.00321 4.6007 3.06421C4.74785 3.12521 4.88153 3.21461 4.9941 3.32731L5.03047 3.36368C5.1733 3.5034 5.35472 3.59712 5.55132 3.63277C5.74792 3.66842 5.9507 3.64435 6.1335 3.56368H6.18198C6.36124 3.48685 6.51411 3.35929 6.6218 3.19669C6.72948 3.03409 6.78726 2.84355 6.78804 2.64853V2.5455C6.78804 2.22402 6.91575 1.91571 7.14306 1.6884C7.37038 1.46108 7.67869 1.33337 8.00016 1.33337C8.32164 1.33337 8.62995 1.46108 8.85726 1.6884C9.08458 1.91571 9.21228 2.22402 9.21228 2.5455V2.60004C9.21306 2.79506 9.27085 2.9856 9.37853 3.1482C9.48621 3.3108 9.63909 3.43837 9.81835 3.51519C10.0011 3.59587 10.2039 3.61993 10.4005 3.58429C10.5971 3.54864 10.7785 3.45491 10.9214 3.31519L10.9577 3.27883C11.0703 3.16613 11.204 3.07673 11.3511 3.01573C11.4983 2.95473 11.656 2.92333 11.8153 2.92333C11.9746 2.92333 12.1323 2.95473 12.2795 3.01573C12.4266 3.07673 12.5603 3.16613 12.6729 3.27883C12.7856 3.3914 12.875 3.52509 12.936 3.67223C12.997 3.81938 13.0284 3.97711 13.0284 4.1364C13.0284 4.2957 12.997 4.45343 12.936 4.60057C12.875 4.74772 12.7856 4.88141 12.6729 4.99398L12.6365 5.03034C12.4968 5.17318 12.4031 5.3546 12.3674 5.5512C12.3318 5.7478 12.3559 5.95058 12.4365 6.13337V6.18186C12.5134 6.36111 12.6409 6.51399 12.8035 6.62167C12.9661 6.72936 13.1567 6.78714 13.3517 6.78792H13.4547C13.7762 6.78792 14.0845 6.91563 14.3118 7.14294C14.5391 7.37026 14.6668 7.67857 14.6668 8.00004C14.6668 8.32152 14.5391 8.62982 14.3118 8.85714C14.0845 9.08446 13.7762 9.21216 13.4547 9.21216H13.4002C13.2051 9.21294 13.0146 9.27073 12.852 9.37841C12.6894 9.48609 12.5618 9.63897 12.485 9.81822Z" stroke="#2A7AD7" stroke-width="1.5" stroke-linecap="round" stroke-linejoin="round"/>
</g>
<defs>
<clipPath id="clip0_508_1857">
<rect width="16" height="16" fill="white"/>
</clipPath>
</defs>
</svg>
