<svg width="24" height="24" viewBox="0 0 24 24" fill="none" xmlns="http://www.w3.org/2000/svg">
<path d="M20.5 9.16668L20.5 3.50001M20.5 3.50001H14.8333M20.5 3.50001L12 12M10.1111 3.5H8.03333C6.44652 3.5 5.65311 3.5 5.04703 3.80881C4.5139 4.08046 4.08046 4.5139 3.80881 5.04703C3.5 5.65311 3.5 6.44652 3.5 8.03333V15.9667C3.5 17.5535 3.5 18.3469 3.80881 18.953C4.08046 19.4861 4.5139 19.9195 5.04703 20.1912C5.65311 20.5 6.44652 20.5 8.03333 20.5H15.9667C17.5535 20.5 18.3469 20.5 18.953 20.1912C19.4861 19.9195 19.9195 19.4861 20.1912 18.953C20.5 18.3469 20.5 17.5535 20.5 15.9667V13.8889" stroke="currentColor" stroke-width="1.5" stroke-linecap="round" stroke-linejoin="round"/>
</svg>
