<svg id="Layer_1" data-name="Layer 1" xmlns="http://www.w3.org/2000/svg" viewBox="0 0 1500 245"><defs><style>.cls-1{fill:#2a7ad7;}</style></defs><path class="cls-1" d="M472.68,81.09h30.93l35.27,81.67H514.63l-7.43-17.33H469.09l-7.43,17.33H437.41Zm28.09,49.5-12.63-29.08-12.62,29.08Z"/><path class="cls-1" d="M552.49,81.09h78V95.94H577.23v17.94h47v14.85h-47v34H552.49Z"/><path class="cls-1" d="M644.05,81.09h24.74v81.67H644.05Z"/><path class="cls-1" d="M730,81.09h26.61l35.26,49v-49h24.75v81.67h-26.6l-35.27-49v49H730Z"/><path class="cls-1" d="M835.85,81.09H915V95.94H860.6v16.7h48.25v14.85H860.6v20.42H915v14.85H835.85Z"/><path class="cls-1" d="M928.29,81.09h91.57V95.94H986.45v66.82H961.7V95.94H928.29Z"/><path class="cls-1" d="M1056.43,81.09l16.21,57.54,19-57.54h26l19,57.54,16.21-57.54h24.13l-22.89,81.67h-31.55l-18-54.08-17.94,54.08h-31.55L1032.3,81.09Z"/><path class="cls-1" d="M1395.56,80.91h24.75v31.55l32.79-31.55h30.32l-35,33.78,36.25,47.88h-27.72L1432.31,130l-12,11.63v20.91h-24.75Z"/><path class="cls-1" d="M1255.69,81.09h-48.88l-15.47,15.47v66.2h69.91l15.47-15.47V81.09ZM1252,144.44c0,2.35-1.49,3.47-4.34,3.47h-27.22c-2.84,0-4.33-1.12-4.33-3.47v-45c0-2.35,1.49-3.46,4.33-3.46h27.22c2.85,0,4.34,1.11,4.34,3.46Z"/><path class="cls-1" d="M385.44,112v14.85h16.08v21H371.21c-2.85,0-4.34-1.12-4.34-3.46v-45c0-2.35,1.49-3.46,4.34-3.46h50.11V81.09H357.6L342.13,96.56v66.2H410.8l15.47-15.47V112Z"/><path class="cls-1" d="M1360.87,131.82h16.71V81.09h-66.2l-15.47,15.47v66.2h24.75V131.82h13.48l20.42,30.94h26.73Zm-8-18.31c0,2.35-1.48,3.46-4.33,3.46h-27.84v-21h27.84c2.85,0,4.33,1.11,4.33,3.46Z"/><path class="cls-1" d="M122.89-.58v127L80.57,211H33.67L15.35,178.66Z"/><path class="cls-1" d="M152.81-.58v127L195.13,211H242l18.33-32.36Z"/><path class="cls-1" d="M130.2,175.08l-28.49,57,7.65,12.37h57L174,232.05l-28.49-57Z"/></svg>