<svg width="339" height="220" viewBox="0 0 339 220" fill="none" xmlns="http://www.w3.org/2000/svg">
<g clip-path="url(#clip0_1810_8996)">
<path d="M338 7.86V212C338 215.15 336.18 217.87 333.54 219.17C332.47 219.71 331.27 220 330 220H8C6.08 220 4.31 219.33 2.93 218.19C1.14 216.72 0 214.5 0 212V8C0 3.58 3.58 0 8 0H330.12C334.44 0.06 337.92 3.54 338 7.86Z" fill="#EFF7FE"/>
<path d="M282.5 220H35.69C16.44 185.94 11.57 148.81 18.75 135.26C20.11 132.68 24.16 125.03 31.01 123.85C38.95 122.49 46.38 130.56 48.49 132.86C53.77 138.61 52.87 141.4 56.83 146.93C62.52 154.88 67.46 153.48 88.66 164.11C98.3 168.94 103.48 171.53 110.31 176.49C117.79 181.92 119.17 184.3 125.7 187.76C131.34 190.73 131.82 189.75 145.01 194.23C160.08 199.36 160.96 201.15 165.88 200.42C171.64 199.57 173.59 196.64 179.96 197.04C185.64 197.4 185.66 199.81 190.14 200.14C198.43 200.72 201.67 192.67 215.18 186.34C221.11 183.57 220.57 185.08 226.66 182.4C229.79 181.03 244.57 174.54 255.1 159.04C261.77 149.21 263.47 140.56 271.01 138.78C273.47 138.2 274.55 138.81 277.01 137.65C282.66 134.97 281.88 129.33 287.18 122.46C289.01 120.09 293.97 116.94 303.88 110.63C309.98 106.75 311.65 106.04 313.79 106.13C313.79 106.13 320.21 106.38 325.79 115.13C332.69 125.96 318.54 176.7 282.5 220Z" fill="#D2ECFF"/>
<path d="M141.1 220H42.45C17.69 186.86 9.17 151.53 7.79 145.47C2.12 120.64 -0.27 85.8601 5.83 84.0201C8.83 83.1101 13.56 90.2101 17.96 96.8001C26.36 109.37 23.6 113.03 31.66 123.6C34.76 127.67 37.8 130.59 40.27 136.81C42.23 141.72 41.29 142.33 43.01 146.71C46.71 156.12 54.29 161.53 56.7 163.21C62.23 167.05 64.02 166.14 70.01 170.63C74.5 174 74.51 175.27 78.23 178.47C88.17 187.05 94.73 183.91 105.62 192.49C110.29 196.18 108.41 196.22 113.83 200.74C123.17 208.51 128.67 208.3 136.14 214.35C138.67 216.41 140.11 218.28 141.1 220Z" fill="#99CFFF"/>
<path d="M338 136.06C336.57 160.14 330.06 191.93 314.05 220H177.65C179.04 218.46 180.81 216.76 183.88 214.76C192.29 209.3 194.45 212.05 205.79 206.1C214.59 201.48 213.86 199.53 221.83 196.2C227.97 193.65 230.42 193.97 238.27 191.26C238.27 191.26 245.65 188.68 253.14 184.66C272.95 174.03 276.51 149.05 300.49 124.45C304.03 120.81 308.09 117.11 309.1 116.2C323.19 103.38 330.23 96.99 332.96 98.05C335.3 98.97 337.26 105.7 338 116.12C338.4 121.78 338.45 128.54 338 136.06Z" fill="#99CFFF"/>
<path d="M104.5 220H8C6.08 220 4.31 219.33 2.93 218.19C1.14 216.72 0 214.5 0 212V39.01C4.03 45.72 7.14 53.2 8.57 60.47C11.42 74.95 5.81 79.43 10.14 98.03C13.66 113.17 18.28 114.07 25.01 134.81C32.42 157.67 27.67 159.25 33.62 166.9C44.57 181.01 59.86 174.59 77.44 191.95C83.75 198.17 82.05 199.27 89.96 207.6C95.25 213.17 100.21 217.1 104.5 220Z" fill="#75B7FF"/>
<path d="M338 74.6399V212C338 215.15 336.18 217.87 333.54 219.17C332.47 219.71 331.27 220 330 220H206.83C211.64 215.16 219.88 210.54 227.7 209.16C235.86 207.73 239.03 210.62 251.18 209.16C260 208.1 266.63 207.31 272.31 202.9C283.19 194.47 277.08 183.3 288.75 169.25C296.53 159.87 301.1 162.61 305.96 153.6C310.68 144.86 307.7 139.85 313.79 130.12C317.98 123.42 320.33 124.28 323.18 118.38C327.24 109.98 324.35 104.35 325.53 96.4699C326.79 87.9899 332.37 79.4699 338 74.6399Z" fill="#75B7FF"/>
<path d="M64.38 220H8C6.08 220 4.31 219.33 2.93 218.19C1.14 216.72 0 214.5 0 212V139.88C3.56 145.88 6.44 154.16 7.79 159.47C10.67 170.72 9.48 179.41 16.79 186.86C19.83 189.96 23.35 191.82 25.79 193.12C34.09 197.52 38.39 196.49 45.36 200.95C47.91 202.58 49.8 204.51 53.57 208.38C58.41 213.33 62.06 217.08 64.38 220Z" fill="#2A7AD7"/>
<path d="M338 133.1V212C338 215.15 336.18 217.87 333.54 219.17C332.47 219.71 331.27 220 330 220H292.28C293.23 218.98 294.15 217.85 295.01 216.6C296.71 214.12 298.36 209.86 301.66 201.34C307.33 186.7 306.43 185.06 309.88 180.99C315.79 174.02 320.53 176.35 325.14 169.64C329.16 163.79 327.02 159.87 329.44 150.86C331.07 144.77 334.5 137.45 338 133.1Z" fill="#2A7AD7"/>
<path d="M99.36 79.83C100.978 79.83 102.29 78.5182 102.29 76.9C102.29 75.2818 100.978 73.97 99.36 73.97C97.7418 73.97 96.43 75.2818 96.43 76.9C96.43 78.5182 97.7418 79.83 99.36 79.83Z" fill="#D2ECFF"/>
<path d="M86.52 51.41C90.6235 51.41 93.95 48.0835 93.95 43.98C93.95 39.8766 90.6235 36.55 86.52 36.55C82.4165 36.55 79.09 39.8766 79.09 43.98C79.09 48.0835 82.4165 51.41 86.52 51.41Z" fill="#D2ECFF"/>
<path d="M109.59 29.26C111.517 29.26 113.08 27.6975 113.08 25.77C113.08 23.8426 111.517 22.28 109.59 22.28C107.663 22.28 106.1 23.8426 106.1 25.77C106.1 27.6975 107.663 29.26 109.59 29.26Z" fill="#D2ECFF"/>
<path d="M107.85 0C107.85 3.78 104.79 6.84 101.01 6.84C97.23 6.84 94.17 3.78 94.17 0H107.85Z" fill="#D2ECFF"/>
<path d="M41.9 108.43C41.52 110.22 38.82 112.68 35.92 113.83C32.08 115.35 29.76 115.91 27.52 117.75C25.28 119.59 21.34 125.08 18.87 127.36C15.76 130.24 10.08 135.03 5.43 136.59C4.54 141.52 4.03 146.08 3.81 150.21C3.87 150.47 3.79 150.58 3.83 150.99C3.83 151.07 3.85 151.17 3.87 151.28C5.62 150.76 7.46 149.53 7.83 148.57C8.09 147.89 6.86 143.61 8.2 140.5C8.5 139.81 8.92 139.17 9.51 138.64C12.79 135.76 18.95 129.84 21.52 127.28C24.08 124.71 29.76 118.86 31.2 120.07C32.64 121.27 31.36 122.95 29.6 124.23C27.84 125.52 17.26 135.6 14.71 137.84C12.15 140.08 9.91 143.45 11.35 145.13C11.43 145.23 11.52 145.29 11.61 145.32C13.08 145.81 15.37 138.08 17.03 139.36C17.26 139.54 17.38 139.79 17.44 140.09C17.79 142.2 14.42 147.07 12.15 149.21C10.24 151 6.79 152.8 4.5 153.92C4.74 155.22 5.03 156.74 5.36 158.4C5.38 158.39 5.41 158.39 5.43 158.39C6.61 158.24 8.29 157.8 10.15 156.57C13.67 154.25 16.22 148.47 18.31 145.37C20.24 142.51 22.53 139.75 24.55 139.78C24.96 139.78 25.37 139.9 25.76 140.16C26.57 140.72 23.69 141.85 21.44 145.45C20.54 146.88 17.19 157.38 12.23 159.62C9.04 161.06 7.49 161.74 6.12 162.12C6.61 164.45 7.15 166.86 7.71 169.1C7.73 169.09 7.74 169.08 7.76 169.07C9.15 168.43 10.68 167.56 11.35 166.58C12.71 164.58 14.63 162.34 16.07 163.62C16.4 163.91 16.68 164.22 16.92 164.54C17.74 165.65 17.98 166.94 17.18 168.18C16.38 169.43 12.95 173 9.37 174.82C10.04 176.74 10.86 177.97 11.33 178.59C12.47 180.09 7.6 181.84 3.25 182.17C2.09 182.26 0.96 182.24 0 182.09V142.28C0.02 142.15 0.04 142.02 0.07 141.89C0.75 137.97 1.57 134.28 2.54 131.12C3.7 127.36 4.81 123.71 5.93 120.22C1.4 117.8 1.98 106.22 3.06 103.18C4.13 100.14 6.47 91.4101 5.11 91.0901C2.65 90.4401 1.07 88.6101 0 86.7301V73.2601C1.59 75.8201 2.01 84.0801 2.54 85.0101C2.77 85.4101 3.16 85.5901 3.56 85.5601C4.3 85.5001 5.11 84.7201 5.11 83.1701C5.11 80.7701 -0.18 72.8401 2.14 72.0401C4.46 71.2401 5.43 75.0801 7.59 80.5101C9.16 84.4501 9.97 91.3901 9.25 96.4301C8.98 98.3401 8.49 99.9701 7.75 101.07C4 106.56 8.14 112.66 8.35 112.95C8.36 112.96 8.36 112.97 8.36 112.97C9.9 108.61 11.51 104.61 13.28 101.07C9.13 98.9501 11.35 91.2501 11.99 87.5701C12.4 85.2001 14.18 79.6901 16.25 76.6001C17.39 74.9001 18.62 73.9201 19.75 74.6001C22.96 76.5201 17.03 85.8101 15.51 89.8101C14.16 93.3801 16.1 94.9701 16.54 95.2801C16.59 95.3201 16.63 95.3401 16.63 95.3401L16.59 95.4101C17.46 94.1301 18.38 92.9501 19.35 91.8901C26.72 83.8901 26.4 78.7701 29.28 79.5701C31.74 80.2501 25.21 87.3601 24.45 89.6201C24.32 90.0001 24.36 90.2501 24.64 90.2901C26.56 90.6101 29.6 81.8101 31.84 82.4501C34.08 83.0901 30.08 90.2901 25.92 92.0501C23.36 93.1401 18.94 97.0101 14.42 106.68C15.39 106.99 17.52 106.94 22.16 104.3C21.58 103.8 21.32 102.52 21.47 101.07C21.69 99.0801 22.72 96.7801 24.89 95.7401C25.17 95.6201 25.45 95.5001 25.76 95.4201C30.32 94.1401 22.88 100.78 23.68 101.58C23.85 101.75 24.04 101.82 24.25 101.8C25.01 101.71 26.05 100.37 27.68 98.0601C29.76 95.1001 34.16 90.7701 36.56 92.2101C36.89 92.4101 36.98 92.7501 36.91 93.2001C36.92 93.3501 36.86 93.5201 36.78 93.7001C36.67 94.0001 36.5 94.3401 36.29 94.7001C34.33 98.0701 28.43 103.6 26.48 104.78C23.93 106.32 18.79 109.86 12.48 111.2C10.41 116.41 8.39 122.94 6.56 131.06C6.61 131.06 9.67 131.03 10.82 130.4C10.8 130.39 10.79 130.37 10.77 130.36C9.53 129.61 9.94 126.34 11.75 123.55C13.13 121.43 15.85 116.55 17.93 114.56C18.64 113.89 19.27 113.55 19.75 113.75C21.68 114.55 15.27 124.15 13.99 125.52C12.71 126.88 13.83 127.92 15.27 127.28C16.71 126.64 22.05 116.91 24.34 113.69C26.64 110.47 31.36 104.3 34.48 103.66C34.6 103.64 34.71 103.62 34.82 103.61C37.63 103.19 37.94 105.15 36.16 106.46C34.32 107.82 28 112.31 27.76 113.51C27.53 114.63 28.44 114.97 30.13 114.16C30.25 114.1 30.36 114.06 30.48 113.99C32.4 112.95 39.61 105.42 41.45 106.94C41.9 107.32 42.03 107.84 41.9 108.43Z" fill="#2A7AD7"/>
<path d="M296.1 135.86C296.48 137.65 299.18 140.11 302.08 141.26C305.92 142.78 308.24 143.34 310.48 145.18C312.72 147.02 316.66 152.51 319.13 154.79C322.24 157.67 327.92 162.46 332.57 164.02C333.46 168.95 333.97 173.51 334.19 177.64C334.13 177.9 334.21 178.01 334.17 178.42C334.17 178.5 334.15 178.6 334.13 178.71C332.38 178.19 330.54 176.96 330.17 176C329.91 175.32 331.14 171.04 329.8 167.93C329.5 167.24 329.08 166.6 328.49 166.07C325.21 163.19 319.05 157.27 316.48 154.71C313.92 152.14 308.24 146.29 306.8 147.5C305.36 148.7 306.64 150.38 308.4 151.66C310.16 152.95 320.74 163.03 323.29 165.27C325.85 167.51 328.09 170.88 326.65 172.56C326.57 172.66 326.48 172.72 326.39 172.75C324.92 173.24 322.63 165.51 320.97 166.79C320.74 166.97 320.62 167.22 320.56 167.52C320.21 169.63 323.58 174.5 325.85 176.64C327.76 178.43 331.21 180.23 333.5 181.35C333.26 182.65 332.97 184.17 332.64 185.83C332.62 185.82 332.59 185.82 332.57 185.82C331.39 185.67 329.71 185.23 327.85 184C324.33 181.68 321.78 175.9 319.69 172.8C317.76 169.94 315.47 167.18 313.45 167.21C313.04 167.21 312.63 167.33 312.24 167.59C311.43 168.15 314.31 169.28 316.56 172.88C317.46 174.31 320.81 184.81 325.77 187.05C328.96 188.49 330.51 189.17 331.88 189.55C331.39 191.88 330.85 194.29 330.29 196.53C330.27 196.52 330.26 196.51 330.24 196.5C328.85 195.86 327.32 194.99 326.65 194.01C325.29 192.01 323.37 189.77 321.93 191.05C321.6 191.34 321.32 191.65 321.08 191.97C320.26 193.08 320.02 194.37 320.82 195.61C321.62 196.86 325.05 200.43 328.63 202.25C327.96 204.17 327.14 205.4 326.67 206.02C325.53 207.52 330.4 209.27 334.75 209.6C335.91 209.69 337.04 209.67 338 209.52V169.71C337.98 169.58 337.96 169.45 337.93 169.32C337.25 165.4 336.43 161.71 335.46 158.55C334.3 154.79 333.19 151.14 332.07 147.65C336.6 145.23 336.02 133.65 334.94 130.61C333.87 127.57 331.53 118.84 332.89 118.52C335.35 117.87 336.93 116.04 338 114.16V100.69C336.41 103.25 335.99 111.51 335.46 112.44C335.23 112.84 334.84 113.02 334.44 112.99C333.7 112.93 332.89 112.15 332.89 110.6C332.89 108.2 338.18 100.27 335.86 99.47C333.54 98.67 332.57 102.51 330.41 107.94C328.84 111.88 328.03 118.82 328.75 123.86C329.02 125.77 329.51 127.4 330.25 128.5C334 133.99 329.86 140.09 329.65 140.38C329.64 140.39 329.64 140.4 329.64 140.4C328.1 136.04 326.49 132.04 324.72 128.5C328.87 126.38 326.65 118.68 326.01 115C325.6 112.63 323.82 107.12 321.75 104.03C320.61 102.33 319.38 101.35 318.25 102.03C315.04 103.95 320.97 113.24 322.49 117.24C323.84 120.81 321.9 122.4 321.46 122.71C321.41 122.75 321.37 122.77 321.37 122.77L321.41 122.84C320.54 121.56 319.62 120.38 318.65 119.32C311.28 111.32 311.6 106.2 308.72 107C306.26 107.68 312.79 114.79 313.55 117.05C313.68 117.43 313.64 117.68 313.36 117.72C311.44 118.04 308.4 109.24 306.16 109.88C303.92 110.52 307.92 117.72 312.08 119.48C314.64 120.57 319.06 124.44 323.58 134.11C322.61 134.42 320.48 134.37 315.84 131.73C316.42 131.23 316.68 129.95 316.53 128.5C316.31 126.51 315.28 124.21 313.11 123.17C312.83 123.05 312.55 122.93 312.24 122.85C307.68 121.57 315.12 128.21 314.32 129.01C314.15 129.18 313.96 129.25 313.75 129.23C312.99 129.14 311.95 127.8 310.32 125.49C308.24 122.53 303.84 118.2 301.44 119.64C301.11 119.84 301.02 120.18 301.09 120.63C301.08 120.78 301.14 120.95 301.22 121.13C301.33 121.43 301.5 121.77 301.71 122.13C303.67 125.5 309.57 131.03 311.52 132.21C314.07 133.75 319.21 137.29 325.52 138.63C327.59 143.84 329.61 150.37 331.44 158.49C331.39 158.49 328.33 158.46 327.18 157.83C327.2 157.82 327.21 157.8 327.23 157.79C328.47 157.04 328.06 153.77 326.25 150.98C324.87 148.86 322.15 143.98 320.07 141.99C319.36 141.32 318.73 140.98 318.25 141.18C316.32 141.98 322.73 151.58 324.01 152.95C325.29 154.31 324.17 155.35 322.73 154.71C321.29 154.07 315.95 144.34 313.66 141.12C311.36 137.9 306.64 131.73 303.52 131.09C303.4 131.07 303.29 131.05 303.18 131.04C300.37 130.62 300.06 132.58 301.84 133.89C303.68 135.25 310 139.74 310.24 140.94C310.47 142.06 309.56 142.4 307.87 141.59C307.75 141.53 307.64 141.49 307.52 141.42C305.6 140.38 298.39 132.85 296.55 134.37C296.1 134.75 295.97 135.27 296.1 135.86Z" fill="#2A7AD7"/>
<path d="M138.05 58.41C138.71 58.47 139.3 58.89 139.47 59.48C140.43 62.73 141.88 64.8 143.74 66.16C143.89 66.27 144.5 66.69 144.41 67.09C144.37 67.25 144.24 67.34 143.78 67.7C143.41 67.98 143.13 68.2 142.98 68.32C144.67 68.95 146.31 69.62 147.86 70.23C149.89 71.03 152.65 72.14 153.35 72.21C153.81 72.21 154.77 71.48 155.62 70.82C156.97 69.77 158.67 68.47 161.11 67.65C161.96 67.38 162.9 67.53 163.57 68.05C164.25 68.55 164.54 69.35 164.32 70.11L162.72 75.88L164.32 81.63C164.54 82.39 164.27 83.14 163.62 83.67C163.16 84.03 162.58 84.24 161.98 84.24C161.74 84.24 161.49 84.2 161.25 84.14C158.69 83.45 157.19 82.1 156 81.03C154.74 79.92 154.26 79.54 153.34 79.54C152.4 79.54 150.63 80.19 148.77 80.88C148.26 81.07 147.73 81.26 147.18 81.45C147.89 81.75 148.49 81.88 148.91 81.95C149.39 82.03 149.7 82.02 149.89 82.23C149.97 82.31 150.11 82.52 149.88 83.32C149.64 84.14 149.41 84.92 148.66 85.27C148.32 85.43 147.97 85.45 147.47 85.42C144.73 85.24 140.4 83.45 140.38 83.45H140.37C140.36 83.45 140.36 83.45 140.35 83.45H140.34C138.87 83.76 137.25 83.99 135.54 84.12L137.28 85.54C137.28 85.54 136.86 86.62 136.52 87.87C136.25 88.86 134.89 89.28 133.92 88.69C131.88 87.44 131.07 85.56 130.53 84.19C118.64 83.75 112.14 79.49 111.29 76.39C111.12 75.76 111.29 75.09 111.75 74.59C112.06 74.25 118.59 67.37 129.65 66.18C131.74 64.1 133.26 59.85 137.39 58.53C137.61 58.42 137.83 58.4 138.05 58.41ZM120.88 73.47C120.76 73.47 120.64 73.47 120.52 73.51C120.52 73.51 120.52 73.49 120.5 73.51C119.99 73.59 119.56 73.87 119.29 74.24C119.12 74.47 119.03 74.77 119.03 75.08C119.03 75.96 119.85 76.69 120.89 76.69C121.91 76.69 122.75 75.96 122.75 75.08C122.74 74.18 121.9 73.47 120.88 73.47Z" fill="#75B7FF"/>
<path d="M162.43 101.1C162.84 101.14 163.21 101.4 163.32 101.77C163.92 103.8 164.83 105.1 165.99 105.94C166.09 106.01 166.47 106.27 166.41 106.52C166.39 106.62 166.3 106.68 166.01 106.9C165.78 107.08 165.61 107.21 165.51 107.29C166.57 107.68 167.59 108.1 168.56 108.48C169.83 108.98 171.55 109.67 171.99 109.71C172.28 109.71 172.88 109.25 173.41 108.84C174.26 108.18 175.31 107.37 176.84 106.86C177.37 106.69 177.96 106.78 178.38 107.11C178.8 107.42 178.98 107.92 178.85 108.39L177.85 111.99L178.85 115.58C178.99 116.05 178.82 116.52 178.41 116.85C178.12 117.07 177.76 117.2 177.38 117.2C177.23 117.2 177.08 117.18 176.93 117.14C175.33 116.71 174.39 115.87 173.65 115.2C172.86 114.51 172.56 114.27 171.99 114.27C171.4 114.27 170.3 114.68 169.14 115.11C168.82 115.23 168.49 115.35 168.15 115.46C168.59 115.65 168.97 115.73 169.23 115.77C169.53 115.82 169.72 115.81 169.84 115.95C169.89 116 169.98 116.13 169.83 116.63C169.68 117.14 169.54 117.63 169.07 117.85C168.86 117.95 168.64 117.96 168.32 117.94C166.61 117.83 163.91 116.71 163.89 116.71H163.88H163.87C163.87 116.71 163.87 116.71 163.86 116.71C162.94 116.91 161.93 117.05 160.86 117.13L161.95 118.02C161.95 118.02 161.69 118.7 161.47 119.47C161.3 120.09 160.45 120.35 159.85 119.98C158.58 119.2 158.07 118.03 157.73 117.17C150.3 116.89 146.25 114.24 145.72 112.3C145.62 111.91 145.72 111.49 146.01 111.17C146.21 110.96 150.28 106.66 157.19 105.92C158.49 104.62 159.44 101.96 162.02 101.14C162.16 101.1 162.3 101.09 162.43 101.1ZM151.71 110.5C151.63 110.5 151.56 110.5 151.48 110.53C151.48 110.53 151.48 110.52 151.47 110.53C151.15 110.58 150.88 110.75 150.72 110.99C150.61 111.13 150.55 111.32 150.55 111.51C150.55 112.06 151.06 112.52 151.71 112.52C152.34 112.52 152.87 112.06 152.87 111.51C152.87 110.94 152.34 110.5 151.71 110.5Z" fill="#99CFFF"/>
<path d="M193.25 59.9002C193.6 59.9302 193.92 60.1602 194.01 60.4702C194.53 62.2102 195.3 63.3202 196.3 64.0402C196.38 64.1002 196.71 64.3202 196.66 64.5402C196.64 64.6302 196.57 64.6802 196.32 64.8602C196.12 65.0102 195.97 65.1302 195.89 65.1902C196.79 65.5302 197.68 65.8902 198.5 66.2102C199.59 66.6402 201.06 67.2302 201.44 67.2702C201.69 67.2702 202.2 66.8802 202.66 66.5302C203.38 65.9702 204.29 65.2702 205.6 64.8302C206.05 64.6802 206.56 64.7602 206.92 65.0402C207.28 65.3102 207.44 65.7402 207.32 66.1402L206.47 69.2302L207.32 72.3102C207.44 72.7102 207.29 73.1202 206.94 73.4002C206.69 73.5902 206.38 73.7002 206.06 73.7002C205.93 73.7002 205.8 73.6802 205.67 73.6502C204.3 73.2802 203.5 72.5602 202.86 71.9902C202.19 71.3902 201.93 71.1902 201.44 71.1902C200.94 71.1902 199.99 71.5402 198.99 71.9102C198.72 72.0102 198.44 72.1102 198.14 72.2102C198.52 72.3702 198.84 72.4402 199.07 72.4802C199.33 72.5202 199.49 72.5202 199.6 72.6302C199.64 72.6702 199.72 72.7902 199.59 73.2102C199.46 73.6502 199.34 74.0702 198.94 74.2502C198.76 74.3302 198.57 74.3502 198.3 74.3302C196.84 74.2302 194.52 73.2802 194.5 73.2702H194.49H194.48C194.48 73.2702 194.48 73.2702 194.47 73.2702C193.68 73.4402 192.82 73.5602 191.9 73.6302L192.83 74.3902C192.83 74.3902 192.6 74.9702 192.42 75.6402C192.27 76.1702 191.54 76.3902 191.03 76.0802C189.94 75.4102 189.51 74.4102 189.21 73.6702C182.84 73.4302 179.37 71.1602 178.91 69.4902C178.82 69.1502 178.91 68.7902 179.16 68.5202C179.33 68.3402 182.82 64.6602 188.74 64.0202C189.86 62.9002 190.67 60.6302 192.88 59.9202C193.01 59.9002 193.13 59.8902 193.25 59.9002ZM184.06 67.9502C184 67.9502 183.93 67.9502 183.87 67.9702C183.87 67.9702 183.87 67.9602 183.86 67.9702C183.59 68.0102 183.36 68.1602 183.21 68.3602C183.12 68.4802 183.07 68.6402 183.07 68.8102C183.07 69.2802 183.51 69.6702 184.07 69.6702C184.61 69.6702 185.07 69.2802 185.07 68.8102C185.06 68.3402 184.6 67.9502 184.06 67.9502Z" fill="#D2ECFF"/>
<path d="M223.44 43.6702C223.69 43.6902 223.92 43.8502 223.99 44.0802C224.36 45.3302 224.92 46.1202 225.63 46.6402C225.69 46.6802 225.92 46.8402 225.89 47.0002C225.88 47.0602 225.82 47.1002 225.65 47.2302C225.51 47.3402 225.4 47.4202 225.34 47.4702C225.99 47.7102 226.62 47.9702 227.21 48.2002C227.99 48.5102 229.05 48.9302 229.31 48.9602C229.49 48.9602 229.86 48.6802 230.18 48.4302C230.7 48.0302 231.35 47.5302 232.29 47.2102C232.61 47.1102 232.98 47.1602 233.24 47.3602C233.5 47.5502 233.61 47.8602 233.53 48.1502L232.92 50.3602L233.53 52.5602C233.61 52.8502 233.51 53.1402 233.26 53.3402C233.08 53.4802 232.86 53.5602 232.63 53.5602C232.54 53.5602 232.44 53.5402 232.35 53.5202C231.37 53.2502 230.79 52.7402 230.34 52.3302C229.86 51.9002 229.67 51.7602 229.32 51.7602C228.96 51.7602 228.28 52.0102 227.57 52.2802C227.38 52.3502 227.17 52.4202 226.96 52.5002C227.23 52.6102 227.46 52.6702 227.62 52.6902C227.81 52.7202 227.92 52.7202 228 52.8002C228.03 52.8302 228.09 52.9102 228 53.2202C227.91 53.5302 227.82 53.8302 227.53 53.9702C227.4 54.0302 227.26 54.0402 227.07 54.0302C226.02 53.9602 224.36 53.2702 224.35 53.2702C224.35 53.2702 224.35 53.2702 224.34 53.2702C223.78 53.3902 223.16 53.4802 222.5 53.5302L223.17 54.0702C223.17 54.0702 223.01 54.4902 222.88 54.9602C222.78 55.3402 222.25 55.5002 221.88 55.2702C221.1 54.7902 220.79 54.0702 220.58 53.5402C216.02 53.3702 213.53 51.7402 213.2 50.5502C213.14 50.3102 213.2 50.0502 213.38 49.8602C213.5 49.7302 216 47.0902 220.25 46.6302C221.05 45.8302 221.63 44.2002 223.22 43.6902C223.27 43.6702 223.35 43.6602 223.44 43.6702ZM216.85 49.4502C216.8 49.4502 216.76 49.4502 216.71 49.4702C216.71 49.4702 216.71 49.4602 216.7 49.4702C216.51 49.5002 216.34 49.6102 216.24 49.7502C216.18 49.8402 216.14 49.9502 216.14 50.0702C216.14 50.4102 216.45 50.6902 216.85 50.6902C217.24 50.6902 217.56 50.4102 217.56 50.0702C217.56 49.7202 217.24 49.4502 216.85 49.4502Z" fill="#D2ECFF"/>
<path d="M255.02 54.0401C255.15 54.0501 255.26 54.1301 255.29 54.2501C255.47 54.8701 255.75 55.2701 256.11 55.5301C256.14 55.5501 256.26 55.6301 256.24 55.7101C256.23 55.7401 256.21 55.7601 256.12 55.8301C256.05 55.8801 256 55.9301 255.97 55.9501C256.29 56.0701 256.61 56.2001 256.91 56.3201C257.3 56.4701 257.83 56.6901 257.96 56.7001C258.05 56.7001 258.23 56.5601 258.4 56.4301C258.66 56.2301 258.98 55.9801 259.45 55.8201C259.61 55.7701 259.79 55.8001 259.92 55.9001C260.05 56.0001 260.11 56.1501 260.06 56.2901L259.75 57.4001L260.06 58.5001C260.1 58.6401 260.05 58.7901 259.93 58.8901C259.84 58.9601 259.73 59.0001 259.61 59.0001C259.56 59.0001 259.52 58.9901 259.47 58.9801C258.98 58.8501 258.69 58.5901 258.46 58.3801C258.22 58.1701 258.13 58.0901 257.95 58.0901C257.77 58.0901 257.43 58.2201 257.07 58.3501C256.97 58.3901 256.87 58.4201 256.76 58.4601C256.9 58.5201 257.01 58.5401 257.09 58.5601C257.18 58.5701 257.24 58.5701 257.28 58.6101C257.29 58.6301 257.32 58.6701 257.28 58.8201C257.23 58.9801 257.19 59.1301 257.05 59.1901C256.98 59.2201 256.92 59.2201 256.82 59.2201C256.3 59.1801 255.46 58.8401 255.46 58.8401C255.18 58.9001 254.87 58.9401 254.54 58.9701L254.87 59.2401C254.87 59.2401 254.79 59.4501 254.72 59.6901C254.67 59.8801 254.41 59.9601 254.22 59.8501C253.83 59.6101 253.67 59.2501 253.57 58.9901C251.29 58.9101 250.04 58.0901 249.88 57.4901C249.85 57.3701 249.88 57.2401 249.97 57.1401C250.03 57.0801 251.28 55.7601 253.4 55.5301C253.8 55.1301 254.09 54.3201 254.88 54.0601C254.94 54.0401 254.98 54.0301 255.02 54.0401ZM251.73 56.9301C251.71 56.9301 251.68 56.9301 251.66 56.9401C251.56 56.9601 251.48 57.0101 251.43 57.0801C251.4 57.1201 251.38 57.1801 251.38 57.2401C251.38 57.4101 251.54 57.5501 251.74 57.5501C251.93 57.5501 252.1 57.4101 252.1 57.2401C252.09 57.0601 251.93 56.9301 251.73 56.9301Z" fill="#99CFFF"/>
<path d="M179.02 32.7801C179.37 32.8101 179.69 33.0401 179.78 33.3501C180.3 35.0901 181.07 36.2001 182.07 36.9201C182.15 36.9801 182.48 37.2001 182.43 37.4201C182.41 37.5101 182.34 37.5601 182.09 37.7401C181.89 37.8901 181.74 38.0101 181.66 38.0701C182.56 38.4101 183.45 38.7701 184.27 39.0901C185.36 39.5201 186.83 40.1101 187.21 40.1501C187.46 40.1501 187.97 39.7601 188.43 39.4101C189.15 38.8501 190.06 38.1501 191.37 37.7101C191.82 37.5601 192.33 37.6401 192.69 37.9201C193.05 38.1901 193.21 38.6201 193.09 39.0201L192.24 42.1101L193.09 45.1901C193.21 45.5901 193.06 46.0001 192.71 46.2801C192.46 46.4701 192.15 46.5801 191.83 46.5801C191.7 46.5801 191.57 46.5601 191.44 46.5301C190.07 46.1601 189.27 45.4401 188.63 44.8701C187.96 44.2701 187.7 44.0701 187.21 44.0701C186.71 44.0701 185.76 44.4201 184.76 44.7901C184.49 44.8901 184.21 44.9901 183.91 45.0901C184.29 45.2501 184.61 45.3201 184.84 45.3601C185.1 45.4001 185.26 45.4001 185.37 45.5101C185.41 45.5501 185.49 45.6701 185.36 46.0901C185.23 46.5301 185.11 46.9501 184.71 47.1301C184.53 47.2101 184.34 47.2301 184.07 47.2101C182.61 47.1101 180.29 46.1601 180.27 46.1501H180.26H180.25C180.25 46.1501 180.25 46.1501 180.24 46.1501C179.45 46.3201 178.59 46.4401 177.67 46.5101L178.6 47.2701C178.6 47.2701 178.37 47.8501 178.19 48.5201C178.04 49.0501 177.31 49.2701 176.8 48.9601C175.71 48.2901 175.28 47.2901 174.98 46.5501C168.61 46.3101 165.14 44.0401 164.68 42.3701C164.59 42.0301 164.68 41.6701 164.93 41.4001C165.1 41.2201 168.59 37.5401 174.51 36.9001C175.63 35.7801 176.44 33.5101 178.65 32.8001C178.78 32.7901 178.9 32.7701 179.02 32.7801ZM169.83 40.8401C169.77 40.8401 169.7 40.8401 169.64 40.8601C169.64 40.8601 169.64 40.8501 169.63 40.8601C169.36 40.9001 169.13 41.0501 168.98 41.2501C168.89 41.3701 168.84 41.5301 168.84 41.7001C168.84 42.1701 169.28 42.5601 169.84 42.5601C170.38 42.5601 170.84 42.1701 170.84 41.7001C170.82 41.2201 170.37 40.8401 169.83 40.8401Z" fill="#99CFFF"/>
<path d="M213.84 85.24C214.19 85.27 214.51 85.5 214.6 85.81C215.12 87.55 215.89 88.66 216.89 89.38C216.97 89.44 217.3 89.66 217.25 89.88C217.23 89.97 217.16 90.02 216.91 90.2C216.71 90.35 216.56 90.47 216.48 90.53C217.38 90.87 218.27 91.23 219.09 91.55C220.18 91.98 221.65 92.57 222.03 92.61C222.28 92.61 222.79 92.22 223.25 91.87C223.97 91.31 224.88 90.61 226.19 90.17C226.64 90.02 227.15 90.1 227.51 90.38C227.87 90.65 228.03 91.08 227.91 91.48L227.06 94.57L227.91 97.65C228.03 98.05 227.88 98.46 227.53 98.74C227.28 98.93 226.97 99.04 226.65 99.04C226.52 99.04 226.39 99.02 226.26 98.99C224.89 98.62 224.09 97.9 223.45 97.33C222.78 96.73 222.52 96.53 222.03 96.53C221.53 96.53 220.58 96.88 219.58 97.25C219.31 97.35 219.03 97.45 218.73 97.55C219.11 97.71 219.43 97.78 219.66 97.82C219.92 97.86 220.08 97.86 220.19 97.97C220.23 98.01 220.31 98.13 220.18 98.55C220.05 98.99 219.93 99.41 219.53 99.59C219.35 99.67 219.16 99.69 218.89 99.67C217.43 99.57 215.11 98.62 215.09 98.61H215.08H215.07C215.07 98.61 215.07 98.61 215.06 98.61C214.27 98.78 213.41 98.9 212.49 98.97L213.42 99.73C213.42 99.73 213.19 100.31 213.01 100.98C212.86 101.51 212.13 101.73 211.62 101.42C210.53 100.75 210.1 99.75 209.8 99.01C203.43 98.77 199.96 96.5 199.5 94.83C199.41 94.49 199.5 94.13 199.75 93.86C199.92 93.68 203.41 90 209.33 89.36C210.45 88.24 211.26 85.97 213.47 85.26C213.6 85.24 213.72 85.23 213.84 85.24ZM204.65 93.29C204.59 93.29 204.52 93.29 204.46 93.31C204.46 93.31 204.46 93.3 204.45 93.31C204.18 93.35 203.95 93.5 203.8 93.7C203.71 93.82 203.66 93.98 203.66 94.15C203.66 94.62 204.1 95.01 204.66 95.01C205.2 95.01 205.66 94.62 205.66 94.15C205.64 93.67 205.19 93.29 204.65 93.29Z" fill="#D2ECFF"/>
<path d="M238.75 63.03C239.1 63.06 239.42 63.29 239.51 63.6C240.03 65.34 240.8 66.45 241.8 67.17C241.88 67.23 242.21 67.45 242.16 67.67C242.14 67.76 242.07 67.81 241.82 67.99C241.62 68.14 241.47 68.26 241.39 68.32C242.29 68.66 243.18 69.02 244 69.34C245.09 69.77 246.56 70.36 246.94 70.4C247.19 70.4 247.7 70.0101 248.16 69.6601C248.88 69.1001 249.79 68.4 251.1 67.96C251.55 67.81 252.06 67.89 252.42 68.17C252.78 68.44 252.94 68.87 252.82 69.27L251.97 72.36L252.82 75.44C252.94 75.84 252.79 76.25 252.44 76.53C252.19 76.72 251.88 76.83 251.56 76.83C251.43 76.83 251.3 76.81 251.17 76.78C249.8 76.41 249 75.69 248.36 75.12C247.69 74.52 247.43 74.32 246.94 74.32C246.44 74.32 245.49 74.67 244.49 75.04C244.22 75.14 243.94 75.24 243.64 75.34C244.02 75.5 244.34 75.57 244.57 75.61C244.83 75.65 244.99 75.65 245.1 75.76C245.14 75.8 245.22 75.92 245.09 76.34C244.96 76.78 244.84 77.2 244.44 77.38C244.26 77.46 244.07 77.48 243.8 77.46C242.34 77.36 240.02 76.41 240 76.4H239.99H239.98C239.98 76.4 239.98 76.4 239.97 76.4C239.18 76.57 238.32 76.69 237.4 76.76L238.33 77.52C238.33 77.52 238.1 78.1 237.92 78.77C237.77 79.3 237.04 79.52 236.53 79.21C235.44 78.54 235.01 77.54 234.71 76.8C228.34 76.5601 224.87 74.29 224.41 72.62C224.32 72.28 224.41 71.92 224.66 71.65C224.83 71.47 228.32 67.79 234.24 67.15C235.36 66.03 236.17 63.76 238.38 63.05C238.51 63.03 238.63 63.02 238.75 63.03ZM229.56 71.08C229.5 71.08 229.43 71.08 229.37 71.1C229.37 71.1 229.37 71.09 229.36 71.1C229.09 71.14 228.86 71.29 228.71 71.49C228.62 71.61 228.57 71.77 228.57 71.94C228.57 72.41 229.01 72.8 229.57 72.8C230.11 72.8 230.57 72.41 230.57 71.94C230.55 71.47 230.1 71.08 229.56 71.08Z" fill="#99CFFF"/>
</g>
<defs>
<clipPath id="clip0_1810_8996">
<rect width="338.32" height="220" fill="white"/>
</clipPath>
</defs>
</svg>
