<svg width="338" height="220" viewBox="0 0 338 220" fill="none" xmlns="http://www.w3.org/2000/svg">
<g clip-path="url(#clip0_1415_6564)">
<path d="M338 7.86V212C338 215.15 336.18 217.87 333.54 219.17C332.47 219.71 331.27 220 330 220H8C6.08 220 4.31 219.33 2.93 218.19C1.14 216.72 0 214.5 0 212V8C0 3.58 3.58 0 8 0H330.12C334.44 0.06 337.92 3.54 338 7.86Z" fill="#EFF7FE"/>
<path d="M338 7.86V171.88C300.06 202.15 238.5 205.6 205.68 177.16C184.25 158.6 179.07 133.34 179.07 133.34C174.01 108.66 186.59 99.75 180.12 78.03C172.37 52.08 149.95 49.87 149.33 32.64C148.87 19.96 160.57 8.56 173.12 0H330.12C334.44 0.06 337.92 3.54 338 7.86Z" fill="#D2ECFF"/>
<path d="M338 7.86V148.59C323.09 163.31 299.05 177.16 267.82 177.43C234.56 177.72 205.08 154.84 198.95 128.12C192.94 101.89 217.33 80.52 204.04 65.9C194.47 55.38 174.35 56.15 170 42.03C168.52 37.24 169.57 33.02 170.39 29.9C172.07 23.48 177.16 11.84 197.06 0H330.12C334.44 0.06 337.92 3.54 338 7.86Z" fill="#99CFFF"/>
<path d="M338 7.86V114.79C328.53 117.42 318.59 119.74 313.41 129.3C309.3 136.88 312.7 140.66 308.52 147.49C299.98 161.42 275.61 162.29 261.56 160.21C239.44 156.93 214.85 142.19 215.78 129.3C216.43 120.29 229.07 118.45 232.21 103.47C233.97 95.09 230.43 93.67 232.61 85.47C236.01 72.63 245.86 71.71 246.69 62.19C247.44 53.69 240.55 43.52 232.61 41.64C224.66 39.76 219.88 48.81 207.37 49.47C197.97 49.97 186.36 45.62 184.67 39.69C182.86 33.36 191.4 21.97 231.23 0H330.12C334.44 0.06 337.92 3.54 338 7.86Z" fill="#75B7FF"/>
<path d="M213.04 115.21C214.64 115.96 219.26 111.32 221.06 105.82C222.9 100.22 221.92 93.4601 220.08 93.1001C217.97 92.6901 214.58 100.69 213.23 106.8C212.73 109.1 211.54 114.5 213.04 115.21Z" fill="#75B7FF"/>
<path d="M338 7.86V95.22C333.89 95.77 328.78 96.74 322.21 98.64C310.5 102.03 308.86 104.11 303.17 103.6C290.45 102.45 277.9 90.18 275.52 76.99C273.3 64.71 281.79 62.23 280.21 50.9C277.53 31.57 251.1 26.78 251.52 12.3C251.66 7.38 254.83 3.38 258.7 0H330.12C334.44 0.06 337.92 3.54 338 7.86Z" fill="#2A7AD7"/>
<path d="M151.86 63.25C154.99 61.86 163.5 70.93 167.08 81.3C171.23 93.31 168.99 107.72 165.26 108.39C161.08 109.14 154.6 92.7 152.08 80.53C151.15 76.03 148.78 64.62 151.86 63.25Z" fill="#D2ECFF"/>
<path d="M92.85 220H8C6.08 220 4.31 219.33 2.93 218.19C1.14 216.72 0 214.5 0 212V135.34C1.78 141.13 4.53 146.94 8.78 152.38C18.46 164.76 26.78 163.55 35.39 178.99C43.66 193.83 40.22 202.56 49.08 208.73C57.15 214.34 63.08 209.26 78.82 214.21C82.34 215.32 88.11 217.48 92.85 220Z" fill="#D2ECFF"/>
<path d="M50.65 190.14C48.25 192.18 49.44 200.61 55.54 204.42C61.83 208.35 70.1 205.36 70.8 202.27C71.93 197.3 54.57 186.81 50.65 190.14Z" fill="#D2ECFF"/>
<path d="M329.54 39.94C329.24 41.53 330 42.79 330.93 43.96C331.42 44.56 331.9 45.16 332.5 45.91C329.7 46.33 327.02 46.77 324.7 45.26C322.6 43.89 321.03 43.98 318.9 45.36C314.29 48.36 310.08 51.82 305.93 55.4C304.75 56.41 303.53 57.37 302.39 58.31C303.34 60.98 304.14 63.64 305.24 66.19C306.9 70.05 309.33 73.33 313.07 75.47C313.52 75.72 313.92 76.07 314.33 76.39C314.51 76.52 314.66 76.7 314.9 76.94C313.84 77.53 312.75 77.7 311.63 77.73C308.69 77.81 305.87 77.09 303.05 76.35C299.83 75.49 296.69 74.46 293.92 72.56C292.81 71.8 291.82 70.87 290.72 69.98C289.38 71.07 287.99 72.27 286.52 73.36C280.92 77.57 274.86 80.89 267.99 82.56C267.38 82.7 266.74 82.8 266.11 82.83C263.07 82.99 261.45 81.37 261.63 78.32C261.83 74.87 263.26 71.88 265.16 69.07C267.96 64.92 271.62 61.6 275.38 58.37C276.35 57.52 277.32 56.67 278.33 55.77C275.42 52.25 274.56 48.02 273.79 43.75C273.24 40.73 272.49 37.72 272.7 34.6C272.78 33.38 273.04 32.18 273.22 30.97C273.29 30.97 273.37 30.98 273.45 30.98C273.81 31.95 274.1 32.97 274.55 33.89C276.98 38.87 280.71 42.37 286.09 43.99C287.69 44.47 289.25 45.08 290.83 45.59C291.07 45.66 291.43 45.59 291.65 45.45C294.4 43.75 297.08 41.94 299.87 40.33C305.51 37.09 311.45 34.53 317.74 32.81C318.33 32.65 318.54 32.37 318.72 31.82C319.21 30.32 319.66 28.8 320.38 27.41C320.79 26.63 321.68 26.1 322.33 25.49C323.34 27.25 324.26 28.83 325.16 30.42C325.4 30.85 325.65 31.03 326.18 30.93C330.12 30.16 334.06 29.42 338.01 28.66V35.12C335.35 36.44 332.72 37.82 330.06 39.16C329.8 39.26 329.6 39.65 329.54 39.94Z" fill="#D2ECFF"/>
<path d="M238.4 36.4C239.692 36.4 240.74 35.3523 240.74 34.06C240.74 32.7676 239.692 31.72 238.4 31.72C237.108 31.72 236.06 32.7676 236.06 34.06C236.06 35.3523 237.108 36.4 238.4 36.4Z" fill="#D2ECFF"/>
<path d="M229.67 21.91C231.774 21.91 233.48 20.2042 233.48 18.1C233.48 15.9958 231.774 14.29 229.67 14.29C227.566 14.29 225.86 15.9958 225.86 18.1C225.86 20.2042 227.566 21.91 229.67 21.91Z" fill="#EFF7FE"/>
<path d="M261.62 5.39C261.62 11.5 256.67 16.44 250.57 16.44C244.46 16.44 239.51 11.5 239.51 5.39C239.51 3.43 240.02 1.59 240.92 0H260.21C261.11 1.59 261.62 3.43 261.62 5.39Z" fill="#D2ECFF"/>
</g>
<defs>
<clipPath id="clip0_1415_6564">
<rect width="338" height="220" fill="white"/>
</clipPath>
</defs>
</svg>
