<svg width="338" height="221" viewBox="0 0 338 221" fill="none" xmlns="http://www.w3.org/2000/svg">
<g clip-path="url(#clip0_1813_9083)">
<path d="M338 7.89003V212.03C338 215.18 336.18 217.9 333.54 219.2C332.47 219.74 331.27 220.03 330 220.03H8C6.08 220.03 4.31 219.36 2.93 218.22C1.14 216.75 0 214.53 0 212.03V8.03003C0 3.61003 3.58 0.0300293 8 0.0300293H330.12C334.44 0.0900293 337.92 3.57003 338 7.89003Z" fill="#EFF7FE"/>
<path d="M338 206.23V212.03C338 215.18 336.18 217.9 333.54 219.2C332.47 219.74 331.27 220.03 330 220.03H8C6.08 220.03 4.31 219.36 2.93 218.22C1.14 216.75 0 214.53 0 212.03V190.67C9.42 187.03 17.72 186.61 25.13 185.32C53.71 180.35 51.89 165.33 84.08 157.15C104.47 151.97 104.82 158.09 121.13 152.45C148.53 142.98 148.51 125.37 169.13 121.67C191.42 117.67 213.07 134.38 220.26 139.93C238.23 153.8 236.55 163.65 254.17 172.8C269.48 180.75 272.48 174.21 290.17 182.71C309.66 192.09 311.14 202.48 327.22 205.67C331.36 206.49 334.92 206.53 338 206.23Z" fill="#D2ECFF"/>
<path d="M333.54 219.2C332.47 219.74 331.27 220.03 330 220.03H7.99999C6.07999 220.03 4.30999 219.36 2.92999 218.22C10.05 215.81 23.85 216.33 41.82 208.28C59.34 200.44 56.87 195.18 74.17 188.97C88.13 183.97 92.28 186.47 108.61 179.58C117.34 175.9 117.81 174.48 129.48 169.67C142.24 164.41 144.56 164.92 151.91 160.8C164.54 153.73 162.89 149.32 170.69 146.71C185.83 141.65 203.42 154.44 209.3 158.71C219.64 166.23 217.53 168.79 229.13 177.5C233.85 181.04 244.54 188.91 259.91 193.15C272.93 196.73 276.18 194.1 288.08 198.89C296.34 202.21 296.53 204.18 306.35 209.32C319.73 216.32 328.69 217.53 333.54 219.2Z" fill="#99CFFF"/>
<path d="M289.85 220.03H67.45C73.91 216.69 81.04 212.35 87.77 206.37C90.01 204.38 95.41 199.37 103.95 196.98C110.91 195.02 114.65 196.3 120.12 195.93C133.31 195.06 136.82 185.98 151.43 177.67C156.47 174.81 176.88 163.19 194.73 169.32C203 172.17 201.33 175.6 221.86 191.24C232.71 199.51 238.14 203.64 245.34 206.37C259.28 211.65 264.29 207.45 276.12 212.11C280.73 213.92 285.68 216.81 289.85 220.03Z" fill="#75B7FF"/>
<path d="M105.12 146.49C108.33 150.01 115.56 147.77 118.72 146.79C127.61 144.03 137.86 136.83 136.55 132.59C135.4 128.85 125.6 128.55 119.63 129.57C117.9 129.86 105.91 131.9 103.91 139.54C103.84 139.83 102.82 143.96 105.12 146.49Z" fill="#D2ECFF"/>
<path d="M338 181.95V198.53C335.79 198.67 333.86 198.48 333 198.39C331.12 198.2 324.95 197.58 321.13 193.09C320.2 191.99 317.25 188.51 318.65 185.9C320.53 182.38 330.2 180.71 338 181.95Z" fill="#D2ECFF"/>
<path d="M338 8.03003V78.57C328.06 69.96 318 55.54 314.92 40.34C312.51 28.49 315.86 23.58 311.27 15.81C303.1 1.99003 282.53 0.600029 270.28 0.0300293H330C334.42 0.0300293 338 3.61003 338 8.03003Z" fill="#D2ECFF"/>
<path d="M62.43 49.33C64.3023 49.33 65.82 47.8123 65.82 45.94C65.82 44.0678 64.3023 42.55 62.43 42.55C60.5578 42.55 59.04 44.0678 59.04 45.94C59.04 47.8123 60.5578 49.33 62.43 49.33Z" fill="#99CFFF"/>
<path d="M69.65 30.51C72.9803 30.51 75.68 27.8102 75.68 24.48C75.68 21.1497 72.9803 18.45 69.65 18.45C66.3197 18.45 63.62 21.1497 63.62 24.48C63.62 27.8102 66.3197 30.51 69.65 30.51Z" fill="#D2ECFF"/>
<path d="M58.42 1.85003C58.42 6.85003 54.36 10.91 49.36 10.91C44.36 10.91 40.31 6.85003 40.31 1.85003C40.31 1.22003 40.37 0.620029 40.49 0.0300293H58.24C58.36 0.620029 58.42 1.22003 58.42 1.85003Z" fill="#99CFFF"/>
<path d="M336.43 82.4C336.97 82.82 337.49 82.99 338 82.95V76.02C336.4 79 335.43 81.61 336.43 82.4ZM325.63 74.72C321.82 78.83 314.63 87.15 314.64 91.66C314.64 91.83 314.65 91.98 314.66 92.14C314.88 96.15 317.7 96.01 319 93.18C320.36 90.24 324.76 80.19 326.36 79.51C327.85 78.88 328.58 80.04 327.94 82.61C327.89 82.79 327.86 82.95 327.8 83.14C326.91 86.11 318.55 98.25 321.19 100.37C321.84 100.89 322.59 100.91 323.38 100.57C325.76 99.53 328.39 95.07 329.14 90.73C330.15 84.97 330.26 81.59 332.17 77.96C333.21 75.97 335.63 72.95 338 69.97V62.85C334.04 66.79 328.11 72.05 325.63 74.72ZM324.99 65.59C324.27 66.76 323.97 67.73 324.39 68.35C325.84 70.47 334.74 61.91 338 58.24V52.52C337.2 53.06 336.41 53.71 335.67 54.44C333.13 56.96 327.15 62.13 324.99 65.59ZM304.95 48.24C301.04 50.6 289.62 56.34 288.79 54.55C286.02 48.99 279.12 48.1 275.63 47.44C274.9 47.3 273.85 47.23 272.64 47.23C269.22 47.23 264.55 47.83 262.41 49.32C261.66 49.84 261.22 50.47 261.26 51.22C261.44 54.89 277.88 52.18 279.62 52.74C280.23 52.94 280.6 53.43 280.67 54C280.8 55.04 279.96 56.38 277.8 56.82C274.48 57.51 261.98 52.46 261.53 55.91C261.09 59.36 266.69 59.59 274.83 61.02C280.74 62.07 290.59 61.2 297.37 58.76C299.94 57.84 302.06 56.7 303.37 55.35C309.91 48.57 319.54 52.57 320.01 52.77C320.03 52.78 320.04 52.78 320.04 52.78C314.44 56.17 309.35 59.55 304.96 63.02C300.84 57.87 290.8 63.15 285.88 65.1C282.71 66.35 275.59 70.4 271.89 74.16C269.87 76.23 268.87 78.21 270.14 79.58C273.72 83.47 284.89 72.59 290 69.34C294.55 66.44 297.32 68.67 297.87 69.19C297.94 69.26 297.98 69.3 297.98 69.3C296.5 70.85 295.15 72.44 293.99 74.07C285.01 86.57 277.81 87.6 279.75 91.36C281.41 94.58 289.39 83.48 292.29 81.79C292.79 81.5 293.14 81.47 293.28 81.85C294.28 84.42 282.95 91.16 284.48 94.08C286.01 97.01 294.85 89.39 296.09 83.12C296.86 79.26 300.95 72.02 313.06 62.98C313.77 64.25 314.31 67.21 311.99 74.39C311.13 73.73 309.27 73.73 307.31 74.37C304.62 75.24 301.72 77.33 300.91 80.64C300.81 81.05 300.74 81.48 300.71 81.93C300.24 88.62 307.31 76.4 308.65 77.28C308.94 77.47 309.09 77.71 309.12 78.01C309.21 79.09 307.66 80.91 304.92 83.83C301.41 87.57 296.68 94.91 299.37 97.83C299.73 98.22 300.24 98.25 300.84 98.02C301.05 97.99 301.27 97.86 301.49 97.69C301.88 97.46 302.29 97.13 302.73 96.74C306.85 93.05 312.81 83.29 313.89 80.24C315.3 76.27 318.73 68.12 318.76 58.99C323.98 55.57 330.32 51.95 338 48.2V42.55C335.06 44.17 332.18 45.76 329.39 47.34C324.73 41.75 308.86 45.88 304.95 48.24ZM332.56 28.47C331.7 26.57 329.04 27.12 324.19 26.62C319.35 26.12 308.26 22.86 306.22 20.27C304.79 18.47 302.32 18.36 302.92 20.76C303.18 21.79 304.01 23.3 305.76 25.34C310.58 30.97 319.22 28.16 321.71 28.76C322.22 28.88 322.48 29.14 322.39 29.65C321.86 32.66 315.39 32.72 311.86 32.41C308.32 32.1 298.56 27.99 298.5 31.82C298.49 32.32 298.57 32.77 298.73 33.17C299.8 35.85 304.56 36.43 312.06 36.19C320.68 35.91 327.99 33.24 330.03 31.89C330.26 32.01 330.53 32.12 330.82 32.22C332.51 32.82 335.03 33.01 338 32.72V28.9C335.55 29.43 333.02 29.5 332.56 28.47ZM308.37 9.99003C307.48 12.96 313.84 16.27 318.32 18.35C321.89 20.01 332.22 20.56 338 21.48V18.34C334.22 17.48 328.9 16.95 323.63 16.09C316.45 14.92 309.26 7.03003 308.37 9.99003ZM323.48 4.34003C326.38 7.85003 332.7 8.23003 338 7.89003C337.92 3.57003 334.44 0.0900293 330.12 0.0300293C331.09 0.720029 331.99 1.27003 332.69 1.76003C333.67 2.44003 334.26 3.01003 334.07 3.63003C333.62 5.11003 318.67 -1.73997 323.37 4.23003C323.41 4.27003 323.44 4.30003 323.48 4.34003Z" fill="#99CFFF"/>
<path d="M84.41 54.0701C85.67 53.2301 86.83 52.3401 88.1 51.6301C91.96 49.4601 96.12 47.9901 100.31 46.6301C105.28 45.0101 110.28 43.5001 115.47 42.7701C118.26 42.3801 121.09 42.2001 123.9 41.9201C126.36 41.6801 128.83 41.4601 131.29 41.1601C131.99 41.0801 132.68 40.8001 133.35 40.5501C134.39 40.1601 135.1 39.4701 135.6 38.4201C137.22 34.9801 139.17 31.7401 141.76 28.9201C143.48 27.0401 145.71 26.1101 148.19 25.5801C147.42 28.7101 148.01 31.7401 148.49 34.7501C148.78 36.5501 149.21 38.3401 149.7 40.1001C150.11 41.5701 150.88 42.8801 152.14 43.8301C152.2 43.8701 152.24 43.9401 152.27 44.0001C152.29 44.0401 152.26 44.0901 152.25 44.2201C151.68 44.3001 151.08 44.3801 150.49 44.4701C150.48 44.5101 150.48 44.5401 150.47 44.5801C152.39 45.2001 154.29 45.8901 156.24 46.4401C160.98 47.7701 165.73 49.0401 170.48 50.3401C171.09 50.5101 171.51 50.3801 171.97 49.9001C173.39 48.4201 174.08 48.5701 174.92 50.4601C174.93 50.4801 174.95 50.5001 174.95 50.5301C175.16 51.9801 176.17 52.2501 177.42 52.3401C179.63 52.5101 181.83 52.7001 183.98 52.0201C185.96 51.4001 187.78 50.4501 189.29 49.0001C190.7 47.6401 192.13 46.3001 193.53 44.9401C195.3 43.2201 197.41 42.0001 199.65 41.0701C202.66 39.8201 205.74 38.7201 208.8 37.5901C209.16 37.4601 209.58 37.4201 209.96 37.4601C210.21 37.4901 210.57 37.6801 210.64 37.8801C210.71 38.0901 210.57 38.4801 210.38 38.6401C209.9 39.0601 209.36 39.4301 208.82 39.7701C207.76 40.4201 206.95 41.2301 206.78 42.5301C206.73 42.9401 206.49 43.0601 206.1 42.9701C205.89 42.9201 205.66 42.9101 205.62 42.9001C204.95 43.5901 204.35 44.1901 203.66 44.8901C204.15 45.6601 203.5 46.0901 202.88 46.6001C199.17 49.6201 197.15 53.6301 196.09 58.2001C195.87 59.1401 196.05 59.9201 196.83 60.6001C197.16 60.8901 197.37 61.4101 197.45 61.8701C197.68 63.1701 198.15 64.3101 199.09 65.2801C200.23 66.4501 201.27 67.7201 202.35 68.9501C202.45 69.0601 202.59 69.1601 202.63 69.3001C202.72 69.6401 202.91 70.0401 202.79 70.3101C202.7 70.5101 202.16 70.6901 201.91 70.6101C200.43 70.1601 198.85 69.8401 197.52 69.0901C195.33 67.8501 193.3 66.3301 191.22 64.9001C189.91 64.0001 188.67 63.0001 187.33 62.1701C184.28 60.2801 181.32 59.9801 177.62 61.0701C177.6 61.1301 177.56 61.2001 177.56 61.2701C177.51 62.3301 177.22 62.6501 176.32 62.2501C174.89 61.6201 173.54 61.8901 172.13 62.1901C169.98 62.6501 167.82 63.0901 165.66 63.5001C165.08 63.6101 164.92 63.8501 164.89 64.4201C164.78 66.1401 164.83 67.8001 166.12 69.1501C166.23 69.2701 166.3 69.6301 166.26 69.6501C166.07 69.7601 165.82 69.8701 165.61 69.8501C163.25 69.6201 161.25 68.6101 159.54 67.0101C159.02 66.5201 158.56 65.9601 158.03 65.4701C157.86 65.3101 157.56 65.1501 157.36 65.1901C152.09 66.0901 146.77 66.2701 141.45 66.4701C139.72 66.5401 137.99 66.4801 136.2 66.4801C135.69 71.3701 137.47 75.4001 139.79 79.2901C139.76 79.3601 139.73 79.4201 139.7 79.4901C139.43 79.4501 139.15 79.4301 138.88 79.3501C133.48 77.8101 129.29 74.6401 126.22 69.9601C125.46 68.8001 124.67 67.6601 123.86 66.5401C123.68 66.3001 123.34 66.0801 123.05 66.0401C115.32 64.8301 107.59 63.6601 99.86 62.4601C99.3 62.3701 98.74 62.2401 98.19 62.1101C96.35 61.6901 94.71 60.9701 93.72 59.2301C93.48 58.8001 93.12 58.6501 92.63 58.6301C92.14 58.6101 91.65 58.5001 91.18 58.3601C89.14 57.7601 86.04 55.8201 84.41 54.0701Z" fill="#99CFFF"/>
<path d="M178.65 89.1301C179.51 88.5501 180.31 87.9401 181.18 87.4601C183.82 85.9701 186.67 84.9701 189.54 84.0301C192.94 82.9201 196.37 81.8901 199.92 81.3901C201.83 81.1201 203.77 81.0001 205.69 80.8101C207.38 80.6401 209.07 80.4901 210.75 80.2901C211.23 80.2301 211.7 80.0401 212.16 79.8701C212.87 79.6101 213.36 79.1301 213.7 78.4101C214.81 76.0501 216.15 73.8301 217.92 71.9001C219.1 70.6101 220.63 69.9801 222.33 69.6101C221.8 71.7501 222.2 73.8301 222.53 75.8901C222.73 77.1201 223.02 78.3501 223.36 79.5501C223.64 80.5601 224.17 81.4501 225.03 82.1101C225.07 82.1401 225.1 82.1801 225.12 82.2301C225.13 82.2601 225.12 82.3001 225.11 82.3801C224.72 82.4301 224.31 82.4901 223.9 82.5501C223.9 82.5701 223.89 82.6001 223.89 82.6201C225.21 83.0501 226.51 83.5201 227.84 83.8901C231.08 84.8001 234.34 85.6701 237.59 86.5601C238.01 86.6701 238.29 86.5901 238.61 86.2601C239.58 85.2501 240.05 85.3501 240.63 86.6501C240.64 86.6701 240.65 86.6801 240.65 86.7001C240.79 87.6901 241.48 87.8801 242.34 87.9401C243.85 88.0601 245.36 88.1901 246.84 87.7201C248.19 87.2901 249.44 86.6501 250.48 85.6501C251.45 84.7201 252.42 83.8001 253.39 82.8701C254.6 81.6901 256.05 80.8601 257.58 80.2201C259.64 79.3601 261.75 78.6101 263.85 77.8401C264.1 77.7501 264.39 77.7301 264.65 77.7501C264.82 77.7701 265.07 77.9001 265.12 78.0401C265.17 78.1801 265.07 78.4501 264.94 78.5601C264.61 78.8501 264.24 79.1001 263.87 79.3301C263.14 79.7701 262.59 80.3301 262.47 81.2201C262.43 81.5001 262.27 81.5801 262 81.5201C261.85 81.4901 261.7 81.4801 261.67 81.4701C261.21 81.9401 260.8 82.3501 260.33 82.8301C260.67 83.3601 260.22 83.6501 259.79 84.0001C257.25 86.0701 255.86 88.8101 255.14 91.9401C254.99 92.5901 255.11 93.1201 255.65 93.5801C255.88 93.7801 256.02 94.1401 256.08 94.4501C256.24 95.3401 256.56 96.1201 257.21 96.7901C257.99 97.5901 258.7 98.4601 259.44 99.3001C259.51 99.3801 259.6 99.4501 259.63 99.5401C259.69 99.7701 259.82 100.05 259.74 100.23C259.68 100.37 259.31 100.49 259.13 100.43C258.11 100.12 257.03 99.9001 256.13 99.3901C254.63 98.5401 253.24 97.5001 251.82 96.5201C250.92 95.9101 250.08 95.2201 249.16 94.6501C247.07 93.3501 245.04 93.1501 242.51 93.9001C242.5 93.9401 242.47 93.9901 242.47 94.0301C242.43 94.7501 242.24 94.9701 241.62 94.7001C240.64 94.2701 239.71 94.4501 238.75 94.6601C237.28 94.9801 235.8 95.2801 234.31 95.5601C233.91 95.6301 233.81 95.8001 233.78 96.1901C233.71 97.3701 233.74 98.5001 234.62 99.4301C234.7 99.5101 234.75 99.7601 234.72 99.7701C234.59 99.8501 234.42 99.9201 234.27 99.9101C232.65 99.7601 231.28 99.0601 230.11 97.9601C229.75 97.6301 229.44 97.2401 229.08 96.9101C228.96 96.8001 228.76 96.6901 228.62 96.7201C225.01 97.3401 221.36 97.4601 217.72 97.6001C216.54 97.6501 215.35 97.6101 214.13 97.6101C213.78 100.96 215 103.72 216.59 106.38C216.57 106.43 216.55 106.47 216.53 106.52C216.34 106.49 216.15 106.48 215.97 106.43C212.27 105.37 209.4 103.2 207.3 99.9901C206.78 99.2001 206.24 98.4101 205.68 97.6401C205.56 97.4701 205.33 97.3301 205.12 97.3001C199.83 96.4701 194.53 95.6701 189.23 94.8501C188.85 94.7901 188.47 94.7001 188.09 94.6101C186.83 94.3201 185.7 93.8301 185.03 92.6401C184.86 92.3501 184.62 92.2401 184.28 92.2301C183.95 92.2201 183.61 92.1401 183.28 92.0501C181.89 91.6601 179.77 90.3301 178.65 89.1301Z" fill="#D2ECFF"/>
</g>
<defs>
<clipPath id="clip0_1813_9083">
<rect width="338" height="220" fill="white" transform="translate(0 0.0300293)"/>
</clipPath>
</defs>
</svg>
