<svg width="1142" height="200" viewBox="0 0 1142 200" fill="none" xmlns="http://www.w3.org/2000/svg">
<path d="M1142 16V184C1142 192.846 1134.83 200 1126 200H16C7.16923 200 0 192.846 0 184V16C0 7.16923 7.16923 0 16 0H1126C1134.83 0 1142 7.16923 1142 16Z" fill="url(#paint0_linear_1600_7348)"/>
<path d="M1142 16V184C1142 192.846 1134.83 200 1126 200H546.154C542.077 184.523 541.261 168.108 547.615 153.031C554.723 136.169 568.723 125.862 656.969 87.6615C753.2 46 767.308 44.9538 786.446 23.5538C793.661 15.4923 798.815 7.63077 802.585 0H1126C1134.83 0 1142 7.16923 1142 16Z" fill="#134692"/>
<path d="M1142 16V184C1142 192.846 1134.83 200 1126 200H611.154C609.554 188.231 610.323 176.277 615.046 165.062C622.138 148.215 636.154 137.908 724.4 99.7077C820.631 58.0462 834.723 57 853.877 35.6C864.954 23.2154 871.154 11.3385 874.984 0H1126C1134.83 0 1142 7.16923 1142 16Z" fill="#0E336B"/>
<path d="M1142 87.5844V184C1142 192.846 1134.83 200 1126 200H844.246C857.723 184.677 890.031 168.646 915.015 161.415C964.092 147.2 997.169 163.4 1031.4 136.523C1046.43 124.723 1042.68 119.554 1058.69 107.631C1080.82 91.169 1115.74 80.3844 1142 87.5844Z" fill="#134692"/>
<path d="M1142 104.923V184C1142 192.846 1134.83 200 1126 200H895.431C909.631 191.862 926.369 184.815 940.692 180.677C989.785 166.462 1022.85 182.662 1057.09 155.785C1072.12 143.985 1068.35 138.815 1084.38 126.892C1099.8 115.415 1121.43 106.708 1142 104.923Z" fill="#2A79D6"/>
<path d="M1142 126.231V184C1142 192.846 1134.83 200 1126 200H1044.78C1050.75 192.662 1059.23 185.785 1067.6 181.692C1079.12 176.062 1081.8 179.923 1092.14 174.354C1111.71 163.816 1109 146.292 1126.77 133.662C1131.03 130.631 1136.35 127.985 1142 126.231Z" fill="#75B7FF"/>
<path d="M856.292 79.3694C840.154 79.3694 827.077 91.9232 827.077 107.416C827.077 112.523 829.015 114.431 830.969 114.431C832.569 114.431 834.769 112.569 838.585 111.831C838.354 114.154 837.892 115.985 837.385 117.892C836.662 120.6 835.831 123.554 835.831 127.585C835.831 131.616 836.754 134.108 837.462 136.062C838.169 138.016 838.738 139.6 838.738 143.662C838.723 145.277 840 146.6 841.615 146.631C843.231 146.662 844.554 145.369 844.585 143.754C844.585 143.723 844.585 143.692 844.585 143.677C844.585 138.969 843.692 136.154 842.954 134.092C842.2 132.031 841.677 130.862 841.677 127.616C841.677 124.369 842.308 122.2 843.046 119.431C843.6 117.323 844.215 114.908 844.477 111.8C847.662 112.339 850.123 113.6 853.262 114.169C853.062 116.8 852.554 118.769 852 120.846C851.277 123.554 850.446 126.508 850.446 130.539C850.446 134.569 851.277 137.523 852 140.231C852.723 142.939 853.369 145.477 853.369 149.539C853.354 151.154 854.631 152.477 856.246 152.508C857.862 152.539 859.185 151.246 859.215 149.631C859.215 149.6 859.215 149.569 859.215 149.554C859.215 144.846 858.4 141.523 857.662 138.754C856.923 135.985 856.292 133.816 856.292 130.569C856.292 127.323 856.923 125.154 857.662 122.385C858.246 120.169 858.877 117.569 859.108 114.246C862.262 113.708 864.708 112.462 867.815 111.892C867.585 114.216 867.123 116.062 866.615 117.969C865.892 120.677 865.062 123.631 865.062 127.662C865.062 131.692 865.985 134.185 866.692 136.139C867.4 138.092 867.969 139.677 867.969 143.739C867.954 145.354 869.231 146.677 870.846 146.708C872.462 146.739 873.785 145.446 873.815 143.831C873.815 143.8 873.815 143.769 873.815 143.754C873.815 139.046 872.923 136.231 872.185 134.169C871.431 132.108 870.908 130.939 870.908 127.692C870.908 124.446 871.538 122.277 872.277 119.508C872.831 117.4 873.446 114.985 873.708 111.877C877.708 112.569 879.985 114.539 881.631 114.539C883.585 114.539 885.523 112.631 885.523 107.523C885.508 91.9386 872.431 79.3694 856.292 79.3694Z" fill="#2A79D6"/>
<path d="M1023.38 27.4923C1023.38 36.6 1019.92 40 1016.43 40C1013.51 40 1009.46 36.5077 1002.31 35.2615C1001.85 40.7846 1000.77 45.1077 999.769 48.8615C998.446 53.8154 997.338 57.6615 997.338 63.4615C997.338 69.2462 998.277 71.3385 999.615 75.0154C1000.95 78.7077 1002.54 83.7231 1002.54 92.1231V92.2615C1002.51 95.1385 1000.14 97.4462 997.261 97.4C994.384 97.3539 992.077 95 992.123 92.1231C992.123 84.8769 991.092 82.0615 989.831 78.5692C988.569 75.0769 986.908 70.6462 986.908 63.4615C986.908 56.2615 988.4 51.0154 989.692 46.1692C990.6 42.7692 991.4 39.4923 991.815 35.3385C986.277 36.3692 981.923 38.6 976.292 39.5538C975.877 45.4923 974.754 50.1231 973.708 54.0769C972.384 59.0154 971.277 62.8769 971.277 68.6615C971.277 74.4615 972.384 78.3077 973.708 83.2615C975.031 88.2154 976.492 94.1385 976.492 102.538V102.692C976.446 105.569 974.077 107.862 971.2 107.815C968.323 107.785 966.031 105.415 966.061 102.538C966.061 95.3077 964.923 90.7846 963.631 85.9538C962.354 81.1077 960.861 75.8615 960.861 68.6615C960.861 61.4769 962.354 56.2154 963.631 51.3846C964.615 47.6923 965.508 44.1538 965.877 39.4769C960.261 38.4615 955.877 36.2 950.2 35.2462C949.738 40.7846 948.661 45.1077 947.661 48.8615C946.338 53.8154 945.215 57.6615 945.215 63.4615C945.215 69.2462 946.169 71.3385 947.508 75.0154C948.846 78.7077 950.431 83.7231 950.431 92.1231V92.2615C950.4 95.1385 948.031 97.4462 945.154 97.4C942.277 97.3539 939.969 95 940.015 92.1231C940.015 84.8769 938.985 82.0615 937.723 78.5692C936.461 75.0769 934.8 70.6462 934.8 63.4615C934.8 56.2615 936.292 51.0154 937.585 46.1692C938.477 42.7846 939.292 39.4923 939.708 35.3538C932.892 36.6769 928.985 40 926.123 40C922.646 40 919.169 36.6 919.169 27.4923C919.169 17.3385 922.323 7.89231 927.754 0H1014.8C1020.23 7.89231 1023.38 17.3385 1023.38 27.4923Z" fill="#75B7FF"/>
<path opacity="0.4" d="M558.2 0C541.8 12.9231 519.723 24.1077 498.415 28.6462C474.138 33.8154 463.815 27.5692 433.4 26.2308C374.985 23.6769 356.862 44.2462 291.338 57.5385C246.4 66.6615 194.769 77.1385 144.446 58.7385C113.246 47.3385 81.9692 24.6308 60.3384 0H558.2Z" fill="url(#paint1_linear_1600_7348)"/>
<path d="M1047.97 46.108C1051.62 46.108 1054.58 43.1462 1054.58 39.4926C1054.58 35.839 1051.62 32.8772 1047.97 32.8772C1044.32 32.8772 1041.35 35.839 1041.35 39.4926C1041.35 43.1462 1044.32 46.108 1047.97 46.108Z" fill="#D2ECFF"/>
<path d="M1081.77 0C1081.77 6.67692 1076.35 12.0923 1069.68 12.0923C1063 12.0923 1057.58 6.67692 1057.58 0H1081.77Z" fill="#99CFFF"/>
<defs>
<linearGradient id="paint0_linear_1600_7348" x1="308.313" y1="160.76" x2="1023" y2="-4.54831" gradientUnits="userSpaceOnUse">
<stop stop-color="#2A7AD7"/>
<stop offset="1" stop-color="#75B7FF"/>
</linearGradient>
<linearGradient id="paint1_linear_1600_7348" x1="60.3344" y1="34.4466" x2="558.196" y2="34.4466" gradientUnits="userSpaceOnUse">
<stop stop-color="#2A7AD7"/>
<stop offset="1" stop-color="#75B7FF"/>
</linearGradient>
</defs>
</svg>
