<svg width="56" height="56" viewBox="0 0 56 56" fill="none" xmlns="http://www.w3.org/2000/svg">
  <path
    d="M50.4206 29.2849L41.0952 23.8252V12.8816C41.0952 11.0174 40.1071 9.28208 38.5159 8.34798L30.5794 3.69756C28.9881 2.76748 27.0119 2.76748 25.4206 3.69756L17.4841 8.34798C15.8929 9.27806 14.9048 11.0174 14.9048 12.8816V23.8212L5.57937 29.2849C3.9881 30.219 3 31.9544 3 33.8186V43.1154C3 44.9795 3.9881 46.7149 5.57937 47.649L13.5159 52.2994C14.3095 52.7665 15.2024 53 16.0952 53C16.9881 53 17.881 52.7665 18.6746 52.2994L28 46.8357L37.3254 52.2994C38.119 52.7665 39.0119 53 39.9048 53C40.7976 53 41.6905 52.7665 42.4841 52.2994L50.4206 47.649C52.0119 46.7189 53 44.9795 53 43.1154V33.8186C53 31.9544 52.0119 30.219 50.4206 29.2849ZM38.6984 12.6642C38.7024 12.7367 38.7143 12.8092 38.7143 12.8816V23.8091L29.1905 29.3856V18.2326L38.6984 12.6642ZM14.9048 50.3064C14.8373 50.2742 14.7698 50.246 14.7063 50.2057L6.76984 45.5553C5.9127 45.052 5.38095 44.1179 5.38095 43.1154V33.8186C5.38095 33.7461 5.38889 33.6736 5.39683 33.6011L14.9048 39.1696V50.3064ZM6.58333 31.5074C6.64683 31.4632 6.70635 31.4189 6.76984 31.3786L16.0952 25.9149L25.623 31.4954L16.0952 37.0799L6.58333 31.5074ZM26.8095 44.746L17.4841 50.2098C17.4206 50.246 17.3532 50.2782 17.2857 50.3104V39.1696L26.8095 33.5891V44.746ZM26.8095 29.3856L17.2857 23.8091V12.8816C17.2857 12.8092 17.2937 12.7367 17.3016 12.6642L26.8095 18.2326V29.3856ZM18.4881 10.5705C18.5516 10.5262 18.6111 10.4819 18.6746 10.4417L26.6111 5.79125C27.4683 5.28796 28.5317 5.28796 29.3889 5.79125L37.3254 10.4417C37.3929 10.4819 37.4524 10.5262 37.5119 10.5705L28 16.143L18.4881 10.5705ZM38.7143 50.3064C38.6468 50.2742 38.5794 50.246 38.5159 50.2057L29.1905 44.746V33.5931L38.7143 39.1736V50.3064ZM30.377 31.4994L39.9048 25.9149L49.2302 31.3786C49.2976 31.4189 49.3571 31.4632 49.4167 31.5074L39.9048 37.0799L30.377 31.4994ZM50.619 43.1194C50.619 44.1219 50.0873 45.0601 49.2302 45.5593L41.2937 50.2098C41.2302 50.246 41.1627 50.2782 41.0952 50.3104V39.1696L50.6032 33.5971C50.6071 33.6696 50.619 33.7421 50.619 33.8145V43.1194Z"
    fill="url(#paint0_linear_2550_1641)" />
  <defs>
    <linearGradient id="paint0_linear_2550_1641" x1="28" y1="3" x2="28" y2="53" gradientUnits="userSpaceOnUse">
      <stop stop-color="white" />
      <stop offset="1" stop-color="#99CFFF" />
    </linearGradient>
  </defs>
</svg>