<svg width="211" height="488" viewBox="0 0 211 488" fill="none" xmlns="http://www.w3.org/2000/svg">
  <g clip-path="url(#clip0_2342_6200)">
    <path
      d="M-1.85906e-06 50.7344L7.10597 108.297L23.0234 162.161L31.361 199.429L40.9304 242.862L82.2398 285.346L101.568 305.545L118.149 336.081L132.74 376.194L163.911 409.29L179.449 432.05L193.093 462.87L211 488V50.7344H-1.85906e-06Z"
      fill="url(#paint0_linear_2342_6200)" />
    <path
      d="M77.5972 61.0712L86.7876 110.952L111.801 191.464L118.812 226.931L136.15 255.854L174.238 313.416L184.661 333.141L211 356.659L129.802 61.0712L101.568 56.2349L77.5972 61.0712Z"
      fill="#0A2A59" fill-opacity="0.15" />
    <path
      d="M101.568 72.8301L104.695 98.0551L111.801 139.496L129.613 182.739L146.478 237.457L159.648 255.474L179.449 289.045L193.093 318.632L201.052 326.313L211 356.659V83.1666L182.292 72.8301H101.568Z"
      fill="url(#paint1_linear_2342_6200)" />
    <path
      d="M211 0L134.729 4.07773L99.4836 16.2161L23.0234 27.2165L4.07409 35.5616L-1.85906e-06 50.7346L29.6556 61.0711H77.5972L101.568 56.2347L129.802 61.0711L107.253 67.9938L101.568 72.8302L111.801 79.658H137.572H182.008L211 83.1667V0Z"
      fill="#598CCE" />
    <path d="M111.801 79.6579L115.969 113.418L111.801 139.496L104.695 98.0551L101.568 72.8301L111.801 79.6579Z"
      fill="#598CCE" fill-opacity="0.2" />
    <path
      d="M29.2766 63.1573L25.013 102.797C25.013 102.797 28.2344 138.358 29.2766 139.401C30.3188 140.445 23.0233 162.161 23.0233 162.161L7.0112 108.297L-1.54263e-05 50.6396L29.6556 60.9762L29.2766 63.1573Z"
      fill="#598CCE" fill-opacity="0.2" />
  </g>
  <defs>
    <linearGradient id="paint0_linear_2342_6200" x1="91.9055" y1="24.9802" x2="220.801" y2="485.228"
      gradientUnits="userSpaceOnUse">
      <stop stop-color="#194A85" />
      <stop offset="1" stop-color="#0A2A59" />
    </linearGradient>
    <linearGradient id="paint1_linear_2342_6200" x1="161.085" y1="110.144" x2="242.751" y2="401.747"
      gradientUnits="userSpaceOnUse">
      <stop stop-color="#194A85" />
      <stop offset="1" stop-color="#0A2A59" />
    </linearGradient>
    <clipPath id="clip0_2342_6200">
      <rect width="211" height="488" fill="white" />
    </clipPath>
  </defs>
</svg>