<svg width="56" height="56" viewBox="0 0 56 56" fill="none" xmlns="http://www.w3.org/2000/svg">
  <path
    d="M28 2C27.1687 2 26.337 2.18312 25.5797 2.54937L9.0797 10.5439C7.2097 11.448 6 13.365 6 15.4286V24.3567C6 25.0515 6.56692 25.6124 7.26923 25.6124C7.97154 25.6124 8.53846 25.0515 8.53846 24.3567V15.4286C8.53846 14.3194 9.18997 13.2859 10.1969 12.7962L26.6969 4.80082C27.5134 4.40737 28.4866 4.40737 29.3031 4.80082L45.8031 12.7962C46.81 13.2859 47.4615 14.3152 47.4615 15.4286V26.8681C47.4615 33.13 44.5846 39.3414 39.8462 44.1759V27.0815C39.8462 26.7467 39.7104 26.4289 39.4735 26.1945L32.3663 19.1622C32.8147 18.413 33.0728 17.5465 33.0728 16.6173C33.0728 13.8463 30.7966 11.5944 27.9959 11.5944C25.1951 11.5944 22.9189 13.8463 22.9189 16.6173C22.9189 19.3882 25.1951 21.6401 27.9959 21.6401C28.9351 21.6401 29.8151 21.3806 30.5682 20.9411L37.3077 27.6006V46.4862C34.875 48.4618 32.0914 50.103 29.0494 51.2834C28.3725 51.5471 27.6274 51.5471 26.9547 51.2834C23.9762 50.1281 21.2012 48.5082 18.6923 46.4739V33.1925C20.8796 32.6316 22.5 30.6687 22.5 28.3372C22.5 25.5663 20.2238 23.3144 17.4231 23.3144C14.6223 23.3144 12.3462 25.5663 12.3462 28.3372C12.3462 30.6728 13.9665 32.6358 16.1538 33.1925V47.1729C16.1538 47.7212 16.5092 48.1859 17 48.3575C19.7331 50.5885 22.7666 52.3631 26.0243 53.6272C26.6589 53.8742 27.3274 54 27.9959 54C28.6643 54 29.3369 53.8742 29.9757 53.6272C41.7669 49.0397 50 38.0398 50 26.8681V15.4286C50 13.365 48.7903 11.448 46.9203 10.5439L30.4203 2.54937C29.663 2.18312 28.8313 2 28 2ZM28 14.1058C29.4004 14.1058 30.5385 15.2318 30.5385 16.6173C30.5385 18.0027 29.4004 19.1287 28 19.1287C26.5996 19.1287 25.4615 18.0027 25.4615 16.6173C25.4615 15.2318 26.5996 14.1058 28 14.1058ZM28 25.4072C27.2977 25.4072 26.7308 25.9681 26.7308 26.6629V35.2019C24.5435 35.7628 22.9231 37.7258 22.9231 40.0572C22.9231 42.8281 25.1992 45.08 28 45.08C30.8008 45.08 33.0769 42.8281 33.0769 40.0572C33.0769 37.7216 31.4565 35.7586 29.2692 35.2019V26.6629C29.2692 25.9681 28.7023 25.4072 28 25.4072ZM17.4231 25.8258C18.8235 25.8258 19.9615 26.9518 19.9615 28.3372C19.9615 29.7227 18.8235 30.8486 17.4231 30.8486C16.0227 30.8486 14.8846 29.7227 14.8846 28.3372C14.8846 26.9518 16.0227 25.8258 17.4231 25.8258ZM8.65828 33.2423C8.49361 33.2306 8.32358 33.2507 8.15753 33.3061C7.4933 33.528 7.13828 34.2431 7.36674 34.9003C7.85751 36.3234 8.48383 37.7387 9.22844 39.0991C9.4569 39.5176 9.89634 39.7604 10.3448 39.7604C10.5479 39.7604 10.7552 39.7097 10.9455 39.6092C11.5632 39.2785 11.7921 38.5173 11.4579 37.9104C10.7809 36.6714 10.214 35.386 9.76555 34.0926C9.60055 33.5966 9.15229 33.2775 8.65828 33.2423ZM28 37.5458C29.4004 37.5458 30.5385 38.6717 30.5385 40.0572C30.5385 41.4427 29.4004 42.5686 28 42.5686C26.5996 42.5686 25.4615 41.4427 25.4615 40.0572C25.4615 38.6717 26.5996 37.5458 28 37.5458Z"
    fill="url(#paint0_linear_2550_1631)" />
  <defs>
    <linearGradient id="paint0_linear_2550_1631" x1="28" y1="2" x2="28" y2="54" gradientUnits="userSpaceOnUse">
      <stop stop-color="white" />
      <stop offset="1" stop-color="#99CFFF" />
    </linearGradient>
  </defs>
</svg>