<svg width="56" height="56" viewBox="0 0 56 56" fill="none" xmlns="http://www.w3.org/2000/svg">
  <path
    d="M36.3333 2C30.5833 2 25.8748 6.41603 25.5415 12.07C25.5415 12.1525 25.5 12.2349 25.5 12.3175V18.9206C25.5 19.6222 26.0417 20.1587 26.75 20.1587C27.4583 20.1587 28 19.6222 28 18.9206V12.4827V12.3586C28.2083 8.06651 31.6665 4.68254 35.9582 4.47619L34.3753 10.4603C33.9587 12.0698 34.2917 13.7205 35.2917 15.0411L41.9998 23.7489C44.2915 26.7616 45.5 30.3525 45.5 34.1494C45.5 38.6065 43.7918 42.8575 40.6668 46.0765C37.3335 49.5432 32.8333 51.4827 28 51.4827C23.1667 51.4827 18.6665 49.5844 15.3332 46.0765C12.2082 42.8987 10.5 38.6476 10.5 34.1905C10.5 31.6317 11.0418 29.1559 12.1252 26.886C12.4168 26.267 12.1667 25.5241 11.5417 25.2352C10.9167 24.9464 10.1667 25.1933 9.875 25.8124C8.625 28.4536 8 31.2603 8 34.1905C8 39.3079 9.95801 44.1363 13.4997 47.8506C17.333 51.8125 22.4583 54 28 54C33.5417 54 38.667 51.8125 42.5003 47.8506C46.042 44.1363 48 39.3079 48 34.1905C48 29.8571 46.6252 25.7711 44.0002 22.3044L37.292 13.5556C36.7503 12.854 36.5832 11.946 36.7915 11.0794L38.4582 4.72365C38.6248 4.06333 38.4997 3.3619 38.083 2.8254C37.6663 2.28889 37.0417 2 36.3333 2ZM17.9015 15.4159C17.5007 15.3986 17.0934 15.5723 16.833 15.9076L14.4583 19.0448C14.0417 19.5813 14.1665 20.3651 14.7082 20.7778C14.9165 20.9429 15.2085 21.0252 15.4585 21.0252C15.8335 21.0252 16.2087 20.8605 16.4587 20.5303L18.8333 17.394C19.25 16.8575 19.1252 16.0729 18.5835 15.6602C18.3804 15.5054 18.142 15.4263 17.9015 15.4159ZM21.75 24.6984C19.4583 24.6984 17.5833 26.5556 17.5833 28.8254C17.5833 31.0952 19.4583 32.9524 21.75 32.9524C24.0417 32.9524 25.9167 31.0952 25.9167 28.8254C25.9167 26.5556 24.0417 24.6984 21.75 24.6984ZM35.2347 25.0442C34.917 25.0597 34.6045 25.194 34.3753 25.4416L19.792 41.2475C19.3337 41.7427 19.375 42.5273 19.875 42.9813C20.125 43.1876 20.4167 43.311 20.7083 43.311C21.0417 43.311 21.3747 43.1871 21.6247 42.8983L36.208 27.0924C36.6663 26.5971 36.625 25.8125 36.125 25.3586C35.875 25.1316 35.5524 25.0287 35.2347 25.0442ZM21.75 27.1746C22.6667 27.1746 23.4167 27.9175 23.4167 28.8254C23.4167 29.7333 22.6667 30.4762 21.75 30.4762C20.8333 30.4762 20.0833 29.7333 20.0833 28.8254C20.0833 27.9175 20.8333 27.1746 21.75 27.1746ZM34.25 35.4286C31.9583 35.4286 30.0833 37.2857 30.0833 39.5556C30.0833 41.8254 31.9583 43.6825 34.25 43.6825C36.5417 43.6825 38.4167 41.8254 38.4167 39.5556C38.4167 37.2857 36.5417 35.4286 34.25 35.4286ZM34.25 37.9048C35.1667 37.9048 35.9167 38.6476 35.9167 39.5556C35.9167 40.4635 35.1667 41.2063 34.25 41.2063C33.3333 41.2063 32.5833 40.4635 32.5833 39.5556C32.5833 38.6476 33.3333 37.9048 34.25 37.9048Z"
    fill="url(#paint0_linear_2550_2314)" />
  <defs>
    <linearGradient id="paint0_linear_2550_2314" x1="28" y1="2" x2="28" y2="54" gradientUnits="userSpaceOnUse">
      <stop stop-color="white" />
      <stop offset="1" stop-color="#99CFFF" />
    </linearGradient>
  </defs>
</svg>