<svg width="24" height="24" viewBox="0 0 24 24" fill="none" xmlns="http://www.w3.org/2000/svg">
  <path
    d="M12.8333 14.7778H22V5.05556C22 3.37056 20.6289 2 18.9444 2H12.8333V14.7778ZM11.1667 7.55556V2H5.05556C3.37111 2 2 3.37056 2 5.05556V7.55556H11.1667ZM11.1667 9.22222H2V18.9444C2 20.6294 3.37111 22 5.05556 22H11.1667V9.22222ZM12.8333 16.4444V22H18.9444C20.6289 22 22 20.6294 22 18.9444V16.4444H12.8333Z"
    fill="currentColor" />
  <path d="M12.8333 22V16.4444H22V18.9444C22 20.6294 20.6289 22 18.9444 22H12.8333Z" fill="currentColor" />
</svg>