<svg width="24" height="24" viewBox="0 0 24 24" fill="none" xmlns="http://www.w3.org/2000/svg">
  <path
    d="M19.7 2H4.3C2.54 2 1 3.45251 1 5.35196V18.648C1 20.5475 2.54 22 4.3 22H19.7C21.57 22 23 20.5475 23 18.648V5.35196C23 3.45251 21.57 2 19.7 2ZM19.7 18.648H4.3C3.75 18.648 3.2 18.0894 3.2 17.5307C3.2 14.514 5.4 7.58659 7.6 7.58659C9.8 7.58659 11.56 13.1732 14.2 13.1732C16.4 13.1732 17.17 12.0559 18.05 12.0559C18.93 12.0559 20.8 15.9665 20.8 17.5307C20.8 18.0894 20.36 18.648 19.7 18.648ZM19.7 6.46927C19.7 7.69832 18.71 8.70391 17.5 8.70391C16.29 8.70391 15.3 7.69832 15.3 6.46927C15.3 5.24022 16.29 4.23464 17.5 4.23464C18.71 4.23464 19.7 5.24022 19.7 6.46927Z"
    fill="currentColor" />
</svg>