<svg width="24" height="24" viewBox="0 0 24 24" fill="none" xmlns="http://www.w3.org/2000/svg">
  <path
    d="M19.2917 1.5H4.70833C2.93967 1.5 1.5 2.93967 1.5 4.70833V19.2917C1.5 21.0603 2.93967 22.5 4.70833 22.5H19.2917C21.0603 22.5 22.5 21.0603 22.5 19.2917V4.70833C22.5 2.93967 21.0603 1.5 19.2917 1.5ZM8.86225 14.044C9.18367 14.4051 9.15042 14.9575 8.78933 15.2789C8.62308 15.4271 8.41483 15.5 8.20892 15.5C7.96742 15.5 7.72708 15.4008 7.55442 15.206L5.22108 12.581C4.9265 12.2497 4.9265 11.7503 5.22108 11.419L7.55442 8.794C7.87583 8.43292 8.42883 8.40025 8.78933 8.72108C9.15042 9.0425 9.18367 9.59492 8.86225 9.956L7.04575 12L8.86225 14.044ZM13.862 7.82158L11.8431 16.5716C11.7498 16.9764 11.3898 17.25 10.9914 17.25C10.9267 17.25 10.8602 17.2424 10.7943 17.2278C10.3229 17.1188 10.0295 16.6492 10.138 16.1784L12.1569 7.42842C12.266 6.95708 12.7338 6.666 13.2063 6.77217C13.6771 6.88125 13.9705 7.35083 13.862 7.82158ZM18.7789 12.581L16.4456 15.206C16.2729 15.4008 16.0326 15.5 15.7911 15.5C15.5846 15.5 15.3769 15.4271 15.2107 15.2789C14.8496 14.9575 14.8163 14.4051 15.1378 14.044L16.9543 12L15.1378 9.956C14.8163 9.59492 14.8496 9.0425 15.2107 8.72108C15.5712 8.39908 16.1253 8.43292 16.4456 8.794L18.7789 11.419C19.0735 11.7503 19.0735 12.2497 18.7789 12.581Z"
    fill="currentColor" />
</svg>