<svg width="50" height="36" viewBox="0 0 50 36" fill="none" xmlns="http://www.w3.org/2000/svg">
  <g id="Type=Success">
    <path id="Vector"
      d="M25.9733 36C35.8933 36 43.9467 27.9467 43.9467 18.0267C43.9467 8.10667 35.9467 0 25.9733 0C16 0 8 8.05333 8 17.9733C8 27.8933 16.0533 36 25.9733 36Z"
      fill="url(#paint0_linear_1865_17898)" />
    <path id="Vector_2" fill-rule="evenodd" clip-rule="evenodd"
      d="M34.0801 11.36C33.9735 11.2533 33.8668 11.0933 33.7601 10.9866C33.6535 10.88 33.5468 10.7733 33.4401 10.6666C33.2801 10.5066 33.1735 10.4 33.0135 10.24C32.9068 10.1333 32.8001 10.08 32.6935 9.97332C32.5335 9.81331 32.3735 9.70665 32.1601 9.54665C32.0535 9.49331 32.0001 9.43998 31.8935 9.38665C31.7868 9.33331 31.6801 9.27998 31.6268 9.17332C30.8268 8.69332 29.9735 8.26665 29.0668 7.99998C28.9068 7.94665 28.8001 7.89331 28.6401 7.89331H28.5868C28.4801 7.83998 28.3201 7.83998 28.1601 7.78665C28.1068 7.78665 28.0535 7.78665 28.0001 7.73331C27.8401 7.73331 27.7335 7.67998 27.5735 7.67998C27.4135 7.67998 27.3068 7.62665 27.1468 7.62665C27.0401 7.62665 26.9335 7.62665 26.8268 7.62665C26.7201 7.62665 26.6135 7.62665 26.5068 7.62665C26.3468 7.62665 26.1335 7.62665 25.9735 7.62665C20.2135 7.62665 15.5201 12.32 15.5201 18.08C15.5201 18.24 15.5201 18.4533 15.5201 18.6133C15.5201 18.72 15.5201 18.8266 15.5201 18.9333C15.5201 19.04 15.5201 19.1466 15.5735 19.2533C15.5735 19.4133 15.6268 19.52 15.6268 19.68C15.6268 19.84 15.6801 19.9466 15.6801 20.1066C15.6801 20.16 15.6801 20.2133 15.7335 20.2666C15.7335 20.4266 15.7868 20.5333 15.8401 20.6933V20.7466C15.8935 20.9066 15.8935 21.0133 15.9468 21.1733C16.1068 21.7066 16.3201 22.1866 16.5335 22.6666C16.6401 22.8266 16.6935 22.9866 16.8001 23.1467C16.9068 23.3067 16.9601 23.4666 17.0668 23.6266C17.1735 23.7333 17.2268 23.8933 17.3335 24.0533C17.3868 24.1066 17.3868 24.16 17.4401 24.2133C17.4935 24.32 17.6001 24.48 17.7068 24.5866C17.8135 24.6933 17.8668 24.8533 17.9735 24.96C18.0268 25.0133 18.0268 25.0666 18.0801 25.0666C18.1868 25.1733 18.2935 25.3333 18.4001 25.44C18.5068 25.5466 18.6135 25.6533 18.7201 25.7066C18.8801 25.8666 19.0401 26.0266 19.2535 26.1866L29.0668 35.7333C36.5335 34.4533 42.4535 28.5333 43.7335 21.0666L34.0801 11.36ZM21.0668 17.0666C21.4935 16.64 22.1335 16.5866 22.6135 17.0133L24.8535 19.04L29.4401 14.6666C29.8668 14.24 30.5601 14.24 30.9868 14.6666C31.4135 15.0933 31.4135 15.7866 30.9335 16.2133L25.6001 21.28C25.1735 21.7066 24.5335 21.7066 24.1068 21.3333L21.1201 18.6133C20.6935 18.24 20.6401 17.5466 21.0668 17.0666Z"
      fill="url(#paint1_linear_1865_17898)" fill-opacity="0.3" />
    <path id="Vector_3" fill-rule="evenodd" clip-rule="evenodd"
      d="M33.7069 10.9866C33.6002 10.88 33.4935 10.7733 33.3869 10.6666C33.2269 10.5066 33.1202 10.4 32.9602 10.24C32.8535 10.1333 32.7469 10.08 32.6402 9.97331C32.4802 9.81331 32.3202 9.70665 32.1069 9.54665C32.0002 9.49331 31.9469 9.43998 31.8402 9.38665C31.7335 9.33331 31.6269 9.27998 31.5735 9.17331C30.7735 8.69331 29.9202 8.26665 29.0135 7.99998C28.8535 7.94665 28.7469 7.89331 28.5869 7.89331H28.5335C28.4269 7.83998 28.2669 7.83998 28.1069 7.78665C28.0535 7.78665 28.0002 7.78665 27.9469 7.73331C27.7869 7.73331 27.6802 7.67998 27.5202 7.67998C27.3602 7.67998 27.2535 7.62665 27.0935 7.62665C26.9869 7.62665 26.8802 7.62665 26.7735 7.62665C26.6669 7.62665 26.5602 7.62665 26.4535 7.62665C26.2935 7.62665 26.0802 7.62665 25.9202 7.62665C20.1602 7.62665 15.4669 12.32 15.4669 18.08C15.4669 18.24 15.4669 18.4533 15.4669 18.6133C15.4669 18.72 15.4669 18.8266 15.4669 18.9333C15.4669 19.04 15.4669 19.1466 15.5202 19.2533C15.5202 19.4133 15.5735 19.52 15.5735 19.68C15.5735 19.84 15.6269 19.9466 15.6269 20.1066C15.6269 20.16 15.6269 20.2133 15.6802 20.2666C15.6802 20.4266 15.7335 20.5333 15.7869 20.6933V20.7466C15.8402 20.9066 15.8402 21.0133 15.8935 21.1733C16.0535 21.7066 16.2669 22.1866 16.4802 22.6666C16.5869 22.8266 16.6402 22.9866 16.7469 23.1466C16.8535 23.3066 16.9069 23.4666 17.0135 23.6266C17.1202 23.7333 17.1735 23.8933 17.2802 24.0533C17.3335 24.1066 17.3335 24.16 17.3869 24.2133C17.4402 24.32 17.5469 24.48 17.6535 24.5866C17.7602 24.6933 17.8135 24.8533 17.9202 24.96C17.9735 25.0133 17.9735 25.0666 18.0269 25.0666C18.1335 25.1733 18.2402 25.3333 18.3469 25.44C18.4535 25.5466 18.5602 25.6533 18.6669 25.7066C18.8269 25.8666 18.9869 26.0266 19.2002 26.1866C21.0135 27.68 23.3069 28.5866 25.8135 28.5866C31.5735 28.5866 36.2669 23.8933 36.2669 18.1333C36.4269 15.3066 35.4135 12.8533 33.7069 10.9866ZM30.8802 16.2133L25.6002 21.28C25.1735 21.7066 24.5335 21.7066 24.1069 21.3333L21.1202 18.6133C20.6935 18.1866 20.6402 17.5466 21.0669 17.0666C21.4935 16.64 22.1335 16.5866 22.6135 17.0133L24.8535 19.04L29.4402 14.6666C29.8669 14.24 30.5602 14.24 30.9869 14.6666C31.3602 15.1466 31.3602 15.84 30.8802 16.2133Z"
      fill="white" />
    <circle id="Ellipse 12" cx="9.96875" cy="10.125" r="3.375" fill="url(#paint2_linear_1865_17898)" />
    <circle id="Ellipse 14" cx="3.78125" cy="32.625" r="3.375" fill="url(#paint3_linear_1865_17898)" />
    <circle id="Ellipse 13" cx="41.75" cy="34.5938" r="1.40625" fill="#4ADE80" />
    <circle id="Ellipse 15" cx="47.0938" cy="9.5625" r="2.25" fill="url(#paint4_linear_1865_17898)" />
  </g>

  <defs>
    <linearGradient id="paint0_linear_1865_17898" x1="8" y1="0" x2="44" y2="35.9466" gradientUnits="userSpaceOnUse">
      <stop stop-color="#75EA85" />
      <stop offset="1" stop-color="#1FBA53" />
    </linearGradient>
    <linearGradient id="paint1_linear_1865_17898" x1="25.067" y1="17.6" x2="39.2003" y2="30.1333"
      gradientUnits="userSpaceOnUse">
      <stop />
      <stop offset="1" stop-opacity="0" />
    </linearGradient>
    <linearGradient id="paint2_linear_1865_17898" x1="6.59375" y1="6.75" x2="13.3438" y2="13.5"
      gradientUnits="userSpaceOnUse">
      <stop stop-color="#75EA85" />
      <stop offset="1" stop-color="#1FBA53" />
    </linearGradient>
    <linearGradient id="paint3_linear_1865_17898" x1="0.40625" y1="29.25" x2="7.15625" y2="36"
      gradientUnits="userSpaceOnUse">
      <stop stop-color="#75EA85" />
      <stop offset="1" stop-color="#1FBA53" />
    </linearGradient>
    <linearGradient id="paint4_linear_1865_17898" x1="44.8438" y1="7.3125" x2="49.3438" y2="11.8125"
      gradientUnits="userSpaceOnUse">
      <stop stop-color="#75EA85" />
      <stop offset="1" stop-color="#1FBA53" />
    </linearGradient>
  </defs>
</svg>