<svg width="24" height="24" viewBox="0 0 24 24" fill="none" xmlns="http://www.w3.org/2000/svg">
  <g id="Upgrade">
    <path id="Exclude" fill-rule="evenodd" clip-rule="evenodd"
      d="M2.46447 2.46447C1 3.92893 1 6.28595 1 11V13C1 17.714 1 20.0711 2.46447 21.5355C3.92893 23 6.28595 23 11 23H13C17.714 23 20.0711 23 21.5355 21.5355C23 20.0711 23 17.714 23 13V11C23 6.28595 23 3.92893 21.5355 2.46447C20.0711 1 17.714 1 13 1H11C6.28595 1 3.92893 1 2.46447 2.46447ZM13.6793 15.2593C13.9058 15.2586 14.1228 15.1682 14.2827 15.0078C14.4426 14.8474 14.5324 14.6302 14.5324 14.4037V10.4673H16.3658C16.4825 10.4674 16.5966 10.4328 16.6937 10.3679C16.7907 10.3031 16.8663 10.2108 16.9108 10.1029C16.9553 9.99501 16.9668 9.87631 16.9437 9.76188C16.9207 9.64746 16.8642 9.54246 16.7813 9.4602L12.4547 5.15554C12.3338 5.03552 12.1703 4.96817 12 4.96817C11.8297 4.96817 11.6662 5.03552 11.5453 5.15554L7.21866 9.4602C7.13584 9.54246 7.07932 9.64746 7.05628 9.76188C7.03323 9.87631 7.04469 9.99501 7.08921 10.1029C7.13374 10.2108 7.20931 10.3031 7.30634 10.3679C7.40338 10.4328 7.5175 10.4674 7.63422 10.4673H9.46755V14.4037C9.46755 14.6302 9.55736 14.8474 9.71728 15.0078C9.87719 15.1682 10.0942 15.2586 10.3207 15.2593H13.6793ZM10.1227 16.6689C9.76086 16.6689 9.46756 16.9622 9.46756 17.324V18.3824C9.46756 18.7442 9.76086 19.0375 10.1227 19.0375H13.8773C14.2391 19.0375 14.5324 18.7442 14.5324 18.3824V17.324C14.5324 16.9622 14.2391 16.6689 13.8773 16.6689H10.1227Z"
      fill="currentColor" />
  </g>
</svg>