 <svg
          xmlns="http://www.w3.org/2000/svg"
          width="1300"
          height="552"
          viewBox="0 0 1300 552"
          fill="none"
        >
          <path
            fillRule="evenodd"
            clipRule="evenodd"
            d="M31.5152 0H32.5V22.6714H87.6515V0H88.6364V22.6714H143.788V0H144.773V22.6714H199.924V0H200.909V22.6714H256.061V0H257.045V22.6714H312.197V0H313.182V22.6714H368.333V0H369.318V22.6714H424.47V0H425.455V22.6714H480.606V0H481.591V22.6714H536.742V0H537.727V22.6714H592.879V0H593.864V22.6714H649.015V0H650V22.6714H705.152V0H706.136V22.6714H761.288V0H762.273V22.6714H817.424V0H818.409V22.6714H873.561V0H874.545V22.6714H929.697V0H930.682V22.6714H985.833V0H986.818V22.6714H1041.97V0H1042.95V22.6714H1098.11V0H1099.09V22.6714H1154.24V0H1155.23V22.6714H1210.38V0H1211.36V22.6714H1266.52V0H1267.5V22.6714H1300V23.6571H1267.5V78.8571H1300V79.8429H1267.5V135.043H1300V136.029H1267.5V191.229H1300V192.214H1267.5V247.414H1300V248.4H1267.5V303.6H1300V304.586H1267.5V359.786H1300V360.771H1267.5V415.971H1300V416.957H1267.5V472.157H1300V473.143H1267.5V528.343H1300V529.329H1267.5V552H1266.52V529.329H1211.36V552H1210.38V529.329H1155.23V552H1154.24V529.329H1099.09V552H1098.11V529.329H1042.95V552H1041.97V529.329H986.818V552H985.833V529.329H930.682V552H929.697V529.329H874.545V552H873.561V529.329H818.409V552H817.424V529.329H762.273V552H761.288V529.329H706.136V552H705.152V529.329H650V552H649.015V529.329H593.864V552H592.879V529.329H537.727V552H536.742V529.329H481.591V552H480.606V529.329H425.455V552H424.47V529.329H369.318V552H368.333V529.329H313.182V552H312.197V529.329H257.045V552H256.061V529.329H200.909V552H199.924V529.329H144.773V552H143.788V529.329H88.6364V552H87.6515V529.329H32.5V552H31.5152V529.329H0V528.343H31.5152V473.143H0V472.157H31.5152V416.957H0V415.971H31.5152V360.771H0V359.786H31.5152V304.586H0V303.6H31.5152V248.4H0V247.414H31.5152V192.214H0V191.229H31.5152V136.029H0V135.043H31.5152V79.8429H0V78.8571H31.5152V23.6571H0V22.6714H31.5152V0ZM32.5 528.343H87.6515V473.143H32.5V528.343ZM88.6364 528.343H143.788V473.143H88.6364V528.343ZM144.773 528.343H199.924V473.143H144.773V528.343ZM200.909 528.343H256.061V473.143H200.909V528.343ZM257.045 528.343H312.197V473.143H257.045V528.343ZM313.182 528.343H368.333V473.143H313.182V528.343ZM369.318 528.343H424.47V473.143H369.318V528.343ZM425.455 528.343H480.606V473.143H425.455V528.343ZM481.591 528.343H536.742V473.143H481.591V528.343ZM537.727 528.343H592.879V473.143H537.727V528.343ZM593.864 528.343H649.015V473.143H593.864V528.343ZM650 528.343H705.152V473.143H650V528.343ZM706.136 528.343H761.288V473.143H706.136V528.343ZM762.273 528.343H817.424V473.143H762.273V528.343ZM818.409 528.343H873.561V473.143H818.409V528.343ZM874.545 528.343H929.697V473.143H874.545V528.343ZM930.682 528.343H985.833V473.143H930.682V528.343ZM986.818 528.343H1041.97V473.143H986.818V528.343ZM1042.95 528.343H1098.11V473.143H1042.95V528.343ZM1099.09 528.343H1154.24V473.143H1099.09V528.343ZM1155.23 528.343H1210.38V473.143H1155.23V528.343ZM1211.36 528.343H1266.52V473.143H1211.36V528.343ZM1266.52 416.957V472.157H1211.36V416.957H1266.52ZM1210.38 416.957V472.157H1155.23V416.957H1210.38ZM1154.24 416.957V472.157H1099.09V416.957H1154.24ZM1098.11 416.957V472.157H1042.95V416.957H1098.11ZM1041.97 416.957V472.157H986.818V416.957H1041.97ZM985.833 416.957V472.157H930.682V416.957H985.833ZM929.697 416.957V472.157H874.545V416.957H929.697ZM873.561 416.957V472.157H818.409V416.957H873.561ZM817.424 416.957V472.157H762.273V416.957H817.424ZM761.288 416.957V472.157H706.136V416.957H761.288ZM705.152 416.957V472.157H650V416.957H705.152ZM649.015 416.957V472.157H593.864V416.957H649.015ZM592.879 416.957V472.157H537.727V416.957H592.879ZM536.742 416.957V472.157H481.591V416.957H536.742ZM480.606 416.957V472.157H425.455V416.957H480.606ZM424.47 416.957V472.157H369.318V416.957H424.47ZM368.333 416.957V472.157H313.182V416.957H368.333ZM312.197 416.957V472.157H257.045V416.957H312.197ZM256.061 416.957V472.157H200.909V416.957H256.061ZM199.924 416.957V472.157H144.773V416.957H199.924ZM143.788 416.957V472.157H88.6364V416.957H143.788ZM87.6515 416.957V472.157H32.5V416.957H87.6515ZM32.5 415.971H87.6515V360.771H32.5V415.971ZM88.6364 415.971H143.788V360.771H88.6364V415.971ZM144.773 415.971H199.924V360.771H144.773V415.971ZM200.909 415.971H256.061V360.771H200.909V415.971ZM257.045 415.971H312.197V360.771H257.045V415.971ZM313.182 415.971H368.333V360.771H313.182V415.971ZM369.318 415.971H424.47V360.771H369.318V415.971ZM425.455 415.971H480.606V360.771H425.455V415.971ZM481.591 415.971H536.742V360.771H481.591V415.971ZM537.727 415.971H592.879V360.771H537.727V415.971ZM593.864 415.971H649.015V360.771H593.864V415.971ZM650 415.971H705.152V360.771H650V415.971ZM706.136 415.971H761.288V360.771H706.136V415.971ZM762.273 415.971H817.424V360.771H762.273V415.971ZM818.409 415.971H873.561V360.771H818.409V415.971ZM874.545 415.971H929.697V360.771H874.545V415.971ZM930.682 415.971H985.833V360.771H930.682V415.971ZM986.818 415.971H1041.97V360.771H986.818V415.971ZM1042.95 415.971H1098.11V360.771H1042.95V415.971ZM1099.09 415.971H1154.24V360.771H1099.09V415.971ZM1155.23 415.971H1210.38V360.771H1155.23V415.971ZM1211.36 415.971H1266.52V360.771H1211.36V415.971ZM1266.52 304.586V359.786H1211.36V304.586H1266.52ZM1210.38 304.586V359.786H1155.23V304.586H1210.38ZM1154.24 304.586V359.786H1099.09V304.586H1154.24ZM1098.11 304.586V359.786H1042.95V304.586H1098.11ZM1041.97 304.586V359.786H986.818V304.586H1041.97ZM985.833 304.586V359.786H930.682V304.586H985.833ZM929.697 304.586V359.786H874.545V304.586H929.697ZM873.561 304.586V359.786H818.409V304.586H873.561ZM817.424 304.586V359.786H762.273V304.586H817.424ZM761.288 304.586V359.786H706.136V304.586H761.288ZM705.152 304.586V359.786H650V304.586H705.152ZM649.015 304.586V359.786H593.864V304.586H649.015ZM592.879 304.586V359.786H537.727V304.586H592.879ZM536.742 304.586V359.786H481.591V304.586H536.742ZM480.606 304.586V359.786H425.455V304.586H480.606ZM424.47 304.586V359.786H369.318V304.586H424.47ZM368.333 304.586V359.786H313.182V304.586H368.333ZM312.197 304.586V359.786H257.045V304.586H312.197ZM256.061 304.586V359.786H200.909V304.586H256.061ZM199.924 304.586V359.786H144.773V304.586H199.924ZM143.788 304.586V359.786H88.6364V304.586H143.788ZM87.6515 304.586V359.786H32.5V304.586H87.6515ZM32.5 303.6H87.6515V248.4H32.5V303.6ZM88.6364 303.6H143.788V248.4H88.6364V303.6ZM144.773 303.6H199.924V248.4H144.773V303.6ZM200.909 303.6H256.061V248.4H200.909V303.6ZM257.045 303.6H312.197V248.4H257.045V303.6ZM313.182 303.6H368.333V248.4H313.182V303.6ZM369.318 303.6H424.47V248.4H369.318V303.6ZM425.455 303.6H480.606V248.4H425.455V303.6ZM481.591 303.6H536.742V248.4H481.591V303.6ZM537.727 303.6H592.879V248.4H537.727V303.6ZM593.864 303.6H649.015V248.4H593.864V303.6ZM650 303.6H705.152V248.4H650V303.6ZM706.136 303.6H761.288V248.4H706.136V303.6ZM762.273 303.6H817.424V248.4H762.273V303.6ZM818.409 303.6H873.561V248.4H818.409V303.6ZM874.545 303.6H929.697V248.4H874.545V303.6ZM930.682 303.6H985.833V248.4H930.682V303.6ZM986.818 303.6H1041.97V248.4H986.818V303.6ZM1042.95 303.6H1098.11V248.4H1042.95V303.6ZM1099.09 303.6H1154.24V248.4H1099.09V303.6ZM1155.23 303.6H1210.38V248.4H1155.23V303.6ZM1211.36 303.6H1266.52V248.4H1211.36V303.6ZM1266.52 192.214V247.414H1211.36V192.214H1266.52ZM1210.38 192.214V247.414H1155.23V192.214H1210.38ZM1154.24 192.214V247.414H1099.09V192.214H1154.24ZM1098.11 192.214V247.414H1042.95V192.214H1098.11ZM1041.97 192.214V247.414H986.818V192.214H1041.97ZM985.833 192.214V247.414H930.682V192.214H985.833ZM929.697 192.214V247.414H874.545V192.214H929.697ZM873.561 192.214V247.414H818.409V192.214H873.561ZM817.424 192.214V247.414H762.273V192.214H817.424ZM761.288 192.214V247.414H706.136V192.214H761.288ZM705.152 192.214V247.414H650V192.214H705.152ZM649.015 192.214V247.414H593.864V192.214H649.015ZM592.879 192.214V247.414H537.727V192.214H592.879ZM536.742 192.214V247.414H481.591V192.214H536.742ZM480.606 192.214V247.414H425.455V192.214H480.606ZM424.47 192.214V247.414H369.318V192.214H424.47ZM368.333 192.214V247.414H313.182V192.214H368.333ZM312.197 192.214V247.414H257.045V192.214H312.197ZM256.061 192.214V247.414H200.909V192.214H256.061ZM199.924 192.214V247.414H144.773V192.214H199.924ZM143.788 192.214V247.414H88.6364V192.214H143.788ZM87.6515 192.214V247.414H32.5V192.214H87.6515ZM32.5 191.229H87.6515V136.029H32.5V191.229ZM88.6364 191.229H143.788V136.029H88.6364V191.229ZM144.773 191.229H199.924V136.029H144.773V191.229ZM200.909 191.229H256.061V136.029H200.909V191.229ZM257.045 191.229H312.197V136.029H257.045V191.229ZM313.182 191.229H368.333V136.029H313.182V191.229ZM369.318 191.229H424.47V136.029H369.318V191.229ZM425.455 191.229H480.606V136.029H425.455V191.229ZM481.591 191.229H536.742V136.029H481.591V191.229ZM537.727 191.229H592.879V136.029H537.727V191.229ZM593.864 191.229H649.015V136.029H593.864V191.229ZM650 191.229H705.152V136.029H650V191.229ZM706.136 191.229H761.288V136.029H706.136V191.229ZM762.273 191.229H817.424V136.029H762.273V191.229ZM818.409 191.229H873.561V136.029H818.409V191.229ZM874.545 191.229H929.697V136.029H874.545V191.229ZM930.682 191.229H985.833V136.029H930.682V191.229ZM986.818 191.229H1041.97V136.029H986.818V191.229ZM1042.95 191.229H1098.11V136.029H1042.95V191.229ZM1099.09 191.229H1154.24V136.029H1099.09V191.229ZM1155.23 191.229H1210.38V136.029H1155.23V191.229ZM1211.36 191.229H1266.52V136.029H1211.36V191.229ZM1266.52 79.8429V135.043H1211.36V79.8429H1266.52ZM1210.38 79.8429V135.043H1155.23V79.8429H1210.38ZM1154.24 79.8429V135.043H1099.09V79.8429H1154.24ZM1098.11 79.8429V135.043H1042.95V79.8429H1098.11ZM1041.97 79.8429V135.043H986.818V79.8429H1041.97ZM985.833 79.8429V135.043H930.682V79.8429H985.833ZM929.697 79.8429V135.043H874.545V79.8429H929.697ZM873.561 79.8429V135.043H818.409V79.8429H873.561ZM817.424 79.8429V135.043H762.273V79.8429H817.424ZM761.288 79.8429V135.043H706.136V79.8429H761.288ZM705.152 79.8429V135.043H650V79.8429H705.152ZM649.015 79.8429V135.043H593.864V79.8429H649.015ZM592.879 79.8429V135.043H537.727V79.8429H592.879ZM536.742 79.8429V135.043H481.591V79.8429H536.742ZM480.606 79.8429V135.043H425.455V79.8429H480.606ZM424.47 79.8429V135.043H369.318V79.8429H424.47ZM368.333 79.8429V135.043H313.182V79.8429H368.333ZM312.197 79.8429V135.043H257.045V79.8429H312.197ZM256.061 79.8429V135.043H200.909V79.8429H256.061ZM199.924 79.8429V135.043H144.773V79.8429H199.924ZM143.788 79.8429V135.043H88.6364V79.8429H143.788ZM87.6515 79.8429V135.043H32.5V79.8429H87.6515ZM32.5 78.8571H87.6515V23.6571H32.5V78.8571ZM88.6364 78.8571H143.788V23.6571H88.6364V78.8571ZM144.773 78.8571H199.924V23.6571H144.773V78.8571ZM200.909 78.8571H256.061V23.6571H200.909V78.8571ZM257.045 78.8571H312.197V23.6571H257.045V78.8571ZM313.182 78.8571H368.333V23.6571H313.182V78.8571ZM369.318 78.8571H424.47V23.6571H369.318V78.8571ZM425.455 78.8571H480.606V23.6571H425.455V78.8571ZM481.591 78.8571H536.742V23.6571H481.591V78.8571ZM537.727 78.8571H592.879V23.6571H537.727V78.8571ZM593.864 78.8571H649.015V23.6571H593.864V78.8571ZM650 78.8571H705.152V23.6571H650V78.8571ZM706.136 78.8571H761.288V23.6571H706.136V78.8571ZM762.273 78.8571H817.424V23.6571H762.273V78.8571ZM818.409 78.8571H873.561V23.6571H818.409V78.8571ZM874.545 78.8571H929.697V23.6571H874.545V78.8571ZM930.682 78.8571H985.833V23.6571H930.682V78.8571ZM986.818 78.8571H1041.97V23.6571H986.818V78.8571ZM1042.95 78.8571H1098.11V23.6571H1042.95V78.8571ZM1099.09 78.8571H1154.24V23.6571H1099.09V78.8571ZM1155.23 78.8571H1210.38V23.6571H1155.23V78.8571ZM1211.36 78.8571H1266.52V23.6571H1211.36V78.8571Z"
            fill="url(#paint0_radial_880_4187)"
            fillOpacity="0.2"
          />
          <defs>
            <radialGradient
              id="paint0_radial_880_4187"
              cx="0"
              cy="0"
              r="1"
              gradientUnits="userSpaceOnUse"
              gradientTransform="translate(650 552) rotate(-90) scale(552 947.263)"
            >
              <stop stopColor="white" />
              <stop offset="0.634388" stopColor="white" stopOpacity="0.15" />
              <stop offset="1" stopColor="white" stopOpacity="0" />
            </radialGradient>
          </defs>
        </svg>