<svg width="72" height="72" viewBox="0 0 72 72" fill="none" xmlns="http://www.w3.org/2000/svg">
  <path
    d="M9.64788 55.1129L32.5396 68.2658C33.6044 68.8803 34.8022 69.1875 36 69.1875C37.1978 69.1875 38.3956 68.8803 39.4604 68.2658L62.3521 55.1129C64.4869 53.8892 65.8125 51.6009 65.8125 49.1483V22.8478C65.8125 20.3952 64.4869 18.1121 62.3521 16.8831L39.4604 3.73024C37.3256 2.50659 34.6744 2.50659 32.5396 3.73024L9.64788 16.8831C7.51309 18.1121 6.1875 20.3952 6.1875 22.8478V49.1483C6.1875 51.6062 7.51309 53.8892 9.64788 55.1129ZM62.597 22.567C62.6023 22.6624 62.6183 22.7524 62.6183 22.8478V49.1483C62.6183 49.2489 62.6077 49.3443 62.597 49.4449L51.7048 43.1889V36.5357C51.7048 35.6563 50.9914 34.9465 50.1077 34.9465C49.224 34.9465 48.5106 35.6563 48.5106 36.5357V43.1889L42.7983 46.4732C42.037 46.9129 41.7708 47.8822 42.2127 48.645C42.5108 49.1536 43.0432 49.4396 43.5969 49.4396C43.8684 49.4396 44.1399 49.3707 44.3954 49.2277L50.1077 45.9435L60.9999 52.1994C60.9201 52.2577 60.8402 52.316 60.755 52.3637L37.8633 65.5166C37.7781 65.5642 37.6876 65.6066 37.5971 65.649V36.9277L62.597 22.567ZM37.5971 6.35764C37.6876 6.40002 37.7781 6.4371 37.8633 6.49007L60.755 19.643C60.8455 19.6959 60.9254 19.7542 61.0106 19.8125L50.1183 26.0684L37.5971 18.8749V6.35764ZM46.9242 27.9013L36 34.1784L25.0758 27.9013L36 21.6241L46.9242 27.9013ZM11.245 19.6377L34.1367 6.48477C34.2219 6.4371 34.3124 6.39472 34.4029 6.35234V18.8696L21.8817 26.0684L10.9894 19.8072C11.0746 19.7489 11.1545 19.6906 11.245 19.6377ZM9.3817 22.8478C9.3817 22.7524 9.39234 22.6571 9.40299 22.567L34.4029 36.9277V65.6437C34.3124 65.6013 34.2219 65.5642 34.1367 65.5113L11.245 52.3584C11.1598 52.3107 11.0799 52.2524 11.0001 52.1941L21.8923 45.9382L27.6046 49.2224C27.8548 49.3654 28.1316 49.4343 28.4031 49.4343C28.9568 49.4343 29.4892 49.1483 29.7873 48.6397C30.2292 47.8769 29.9683 46.9076 29.2017 46.4679L23.4894 43.1836V36.5357C23.4894 35.6563 22.776 34.9465 21.8923 34.9465C21.0086 34.9465 20.2952 35.6563 20.2952 36.5357V43.1889L9.40299 49.4449C9.39234 49.3496 9.3817 49.2489 9.3817 49.1536V22.8478Z"
    fill="url(#paint0_linear_2306_9670)" />
  <defs>
    <linearGradient id="paint0_linear_2306_9670" x1="36" y1="2.8125" x2="36" y2="69.1875"
      gradientUnits="userSpaceOnUse">
      <stop stop-color="white" />
      <stop offset="1" stop-color="#99CFFF" />
    </linearGradient>
  </defs>
</svg>