<svg width="72" height="72" viewBox="0 0 72 72" fill="none" xmlns="http://www.w3.org/2000/svg">
  <path
    d="M41.9079 2.8125C33.1692 2.8125 26.0578 9.90139 26.0578 18.6124C26.0578 27.3234 33.1692 34.4123 41.9079 34.4123C50.6467 34.4123 57.7581 27.3234 57.7581 18.6124C57.7581 9.90139 50.6467 2.8125 41.9079 2.8125ZM41.9079 5.97248C48.8979 5.97248 54.5881 11.6446 54.5881 18.6124C54.5881 25.5802 48.8979 31.2523 41.9079 31.2523C34.918 31.2523 29.2278 25.5802 29.2278 18.6124C29.2278 11.6446 34.918 5.97248 41.9079 5.97248ZM21.1624 38.5474C17.3321 38.4779 13.5187 39.6672 10.3552 42.0438C9.70539 42.5283 9.44717 43.4179 9.84342 44.1237C10.3242 44.9874 11.4437 45.1979 12.1993 44.6133C16.5528 41.2743 22.5968 41.1378 27.616 43.3656L40.3229 49.0066C40.7984 49.2173 41.1945 49.559 41.4745 49.9962C41.9501 50.744 42.0238 51.6713 41.6593 52.4824C41.3898 53.0881 40.8932 53.5779 40.2486 53.8412C39.5512 54.1256 38.7592 54.0675 38.0723 53.762L29.0586 49.7431C28.2608 49.385 27.3209 49.743 26.9669 50.5383C26.6077 51.3335 26.9668 52.2715 27.7646 52.6244L36.8836 56.6906C37.655 57.0329 38.4632 57.2008 39.2663 57.2008C40.8935 57.2008 42.4841 56.516 43.6147 55.2309C44.0004 54.7938 44.3169 54.2992 44.56 53.762C45.5532 51.5395 45.0672 48.8955 43.1916 47.1417C42.7214 46.6993 42.1612 46.3569 41.5695 46.0935L27.939 40.0472C25.7655 39.0834 23.4606 38.5891 21.1624 38.5474ZM54.3693 41.406C53.6132 41.4075 52.845 41.5566 52.1053 41.8699L48.3223 43.5127C47.5192 43.8603 47.1543 44.7931 47.503 45.5936C47.8517 46.3941 48.7864 46.7569 49.5895 46.4093L53.357 44.7717C54.699 44.2029 56.2472 44.8294 56.8283 46.1882L57.0708 46.7364L50.1075 49.6907C49.3044 50.033 48.9293 50.9596 49.2727 51.7654C49.6161 52.566 50.5467 52.9399 51.3551 52.5976L62.186 48.0006C63.5755 47.4108 65.1863 47.9737 65.7781 49.2535C66.0792 49.9066 66.1009 50.6388 65.8421 51.3077C65.5832 51.9766 65.0702 52.4975 64.4098 52.7766L34.6227 65.327C32.2293 66.3329 29.5184 66.2595 27.2043 65.1377L12.5057 57.7593C11.9774 57.496 11.3488 57.5435 10.8733 57.8858L3.47654 63.1525C2.76328 63.6528 2.59991 64.6429 3.10711 65.3486C3.61432 66.0596 4.6073 66.2225 5.32056 65.7169L11.9403 61.0036L25.804 67.9603C27.4841 68.7767 29.3069 69.1875 31.1297 69.1875C32.7358 69.1875 34.3477 68.8724 35.8641 68.2298L65.6357 55.6794C67.0939 55.0632 68.2143 53.9149 68.7902 52.4402C69.3661 50.9656 69.3124 49.3643 68.652 47.9266C67.3522 45.1089 63.8971 43.8341 60.9384 45.0875L59.988 45.4928L59.7342 44.9301C58.7951 42.726 56.6376 41.4016 54.3693 41.406Z"
    fill="url(#paint0_linear_2306_9678)" />
  <defs>
    <linearGradient id="paint0_linear_2306_9678" x1="36" y1="2.8125" x2="36" y2="69.1875"
      gradientUnits="userSpaceOnUse">
      <stop stop-color="white" />
      <stop offset="1" stop-color="#99CFFF" />
    </linearGradient>
  </defs>
</svg>