<svg width="72" height="72" viewBox="0 0 72 72" fill="none" xmlns="http://www.w3.org/2000/svg">
<path d="M36 2.8125C25.7171 2.8125 17.3201 11.0356 17.0409 21.25H16.5089C8.95482 21.25 2.8125 27.3923 2.8125 34.9464C2.8125 40.1985 5.88333 45.0556 10.6402 47.3208C10.8615 47.4261 11.0885 47.473 11.3203 47.473C11.9103 47.473 12.4787 47.1417 12.7473 46.5728C13.1214 45.7826 12.7895 44.8396 11.9994 44.4656C8.33819 42.7272 5.97321 38.9869 5.97321 34.9464C5.97321 29.136 10.6985 24.4107 16.5089 24.4107H18.6161C19.4905 24.4107 20.1964 23.7048 20.1964 22.8304V21.7768C20.1964 13.0638 27.287 5.97321 36 5.97321C44.713 5.97321 51.8036 13.0638 51.8036 21.7768V22.8304C51.8036 23.7048 52.5095 24.4107 53.3839 24.4107H55.4911C61.3015 24.4107 66.0268 29.136 66.0268 34.9464C66.0268 38.9816 63.6667 42.7168 60.0161 44.4605C59.2312 44.8345 58.8939 45.7827 59.2732 46.5676C59.6472 47.3578 60.5902 47.6897 61.3804 47.3105C66.1214 45.0453 69.1875 40.1879 69.1875 34.9464C69.1875 27.3923 63.0452 21.25 55.4911 21.25H54.9591C54.6799 11.0356 46.2829 2.8125 36 2.8125ZM36 25.9911C35.1255 25.9911 34.4196 26.697 34.4196 27.5714V56.7504C31.6962 57.4563 29.6786 59.9266 29.6786 62.8661C29.6786 66.3534 32.5127 69.1875 36 69.1875C39.4873 69.1875 42.3214 66.3534 42.3214 62.8661C42.3214 59.9266 40.3038 57.4563 37.5804 56.7504V27.5714C37.5804 26.697 36.8745 25.9911 36 25.9911ZM22.8304 35.4732C21.9559 35.4732 21.25 36.1791 21.25 37.0536V43.5808C18.5265 44.2867 16.5089 46.757 16.5089 49.6964C16.5089 53.1838 19.343 56.0179 22.8304 56.0179C26.3177 56.0179 29.1518 53.1838 29.1518 49.6964C29.1518 46.757 27.1342 44.2867 24.4107 43.5808V37.0536C24.4107 36.1791 23.7048 35.4732 22.8304 35.4732ZM49.1696 35.4732C48.2952 35.4732 47.5893 36.1791 47.5893 37.0536V43.5808C44.8658 44.2867 42.8482 46.757 42.8482 49.6964C42.8482 53.1838 45.6823 56.0179 49.1696 56.0179C52.657 56.0179 55.4911 53.1838 55.4911 49.6964C55.4911 46.757 53.4735 44.2867 50.75 43.5808V37.0536C50.75 36.1791 50.0441 35.4732 49.1696 35.4732ZM22.8304 46.5357C24.574 46.5357 25.9911 47.9528 25.9911 49.6964C25.9911 51.4401 24.574 52.8571 22.8304 52.8571C21.0867 52.8571 19.6696 51.4401 19.6696 49.6964C19.6696 47.9528 21.0867 46.5357 22.8304 46.5357ZM49.1696 46.5357C50.9133 46.5357 52.3304 47.9528 52.3304 49.6964C52.3304 51.4401 50.9133 52.8571 49.1696 52.8571C47.426 52.8571 46.0089 51.4401 46.0089 49.6964C46.0089 47.9528 47.426 46.5357 49.1696 46.5357ZM36 59.7054C37.7437 59.7054 39.1607 61.1224 39.1607 62.8661C39.1607 64.6097 37.7437 66.0268 36 66.0268C34.2563 66.0268 32.8393 64.6097 32.8393 62.8661C32.8393 61.1224 34.2563 59.7054 36 59.7054Z" fill="url(#paint0_linear_2306_9675)"/>
<defs>
<linearGradient id="paint0_linear_2306_9675" x1="36" y1="2.8125" x2="36" y2="69.1875" gradientUnits="userSpaceOnUse">
<stop stop-color="white"/>
<stop offset="1" stop-color="#99CFFF"/>
</linearGradient>
</defs>
</svg>
