<svg width="72" height="72" viewBox="0 0 72 72" fill="none" xmlns="http://www.w3.org/2000/svg">
  <path
    d="M36.0031 2.8125C35.2748 2.8125 34.5463 2.97823 33.8826 3.30935L5.43614 17.5005C3.81891 18.3046 2.8125 19.9291 2.8125 21.7319V24.5118C2.8125 27.1188 4.94071 29.2422 7.55357 29.2422H64.4464C67.0593 29.2422 69.1875 27.1188 69.1875 24.5118V21.7319C69.1875 19.9291 68.181 18.3046 66.569 17.5005L38.1226 3.30935C37.4588 2.97823 36.7314 2.8125 36.0031 2.8125ZM36 5.96402C36.2423 5.96402 36.4846 6.02098 36.7058 6.13135L65.1522 20.3225C65.6896 20.5905 66.0268 21.1327 66.0268 21.7319V24.5118C66.0268 25.3791 65.3156 26.0886 64.4464 26.0886H7.55357C6.68438 26.0886 5.97321 25.3791 5.97321 24.5118V21.7319C5.97321 21.1327 6.31044 20.5905 6.84776 20.3225L35.2942 6.13135C35.5154 6.02098 35.7577 5.96402 36 5.96402ZM14.9286 33.447C14.0541 33.447 13.3482 34.1513 13.3482 35.0237V45.2205C10.6247 45.9248 8.60714 48.3897 8.60714 51.3172C8.60714 54.7967 11.4413 57.6244 14.9286 57.6244C18.4159 57.6244 21.25 54.7967 21.25 51.3172C21.25 48.3844 19.2324 45.9196 16.5089 45.2205V35.0237C16.5089 34.1513 15.803 33.447 14.9286 33.447ZM29.1518 33.447C25.6645 33.447 22.8304 36.2747 22.8304 39.7541C22.8304 42.6869 24.8479 45.1518 27.5714 45.8508V51.8428C27.5714 52.7153 28.2773 53.4196 29.1518 53.4196C30.0263 53.4196 30.7321 52.7153 30.7321 51.8428V45.8508C33.4556 45.1465 35.4732 42.6817 35.4732 39.7541C35.4732 36.2747 32.6391 33.447 29.1518 33.447ZM43.375 33.447C42.5005 33.447 41.7946 34.1513 41.7946 35.0237V48.5373L32.3753 57.4663C31.4323 56.9039 30.3318 56.5732 29.1518 56.5732C25.6645 56.5732 22.8304 59.4009 22.8304 62.8803C22.8304 66.3598 25.6645 69.1875 29.1518 69.1875C32.6391 69.1875 35.4732 66.3598 35.4732 62.8803C35.4732 61.7188 35.1517 60.6365 34.6038 59.7062L44.4656 50.3605C44.7764 50.0609 44.9554 49.6458 44.9554 49.2148V35.0237C44.9554 34.1513 44.2495 33.447 43.375 33.447ZM57.5982 33.447C54.4006 33.447 51.8036 36.0381 51.8036 39.2285V56.0476C51.8036 59.238 54.4006 61.8292 57.5982 61.8292C60.7958 61.8292 63.3929 59.238 63.3929 56.0476V39.2285C63.3929 36.0381 60.7958 33.447 57.5982 33.447ZM29.1518 36.6005C30.8954 36.6005 32.3125 38.0144 32.3125 39.7541C32.3125 41.4938 30.8954 42.9077 29.1518 42.9077C27.4081 42.9077 25.9911 41.4938 25.9911 39.7541C25.9911 38.0144 27.4081 36.6005 29.1518 36.6005ZM57.5982 36.6005C59.0521 36.6005 60.2321 37.7779 60.2321 39.2285V56.0476C60.2321 57.4982 59.0521 58.6756 57.5982 58.6756C56.1443 58.6756 54.9643 57.4982 54.9643 56.0476V39.2285C54.9643 37.7779 56.1443 36.6005 57.5982 36.6005ZM14.9286 48.1637C16.6722 48.1637 18.0893 49.5775 18.0893 51.3172C18.0893 53.0569 16.6722 54.4708 14.9286 54.4708C13.1849 54.4708 11.7679 53.0569 11.7679 51.3172C11.7679 49.5775 13.1849 48.1637 14.9286 48.1637ZM29.1518 59.7268C30.8954 59.7268 32.3125 61.1406 32.3125 62.8803C32.3125 64.6201 30.8954 66.0339 29.1518 66.0339C27.4081 66.0339 25.9911 64.6201 25.9911 62.8803C25.9911 61.1406 27.4081 59.7268 29.1518 59.7268ZM4.39286 66.0339C3.51839 66.0339 2.8125 66.7382 2.8125 67.6107C2.8125 68.4832 3.51839 69.1875 4.39286 69.1875H18.0893C18.9638 69.1875 19.6696 68.4832 19.6696 67.6107C19.6696 66.7382 18.9638 66.0339 18.0893 66.0339H4.39286ZM40.7411 66.0339C39.8666 66.0339 39.1607 66.7382 39.1607 67.6107C39.1607 68.4832 39.8666 69.1875 40.7411 69.1875H67.6071C68.4816 69.1875 69.1875 68.4832 69.1875 67.6107C69.1875 66.7382 68.4816 66.0339 67.6071 66.0339H40.7411Z"
    fill="url(#paint0_linear_2306_9672)" />
  <defs>
    <linearGradient id="paint0_linear_2306_9672" x1="36" y1="2.8125" x2="36" y2="69.1875"
      gradientUnits="userSpaceOnUse">
      <stop stop-color="white" />
      <stop offset="1" stop-color="#99CFFF" />
    </linearGradient>
  </defs>
</svg>