<svg width="72" height="72" viewBox="0 0 72 72" fill="none" xmlns="http://www.w3.org/2000/svg">
  <path
    d="M36 2.8125C17.6995 2.8125 2.8125 17.6995 2.8125 36C2.8125 54.3005 17.6995 69.1875 36 69.1875C54.3005 69.1875 69.1875 54.3005 69.1875 36C69.1875 35.1255 68.4816 34.4196 67.6071 34.4196C66.7327 34.4196 66.0268 35.1255 66.0268 36C66.0268 52.5569 52.5569 66.0268 36 66.0268C19.4431 66.0268 5.97321 52.5569 5.97321 36C5.97321 19.4431 19.4431 5.97321 36 5.97321C44.5445 5.97321 52.6987 9.67125 58.3616 15.9821H48.9062C48.0318 15.9821 47.3259 16.688 47.3259 17.5625C47.3259 18.437 48.0318 19.1429 48.9062 19.1429H62.0759C62.9504 19.1429 63.6563 18.437 63.6563 17.5625V4.39286C63.6563 3.51839 62.9504 2.8125 62.0759 2.8125C61.2014 2.8125 60.4955 3.51839 60.4955 4.39286V13.6219C54.2479 6.80002 45.3346 2.8125 36 2.8125ZM36.0031 16.8752C34.9495 16.8752 33.8959 17.1465 32.9555 17.6891L21.6657 24.2049C19.785 25.2901 18.6161 27.3138 18.6161 29.4841V42.5159C18.6161 44.6862 19.785 46.7099 21.6657 47.7951L32.9555 54.311C33.8932 54.8535 34.9464 55.1279 36 55.1279C37.0536 55.1279 38.1067 54.8535 39.0496 54.311L50.3395 47.7951C52.2201 46.7099 53.3891 44.6862 53.3891 42.5159V29.4841C53.3891 27.3138 52.2201 25.2901 50.3395 24.2049L39.0496 17.6891C38.1093 17.1465 37.0567 16.8752 36.0031 16.8752ZM36 20.038C36.511 20.038 37.0162 20.1698 37.4692 20.4279L48.754 26.9397C49.0174 27.0925 49.2431 27.2814 49.4433 27.4974L36.0103 35.0884L22.6616 27.3873C22.8355 27.2187 23.0302 27.066 23.2409 26.9448L34.5308 20.4279C34.9838 20.1645 35.489 20.038 36 20.038ZM21.7768 30.5212L34.4196 37.8232V51.5134L23.246 45.0603C22.34 44.5335 21.7768 43.5642 21.7768 42.5159V30.5212ZM50.2232 30.69V42.5159C50.2232 43.5589 49.66 44.5336 48.754 45.0552L37.5804 51.5134V37.8335L50.2232 30.69Z"
    fill="url(#paint0_linear_2306_9668)" />
  <defs>
    <linearGradient id="paint0_linear_2306_9668" x1="36" y1="2.8125" x2="36" y2="69.1875"
      gradientUnits="userSpaceOnUse">
      <stop stop-color="white" />
      <stop offset="1" stop-color="#99CFFF" />
    </linearGradient>
  </defs>
</svg>