<svg width="20" height="20" viewBox="0 0 20 20" fill="none" xmlns="http://www.w3.org/2000/svg">
  <path
    d="M10.625 2.5C10.3454 2.5 10.1316 2.70145 10.1316 2.96488V12.0764L7.68092 9.76756C7.48355 9.58161 7.17105 9.58161 6.99013 9.76756C6.79276 9.95351 6.79276 10.2479 6.99013 10.4184L10.2796 13.5176C10.3783 13.6105 10.5099 13.657 10.625 13.657C10.7401 13.657 10.8717 13.6105 10.9704 13.5176L14.2599 10.4184C14.4572 10.2324 14.4572 9.93802 14.2599 9.76756C14.0625 9.58161 13.75 9.58161 13.5691 9.76756L11.1184 12.0764V2.96488C11.1184 2.70145 10.9046 2.5 10.625 2.5ZM16.25 17.0351C16.25 16.7717 16.0362 16.5702 15.7566 16.5702H5.49342C5.21382 16.5702 5 16.7717 5 17.0351C5 17.2986 5.21382 17.5 5.49342 17.5H15.7566C16.0362 17.5 16.25 17.2831 16.25 17.0351Z"
    fill="white" />
</svg>