<svg width="20px" height="20px" viewBox="0 0 20 20" fill="none" xmlns="http://www.w3.org/2000/svg">
  <path
    d="M2.26851 1.66709C2.16904 1.6708 2.0719 1.6982 1.98517 1.74702C1.89843 1.79585 1.82461 1.86467 1.76984 1.94778C1.71507 2.03089 1.68094 2.12588 1.67028 2.22484C1.65963 2.3238 1.67276 2.42388 1.70859 2.51674L4.00035 8.43416C4.0398 8.53567 4.10508 8.62512 4.18973 8.69364C4.27438 8.76216 4.37546 8.80737 4.48296 8.8248L10.7088 9.83559C10.8639 9.86074 10.8488 9.90551 10.8488 9.99998C10.8488 10.0945 10.8639 10.1392 10.7088 10.1644L4.48296 11.1752C4.37546 11.1926 4.27438 11.2378 4.18973 11.3063C4.10508 11.3749 4.0398 11.4643 4.00035 11.5658L1.70859 17.4832C1.66322 17.6008 1.65446 17.7293 1.68344 17.852C1.71242 17.9746 1.7778 18.0857 1.87099 18.1705C1.96418 18.2553 2.08084 18.31 2.20566 18.3274C2.33048 18.3447 2.45763 18.3239 2.57044 18.2678L17.9878 10.5591C18.0916 10.5072 18.179 10.4274 18.24 10.3286C18.301 10.2299 18.3334 10.1161 18.3334 9.99998C18.3334 9.88389 18.301 9.7701 18.24 9.67135C18.179 9.57259 18.0916 9.49279 17.9878 9.44088L2.57044 1.7322C2.47683 1.68558 2.37301 1.66319 2.26851 1.66709Z"
    fill="currentColor" />
</svg>