<svg width="238" height="40" viewBox="0 0 238 40" fill="none" xmlns="http://www.w3.org/2000/svg">
<g clip-path="url(#clip0_1077_2993)">
<path d="M74.8413 13.334H79.7385L85.3229 26.6662H81.4833L80.3069 23.8368H74.2728L73.0964 26.6646H69.2568L74.8413 13.334ZM79.2888 21.414L77.2891 16.6662L75.2909 21.414H79.2888Z" fill="#2A79D6"/>
<path d="M87.4775 13.334H99.8275V15.7585H91.3947V18.6875H98.8364V21.1103H91.3947V26.6613H87.4775V13.334Z" fill="#2A79D6"/>
<path d="M101.975 13.334H105.892V26.6662H101.975V13.334Z" fill="#2A79D6"/>
<path d="M115.583 13.334H119.796L125.379 21.334V13.334H129.298V26.6662H125.086L119.502 18.6662V26.6662H115.583V13.334Z" fill="#2A79D6"/>
<path d="M132.343 13.334H144.875V15.7585H136.262V18.485H143.901V20.9095H136.262V24.2417H144.875V26.6662H132.343V13.334Z" fill="#2A79D6"/>
<path d="M146.979 13.334H161.478V15.7585H156.188V26.6662H152.269V15.7585H146.979V13.334Z" fill="#2A79D6"/>
<path d="M167.268 13.334L169.834 22.7283L172.843 13.334H176.959L179.968 22.7283L182.534 13.334H186.355L182.731 26.6662H177.735L174.885 17.8385L172.045 26.6662H167.049L163.447 13.334H167.268Z" fill="#2A79D6"/>
<path d="M220.964 13.3029H224.883V18.449L230.074 13.2964H234.875L229.333 18.8115L235.073 26.6303H230.684L226.786 21.3176L224.886 23.2164V26.6303H220.967L220.964 13.3029Z" fill="#2A79D6"/>
<path d="M198.818 13.334H191.078L188.629 15.8597V26.6662H199.698L202.147 24.1405V13.334H198.818ZM198.233 23.6736C198.233 24.0572 197.998 24.2385 197.546 24.2385H193.236C192.787 24.2385 192.551 24.0572 192.551 23.6736V16.3266C192.551 15.943 192.787 15.7617 193.236 15.7617H197.546C197.998 15.7617 198.233 15.943 198.233 16.3266V23.6736Z" fill="#2A79D6"/>
<path d="M61.0283 18.3838V20.8083H63.5743V24.2368H58.7752C58.324 24.2368 58.0881 24.0556 58.0881 23.6719V16.3266C58.0881 15.943 58.324 15.7617 58.7752 15.7617H66.7093V13.334H56.6203L54.1709 15.8597V26.6662H65.0436L67.4931 24.1405V18.3838H61.0283Z" fill="#2A79D6"/>
<path d="M215.471 21.6164H218.117V13.334H207.635L205.186 15.8597V26.6662H209.104V21.6164H211.239L214.472 26.6662H218.704L215.471 21.6164ZM214.204 18.6254C214.204 19.0107 213.97 19.1919 213.519 19.1919H209.111V15.7634H213.519C213.97 15.7634 214.204 15.9446 214.204 16.3283V18.6254Z" fill="#2A79D6"/>
<path d="M19.4578 0V20.7347L12.7572 34.5469H5.33133L2.43066 29.262L19.4578 0Z" fill="#2A79D6"/>
<path d="M24.1953 0V20.7347L30.896 34.5535H38.3171L41.2193 29.2686L24.1953 0Z" fill="#2A79D6"/>
<path d="M20.6154 28.6776L16.1045 37.9837L17.3157 40H26.3407L27.5504 37.9804L23.0395 28.6743L20.6154 28.6776Z" fill="#2A79D6"/>
</g>
<defs>
<clipPath id="clip0_1077_2993">
<rect width="237.5" height="40" fill="white"/>
</clipPath>
</defs>
</svg>
