<svg width="238" height="40" viewBox="0 0 238 40" fill="none" xmlns="http://www.w3.org/2000/svg">
<g clip-path="url(#clip0_1077_2978)">
<path d="M74.9985 13.334H79.9061L85.5023 26.6662H81.6546L80.4757 23.8368H74.4289L73.25 26.6646H69.4023L74.9985 13.334ZM79.4555 21.414L77.4515 16.6662L75.4491 21.414H79.4555Z" fill="white"/>
<path d="M87.6621 13.334H100.038V15.7585H91.5875V18.6875H99.0449V21.1103H91.5875V26.6613H87.6621V13.334Z" fill="white"/>
<path d="M102.189 13.334H106.115V26.6662H102.189V13.334Z" fill="white"/>
<path d="M115.827 13.334H120.049L125.644 21.334V13.334H129.571V26.6662H125.35L119.754 18.6662V26.6662H115.827V13.334Z" fill="white"/>
<path d="M132.621 13.334H145.18V15.7585H136.548V18.485H144.204V20.9095H136.548V24.2417H145.18V26.6662H132.621V13.334Z" fill="white"/>
<path d="M147.289 13.334H161.818V15.7585H156.517V26.6662H152.59V15.7585H147.289V13.334Z" fill="white"/>
<path d="M167.621 13.334L170.193 22.7283L173.207 13.334H177.333L180.347 22.7283L182.919 13.334H186.748L183.116 26.6662H178.11L175.254 17.8385L172.408 26.6662H167.402L163.792 13.334H167.621Z" fill="white"/>
<path d="M221.429 13.3029H225.356V18.449L230.558 13.2964H235.369L229.816 18.8115L235.567 26.6303H231.169L227.263 21.3176L225.359 23.2164V26.6303H221.432L221.429 13.3029Z" fill="white"/>
<path d="M199.237 13.334H191.481L189.026 15.8597V26.6662H200.119L202.573 24.1405V13.334H199.237ZM198.651 23.6736C198.651 24.0573 198.415 24.2385 197.962 24.2385H193.644C193.193 24.2385 192.957 24.0573 192.957 23.6736V16.3266C192.957 15.943 193.193 15.7617 193.644 15.7617H197.962C198.415 15.7617 198.651 15.943 198.651 16.3266V23.6736Z" fill="white"/>
<path d="M61.156 18.3838V20.8083H63.7074V24.2368H58.8982C58.446 24.2368 58.2096 24.0556 58.2096 23.6719V16.3266C58.2096 15.943 58.446 15.7617 58.8982 15.7617H66.849V13.334H56.7388L54.2842 15.8597V26.6662H65.1798L67.6344 24.1405V18.3838H61.156Z" fill="white"/>
<path d="M215.925 21.6164H218.576V13.334H208.073L205.618 15.8597V26.6662H209.545V21.6164H211.684L214.924 26.6662H219.165L215.925 21.6164ZM214.656 18.6254C214.656 19.0107 214.421 19.1919 213.969 19.1919H209.551V15.7634H213.969C214.421 15.7634 214.656 15.9446 214.656 16.3283V18.6254Z" fill="white"/>
<path d="M19.4986 0V20.7347L12.7838 34.5469H5.34232L2.43555 29.262L19.4986 0Z" fill="white"/>
<path d="M24.2461 0V20.7347L30.9609 34.5535H38.3976L41.3059 29.2686L24.2461 0Z" fill="white"/>
<path d="M20.6581 28.6776L16.1377 37.9837L17.3515 40H26.3955L27.6077 37.9804L23.0873 28.6743L20.6581 28.6776Z" fill="white"/>
</g>
<defs>
<clipPath id="clip0_1077_2978">
<rect width="238" height="40" fill="white"/>
</clipPath>
</defs>
</svg>
