<svg width="57" height="56" viewBox="0 0 57 56" fill="none" xmlns="http://www.w3.org/2000/svg">
  <path
    d="M10.5919 4C10.1732 4 9.75484 4.22809 9.56453 4.64681L4.61654 14.5437C4.42623 14.9625 4.46369 15.4576 4.76819 15.8002L15.9963 29.1988C16.2247 29.4653 16.5295 29.6174 16.872 29.6174C17.1385 29.6174 17.4051 29.5416 17.5954 29.3512C18.0902 28.9325 18.1284 28.2096 17.7478 27.7528L7.16636 15.1147C7.05217 15.0005 7.05232 14.8484 7.12845 14.6962L10.5919 7.80651C10.7061 7.57812 11.0483 7.53961 11.2386 7.72994L24.6747 24.1745L24.865 24.4028C25.0933 24.6692 25.3981 24.8213 25.7407 24.8213C26.0071 24.8213 26.2729 24.7455 26.4632 24.5552C26.958 24.1365 26.9963 23.4128 26.6156 22.956L21.5918 16.8277C21.3634 16.5993 21.5535 16.2188 21.858 16.2188H31.4499C32.0589 16.2188 32.6295 15.7617 32.6676 15.1526C32.7056 14.5055 32.1728 13.9349 31.5257 13.9349H25.2835L19.1178 6.32183H43.1345C43.439 6.32183 43.6296 6.70233 43.4393 6.93072L30.5363 22.7278L30.3839 22.9181C29.9652 23.4129 30.0036 24.1744 30.4984 24.5931C30.7267 24.7834 30.9545 24.8593 31.2209 24.8593C31.5635 24.8593 31.8683 24.7071 32.0966 24.4407L45.7609 7.72994C45.9512 7.50155 46.2554 7.54006 46.4076 7.80651L49.8711 14.6962C49.9472 14.8484 49.9093 15.0005 49.8332 15.1147L39.3283 27.6762C38.9097 28.1711 38.9859 28.8948 39.4807 29.2754C39.9755 29.6941 40.6984 29.6178 41.079 29.123L52.2313 15.8002C52.5358 15.4576 52.574 14.9625 52.3837 14.5437L47.4357 4.64681C47.2454 4.26616 46.8644 4 46.4076 4H10.5919ZM28.4808 26.877C21.5536 26.877 15.9205 32.5106 15.9205 39.4385C15.9205 46.3664 21.5536 52 28.4808 52C35.408 52 41.0411 46.3664 41.0411 39.4385C41.0411 32.5106 35.408 26.877 28.4808 26.877ZM28.4808 29.1609C34.152 29.1609 38.7574 33.7668 38.7574 39.4385C38.7574 45.1102 34.152 49.7161 28.4808 49.7161C22.8096 49.7161 18.2042 45.1102 18.2042 39.4385C18.2042 33.7668 22.8096 29.1609 28.4808 29.1609Z"
    fill="url(#paint0_linear_2470_2221)" />
  <defs>
    <linearGradient id="paint0_linear_2470_2221" x1="28.5" y1="4" x2="28.5" y2="52" gradientUnits="userSpaceOnUse">
      <stop stop-color="white" />
      <stop offset="1" stop-color="#99CFFF" />
    </linearGradient>
  </defs>
</svg>