<svg width="57" height="56" viewBox="0 0 57 56" fill="none" xmlns="http://www.w3.org/2000/svg">
  <path
    d="M28.5 2C25.5207 2 23.1207 4.39365 23.1207 7.36508C23.1207 10.3365 25.5207 12.7302 28.5 12.7302C31.4793 12.7302 33.8793 10.3365 33.8793 7.36508C33.8793 4.39365 31.4793 2 28.5 2ZM28.5 4.47619C30.1138 4.47619 31.3966 5.75556 31.3966 7.36508C31.3966 8.9746 30.1138 10.254 28.5 10.254C26.8862 10.254 25.6034 8.9746 25.6034 7.36508C25.6034 5.75556 26.8862 4.47619 28.5 4.47619ZM20.3486 10.4716C20.1081 10.4532 19.8619 10.5017 19.6447 10.6256L17.4933 11.8637C16.914 12.1938 16.7072 12.9778 17.0383 13.5556C17.2452 13.9683 17.7002 14.1746 18.114 14.1746C18.3209 14.1746 18.5277 14.1332 18.7346 14.0094L20.886 12.7713C21.4654 12.4411 21.6721 11.6571 21.3411 11.0794C21.1342 10.7183 20.7495 10.5022 20.3486 10.4716ZM36.6514 10.4716C36.2505 10.5022 35.8658 10.7183 35.6589 11.0794C35.3279 11.6571 35.5346 12.4411 36.114 12.7713L38.2654 14.0094C38.4723 14.1332 38.6791 14.1746 38.886 14.1746C39.2998 14.1746 39.7135 13.9683 39.9617 13.5556C40.2928 12.9778 40.086 12.1938 39.5067 11.8637L37.3553 10.6256C37.1381 10.5017 36.8919 10.4532 36.6514 10.4716ZM9.87931 12.3175C6.9 12.3175 4.5 14.7111 4.5 17.6825C4.5 20.654 6.9 23.0476 9.87931 23.0476C12.8586 23.0476 15.2586 20.654 15.2586 17.6825C15.2586 14.7111 12.8586 12.3175 9.87931 12.3175ZM47.1207 12.3175C44.1414 12.3175 41.7414 14.7111 41.7414 17.6825C41.7414 20.654 44.1414 23.0476 47.1207 23.0476C50.1 23.0476 52.5 20.654 52.5 17.6825C52.5 14.7111 50.1 12.3175 47.1207 12.3175ZM9.87931 14.7937C11.4931 14.7937 12.7759 16.073 12.7759 17.6825C12.7759 19.2921 11.4931 20.5714 9.87931 20.5714C8.26552 20.5714 6.98276 19.2921 6.98276 17.6825C6.98276 16.073 8.26552 14.7937 9.87931 14.7937ZM47.1207 14.7937C48.7345 14.7937 50.0172 16.073 50.0172 17.6825C50.0172 19.2921 48.7345 20.5714 47.1207 20.5714C45.5069 20.5714 44.2241 19.2921 44.2241 17.6825C44.2241 16.073 45.5069 14.7937 47.1207 14.7937ZM28.5 16.8571C22.1276 16.8571 16.9138 22.0571 16.9138 28.4127C16.9138 34.7683 22.1276 39.9683 28.5 39.9683C34.8724 39.9683 40.0862 34.7683 40.0862 28.4127C40.0862 22.0571 34.8724 16.8571 28.5 16.8571ZM28.5 19.3333C29.7414 19.3333 30.9002 19.5806 31.976 20.0346V20.6956C31.976 21.1908 31.6862 21.6854 31.1897 21.8917C30.1552 22.3457 29.1209 22.0983 28.6657 23.2951C28.3346 24.1617 29.286 26.5967 30.4033 26.5967C31.8516 26.5967 32.5555 23.6667 32.9693 23.6667C33.2589 23.6667 33.6721 24.533 34.1686 25.1933C34.4997 25.6473 35.0376 25.8954 35.6169 25.8954H36.569L37.1897 26.0606C37.4793 26.7622 37.6035 27.5873 37.6035 28.4127C37.6035 33.4063 33.5069 37.4921 28.5 37.4921C26.969 37.4921 25.5204 37.1206 24.2376 36.4603H24.2796C24.6107 36.254 24.9829 36.0478 25.3553 35.8002C25.645 35.5938 25.8517 35.3457 26.0172 35.0981C26.2241 34.7679 26.4314 34.3968 26.5555 33.9841C27.3003 31.1778 24.8586 31.0541 24.7759 30.4351C24.6931 29.7335 25.6038 29.2379 26.1417 28.6602C26.6796 28.0824 26.8452 27.2571 26.5555 26.7619C25.6452 25.1524 23.4931 25.9781 23.3276 27.7114C23.2034 28.7432 22.5829 29.8157 22.045 30.3109C21.5071 30.8475 20.4726 30.5591 20.1829 29.7749C19.8519 28.9083 20.9691 28.5781 20.8036 27.5051C20.7622 27.2162 20.4309 27.0506 20.0585 27.0094L19.4378 27.0505C20.1826 22.6759 23.9483 19.3333 28.5 19.3333ZM9.87931 25.5238C9.17586 25.5238 8.63793 26.0603 8.63793 26.7619V29.2381C8.63793 29.9397 9.17586 30.4762 9.87931 30.4762C10.5828 30.4762 11.1207 29.9397 11.1207 29.2381V26.7619C11.1207 26.0603 10.5828 25.5238 9.87931 25.5238ZM47.1207 25.5238C46.4172 25.5238 45.8793 26.0603 45.8793 26.7619V29.2381C45.8793 29.9397 46.4172 30.4762 47.1207 30.4762C47.8241 30.4762 48.3621 29.9397 48.3621 29.2381V26.7619C48.3621 26.0603 47.8241 25.5238 47.1207 25.5238ZM35.1619 28.9592C34.6695 28.9829 33.9828 29.2226 33.0517 29.8571C32.3483 30.3524 31.0657 29.3205 30.5277 30.1046C29.9898 30.8475 32.7621 33.0759 33.6724 32.6219C35.2448 31.879 36.2376 30.3525 36.2376 29.816C36.2635 29.4807 35.9826 28.9197 35.1619 28.9592ZM9.87931 32.9524C6.9 32.9524 4.5 35.346 4.5 38.3175C4.5 41.2889 6.9 43.6825 9.87931 43.6825C12.8586 43.6825 15.2586 41.2889 15.2586 38.3175C15.2586 35.346 12.8586 32.9524 9.87931 32.9524ZM47.1207 32.9524C44.1414 32.9524 41.7414 35.346 41.7414 38.3175C41.7414 41.2889 44.1414 43.6825 47.1207 43.6825C50.1 43.6825 52.5 41.2889 52.5 38.3175C52.5 35.346 50.1 32.9524 47.1207 32.9524ZM9.87931 35.4286C11.4931 35.4286 12.7759 36.7079 12.7759 38.3175C12.7759 39.927 11.4931 41.2063 9.87931 41.2063C8.26552 41.2063 6.98276 39.927 6.98276 38.3175C6.98276 36.7079 8.26552 35.4286 9.87931 35.4286ZM47.1207 35.4286C48.7345 35.4286 50.0172 36.7079 50.0172 38.3175C50.0172 39.927 48.7345 41.2063 47.1207 41.2063C45.5069 41.2063 44.2241 39.927 44.2241 38.3175C44.2241 36.7079 45.5069 35.4286 47.1207 35.4286ZM18.0307 41.8367C17.6298 41.8673 17.2452 42.0833 17.0383 42.4444C16.7072 43.0222 16.914 43.8062 17.4933 44.1363L19.6447 45.3744C19.8516 45.4983 20.0585 45.5397 20.2654 45.5397C20.6791 45.5397 21.0928 45.3333 21.3411 44.9206C21.6721 44.3429 21.4654 43.5589 20.886 43.2287L18.7346 41.9906C18.5174 41.8668 18.2712 41.8183 18.0307 41.8367ZM38.9693 41.8367C38.7288 41.8183 38.4826 41.8668 38.2654 41.9906L36.114 43.2287C35.5346 43.5589 35.3279 44.3429 35.6589 44.9206C35.9072 45.3333 36.3209 45.5397 36.7346 45.5397C36.9415 45.5397 37.1484 45.4983 37.3553 45.3744L39.5067 44.1363C40.086 43.8062 40.2928 43.0222 39.9617 42.4444C39.7548 42.0833 39.3702 41.8673 38.9693 41.8367ZM28.5 43.2698C25.5207 43.2698 23.1207 45.6635 23.1207 48.6349C23.1207 51.6063 25.5207 54 28.5 54C31.4793 54 33.8793 51.6063 33.8793 48.6349C33.8793 45.6635 31.4793 43.2698 28.5 43.2698ZM28.5 45.746C30.1138 45.746 31.3966 47.0254 31.3966 48.6349C31.3966 50.2444 30.1138 51.5238 28.5 51.5238C26.8862 51.5238 25.6034 50.2444 25.6034 48.6349C25.6034 47.0254 26.8862 45.746 28.5 45.746Z"
    fill="url(#paint0_linear_2470_2017)" />
  <defs>
    <linearGradient id="paint0_linear_2470_2017" x1="28.5" y1="2" x2="28.5" y2="54" gradientUnits="userSpaceOnUse">
      <stop stop-color="white" />
      <stop offset="1" stop-color="#99CFFF" />
    </linearGradient>
  </defs>
</svg>