<svg width="57" height="56" viewBox="0 0 57 56" fill="none" xmlns="http://www.w3.org/2000/svg">
  <path
    d="M28.5 3C28.0754 3 27.6866 3.22628 27.4723 3.59136L13.5834 27.4009C13.4207 27.6787 13.3807 28.0076 13.464 28.3131C13.5474 28.6226 13.7536 28.8846 14.0314 29.0393L18.46 31.5156C19.0354 31.8371 19.7577 31.6306 20.0791 31.0552C20.4005 30.4798 20.1941 29.7576 19.6187 29.4362L16.2503 27.5512L27.3095 8.59508V31.0002C27.3095 31.6589 27.8413 32.1907 28.5 32.1907C29.1587 32.1907 29.6905 31.6589 29.6905 31.0002V8.59508L40.7497 27.5559L37.3766 29.4408C36.8012 29.7583 36.5995 30.4838 36.9209 31.0552C37.1392 31.4441 37.5436 31.6668 37.9603 31.6668C38.1587 31.6668 38.3575 31.6188 38.54 31.5156L42.9725 29.0393C43.2503 28.8846 43.4565 28.6226 43.5398 28.3131C43.6232 28.0036 43.5792 27.6747 43.4205 27.4009L29.5316 3.59136C29.3133 3.22628 28.9246 3 28.5 3ZM12.4239 20.9261C12.345 20.9334 12.2656 20.948 12.1868 20.9719C10.8296 21.3806 9.60296 21.8413 8.5355 22.3452C7.94026 22.627 7.68642 23.3334 7.96816 23.9287C8.17054 24.3612 8.59939 24.6115 9.04781 24.6115C9.21844 24.6115 9.3888 24.5754 9.55546 24.496C10.5158 24.0436 11.6313 23.6227 12.8773 23.2497C13.5043 23.0632 13.8615 22.4011 13.671 21.7702C13.5043 21.2181 12.9761 20.8755 12.4239 20.9261ZM44.5738 20.9261C44.0235 20.8755 43.4918 21.2181 43.3252 21.7702C43.1347 22.4011 43.4917 23.0631 44.1227 23.2536C48.4401 24.5512 51.119 26.373 51.119 28C51.119 29.5 48.7581 31.2146 44.9605 32.4844C40.5796 33.9408 34.7341 34.746 28.5 34.746C22.2659 34.746 16.4204 33.9408 12.0395 32.4844C8.24188 31.2146 5.88095 29.5 5.88095 28C5.88095 27.3413 5.34921 26.8095 4.69048 26.8095C4.03175 26.8095 3.5 27.3413 3.5 28C3.5 33.9286 16.381 37.127 28.5 37.127C40.619 37.127 53.5 33.9286 53.5 28C53.5 25.1587 50.4125 22.6623 44.8094 20.9719C44.731 20.948 44.6524 20.9334 44.5738 20.9261ZM21.926 39.2181C21.6977 39.2029 21.463 39.2534 21.2502 39.377C20.6827 39.7063 20.4922 40.4363 20.8216 41.0038L27.4762 52.4086C27.6865 52.7737 28.0754 53 28.5 53C28.9246 53 29.3134 52.7737 29.5277 52.4086L36.1823 41.0038C36.5117 40.4363 36.3212 39.7063 35.7537 39.377C35.1862 39.0476 34.4562 39.2381 34.1269 39.8056L28.5 49.4487L22.877 39.8056C22.6687 39.4509 22.3066 39.2433 21.926 39.2181Z"
    fill="url(#paint0_linear_2470_1215)" />
  <defs>
    <linearGradient id="paint0_linear_2470_1215" x1="28.5" y1="3" x2="28.5" y2="53" gradientUnits="userSpaceOnUse">
      <stop stop-color="white" />
      <stop offset="1" stop-color="#99CFFF" />
    </linearGradient>
  </defs>
</svg>