<svg width="57" height="56" viewBox="0 0 57 56" fill="none" xmlns="http://www.w3.org/2000/svg">
  <path
    d="M40.036 4C37.5064 4 35.4506 6.04905 35.4506 8.57037C35.4506 11.0917 37.5064 13.1407 40.036 13.1407C42.5657 13.1407 44.6215 11.0917 44.6215 8.57037C44.6215 6.04905 42.5657 4 40.036 4ZM40.036 6.28518C41.3009 6.28518 42.3288 7.30971 42.3288 8.57037C42.3288 9.83103 41.3009 10.8555 40.036 10.8555C38.7712 10.8555 37.7433 9.83103 37.7433 8.57037C37.7433 7.30971 38.7712 6.28518 40.036 6.28518ZM20.93 9.71296C18.4004 9.71296 16.3446 11.762 16.3446 14.2833C16.3446 16.8046 18.4004 18.8537 20.93 18.8537C23.4597 18.8537 25.5155 16.8046 25.5155 14.2833C25.5155 11.762 23.4597 9.71296 20.93 9.71296ZM20.93 11.9981C22.1949 11.9981 23.2228 13.0227 23.2228 14.2833C23.2228 15.544 22.1949 16.5685 20.93 16.5685C19.6652 16.5685 18.6373 15.544 18.6373 14.2833C18.6373 13.0227 19.6652 11.9981 20.93 11.9981ZM33.1579 19.2346C30.6282 19.2346 28.5724 21.2836 28.5724 23.8049C28.5724 26.3262 30.6282 28.3753 33.1579 28.3753C35.6875 28.3753 37.7433 26.3262 37.7433 23.8049C37.7433 21.2836 35.6875 19.2346 33.1579 19.2346ZM33.1579 21.5197C34.4227 21.5197 35.4506 22.5443 35.4506 23.8049C35.4506 25.0656 34.4227 26.0901 33.1579 26.0901C31.8931 26.0901 30.8652 25.0656 30.8652 23.8049C30.8652 22.5443 31.8931 21.5197 33.1579 21.5197ZM17.7447 29.8415C14.9592 29.7973 12.1868 30.6736 9.89409 32.416C9.37058 32.8121 9.28682 33.5706 9.72243 34.0734C10.1198 34.5342 10.8343 34.576 11.3196 34.2065C14.3154 31.948 18.3045 31.4906 21.7398 33.0141L31.6294 37.4059C31.9733 37.5583 32.2598 37.8054 32.4623 38.1215C32.8062 38.6624 32.8596 39.3329 32.5959 39.9195C32.3666 40.4336 31.9199 40.8256 31.3391 40.9817C30.8996 41.0998 30.433 41.0351 30.0203 40.8523L23.4825 37.9385C22.9055 37.6796 22.2257 37.9384 21.9697 38.5135C21.7137 39.0887 21.9696 39.767 22.5466 40.0221L29.1419 42.9627C29.6998 43.2102 30.2843 43.3316 30.8652 43.3316C32.0421 43.3316 33.1924 42.8364 34.0102 41.9071C34.2891 41.591 34.518 41.2333 34.6938 40.8449C35.4122 39.2338 35.057 37.3218 33.7005 36.0536C33.3566 35.7336 32.9515 35.486 32.5235 35.2955L22.6727 30.9268C21.0922 30.2255 19.416 29.868 17.7447 29.8415ZM41.7608 31.9005C41.2148 31.9057 40.6681 32.0185 40.1465 32.2375L37.4112 33.4254C36.8304 33.6768 36.5664 34.3514 36.8186 34.9303C37.0708 35.5092 37.7469 35.7716 38.3277 35.5202L41.0525 34.336C41.5225 34.1379 42.0423 34.1336 42.5124 34.324C42.9862 34.5145 43.3569 34.8766 43.5595 35.3603L43.7348 35.7568L38.6986 37.8932C38.1178 38.1407 37.8465 38.8108 38.0948 39.3936C38.3432 39.9763 39.0195 40.2429 39.5965 39.9953L47.4299 36.6702C48.4349 36.2437 49.6007 36.6515 50.0286 37.577C50.2464 38.0493 50.2614 38.5788 50.0742 39.0625C49.8869 39.5462 49.5166 39.9229 49.039 40.1248L27.5067 49.2082C25.7757 49.9357 23.815 49.8826 22.1413 49.0714L11.5106 43.7355C11.1285 43.5451 10.6739 43.5795 10.3299 43.827L4.98026 47.6357C4.4644 47.9975 4.34624 48.7135 4.71308 49.2239C5.07991 49.738 5.79809 49.8558 6.31395 49.4902L11.1016 46.0817L21.1286 51.1126C22.3437 51.7029 23.6621 52 24.9804 52C26.142 52 27.3079 51.7721 28.4008 51.3075L49.9331 42.2314C50.9877 41.7858 51.7974 40.9554 52.2139 39.889C52.6266 38.8226 52.5923 37.6646 52.1146 36.6249C51.1746 34.5872 48.6757 33.6653 46.5358 34.5718L45.8484 34.8611L45.6648 34.4542C45.2254 33.4259 44.4115 32.6259 43.3721 32.207C42.8524 31.9975 42.3068 31.8953 41.7608 31.9005Z"
    fill="url(#paint0_linear_2470_1951)" />
  <defs>
    <linearGradient id="paint0_linear_2470_1951" x1="28.5" y1="4" x2="28.5" y2="52" gradientUnits="userSpaceOnUse">
      <stop stop-color="white" />
      <stop offset="1" stop-color="#99CFFF" />
    </linearGradient>
  </defs>
</svg>